<?xml version="1.0" encoding="UTF-8"?><svg id="b" xmlns="http://www.w3.org/2000/svg" viewBox="0 0 509.23 483.35"><g id="c"><g><path d="M288.69,38.21c121.5-.02,220.02,98.45,220.04,219.96,.02,121.5-98.45,220.02-219.96,220.04-121.5,.02-220.02-98.45-220.04-219.96,0-36.53,9.08-72.49,26.45-104.63l77.42,41.83c-34.66,64.14-10.76,144.23,53.38,178.88,64.14,34.66,144.23,10.76,178.88-53.38s10.76-144.23-53.38-178.88c-19.28-10.42-40.86-15.87-62.78-15.87l-.02-88Z" fill="#002b45" stroke="#fff" stroke-linejoin="round"/><path d="M95.28,153.43c14.51-26.79,34.43-50.28,58.49-68.97l53.98,69.5c-14.44,11.21-26.39,25.31-35.1,41.38l-77.38-41.91Z" fill="#7cb5ec" stroke="#fff" stroke-linejoin="round"/><path d="M153.95,84.33c21.86-16.94,46.71-29.61,73.27-37.34l24.61,84.49c-15.93,4.64-30.84,12.24-43.96,22.41l-53.91-69.55Z" fill="#90ed7d" stroke="#fff" stroke-linejoin="round"/><path d="M227.43,46.93c9.65-2.8,19.49-4.94,29.43-6.39l12.75,87.07c-5.97,.87-11.87,2.16-17.66,3.84l-24.52-84.51Z" fill="#f7a35c" stroke="#fff" stroke-linejoin="round"/><path d="M257.08,40.5c3.99-.58,8-1.05,12.02-1.41l7.86,87.65c-2.41,.22-4.81,.5-7.21,.85l-12.66-87.08Z" fill="#8085e9" stroke="#fff" stroke-linejoin="round"/><path d="M269.31,39.07c2.7-.24,5.41-.43,8.12-.57l4.52,87.88c-1.63,.08-3.25,.2-4.87,.34l-7.77-87.66Z" fill="#f15c80" stroke="#fff" stroke-linejoin="round"/><path d="M277.65,38.49c1.76-.09,3.52-.16,5.28-.2l2.32,87.97c-1.06,.03-2.11,.07-3.17,.12l-4.43-87.89Z" fill="#e4d354" stroke="#fff" stroke-linejoin="round"/><path d="M283.15,38.28c1.76-.04,3.52-.07,5.28-.07l.12,88c-1.06,0-2.11,.02-3.17,.04l-2.23-87.97Z" fill="#2b908f" stroke="#fff" stroke-linejoin="round"/></g><g id="d"><path d="M424.07,476.36h-7.13l-15.63-29.14" fill="none" stroke="#002b45"/><path d="M61.75,143.21l54.67-31.23,4.57,3.88" fill="none" stroke="#7cb5ec"/><path d="M74.94,98.76l111.19-41.92,2.72,5.35" fill="none" stroke="#90ed7d"/><path d="M80.84,67.92l122.05-23.82,39.2-.89" fill="none" stroke="#f7a35c"/><path d="M91.64,42.95l170.83-5.63,.75,2.37" fill="none" stroke="#8085e9"/><path d="M124.45,22.94l148.5,7.35,.58,8.45" fill="none" stroke="#f15c80"/><path d="M181.94,9.29l98.5,10.16v18.91" fill="none" stroke="#e4d354"/><path d="M295.47,9.29l-9.51,9.97v18.96h0" fill="none" stroke="#2b908f"/></g><g id="e"><text transform="translate(431.23 479.21)" font-family="Arial-BoldMT, Arial" font-size="11"><tspan x="0" y="0">China</tspan></text><text transform="translate(23.01 145.8)" font-family="Arial-BoldMT, Arial" font-size="11"><tspan x="0" y="0">Japan</tspan></text><text transform="translate(0 102.91)" font-family="Arial-BoldMT, Arial" font-size="11"><tspan x="0" y="0">South Korea</tspan></text><text transform="translate(35.05 71.99)" font-family="Arial-BoldMT, Arial" font-size="11"><tspan x="0" y="0" letter-spacing="-.07em">T</tspan><tspan x="5.9" y="0">aiwan</tspan></text><text transform="translate(38.96 46.99)" font-family="Arial-BoldMT, Arial" font-size="11"><tspan x="0" y="0" letter-spacing="-.02em">V</tspan><tspan x="7.14" y="0">ietnam</tspan></text><text transform="translate(65.02 24.46)" font-family="Arial-BoldMT, Arial" font-size="11"><tspan x="0" y="0">Indonesia</tspan></text><text transform="translate(129.9 10.87)" font-family="Arial-BoldMT, Arial" font-size="11"><tspan x="0" y="0">Malaysia</tspan></text><text transform="translate(299.95 9.44)" font-family="Arial-BoldMT, Arial" font-size="11"><tspan x="0" y="0">Others</tspan></text></g></g></svg>