<?xml version="1.0" encoding="UTF-8"?><svg id="b" xmlns="http://www.w3.org/2000/svg" viewBox="0 0 599.46 485.78"><g id="c"><g><path d="M313.85,36.28c123.99-.03,224.52,100.47,224.55,224.45,.03,123.99-100.47,224.52-224.45,224.55-76.78,.02-148.25-39.21-189.46-104l75.77-48.2c39.93,62.77,123.18,81.28,185.95,41.35,62.77-39.93,81.28-123.18,41.35-185.95-24.73-38.87-67.61-62.41-113.68-62.4l-.02-89.8Z" fill="#002b45" stroke="#fff" stroke-linejoin="round"/><path d="M124.35,381.1c-54.9-86.49-44.29-199.18,25.8-273.9l65.5,61.43c-42.05,44.83-48.42,112.44-15.48,164.34l-75.82,48.13Z" fill="#7cb5ec" stroke="#fff" stroke-linejoin="round"/><path d="M150.3,107.03c10.26-10.91,21.58-20.78,33.81-29.44l51.91,73.27c-7.33,5.2-14.13,11.11-20.28,17.66l-65.44-61.5Z" fill="#90ed7d" stroke="#fff" stroke-linejoin="round"/><path d="M184.29,77.47c6.05-4.28,12.31-8.25,18.75-11.91l44.34,78.09c-3.87,2.2-7.62,4.58-11.25,7.15l-51.84-73.33Z" fill="#f7a35c" stroke="#fff" stroke-linejoin="round"/><path d="M203.24,65.45c5.67-3.21,11.47-6.17,17.39-8.88l37.3,81.69c-3.55,1.62-7.04,3.4-10.43,5.33l-44.26-78.14Z" fill="#8085e9" stroke="#fff" stroke-linejoin="round"/><path d="M220.84,56.48c5.93-2.7,11.97-5.14,18.1-7.31l29.98,84.65c-3.68,1.3-7.31,2.77-10.86,4.39l-37.22-81.72Z" fill="#f15c80" stroke="#fff" stroke-linejoin="round"/><path d="M239.15,49.09c5.72-2.02,11.51-3.8,17.37-5.35l22.95,86.82c-3.52,.93-6.99,2-10.42,3.21l-29.9-84.68Z" fill="#e4d354" stroke="#fff" stroke-linejoin="round"/><path d="M256.74,43.68c5.36-1.41,10.76-2.62,16.21-3.63l16.38,88.29c-3.27,.61-6.51,1.33-9.72,2.18l-22.86-86.84Z" fill="#2b908f" stroke="#fff" stroke-linejoin="round"/><path d="M273.17,40.01c4.56-.84,9.15-1.54,13.76-2.1l10.78,89.15c-2.76,.33-5.52,.75-8.25,1.26l-16.29-88.31Z" fill="#f45b5b" stroke="#fff" stroke-linejoin="round"/><path d="M287.15,37.88c8.77-1.05,17.59-1.59,26.43-1.6l.12,89.8c-5.3,0-10.59,.33-15.86,.96l-10.7-89.16Z" fill="#91e8e1" stroke="#fff" stroke-linejoin="round"/></g><g id="d"><path d="M546.56,384.68l-30.61-8.52-5.32-7.23" fill="none" stroke="#002b45"/><path d="M55.52,236.83l28.89,2.26,5.97,.56" fill="none" stroke="#7cb5ec"/><path d="M73.6,163.78l88.95-76.85,3.94,4.53" fill="none" stroke="#90ed7d"/><path d="M83.22,133.77l107.17-67.6,3.21,5.07" fill="none" stroke="#f7a35c"/><path d="M97.69,108.18l111.56-52.77,2.72,5.35" fill="none" stroke="#8085e9"/><path d="M112.73,84.65l114.97-37.64,2.24,5.56" fill="none" stroke="#f15c80"/><path d="M134.33,63.91l111.78-23.43,1.76,5.73" fill="none" stroke="#e4d354"/><path d="M164.39,40.05l99.22-4.21,1.31,5.86" fill="none" stroke="#2b908f"/><path d="M204.27,21.25s71.13,7.53,74.37,7.53l1.53,10.05" fill="none" stroke="#f45b5b"/><path d="M309.14,6.28l-8.71,10.39,.07,20.01" fill="none" stroke="#91e8e1"/></g><g id="e"><text transform="translate(552.39 389.28)" font-family="Arial-BoldMT, Arial" font-size="11"><tspan x="0" y="0">Australia</tspan></text><text transform="translate(15.39 243.28)" font-family="Arial-BoldMT, Arial" font-size="11"><tspan x="0" y="0">Brazil</tspan></text><text transform="translate(0 166.26)" font-family="Arial-BoldMT, Arial" font-size="11"><tspan x="0" y="0">South</tspan><tspan x="31.16" y="0" letter-spacing="-.04em"> </tspan><tspan x="33.81" y="0">Africa</tspan></text><text transform="translate(33.87 135.89)" font-family="Arial-BoldMT, Arial" font-size="11"><tspan x="0" y="0">Canada</tspan></text><text transform="translate(63.6 111.25)" font-family="Arial-BoldMT, Arial" font-size="11"><tspan x="0" y="0">Peru</tspan></text><text transform="translate(64.6 88.25)" font-family="Arial-BoldMT, Arial" font-size="11"><tspan x="0" y="0">Ukraine</tspan></text><text transform="translate(100.6 66.25)" font-family="Arial-BoldMT, Arial" font-size="11"><tspan x="0" y="0">India</tspan></text><text transform="translate(127.6 43.25)" font-family="Arial-BoldMT, Arial" font-size="11"><tspan x="0" y="0">Chile</tspan></text><text transform="translate(148.6 21.25)" font-family="Arial-BoldMT, Arial" font-size="11"><tspan x="0" y="0">Malaysia</tspan></text><text transform="translate(315.55 9.44)" font-family="Arial-BoldMT, Arial" font-size="11"><tspan x="0" y="0">Others</tspan></text></g></g></svg>