<svg fill="none" xmlns="http://www.w3.org/2000/svg" viewBox="0 0 911 846"><g clip-path="url(#a)"><path d="M229.3 393.2v3l-.7 2.4v1.9l-1.2-4.6-1.5-2v-.7h.4l1.5-.7h.8l.7.7ZM297.6 170H295l-2 2.3-1 .8-1.6.4-2.3 1.1-.4 2v1l-.4 1.6-3 2.3H283l-.3-1.2h-.8l-.8.4h-.7l-.8.4h-1.1l-1.2-.8h-1.1v.8l.7 3v1.6l-3 3.8v3l-.8 2-1.9 1.9-3.8 3.8H266l-1.6 1.1-3 7.3v2.3l-.4 1.9v1.5l-1.1 3.4-1.6 1.6v1.5l1.6 3.8v.8l1.1 2.3.8 1.1.7 1.5 2.7 3.9 1.5 1.1 1.6.8 2.6 3.8 1.6 1.9-.8 1.5.4 3-2-1v.3l2.7 2 3.9 6 2.6 2.7 3.5 3.8.7 3 3 2 3.1 3v.8l.8.8 2.3 1.5 1.5 1.9v1.5h3.4l1.2 1.5 1.1 2 .8 1h.8l.3 1.6v.8l2 2.3 1.1 2.3 2 3.8 1.4 1.9 1.6 1.1 1.1.8 1.2 3.8.7 3.8 1.5 3.8 1.2 2v3.4l.8 3.4.7 2.3.4 2.3v1.2l.8.7.7 3.8v2l-.7-1.6v5.4l.3 2.6v3.5l.4 1.1 1.2 3.8.7 1.6v5l.4 2.2-1.1-1.5-.8-1.5-.8.7-1.1 1.2 1.5 5.3-1.5-.4v6.9l.8 1.5v1.5l-.8-.7v-1.2.8l-.8 1.1v2.7l.4 1.2v1.1L316 370h-1.6v2.3l-.7 2.7-3 .4-2 2.7-2.7.7-2.2 2.3-2.3 2.3h-2l-1 .4-1.6 3.8h-3l-4.6 3-1.6 1.6-1.5.4-2.3 1.1-1.1-1.5h-2l-.7-1.6V389l-.4-.4-.4.8-.4 3.4v.8l-1.1.4-1.5-1.2-1.6-1.9-1.9 1.6h2.3l.8 1.5v.7l-.4 1.2h-2.3l-2.3-.4h-.7l2.6 1.5 2 .8 1 .8v.7l-1 1.2-1.2 1.5v1.5l-1.1 1.2-.8-.4-2-1.5-4.9-5.8.8 1.6 5.3 6.5 1.2 2.2v1.6l-.8.7-.7.8h-2l-3-2.3-4.6-5.7-1.5-.8 4.6 6.5.7 1.5.8 2v1l-.4 1.2-11.4 5.8-2 2.6-1.5 3.5-2.3 1.5-1.1 1.5-3.8 1.2-2.3-.4 2.3-3-1.6-1.2v-7.7l.8-8.3 1.2-4.2 1.5-1.2 1.9-.8v-1.9l-1.2-1.5-1.1-.4-1.5-.4-1.2-1.9h-1.1l-1.5.8-.8-.8v-1l-1.5-1.5-1.6-1.6h.8l.8-1.1.7-1.2h5l.8-1.1 1.5-1.5 1.1-.8V383h2l2.2 1.2h.4l1.1-1.6h1.6l1.9-.7h3l.8 1.1.8 1.2h.3l1.2-.4.8.7 1.9 1.2h1.1l-.4-2.7.4-1.9-1.1-1.1-3.5-3.5-.4-1.1v-3.8l-.3-1.6v-1.5h1.5l.4-.8 1.1-1.5h1.5l2.3 1.2 2 .3h.7v-1.1l.4-3.4v-.8h3.8l1.1-.4 1.2-1.5 2.7-.4 2.3-1.9 1.5-2.3 1.1-.4 1.2-.3h.7l1.2 1.1.7-.8 1.2-1.1.4-1.5.4-2V347l-.8-2.3-.4-1.9V341l1.2-3.8 1.1-4.6V331l-1.5-2.7-.8-3.4-1.5-3.8-.8-1.2v-1.1l.4-3.8v-1.2l1.5-1.5.8-2 .8-2.2v-4.2l-.4-1.1-.4-1.2v-.8l1.1-.7.8-1.2.8-1.5v-2.7l-1.2-1.5-1.9-1.5-1.9-2-1.1-1-.8-1.2-.8-1.5v-2l3-1.5.5-.4.3-1.1v-.8l-.7-.7h-1.2l-1.1-1.2-2.7-3-1.1-.8-1.2-.8-.4-.7-.7-2.3-.4-.4-.8.8-.7.7h-.8l-.8-.7v-1.2l-.7-1.1-1.2-1.2v-4.5l-.3-1.6-.8-.3-.8-.4-1.5-3-.8-1.6-4.5-3.8-.4-.8-1.2-1.5-2.3-2.7-1.1-1.9-1.1-1.9-.4-1.5v-1.6l-1.6-1.9-.7-1.5-1.2-.4h-.7l-1.2-1.1-1.9-2.3-.7-1.2-.4-1.1v-.8l.4-1.5.7-.8v-.7l-.7-.8-2-.7-4.5-2-1.6-1.1-1.5-1.5-1.1-.8-5.8-4.6-1.5-.7-1.5-.8-.4-.8v-.7h.8l1.5-1.5.4-1.2v-1.5l-.8-2 .4-.3h3.8l5 1.5h.4l2.6-3 1.2-1.6v-1.5l.7-.8 1.2-1.5v-1.1l-.4-2-.8-.3-.3-.4H243V194l-.4-.8-.8-1.1-1.9-.8h-1.5l-.4-.4.4-1.1 1.1-.8 1.2-.4.7-1.1v-.8l-.7-.7-1.2-1.2-1.9-1.5-2.3-2-1.5-.7h-.8l-3 1.5-1.5 1.2-1.2 1.9H226l-1.2-.8-1.5-.7-3.8-1.6-1.9-.7-3.8-6.5v-5l.7-1.1.8-1.2v-2.3l-.4-.7h-.7l-.8-.4v-1.5h-.4l-.7 1.9-.4.8h-1.2l-.4-.8v-1.2l-.3-1.9-.8-.7-1.5-1.2-.4-1.5-2.3-3-2-2.3-.7-2 .8-.7.8-.8 1.1-1.9 1.5-1.9.4-1.1.4-.4.8-.4h.7l1.2 1.1 2.3.8 1.5 1.5.7 1.2.8 1.1.8.4h.4l1.1-.8 1.1-1.1v-.8l1.2-1.1 1.1-1.2.4-1.1h.8l1.9 3.4h1.1l.8-2.6.8-1.2v.4l4.5 5h.8v-.4l.8-.8V146l1.1-2 1.5-.7h.8l.4.8 1.1 1.1h1.2l2.6-1.9h2.7l.8-1.1 1.1-.8V139l.4-1.5.8-.8.7-.7 1.2-.4 3.4-2 .8-.7.4-.4 1.5.8 1.1 1.5 1.2 1.2.4 1.1v1.1l2.6.8 1.6 1.2.7 1.1h1.2l.7-.4.8-.7h2.3l.7.3 1.2 2h1.1l2-.4 1.5-.4 1.5.7 2.3 2-.8 1.1-.4 1.5-1.1 1.2h-.8l-.7 1.5v3.4h.7l.8 1.2v6h.8l.7-.3h.8l1.5 1.2.8.3h.7l.4.8.4 1.1.8.8 1.9 1.5h1.5l1.1 2.3 1.6-.7.4.7h2.6l2.3-.7h.4l1.9 1.9 1.1.7Zm-24.8 258.4h-.7v-.3l1.1-1.6v1.6l-.4.3Zm9.6-34.3-1.5 1.1V394l1.1-.8.4-.4h.4l-.4 1.2Zm-3-210-1.2-.7-.4-.4v-1.1l1.1 1.1.4 1.2Zm12.1-8-2.2 2.3H288l.8-2.6.4-.8 1.5.8.7.3Zm-1.5 5.8-.7.3H288l1.2-.7.7-1.5h.8v.7l-.8 1.2Zm-8 3.8h-.8l-1.1-2 .4-.7 1.9.8v1.5l-.4.4ZM204.9 366l-.4 2.3-.7-1.1v-.8l.3-.4h.8Zm-3-6h-2l-.7-2.8v-.7h.7l1.2 1.5.4 1.1.3.8Zm-71 80v1.6h-.8l-.8.8-.7-2.7.7-4.2v-.8l.8 1.2 1.5.4-.7 2.6v1.2Zm37-248.8v1.5l.7-.4.8-1.5.8-.7h.7l1.2.7.7 2.3 1.2 1.2.8 1.1v.8l-.8 1.9-.8 1.9-1.1 2.7v2.2l1.9 2 1.5 1.1h2.3l.8-.8.7-.7 1.2-.4h.7l3 .8 1.2.3v1.6l-.3 3 .3 2.3.8 2.7v2.3l-1.1 3.8-1.2 3-.8 2-.7 1-.4.5v.7l.8 1.2.7 1.5v2.7l-.7 2.3-2 5-1.9 3.8 1.2 1 1.1.9 1.2.3h1.1l2.3-2.6 2-2 2.2-1.8 2.3-1.6.8-1.1.7-1.5.8-.8.8.4 1.5-.4 1.5-2 1.2-.7h.7l1.2 1.2 1.9 2.3 1.9 1.1 1.5.8.8.7v2h1.1v-.4l.8-.8 1.5-1.2 1.5-.7h1.6l1.1-.8.8-2.3.7-1.5.8-.8 1.1-.3.4-.8-.4-.4v-.8l.4-.7h3.5l2.3.7 2.6 1.2 2 .8.7-.8 1.5 2.3 2.7 4.6 1.9 3.8 1.5 1.9 2 1.9 1.8 1.5 1.6 1.5 1.1 3.5-1.1 4.6v8.4l1.1 3.8 2 2.6 1 2 .5 1.5 1.9 1.5 3 1.2 1.2 1.1-.8.8v1.1l.8 1.2.7.7 2 1.2.7.7.4.8v1.5l-.4 2-.8 1.5-1.1 1.1v2l-.4 2.6.8 1.9v3.8l-.8 3.8v1.2l-.4 1.1-1.1 1.5-1.2.8-1.5 1.1h-1.1v.4l-1.2 1.2-.7 1.1h-.8l-.4-.4-.4-.7v-1.6l-1.9-.7-1.5-.8-3.4.8-2.7.4-3-.4-3.1.4H225l-2.3-1.2h-1.1l-2 .8-1.8.4h-2l-2.6 1.9-2.3 2.3-.8 1.5-1.1 1.5-1.1 2.7-2 2.7-1.5 1.1.4.4v1.1H201v7.7l1.1 2.3.8 1.5.4 3.8v3l2.3 2 1.1 1.5.8 1.5v.8l-.8 2.7.4 3.4 3 7.2v.4l-.7-1.1-1.5-2.7V360l-2.3-3-.8-.8-.4.8-.7.7-1.6-1.1-1.5-1.6-1.5-3v.8l-.4.3-1.5-2.2-2-1.6-1.5-.7-.7-.8-.8-.8-1.9-1.1-5 1.1-6-1.1-2.4.8-.7-.4-.8-1.6.8-1.9v-4.2l1.1-3-.4-2.7.4-.8v-1.5l-.7-.7-3.9-1.2-1.1-1.1-1.1 1.1h-5l-2 1.2-1.8 1.5-.8 2.3 1.2 1.5.3 2.7-1.9 5.3v12.2l-1.1 2.3-1.5 2.3-.8 3.8-1.5 1.6-2 3.8-1 5-.8 2.2-.8 4.2-3.8 6.5-.8 3.8-1.1 1.2.3 1.1v2l-.3 4.5v6.5l1.5 3.8v1.5l-.4 2 1.2.7h1.1l5.7-1.5 2 .4.3 1.9.8 1.9.7 8.8v1.9l1.6 1.5 1.1 1.5h.4v-1.5l1.1 2 .8 3 2.7 16.8.7 1.9.8 2.3-2-1.2v-3.8l-.7-1.5h-1.5v-.8l.8-1.1V445l-1.2-1.1-1.9.7v2.7l.8 2 2.6 4.5 1.2 2 .8.7 1.9-.4 1.9 2 1.5 1.8 3.8 2.7h2.3l2.7-.8h1.5l2 1.2 1.8 2.3 3 5.7 5.4 4.6-.7 1.1v2l-2.3 2.2-.4 1.2-.8 1.9-1.5.7h-2.3l-.8-1.9-.7-.4-3 .8-2.4 1.1-.4 1.2-.7 1.1-.8.8h-.7l-.4-.8-1.2-1.1-.7-.8v-1.5l1.9-2.3v-5.7h-.8l-.7-.4h-2l-1.1-1.5v-2l-.8-.7-.7-.4-1.6.4h-1.1l-3.8-1.9-1.2-3H161l-.4.7-.4 3.4-.3.8-4.2-6.5-3-2.7.7-4.5-1.2-.8h-1.1l-.8-1.5.8-2.7-1.2.4h-1.5l-1.1-.8-1.2-3.8-.4-1.5-1.5-2h-1.9l-.4-1v-2.4l-1.1-1.5-1.5-1.5-1.6-.8-1.5-3.8-1.1-1.1-.8-.8-1.5.4-.4 1.5-1.2 1.1h-.7l-1.2-.7-.7-3.8v-7.3l1.5-3.8 1.1-6.5 1.6-3.8.7-1.5 1.2-5.8 2.6-6.8.4-1.6.4-1.5.8-1.9V384l1.9-1.6 2.7-2.6 2.6-3.9 3-5.3 1.6-3.4.8-1.2h.7l.8-1.1.8-1.6v-.3l-1.2-6.5-1.1-2v-2.2l-.4-2-.4-1.5v-1.5l-.4-1.1-1.1-1.2-1.5-1.9-.8-2.7V339l-.4-1.5-.4-1.5.4-1.6.8-1.1v-9.5l-1.2-2.3-1.1-2.7-1.2-2-3.8-3.7-2.3-2.7-1.1-2.3-1.5-2.7-1.2-1.9-1.1-2.6-.8-3.1v-4.6l.8-.7.7-.8h.8l2.3-1.5h1.5v-3.9l.4-4.2.4-3.8.4-1.9 3.8-2.6 1.1-1.2v-3l-.4-.4-2.6 2.3-.4-.8-1.2-3.8v-1.2l-1.1-1.1-.4-2v-3.4l-.8-1.5-2.6-3.8-1.6-2-1.5-2.6-2.3-3.4-1.9-3-1.1-2h-.4v-1.1l.8-2v-2.2l-1.6-2.7v-2.3h-1.9l-1.1-1.5-1.2-2.7v-.7h.4l1.5.7h.4l1.2-.7 1.5-.4h1.1v-8.8l1.6-2.7v-2.6l.3-3.9 2-2.6 1.1-1.2.8-1.9.3-.4h1.2l1.9 1.6h4.2l4.6-1.2h2.7l.7-.8.4-1.1.8-3.4v-.8l.7-.4h2.3l1.2.4h1.9l1.1-.4.4-.7V192l-.4-2h1.2l1.9.8h2.3l.7-1.1 1.2-.8h1.1l.8 1.2 1.9 1.1ZM160.6 405v.3l-.7-.7-.4-.8-.4-.8h1.1l.4 1.2v.8Zm0 2.2v1.2l-.4 1.5-1.5.8-.7-1.2v-1.9h1.9l.7-.4Zm-8.8 61.5-.7-1.5.8-2.3.7 2.6-.8 1.2Zm-17.5-29L133 436l1.2 1.1v2.7Zm-4.2-23h-1.2v-.7l.4-.7h.4v1.1l.4.4Zm12.2 30.2.4 2.3-.4-.4-.8-1.1v-1.5l.8.7Zm368.3-302.6-.7 2.2-.8 2.7v6.9l-.8 2.3-1.5-.8-.8-1.5-.3-2.3-1.2-3-.7-1.2-1.6-1.5-1.5-.8-1.1-1.1-.8-1.6-.8-1.9-1.5-5.3-.8-1.2-.3-1.1V131l.7-2-.4-2.6v-3l7.3-16 1.9-3.5 1.1-1.5 1.2-2 .8-2.2 1.1-2.3.8-.8 4.5-1.9 1.2-1.9 1.1-.4h1.2l.7.8.8.7.8.8 1.9.8 1.1 1.1v1.5l-.7 1.6-.4 1.5v5.7l-1.2 5.4-1.1 3-.4 1.5-.4 3.9-.7 3.8-.8 5.3-.8 5-.7 2.3-.8 1.9-2.3 3.8-2.3 3Zm-43.5-37 .8 1.5-.4.7-2.3-.4v-.7h.8l1.1-1.2Zm112.6-273.7.8-.4v-.8l-.4-1.9 1.1-1.1 1.6-2.7 1.1-1.5.8-1.6 1.1-.7 1.2-.4 1.9-.4h3.8l2.7-.8h.7l2 .4h1.8l.8-.7 1.1-.8.4-1.1.8-2.3.8-1.6.3-.3 4.6 8.7 3.8 5.4 3.8 4.2 5 7.6 1.5 4.6.4 2.7 1.2 3.8v11.8l.3 1.5.4.8h.8l.4-.4 1.1-.4v2l-.7 5.3-.4 3.8-1.2 3.8-1.5 3-2 1.2-1.4.8h-5l-2.3.4-.7.7v3.9h-.4l-2-.4H608l-.8-.4-1.2-2h-1l-1.1 1.6H601l-.8 1.2v1.5l1.5 1.1v1.2l-1.5.7-1.1-1.5-.8-1.5h-.8l-.7.7v1.6l.4 1.1.7 1.2-.7 1.5v1.1l-1.2.8-2.3-1.5v-1.2l.8-1.1v-2l-3.4 3.1-1.6 3.8-1.1-.3-.4-.8-.8-.4-1.9 2.3-.3 1.5h-.8l-.4-.4v-1.5l-.8-1.5-2.2-1.5-1.2-2v-.7h3.8l-.4-.8h-.7l1.1-.7.8-.8-.8-.4-.7.8-1.2-.4-.4-2.3-1.1-2.3-.8-1.9.8-1.5.4-2 .7-3 .4-.7 1.5-.8v-.8l-.3-.3h-1.6v-1.2l.8-.4.8-1.1 1.9-1.2v-2.6H583v-1.6l.8-.7v-.4l-1.5-1.2-1.2-1.5v-4.6l-.3-1.1-.8-2.3-.4-1.9h-.8l-.7.8-2.7-.8h-.8v-1.5l.4-2 2-1.8h1l.8-1.2h1.6l1.5.8h1.5l1.2 2.3h.4v-.4l1.1-1.2v-.7l-1.5-.4-1.2-2.7-.4-1.1-.3-.4v-2.3l-1.2-2.3-.7-.8v-1.9l-1.2-1.5-.4-.8-.4-1.1v-.4l.8-.4v-.3Zm37.4 58-1.1 1.5-2.3-1.5-.4-.8 1.1-1.5 1.2-1.5h.7l.8 3.8Zm-10.3.7v2h-1.1l-.8-1.2-.4.8h-.4l-.7-1.6v-1.1l.7-1.1 1.2.7h1.1l.4 1.5Zm-27 10.3-1.2.4-.4-.4h-.8v-1.1l2-2v-.7h1.5l.7 1.2-.7 1.5-1.2 1.1Zm-1.6-68.3v2.7h-.8v-.8l-1.1-2.3.4-1.1 1.5.8v.7Zm9.5 68.7v.8h-1.1l-.8-.8v-1h.8l1.1 1.1Zm15.3-6.5v.4l-.8-.7.8-1.2v1.5Zm-24-37v1.5l-1.2-.7-.8-3 1.2.7.7 1.5Zm-.8 35.9v.8H577l-.7-1.6v-1.1l-1.2-.4 1.2-1.1 1.5 1.5.4 1.9Zm66.4-60.3-.8.7-.7-.3v-1.6h1.5v1.2ZM582.8-74l-.8.4h-.4l-1.1-1.5v-1.5l2.3-2.3 5.3-2h.8l2.3.4.7 1.6-.4 1.1-.3 1.2-2.7 1.5-2 .7-3.7.4ZM225 575.3l-2.6 1.5-3-1.5 1-2h3.5l1.1.8.4.8-.4.4Zm290.1-350.4 2.7 1.1 5.7 3.5 2.3.7 1.9.8h2l1.4-.8.4-1.1 1.2-2.3h1.1l.8.4.7 1.1v3.5l-1.1 1.5-.8 1.9v8l.4 2 1.2 2.6.7.8 1.5 1.1.4.8v1.1l.4 1.5h1.2l.7.8v1.5l-.7 1.2-.4 3.8-3 7.6v1.6l-1.6 3.8-2.7.4-3 1.9-1.6 1.1-1.5 2-.4 1.8.4 1.2.4 1.1v1.2l-.4.7-1.5 2.3-.4 2-.8.7v2.3l.4 1.1 2.3 4.2 2 3.8.3.8v.8l-.8 1.1v2l.4 1.8 2 5v1.1l1 1.2.8 1.1 1.2.8 2.7 1.1 1.1.4h1.1v-.8l1.2-.3V316l-1.4-1v-.8l.7-.8h.8l1.5-1.9 2-1.1h2.2l2.3.4 1.5.7 1.6 1.2 1.1 2.3 1.1 2.3v3.4l.8.8h2.3l.8-2v-1.9l-.8-.7.4-1.2.7-.7 1.2.7.8 1.2 3.8 1.1h.7l1.6 1.2.7.7-.7 1.6-3.5.3-.7 1.6 1.1 2.3 1.5 1.5 1.2 1.5 1.1 2v1.4l-.4 1.6h2.7l2 1.5h1.4v4.6l-1.1 4.6-1.9-.4-1.1-2v-2.2l.7-2.3-.4-.4h-1.1l-.8.8h-3l-3.8-2.3h-1.6l-.4-1.2v-2.3l-1.9-2.6v-1.2l-.7-.7-4.6-2.7-.4-.8-1.5-2.3-3.5-3-.7-.4h-1.2v2l.4 1v2.4l2 1.9v.7l1 2.3.5 3-1.2 1.2-1.5-1.1v-1.2l-.4-1.1-1.5-2.3-.8-.8-3-2.3-2.3-2.6-5-2.7h-1.9l-2.3 1.9-.8 1.1v1.6l-1.9 1.5h-2.3l-1.9-.8-1.5-1.5H516l-2-2.3h-1.8l-1.2 2-.8-3.9v-3.8l.4-1.5.8-.8 3.8-4.2.4-1.5V305l-1.2-1.5-1.5-.7h-1.5l-1.2-1.2-1.1-1.1-.4 2.3.8 3.4v2.3l-.4.7h-2l-.7-.7-.7-2.3-1.6-1.5-.3-2.3h-2l-1.1-1.2-.8-2.3v-3l-.7-2.3-.8-2-.4-1.8-1.1-8v-.8l-.4-.8-1.1-.7-.4-1.2v-6l.7-.5.8.8.8.8 1.1.4.8.7 1.5 2.3.8.4h1.9l1.1-.4v-1.1l.8-.8v-1.5l-1.5-3.5v-7.2l1.1-3.8v-10l-.8-1.9-.3-1.9 1.9-10.7.7-1.9.4-2.3v-2.6l2-1.2 1.8-1.1h.8l1.1.4 2-.8h.7Zm-58.4 206.9-1.5 1.5v-2l.4-1.4 1.5-3.9 1.1-.7 2-3 1-1.2 2.8-2.7 2.3-3h1.5l.7-.8 1.6-1.5 3.8-5.4 3-3.8 3.5-5 1.5-1.5.4-.4 3-4.5.8-.8 1.1-.4.8-.8.4-.7 1.1-2 .4-2.2v-1.2l-.7-1.9.7-2.6v-1.2l2.3-5.3.8-1.2.7.8v7.2l1.6 4.6 1.1 3.5v.7l-1.5 2-.8.7-1.9.4-1.1.7-1.2 1.6-1.1 1.9v1.1l-.4.8-4.2 1.5-2 1.2-1 .3v3l-3.5 7.3-.8 1.6-1.1 1.9-1.5 1.1-2.3.8-1.6 1.1-1.1 2.7-1.1 2-2 1.4-1.5 1.6-1.9 1.1-1.9.8-.4 1.1-.4 1.2-.7.3h-1.2l-1.5 1.6Zm87-66.8 2 .7 1.8-.7h2l1.9 1.1-.8 1.2v.7l3.8-2.3h.8v3.9l-.8 1.5-.4 1.9-1.1 1.5-1.2 1.2-1.5.7-.7.8v2.3l-.4 1.1-2 .4-2.2 2.3-5.7 1.5-1.2 1.2-1.1 1.5-1.2 1.1h-.4v-.3l-.3-.4.7-3v-1.2l-.7-1.2v-2.3l1.1-2.2.4-2.3V371l.7-6.5v-.8l-.7-.7-2.3-.8-.8-.8v-1.1l1.2-.8h1.1l.8.8 3.8 1.5 1.9 1.2 1.5 1.9Zm12.6 50.7H554l-.7-.7-1.6-4.2-1.9-1.2-1.5-.3-1.1-.8-.8-.8-2.7-4.2-.4-2.6v-1.6l1.2-1.1.8-.4h2.2l1.2-.4 2.3-2.3v-6l-1.2-2 .8-1.1.8-1.2.7-1.9v-2.7l.4-1.1.8-.4 3.4-1.9h.4l4.6 1.2.7 2.2v.4l-.3 2.7-.4 1.5-1.6 2.7-1.1 2.7-.4 3.8-.7 1.5-1.2 2.7v4.2l-.4 1.1v1.2l2.7 5 .4.7v.8l-.4 1.1-1.1 2.3-.4.4-1.2.7Zm23-47 1.5.5h1.1l1.5-2 2 .4 1 2.3.8.8v8.8l.4.7 1.2.4.7.8.4.8.4 1.1.4 2.7 1.1 1.9v1.9H590v1.5l-.4-.4-1.1-2.3-1.2-.7.4 3.4.4 1.5v2l-1.5-1.2-2.3-.8-.4-.7v-3l-.8-2.4.8-5v-1l-.4-.8-.7-2-1.6-1.9h-.7l-2 1.6-1-.4-.5-4.6-1.1-4.2-.8-1.1V365l.8.4 1.1 1.1 1.2.8h.7l.4 1.5Zm10.2-24.3 1.6 1.5v2.3l.7.7h1.2l1.1.8.8 1.2v2.6l-1.2 2 .4 3.7.8 1.2v3.4l1.9 3v3.1h.7l1.2 1.2.8 1.9v.4l-1.2-1.2h-7.6l-1.2-2.6H588l-.8-1.2-1.5-2.7-.7-1.9 1.1-1.5v-2.7l-.8.4h-1.1l-1.2-1.9v-.8l-1.1-.7-1.1-1.6-2-.7-.7-.4-1.5-1.5-1.2-1.5-1.1-3.5-.8-3 5 .3h4.5l5-1.5 1.5 1.2Zm-77.4-15.7h.7l2.7-.8h1.1l.8 1.6h1.1l.8.7 1.1-1.1 1.6 1.1 1.1 2.3 1.5 1.6 1.6 1.1v.8l-.4 1.5v3.4l1.1 3.8-.3 1.2-1.2 1.5-.8 2v2.6l-.7-.4h-.4l-.8.8-.7 1.1h-1.6l-.7-.4V352l-.4-.8h-.8l-1.5-1.9-.8-1.5v-2.7l-1-1.1-1.2-.8v-.7l-.4-1.2v-2.7l-1.5-3-.8-.8-1.2-.7-1.1-1.2-.8-.8v-1.5l-.7-.4H506v-1.5l1.2-.8h4.2l.8.8Zm93.5 79.4 1.5 1.2 1.5-.4v3l.4.8 2 2.3.3 2.3-.8 2.3-.7.7-1.6 1.5v.8l.8.4 2 .4 1.4 1.1v3l2 2.4v1.1l-.4 4.6v1.9l1.1 1.5.8.4.7 1.2.4 2.6v5.7l-.4 1.6-1.9 3.8-2.3 2.3H611v.7l.8 2.3v5.4l-.8 3.4-.8-1.9-.7-1.5-.8-5-.4-2.3-1.1-1.9-.4-1.9-1.1-1.5-1.6-4.2H603l-1.2 1.5v.8l-.3 1.1-.4 1.2-1.5 1.9-1.6 2.3-.7 2.3-.4 2.2 1.1 1.6.8.7 1.5 1.2v.7l2 5v5l-.8 2.3-2.7 3.8-1.5 1.5-1.2-.4-1.1-2.7v-.7l.4-2.7V475l-.8-.8h-.8v.4l-1.5 3-.8.8h-1.9l-5.3-2.3-3.8-2.2-3.8-2-2.3-3.8-.4-2.3v-2.6l-1.2-3.8v-2.7l.8-2.3 1.1-1.5.8-.8.4-1.1.4-1.2v-1.5l-.8-.8-1.9-2.7-2-1.5-3.7-1.5-.4-.8-1.1-.7h-2l-.7.4-.4 1v2l-1.1 5.3-2-1.1-1.9-1.1-.3-1.2-.4-1.1-.4-.8-.4-.4-.8 1.5-1.1 1.6-1.1.4h-1.2l-.8-.4v-3.5l-1.9-.7h-1.5l-1.9 1.9-.4.7-.4 1.6-2.3 4.6-.7 3.8-1.5 3-.4 1.2-.8.7h-1l-1.2-.7-1.1-2.3V454l1.5-1.5.8-1.5 1.1-6.2v-3l2-2.7 1.4-1.9.8-.4 3.8-1.1 1.2-.8h2.3l1.9-.7 1.1-1.2v-3l.4-.8.8-.8.3-.7 1.2-.8 2.3-.8.7-.7.8-.8.8-1.9 1.1.4 1.2.8 2.3.3 1.5 1.6 1.5 2.3v.7l.4 3.8v1.2l-2 1.9h.8l2.3-2 1.2-.3 2.6-1.1.8-.4v-1.2l1.2-2.3.7-2.3.4-1.1.8-.8h.7l3 1.2 2-.8.4-2.7V418l.7-.7.8-1.2h1.5l2 1.5h1.5l.3-.7.8-2.3h.4l2.3.8 2.3-.8.3-2.7-.3-2.6-2.3-7.7 1.1-1.9h.8l2.3 2 3.8 2.6 1.5 1.5 1.2 2.3Zm-45.5-.4-.7.4v-3l1.1-6.2-.4-1.5 2-3.8 1.5-3 1.5-3.9.4-1.5 1.5-3.8 1.5-4.6v-1.5l.4-.8v-2.3l1.5-1.9v10.3l.8 3.8-.8 3.9-.7 1.5-1.5 1.1-1.6.8-1.1 2.3-1.2 1.9v2.3l-2.2 6.5-2 3Zm-31.6-189-.8 1.6-.8-.4.8-1.5V217l1.1-.4.8 1.1-1.1 1.2Zm-7-9v1.8h-.7l-1.5-1.1v-1.5l2.3.7Zm6.6-20.7h-.8l.4-1.5.8-.8h.7l-1.1 2.3Zm-2-8.4-.3 2h-.8v-1.2l.8-2 .4 1.2Zm-1.8 296.6.7 1.5 1.2-.4h1.9l.4 1.2-2 1.9-1.5-1.5-2.3 1.1-1.1-.8-1.5.8-.8-1.1v-1.2l2.7-1.9 2.3.4ZM453 442.8l-.8 2-1.1-2v-3l1.9-.4v3.4Zm47.3-53.4-1.9.4-.4-2 1.2-1.5 1.9.4 1.1.8-.7.8-1.2 1.1Zm2.3-34.3 1.2.3h.3l.8-1.1.4 1.5 1.5 1.2v1.5h-5.7l-.8-1.2-1.1-2.3h-.4v-2.6h.4v-.4l1.1 1.1 2 1.2.3.8Zm-.8 9.5-1.1.8h-.4v-2l-1.5-3.8.8-.4h.7l.8.8.7.4.4 1.1v1.6l-.4 1.5Zm45.5 22.9-.4.4h-.4l-1.1.7-.4-1.1v-2.3l1.9-1.9v-.8h.7l.8.4v1.2l-.8 3-.3.4Zm34 12.6v.8h-2.4l-1.1 1.9-.8.3-3.8 1.2-3.4-.4-1.2-1.1-.7-1.6v-1.1l.7-1.5.4-.8 2.7-1.5.8-1.6 1.1-1.5 2.7-.7v.3l.7.4h.4l1.5 1.2 1.6.7v3.8l.7 1.2Zm-72.6 94.3v1.1l-.7.8-.8-.4-.8-.8v1.2H505l-1.1 1.9h-2.3V497l2.6-1.9 2-.7 1-1.6h.9l.3.8.4.8Zm31.3-24.8h-2.3l-1.1-2v-.7l-1.5-.8.3-1.1h1.6l2.3-2 4.1 2 .8.7-1.5.4-.8 2.3-1.9 1.2Zm66-70.7-1.1-1.1v-2l1.1-2.6 1.2 2.3v1.5l.8 1.2-.4.7H606Zm-6.4-2.6v.7l-.4-1.1-1.2-1.2-1.1-1.9-.8-.3.4-1.6v-2.3l1.1-1.1v-.4l.8-1.1h.4l.4.7-.4 3 1.1 3.5-.3 2.3v.8Zm-95-73v1.6l-2.8-2v-1.4l2 .3.7 1.6Zm28.2 3.1h1.1l2.3 1.6v1.9l-1.1 1.9v.7l-.8.8-2.3-1.5-.8-.8v-1.9l.8-3 .8.3Zm3.8 23.7-1.2 5.3-1.1-1.9.4-1.1-.8-.8v-1.9l.8-1.1v-3l1.9-1.2h.4v2.3l-.4 3.4Zm9.5.8-.7.3-2-1.9-1.1-.7v-.4l.4-.8h2.3l1.1 1.2.4.7-.4 1.6Zm10.3-11.5 1.6 3-2-2.2-1.5-1.2-2.3-2.3-1.1-.7-.4-.4v-1.2h1.5l2.7 3.9 1.5 1.1Zm8.4 7.6v1.6-.4l-2.6-3.5-.4-1.1.4-1.1 1.5 1.5 1.1 3Zm-.7 3.5 3.4 2.3 2.3 3.8.4 3v1.2l-1.2-1.2-2.3-1.9h-1.5l-.8-.7v-.8l-.7-1.1-1.2-.8-1.5-2-1.1-.3-.8.4-2 3.4-2.2 2.3v-.8l.8-3 .3-4.2v-5.4l1.6.8 1.9.8 1.9 1.1v.8l2.7 2.3ZM574 323l-.4 1.1-.8-.3h-.7l-1.2 1.1-2.3-1.1v-1.2l1.2-2.7v-5l.7-.7h.8l1.5 2.3h.4l1.5 1.5v3.8l-.7 1.2Zm-37.4-6.9v.8l-3.8-2.7v-1.5l3.8 3.4Zm-3-19 .3.7h-.4l-.7 1.5.7 2.7-.4 1.9H532v-2.7l-.8-.7-.3-1.6-.8-1.1v-1.5h2.3l1.1.7Zm42 86.6.3-2h.8v1.6l-1.2.4Zm17 11.4v1.2l-2.2-2.3-.4-2h.8l.7.8 1.2 2.3Zm-38 53.8v.8l-2 1.5h-.8V449l1.2.4.8-.7.7.3Zm49.2 7v1l-1.6-2.6-.4-.8.4-2.3 1.2 1.2.4 3.4ZM580 365.6h-2.3l-.8-.7-1.5-2.7 1.5-.8h1.2l.7 1.2 1.2 1.9v1.1Zm5 47v1.1l-2.3-.7-.4-.8v-1.1l1.1-.4 1.2 1.1.4.8Zm-67.2-197.3v1.5l-.8-.8v-2.7l.8.8v1.2ZM499.6 368v3h-2l-1.1-.7v-.7h.4l1.1-.8 1.6-.8Zm66.4 2.7 1.1 2.3h-1.5l-.4-1.5.4-.8h.4Zm-25.6-24-.4.7h-.4v-2.7h.4l.4 2Zm64.9 55.7-.4.7-.8-1.1.4-2.3.4-.4.4 1.6v1.5Zm-21-39v.8h-.8v-.4l-1.1-1.5v-1.1l.7.3.8 1.2.4.7ZM458 436l-1.2.7v-2.3h.8l.4 1.6Zm108.4-24.5v2.3l-1.2.8-1.5-.8-.8-1.1h.8l1.5-1.5h.4l.8.3Zm525.1 232.9-1.1 1.5-1.2-1.5-1.1-.8-.8-1.1-1.1-2.7v-5l-.8-2.6-1.5-2.7-4.6-6.1-1.5-1.5-1.5-1.2h-1.2l-1.9-.4h-.8l-1.9-1.1-1.5-1.2-3.8-3-2.3-.8-1.1-1.1-6.1-3.5-2-.7-2.2.4-1.6-.8 1.2-.4v-3l3 1.9 3.5 1.5.7 1.5h1.6l3 1.2 2 .7 1.8 1.2 2.3 1.9 3.8.7.8.8 2.3 2.3 2.7 2 1.1 1 11.5 8.8 2.2 2.7.4 2v.7l-1.5 1.9v3.8l-.8 2.7Zm-19-6.9h.7l2.7-2.3 1.5 1.5h1.5l2.3.4-.7 3v1.6l.7 1.1v2.3l-.4 2-1.5 2.6-.7.8-.8.4-2.7.3-.4 1.6v1.5l1.6 2 1.5 1.8-1.1 2.3-2 1.5-1.5 1.2h-3l-3.5.4-.4 1.1v2.3l-.7.8-1.5 2.2-2 1.6-2.2 1.9-.8.7h-2.3l-2 1.6-.7 1.1-.7.8-2 .7-2.2 2-.8.3-3.8.8-6.1.8-2 .3h-2.6l-2.3-2.6-1.9-.8h-1.9l-2.3 1.5h-.8l-5-3.8-1.8-.4-1.5-.7h-2.3l-2-.8-1.1-1.5v-2.7l1.5-1.5h6.1l3.9-1.2 2.2.4 2.3.8h2l1.8-.4 2.7-1.5h3.8l2-2.3.7-6.1v-2.3l1.2-.4h.7l.8.8-1.2 1.5v3.4l.4 2.7 1.5 1.5h2l1.9-1.5 1.9-.4 1.9.8 1.9-.4 1.1-.8.8-.7h1.1l.8-.8 1.2-2.3.7-2.3 1.2-1.9 3-3.8h.8l1.1-.8h2.3l1.5-1.5v-5l-2.6-5.3v-1.9l.7-1.1h3.8l.8.3 1.2.8ZM883.9 757.7v-4.5l-.4-4.2v-8l-.4-4.6v-3.9l-.3-4.2v-3.8l-.4-4.2v-7.6l-1.5-1.1-.8-2V707l1.1-3.5v-15.2l-.3-3.8v-4.6l-.4-3.8v-3.9l-.4-4.5v-3.9l-.4-4.2v-3.8l-.4-4.2v-4.2l-.4-3.8-.3-4.2v-4.6l-.4-3.8v-4.2h3.4l9.2 3.5 2.6 1.5h2.7l3.8 2.3 6.5 1.5 6.1 1.9h4.2l4.2.4 2.7.7 3.4 2.3 1.6.8 1.9 1.5 2.3 1.2.7.4h3l2.4-.4h1.5l1.1.4v1.1l2 1.5 1.9.4 1.9 1.5 1.9 1.6 1.1 1.5 1.5 1.5h4.6l7.7 7.6.7 1.6.4 5.7-.8 4.6 2.3 1.1h2.3l3.8.8 3.9 1.1L988 681l1.5.4h2l2.2-.4h1.2l1.5 1.2 1.1.3 1.6 2 1.5 1.9.4.7h.7l.4 1.5.8 3.5v2.3l-.4.7-1.9.8-6.1 1.1h-4.2l-3 2.7v2l3 4.1 1.9 4.2 1.1 1.6 2 1.1 1.9 1.5 1.5 2 3.4 2.6 1.5 1.1 2.3.4 3.5 2.3.4 1.2 1.1 3.4.8 2.3v1.9l3.4 2 .8.3 1.1 4.6 1.1 2.3 2 .7 1.9-.4 5.3-2.2h2l.7.7.4 2.3-.8 2.3v2.3l1.1 1.5 2.7 1.2h8l2 .7h.7v1.5l-1.1.4-1.2.4-1.9 1.2v1.1l1.2 1.1 1.1 1.6.8.4h.7l2.3.3 2 .8 1.5.4 1.5.4h3l2.3.7 3.5-.7-3.1 1.9-.8.4h-3.4l-.8.7 1.6 1.5 2.3.8.7.8-.4.7-2.3 2h-1.1l-1.9.7h-3l-2.4-.8-.7-1.1-.8-.8-1.9-1.5-1.5-.8H1024l-2.3-1.1h-1.2l-1.1.4-2.7.7h-.7l-2.3-1.1h-2l-.7.4h-6.1l-2-1.2-.7-1.1-1.1-.8-1.2-2.3-1.9-1.9-1.9-1.9-4.2-2.3-1.1-.7-1.6-2.7v-2l.4-1.8-.7.7h-1.2L985 744l-1.1-1.2-2.3-3.8-1.1-1.9-3-3.8-1.2-1.9-1.2-2-.7-.3-.8-.8-.4-1.1-.7-.8-3.9-1.1-1.1-.4H962l-3-1.1h-3.8l-2-.4-1-.4-.5-.8-.7-2.3-1.5.4H948l-1.5-.4-1.5-.3-1.2.7v1.6H942l-1.1 1.1-.8 1.1h-1.5l-3-.7-1.2-.4-1.5-1.1-.8-1.2-1.1-1.1-1.2-.4 1.5 1.5 3.8 7.6h-1.5l.8 1.6H933l-.7.4-2-.4h-2.6v.7l1.1 2 .8 1.5-3 1.1-3.1.8-3 1.1-3.9.8-1.5-.4h-3.4l-1.6 1.2H909l-1.1-1.2v-.8l-.8-.7h-1.5l-1.2.7h2.3l.8.8.4 1.2 1.5 1.1 1.9-1.1h3.8l3.8 1.5h1.2l.7.4 2 1.9 1.5 1.5 1.5 1.9v3.8l-2.7 2-2.3 1.5-3.8 2.6-3.8 2.7h-2l-1.8-1.1-.8-.4-1.9-.4h-1.1l-4.2.8-4.6.7H893l-2-.7-1.9.7-1.5 1.2h-1.5l-2.3-1.6Zm121.8-80.5h-.8v-.8l-2-.7-1.8-2v-3h1.1l3.8 2v3l-.3 1.5Zm-36.7-18-1.1.8h-.8l-.4-1.5V657l1.2-.8.4-.4 1.1.4v1.1l-.4 2Zm115.3-46.9-.4 2-1.1-.8-1.2-1.6.8-.7 1.1-.4.8 1.5ZM1074 610v1.2h-.8l-1.9-2v-.7l2 1.1.7.4Zm-43.2-22.5v.8h-1.1l-2.7-2v-1l.4-1.2h1.2l1.5 1.1.8 2.3Zm33.3 166.8h.7l1.2-2 1.1-.7.8.8-1.2 5-.7-.8-3.8-.8-.4-1.9h-1.2l-.7-2.3-1.2-1.5-.4-1.5.8.4.8 1.5 3.8 2.3v.7l.3.8Zm-13.8-8.8h-1.1l-3-2.3.3-1.9 1.1-1.5 2.3 1.1.8 1.6v.7l-.4 2.3Zm13-17.2v1.6l-1.1-1.6.3-1.9V725l-1.5-.4.8-1.9.7-.4h.4v2l.8.7-.4 3.4Zm58.8 45v1.2l-1.2-.4-1.5.8h-1.2l-.7-.8v-.3h1.5v-1.2h2.3l.8.8Zm-192.4-33.5h-.8l-3-.8-1.2-1.1h5v1.9Zm60.7-68.7h-1.2l-1.5-1.5-.7-.8v-.8l2.2-1.9 1.6 1.2v2.6l-.4 1.2Zm-6.1-69.5 6 .8v-.8h.5v1.2l-.8.4h-.8l-.7.7-1.5 2h-1.2l-1.5.3h-5.4l-.7.8H977l-1.1.7h-.4l-.4-1.1v-.4l1.2-.8V604l.7-1.1h2l1.5-.8 3.8-.4Zm60 6.5-3.5.8h-1.2l-1.1-1.2-1.2-1.5h-1.1l-.4-.8 2.3-1.5 2.3-.8 3.8 1.2v3.8Zm9.5 133.6 2.2 1.5 1.6-.7h.7l1.6 1.9v1.5l.3 1.1v.4l-.7 1.2v-1.2h-.8l-2.3.4h-4.2l.8-1.5.4-.4-1.6-1.9v-1.5l1.2-.4.8-.4Zm36.6-12.6h3l.8.8h1.1l.8.7.8.8v.8l-.4.3v.8h-.8l-.7.8-2-.8h-.7l-.4-1.1-1.1-1.2-2.3-.4 1.1-1.1.8-.4Zm18.3 48.5 3 .4 1.2 1.1-1.1.8-2.3.7-.8-.7-2.7-.4v-1.2l-1.5.4.8-.7-2-.8-.3-1.5v-.4h1.5l4.2 2.3Zm-179-34.8.4.8-2.3-.8-2.7-1.9H924l-1.2-1.5 1.6.8 2.6.7 2.7 2Zm69-136.6-.3 1.1h-1.9.8l.3-1.1.4-.4.8.4Zm72.6 2h-.4v-2.4h.8l.4 1.5-.8.8Zm-10 157.2v1.9l-1.8-.4v-1.1l1.1-.4h.8Zm41.3-136h-1.1l.7-1h.4v1Zm43.9 45.9v1.9l-.4.4-.8-.8-1.5 1.2-.4.7-.7.8h-3.8l-1.6-.8-1.5-1.1-1.5-1.5-1.2-2v-2.6l-.3-2-3.1-1h-.4l-1.5-2.4-1.1-.4-1.6-1.9-.7-.7-.8-2v-7.6h.4l1.1.8.8.4h2.3l1.9 1.5 1.5 3 .4.8.8.8 1.5 1.1 1.1.8 2 3 .7.4h1.2l1 .8 2 1.1 1.5 1.6 1.2 1.5.7 1.9.8 2.3Zm-24.4-21.8h-.4l-1.2-2.3v-1.9l-.3-1.1-.8-.8 1.1-1.9h.4l1.2.4v2l.7 1v3.9l-.7.7ZM604-185h-.3l-.8 1.9-.8 2.3-.4 1.1-1.1.8-.8.3-1.9.4h-9.5l-1.5.8h-1.2l-1.1 1.1-.8 1.6-1.1 1.5-1.6 2.7-1.1 1.1v2.7h-1.2l-3-1.5-2.7 1.1-.4 1.5h-.7l-1.2-2.3h-1.5l-2.7-1.9-1.1.4v1.2l-1.5 1.9-2 1.9h-1l-1.2-2.3-3-.4-1.2-.8h-.8l3-2.6h.8l-.7-.8h-3.1l-1.5-.4h-3l2.6-2.3v-2.3l.8-3 1.5-1.5 3.4-2.3 1.5-.4h2l-1.2-1.2h-2.7l-1.9-1.1-.4-1.5 3.1-8.8v-.8l-.8-1.9-.3-1.9-2.7-1.1h-1.5l-3.5-2-1.5-1h-.4v2.2h-.4l-.7.8-.8-2.3-.8-1.2-2.6-1.5-.8-.8v-4.2l1.5-1.5 3-3 .8-1.2 2-1.9h1.5v-1.1l.7-.8 1.6-.8 1.9-1.1 1.5-.4 1.5-1.9.8-.8h.8v-.3l.7-.8v-.8h1.2l1.1-.7h2l.7-1.6.4-1.1.7-1.2 1.6-1.1.7-2 1.2-2.2.3-.4h.8v-3l.8-2v-1l1.5-1.2v-.4h1.5l.8-.8.8-.7h.7l.8.7 1.1.8v1.1l1.2.8v.8l.7.3h1.2l2.3.8h1.5l.8.8h1.9l3-.8h1.5l.8.8.8.7h.7l.4-1.1.8-1.5.4-1.2v-.8l-.8-1.1-1.1-.8-.8-1.1-.8-1.5-.7-.4v-.8l-.4-1.1v-.8l1.9-.4 1.9-.7 2 .4 2.6-.4 1.9-.4h2.3l.7-1.2 1.6-1.5.7-.4.8-1.1v-2l.4-1 .7-1.2.8-.4h.8l.7.4.8.4h.8v-1.2h1.5v-.7l.4-2.7v-3.4l.7-2.7v-1.2l.4-.7h1.5l.4.4h1.5l.4.7 1.6.4v.4l.3 2.7.8 1.1 1.1 1.1 1.6.8h.7l.4.8.4 1.5 1.1 1.1.8.8v.8l.8.4-.8.7H627l-1.9 1.5-1.1.8-.4 2-1.5 1-.8 1.2-1.1 2-.4 1.8-1.5 2-.8 2.6v2l1.5 1.8v5.7l.8 3.9v1.5l-5.4 3-1.1 1.2-2 3.8-2.2 1.2-1.1 1.5-2 1.1-1.1 2.7-1.1 1.1-2 1.2-1.1 1.1h-3l-2 1.2-1.1 1.9-4.2 2.7-.4 1.9.4 2.6v3.9l-.8-.4-.7.4v3.4l1.5.4 1.5.7h1.5l1.6 1.2 3 3.8 2.3 1.1.8.8 1.5.8 1.2 1.1.3 1.2Zm-53-15.3-.8.4v-1.2l.4-.7h.8l-.4 1.5ZM-17.6 28.3l.7.4v2l-1.1 2.2-.8 1.5-.7 3-1.2 5.4V44l1.6 3.4.3 2.3v2l-1.1 2.6-1.1 3-.4.8h-.4l-2.3-1.2h-1.5l-2 .4h-2.2l-1.6-.7-1.9 1.1-1.9-.8-1.1-1.1-.8-2.3-4.6 2h-.7l-2.7-1.6-1.9-1.1-.8-.4-1.9-.8-1.9-.4-1.5-1.1-2.7.7h-1.1l-.8-.7v-3l-1.1-.8-1.2-.4-1.9.7-2.7.8h-.7l-.8-.8-.4-1.5-.4-.4h-.7l-1.2-.3-1.1-1.2-3.8-2.7v-4.2l-.4-1.1-2-1.2-3.7-1.9-2.3-1.5-1.2.4-1.9.4-1.1 1.1-1.5-.4-3.1-1.5-1.5-.4h-1.2v.8l-1.5.8-1.1-.8-2.3-1.2-2-.3-3-1.6v-1.5l-.8-1.5-.7-.4h-2.7l-2.3-1.9-2.7-2.7-1.1-.7h-1.5l-.8.3h-.7l-1.2-1.1-1.9-1.5-2.3-1.6-2.3-2.6-1.1-1.6-.4-1.1-.4-.8-2.3-1.9-1.9-1.1-1.9-2h-.4l-.7-1-1.2-1.2-1.1-.4-.4.4-.4.7h-1.1l-1.2-1.5-1.5-1.5-1.2-1.1-.7-1.2-.4-.8.8-2.6 1.1-2 .8-.3 1.1-1.5.8-2.3v-2.3l1.5-2.7 1.5-3 3-3.1 1.2-1.2 1.2-.7 2.3-2.3h.3l1.2-.8h1.5l.8 1.6.7 1.5h.8l1.5-1.2 3-4.5 3.9-.8 3 1.1 3.1.8.8 2v1.4l.4 1.2.7 1.1 3.8 2.7 2.3 2.7 3 3 2.4 1.6 2.3.3 1 1.7 1.5 2.3 1.6 3 1.5 2.7h1.5l2-.8 2.2-.7 1.5.7 1.2.8v1l.4 2.7.7 2.3 1.2 1.1 1.5 1.6.8 1.1 2.6 2v.7l.8.7.8.4.7.4h.8l3.8-.8.4.4h.7v.8l-.7 1.5-.8 2.3v1.1l1.5.8 3.1.4 4.6.4L-54 18l.8 2 1.1 3 .4 1.5h2V23l.3-1.5 1.2-.8.3.8.8 1.5 1.5 1.1 1.2.8h1.1l.8-.4.7-2.7h2.3v.8l.8.8 1.1.7 1.6.8 1.5.8 1.5 1.9 2.3.7h4.2l1.2.4h1.1l2.7-1.1h2.6l1.2.7Zm177.5 442.4v-.8l.7-3.4v-.4h2l1 2.7 3.9 1.5 1.1.4 1.6-.4h.7l.4 1.2.4 1.9 1.1 1.5h3.1v2l.4 2.6v1.5l-1.5 2.3v1.5l.3.8 1.2 1.1.4.8h.7l.8-.8.7-1.1v-1.2l2.7-1.1 2.7-1.1h.4l.7.7.8 1.5v.4h2.3l1.5-.7.8-2v-1l2.3-2.4.4-1.9.7-1.1 2.7.7 1.1.8 3.5 6.5 4.2 4.6 1.9 1.5 1.5.8 2 2.2 1.4 3 3.9 8.5.7 3.8v5.4l-.7 8.4-1.2 4.1v2l1.5 3-.3 3v8.8l.7 2 .8 1.5 5 3.8v1.5l2.2 5 4.6 11 1.2 5v1.2l-.8.7h-1.5l-.8-.7-.4-.8v-.8l-.4-.7-1.1-1.2-.4-.7v3.4h-1.1l-2-.4h-2.2l-2.3 2.7h-1.2l-1.1-2-.4-1.4-.8-1.2-7.6-5-3.4-1.5-3-3.8-7-4.2-4.5-4.2-1.6-2.7-4.5-2.3-2-2.6-1-.4-.9-1.2.8-2.2v-2.7l-.8-2.3-3-4.6-1.5-3-3-3.1-1.2-1.9-1.2-2.3.8-.4.8-.7-.8-1.2-1.5-2.7-.8-3V507l-2.3-7.7-1.9-11.4.8-3.8-.8-3.9-1.1-4.2-2-3-.3-2.3Zm303 47h-.7l-1.6-.4-3-2.3-3-.4H445l-.8-.4-1.5 1.2-.8-.4-1.1-.4h-3l-2 1.1-2.3-1.1h-.7v.4l-1.2 1.5-1.9 1.5-.8 2.3-.7 2v.7l-.4 4.2v5.7l-.8 2v4.5l-.7 2-1.6.3-1.1.4-1.1-.4-1.2.8-1.1 1.9-.4 1.1v3.8l.8.8.7.8v1.5l-1.5.7-2 2.3-2.2 1.6-1.2.3v3.9l.8.7v2.7l-1.1.4-.8.4-.4.7-.4 2.7-.3 1.5-1.2 2-.4.7-.7.4-2.3-.8-2 .4-2.2.8h-4.2l-1.2 1.5-1.1 1.1-1.5 1.2-1.2.4-1.9-1.2h-.8l-1.9-.4-3.8-1.9h-2.3V572h-9.1l-2.3.7-2 .8-1 .7v2.3l-.8 2-.8 1.8-3 .8-2 2h-3.4l-1.1.3h-1.2l-3.4-1.1h-3l-2 .3h-1.1l-5.8 3-1.9.5-.7-.4-1.2-1.2-1.5-1.1-3.4-3.8-1.2-1.2-.7-.7-1.2-1.2-1.1-1.1-.8-.8-1.5-1.9-1.6-1.9v-3l-1.5-.8v-.8l-.4-1.1 1.6-2.3 1.1 2.7.4.7 2.7 1.6 1.9 1.1h2.3l2.3.4h1.1l.8-.4h.7l5 3.4 1.9.4h2.7l2.6 2.7h2.3l-1.5-1.2-1.1-.7-.8-1.5.4-1.6 1.1-.7.8-1.2V565l.7-1.5.8-2 .4-1.1-.8-1.5-.4-2v-1.5l.8-1.1.8.8 1.1.7h.8l.7-.4v-5.3l1.2-2 1.9-1.4 2-.8 6.8-1.5 10.7-3 3.4-1.2 1.1-.8.8-.8 2-3 3-4.2 1.9-3.8 4.6-5.4 3.8-5 .4-.7.7-2.7v-3l1.2-.4.7.4 1.2.7 1.1 1.2.4 1.1.8 1.2v1.1l.3.8h2v1.1l1.5 2 1.1 1 .4.5h1.2l1.1-1.2.8-1.5.3-2v-.3l.4-1.5v-1.5l-.7-.8v-1.5l-.4-2.7v-.8l.4-.7 1.5-1.2 1.1-1.1 1.6-.8v4.2l.3 2.3 1.2 3.8 1.1.4h2.7l-.8-2V509l-1.1-2-1.1-2.2v-.8l3.8-.8.7-.7 1.6-1.5.7-1.2.4-1.9-2-1.1-.7-1.6v-1.5l2.3-3.4.8-.8v1.2h1.5l.8.3h1.1l1.2-1.5.7-2.3 2.3-3.4.8-2.3.7-2.7 6.1-7.6.4-1.5 3.8-8 1.6.3v3.5l-.4 1.9-.4 1.5 2-1.2 1.8-2.6 1.2-2.3.7-1.2 1.6.4.3.4v2.7l1.2 2.3 1.5 1.1 2 .8 1.8 1.1.8.8v1.1l.8 1.6v1.5l-1.2 1.5.4 2.3v1.5l-.4 1.2-1.9 1.5 5.4-1.5 1.5-.8 1.5-1.5 1.1 1.5 1.2 2.3-.8.8-2.3.7v.4l.4 1.2h1.2l1.9-.8 1.9-1.5h1.9l1.5 1.1 1.2.4.7 1.1.8 2 1.9.3 4.2 2.7h5l.3 1.1v3l-.3 1.2-1.6 1.2-3.8 1.5-4.2 1.5h-2.3l-2.6-1.1h-1.2l-1.1.8-1.2 3 2.3 3.4 4.2 3.1.8.8v1.1l-.8.8h-.8l-2.6.7-2.3.4-2 .8-1.8.7h-2l-2.6-1.5h-.8l-.7.8-.8 1.9-.4.8Zm-232.8 29.7h-1.5v-.7l.3-2 .8 1.6.4 1.1ZM162 494l-.3.4h-1.2v-3.8h.8l1.1.3.8.8-1.1 2.3Zm-6.8-24 1.1 2.2-.7.8v.4h-1.2l-.7.4h-.4l-.8-1.2-.8-.8v-1.1h.8l.8.4 1.1-.8.8-.4ZM454 457.2l-.7 1.2-.4-1.2v-1.5l1.1-1.9h2.3v2.3l-.4.8-1.9.3ZM179.3 541h-1.1v-1.1l.7-.4h.4v1.5ZM355 554.7l-1.1-.4v-6.1l.3-.8h.4l.4 1.2v6.1Zm113.4-37.4H464v-.8l1.1-.4h.8l2.3 1.2Zm-266-366.5.7 2 1.9 2.2 2.3 3.1.4 1.5 1.5 1.2.8.7v3l.7.8h1.2l.4-.7.7-2 .4 1.6h.8l.7.4v.8l.4 1v1.2l-.8 1.2-.3 1.1v2.3l-.8 1.5.4 1.2 3.8 6.5 1.5.7 3.8 1.6 2 .7 1 .8h1.6l1.2-2 1.5-1 3-1.6h.8l1.5.8 2.3 1.9 2 1.5 1 1.2.8.7v.8l-.7 1.1-1.2.4-1.1.8-.4 1.1 2 .4 1.8.8.8 1.1v2l.8.3h2.2l.8.8.4 1.9v1.1l-1.2 1.5-.7.8v1.5l-1.2 1.6-2.6 2.6h-.4l-5-1.5H232v2.7l.4 1.5-.4 1.2-1.5 1.1-.8.4v1.5l2 .8 1.4.7 5.8 4.6 1.1.8 1.5 1.5 1.6 1.1 4.6 2 1.9.7.7.8v.7l-.7.8-.4 1.5v.8l.4 1.1.7 1.2 2 2.3 1 .7h.8l1.2.8.7 1.5 1.2 2v1.5l.8 1.5 1.1 2 1.1 1.8 2.3 2.7 1.2 1.5.4.8 4.5 3.8.8 1.5 1.5 3h.8l.8.8v1.6l.3 1.1v3.8l1.2.8.4 1.1.4 1.2.7.4h.8l.7-.4.8-.8 1.1 2.7.4.8 1.2.7 1.1.8 2.7 3 1.1.8 1.2.4.7.7v2l-.7.3-3 1.6v1.9l.7 1.5.8 1.1 1.1 1.2 2 1.9 1.8 1.5.8 1.5.4 1.2v1.5l-.8 1.5-.8 1.2-1.1.8v1.9l.8 1.1v3l-1.2.8-.8 2.3h-.7l-1.5-.8-.4.4-1.2 1.6-1.5 1.5h-.8l-.7.7-1.2 1.2H277l-.7-1.2-1.6-1.1-.7-.8-.8-.7-.4-.8-.7-.4-.8 1.2-1.5 1.1h-1.5l-.8-.4-.4 1.6-.7.3h-2.7v2.7l1.5 2.7.4 1.5-.8 2.7h-3l-1.2-1.2-1.1-1.5v-.7l-3.8-1.6-2.3 1.2h-.8l-1.1-1.2-.8-.7-.4-1.2-.4-1.5v-.4l1.2-.4 1.5-1.1 1.2-.8 1.1-1.5v-1.2l.4-1.1.4-3.8.3-2v-1.8l-.7-2v-3.8l.4-.7 1.1-1.2.8-1.5v-1.9l.4-1.5v-.8l-1.2-.8-1.9-1.1-.8-.8-.7-1.1V282l.7-.7-1.1-1.2-3-1.1-2-1.5V276l-1.5-1.9-1.9-2.6-1.1-3.9v-8.4l1.1-4.5-1.1-3.5-1.6-1.5-1.9-1.5-1.9-2-1.5-2.2-2-3.5-2.6-4.5-1.5-2.3-.8.7-1.9-.7-2.7-1.2-2.3-.7h-3.4l-.4.7v.8l.4.4v.7H218l-.8 1.2-.7 1.5-.8 2.3-1.2.8H213l-1.5.7-1.5 1.2-.8.7v.4h-.8l-.3-.7v-1.2l-.8-.8-1.5-.7-2-1.2-1.8-2.3-1.2-1.1h-.8l-1.1.8-1.5 1.9-1.6.4h-.7l-.8.3-.7 1.6-.8 1.1-2.3 1.5-2.3 2-1.9 1.8-2.3 2.3-1.1.4-1.2-.4-1.1-.7-1.2-.8 2-4.2 1.8-5 .8-2.2v-2.7l-.8-1.5-.7-1.2v-1.5l1.1-1.2.8-1.9 1.1-3.4 1.2-3.8v-2l-.8-2.6-.4-2.3.4-3v-1.6l-1.1-.3-3-.8h-2l-.8 1.1-.7.4-2.3.4-1.5-1.1-1.6-2-.3-2.2 1.1-2.7.8-2 .7-1.8v-.8l-.3-1.1h-.4l-1.2-1.2-.7-2.3-1.2-.7h-.7l-.8.7-.8 1.5-.4.4h-.3v-2.6l1.1-4.2 1.2-2.7 1.5-1.5 1.1-.4h2.7l1.1-.8-1.5-.4V178l.4-.7.8-.4 1.1-1.5.8-2.3.7-1.2h1.2l1.9-1.1 2.3-2 1.1-1.8.8.7v2.7l.4 1.2v2.2l.3.4.4.4 2.7-.8h2l.7.4.4.4.7.4.8.4 1.1-.8.4-.8-.8-.7-.3-.8v-4.6l.3-1.5V162l-.3-1.1-1.6-2.3-.3-1.5-.4-1.2V154l-.4-.8.8-.3.7-1.2.4-1.5.4-1.2.7-.3h.8l1.5 1.9 1.6-.8h1.1l1.2.4.3.7Zm482-292.7-.4.8h-1.5l-.8-1.2v-1.1l1.5-1.2 1.2 2v.7Zm70.6-39.7h-2l.9-.4v-2.7h-1.2v-1.9l.4-1.5 1.9-3 .8-.4v4.5h1.9l-.8 3.9-1.9 1.5Zm-42 76.3-1.5 2H710l-.8-.8v-.8l.8-1.5 1.1-2.3.8-1.1.7-.8h.8l-1.1 3 .7 2.3Zm-58.4 86.7-1.5.7-1.2-.3-1.1-2.7 1.5-1.5L655-21h.4l-.8 2.3Zm5.4-3-1.6.3v-1.1l.8-2.7v-2l.8-2.6v-.4l.7-.4v3.9l-.7 2.2v2.7Zm-17.2-36-1.2.8v-.8h-.7l.7-1.1v-.4l-.7-.7.4-2.7v-.8l2.2-.7.4 1.1.4 3-1.5 2.3Zm-16-37.4-.8.8-.8-1.1v-3.9l2 .8v1.1l-.4 2.3Zm1.1-5v1.2l-1.1-.7-.8-.4.8-3v-2l1.5-1.9.4.4v2.7l-.8 2.6v1.2Zm-8 32.5.4.8 1.1-.4h1.2l.7 1.5v.8h-1.5l-.4 1.5-.8-.4-.7-.3v-3.5Zm26.7 5.7H645l-.4-.7 1.9-1.5h1.5l-.7 1.5-.8.7ZM768.3-337l-.4 1.2-1.2-1.5-.4-2.3h1.2v1.1l.8 1.5Zm3.8 3.9h-.8l-1.5-.4v-1.2l.4-.7h.7l1.2 1.1.4.4-.4.8Zm-14.5 64h-.8l-.4-1.4v-.8l.8-.8h.8v2.7l-.4.4Zm-54.2 160.4v.8h-.4l-.8.7-.4-.7-.7-.4v-.4l1.9-.8h.8l-.4.8Zm77.5-11.8v.7h-1.2v-.7l-.4-1.2h.8l.8 1.2ZM625.9-69l-1.2-1.5v-.8l1.2-3.8v1.5l.8 1.2h.7l-.4 1.1-.7.4-.4 1.9Zm5.7-8-1.1 1.1h-.8l.8-1.1v-.8l.4-1.5 1.1-.4h.4l-.8 1.5v1.2Zm3.8-11-1.1 1-.8-.7v-2l.4-.3.8.4.7 1.5Zm42-10.8-.7 1.2h-1.2l.4-1.2.4-.7.7.7h.4Zm-4.6 3.8.8.8 2-.4v.8l-1.2.7H672v-1.5l.7-.4Zm-34.7 49.7h-.4V-47l1.2-1.5v.8l-.8 2.3Zm208 83.5h-.4l-1.5-1.9h1.2l.7 1.2v.7ZM811.8-317h4.2l6 2.3h3.5l.8-.4 1.1-1.1 2.3-3.9 2.7-3.8h.4v2l-.4 3-1.2 4.6v1.9l1.2 2.3 1.5 1.5 1.5 2.3 1.6 3h2.2l1.2-1.1.8-1.2 1.1-.3h1.1l-1.1 1.1-1.1 1.1-1.2 2.3h-1.5l-1.2.4-1.1 1.2-1.5 1.1-1.2 1.2-1.1 1.1h-2l-2.2 1.5H822l-3 2.3-2.4 3-1.9 3.5-1.5 3.8-.8 2v6l-.4.8h-1.9l-3.4-1.9-6.1-2-6.9-3.7-3.8-1.6-6.5 1.2-5.3 5-.4-.4-3-2.7-1.2-.8h-3.8l-1.2 2v3.8l1.6 1.9 1.9 1.1h3l3 2.3 3.5 2.3.8.8-.8 1.1-1.1.8h-2.7l-2.7-1.2-.7 1.2-1.2 1.9-.4 2.3-.7 1.1-1.2 1.2-1.9 1.1h-.7l-.8-.8-.8-1.1v-1.2l-.4-2.2.4-2.3v-2.3l-1.1-3-.8-.5-1.9-1.9-1.1-1.5-.8-2.3v-5.3l.8-.4.7-.4 1.6-1.1 1.1-1.6 1.5-1.5 1.2-1.9v-2l-1.6-2.2-.3-1.5v-1.2l1.1-1.1 1.5.4 3 1.9h7.3l.8-.8.8-1.5v-2.3l-.8-2.7-.4-2.6v-2l2-3.8v-1.9l-.8-5 .4-2.2v-7.3l-2-4.2-1.5-2.3-1.5-1.9v-5l1.9-.7h.4l.7-1.5.8-.4.4.4.8.7 2.6 2.3 4.2 3.8 5.4 5.4 3 2.6 3.5 2.3 3.8 2.7 3.4 2 2.3.7 1.9 1.5.8.4Zm-155 230.5 2 .4h1.8l1.2-1.1 1.1-.8h1.2l.7.8.4 1.1v1.2l-1.1 2.2-1.2 2.3h5.7l-.3 1.6v1.1l.7.8.8.7v.8l-.4.8 1.5.7v2l-3.8 5.3-.4 2.7-.7 2.6v2.3l-.8 2v2.6l-.4 2.3v4.2l-1.1 5.7H662l-1.5-.8h-1.1l-.4 1.6 1.1 2.3-2.6 3.4-3.5 2v-1.6l.8-.8v-.4l.4-2.3V-41l-1.5-3.1v-.8l.3-.7h.4v-2.7h-1.9l-.8 1.1-.7 2.3v3l.7 1.2 1.2 1.6v1.1l-.4.8L648-39h-1.9l-1.1-2.6 1.9-.8h.4v-3.4l-.8-2-.8-.3-.7-.8v-3.8l-.4-2.7v-.7l1.9-.4 1.1-2 .8-1.4 1.2-3.5.7-3h-1.1l-.8-.8.8-1.5-.4-2-2-2.6-1-2.7-2-1.1h-.7l-.8.4-.8.7 1.2 2v3.4h.7l1.2-.8.8.4v.7l.3 1.2v1.1l-.7.8h-.8l-.8-.8-.7-.7h-1.5l-1.6.7-1.5 2.3-1.1 1.2.7-1.6V-68l-.7-1-1.6-1.5-.3-1.2-.4-1.5v-1.2l1.9 1.6.7 1.5 1.2.8h1.5l-1.1-2.7-.8-.8-1.5-1.1-2.3-2-1.2-.7V-80l.8-.4h.8l2.3.8v-1.1l-.4-.8v-.4l1.1-1.1 2.3-1.2h.4l.4-1.1h.4l1.9-.4 1.1-.8 1.2-2.3v-1.9l3-1.9.8-.4h1.9l1.9.8.8 2 1.1 2.2 2 1.5Zm47.3-17.1 2.3.7 2-.7.3 3.8.8 1.1.7 1.2v1.5l.8.8-2.7 1.9-2.3 2.6-1.1 2-.8 1.5v4.2l-1.1-1-3-3-2-.8h-3.4l-5 3.4v2.3l-1.5 3.4-.4 1.2-.7.4-.4.7-.4 2.7-1.5 2h-3.5l.8-2.8h-3.4v-1.9L677-77l.8-1.6V-82h-.8l-.7-.8v-1.9h-.8l-1.1.4-3 2h-.9l1.2-1.2 2.7-2 .7-.7 2.7-2.7 1.1-1.1.8-2.3v-1.1l.8-1.2v-1.9l1.1-.8 1.2-1.5h.7l1.2 2 1.5 1h.8l1.5-.7.8-.4h1.9l1.5-1.1.7-1.2v-1.1l-.7-2.3h1.5l1.5-1.5 2-1.2h1.9l2.2.4 2.3 1.2Zm81.3-153.9h.4l2.7-1.1v3l.4 3.5 1.1 5 .8 2.2.7 2.3 1.6 1.5 1.5 1.2 3 3.4 2 4.2 1.1 2.3 1.1 2v1l.4 1.2v1.5l.8 1.2v10l-.4.7-.4 1.1h-.4l-.3.8h-.8l-.4.7v2.3l-.7.8v8.8l-1.6.4h-1.9l-1.9 1.5-.4.4-1.1 3.8v3.8l1.1 2.7 1.2 2.3 1.1 4.5.4 7.3v2.3l-.8 1.5-.7.8-.8 1.1v2.3l-1.1 5v5.3l.3 2 .8 1.5 3 3.8.8 1.5 1.2 1.1-3.5 1.6-.3.7-2 2.7v5.7l-.3.8-.8.4-2 1.5-1.4 1.5-1.2 2-.4.7h-1.1l-.8-.8v-5.7l-.7-1.1 1.1-1.2v-1.5l1.5-1.5.4-1.2v-1.1l-.7-.8-1.2-.4h-2.3l-.4 1.2v2.7l-1.5 1.9.4 1.5.8 1.1h.7v.8l-.7 1.5h-.4l-1.5-1.5-1.6-1.2h-1.5l-2 .8-1 1.5v7.7l-.8 2.3-.4.7-1.1 1.6h-1.6l-.7-1.2v-5.3l1.1-1.2-1.5-1.1-1.5-.4-2 .8-.3 1.1-.4 1.1-1.2 1.6-1.1 1.5-.8 2.3-.7 3-3.5-.7h-6.5l-3.8 1.1-3.4 1.6v-.8l3-2.3v-1.1h-1.1l-2 .3h-.7l-.7-.7-.8-.4v2.3h-1.1v-1.5l-.4-2.3-.4-1.2.4-1.5h-1.6l-.7.8-.8.7-1.1 3.8v2.7l1.1 1.5 3.8 2.3.8.4v2.3l-1.1.8-3.9 1.1-2.6 2-.8 1.4-2.3 7-1.9 4.5-3 1.9-3.9-1.1-1.1-1.6-1.2-1.5-1.5-1.5-1.5-2-.8-2.2-.4-3.5-.7-1.9v-.7l2.3-1.6.4-.7 1.1-2v-2.2l-1.1-.8H716l-2.3 1.2-2-.8-2.2-1.5h-3l-2 .4-1.5.7-1.5.4-.8.4-1.5 2.3-1.6 1.5-1.5.8-3 .3-1.6.4-1.5 1.2-1.9.7-1.9 1.2-.8 1.1-1.9-.7-3.8 1.9-1.5.3-2-.7-1.8-1.2-1.6.8-1.1 2v3.7l-.4 2.3v2h-1.1l-5.4-3.9-4.2 1.2h-1.1l-1.2 1.1-1.5.4h-1.1l-1.2-1.2h-1.1l-1.2 1.2-1.1-5.7v-.8l.7-1.2.8-.7 2-.8h3.4l.7-1.5 1.2-1.5 1.5-1.6 1.5-1.1 2-1.5 1.4-2 1.2-1.8 1.5-1.2 1.2-1.5 2.3-2.7 2.6-3.4 1.2-2.3.4-.8 2.6-1.5 3.5-1.2h1.5l1.9 2 1.1-.4.8-.8 2-.4h3.3l2-.4 3.8-1.1 1.5-.8 1.5-1.1 6.5-1.2 3.8-2.2h1.2l.7.3v2.7l.4.8.8.4h5.7l1.5-1.2 1.6-1.1 1.5-2 .8-1.5-1.2-2.3-.8-2.2.8-2.7.8-2.3 1.5-1.5 1.5-1.6 2.3-4.5 1.5-3.9v-3.8l-.7-5 1.1-3.8 2-1.1 3-2 1.9-.7v.8l.4 1.1-2.3 3.5-1.5 1.1-.8.8-.8.4v1.1l1.6 2 .3 1v1.6l.4 1.1 2 1.2h2.6l.4-.4 1.9-3.4v-.4l6.1-3 2.7-2 1.5-.7 1.1-1.2 3.1-3.8 1.1-1.5.8-2 .8-2.2v-2.3l.7-1.6 5-3.8 1.5-1.9.4-1.1v-2.7l.4-2.7v-1.9l.7-2.3 1.2-1.9.8-1.9.7-2.3v-6.8l.4-1.2.8-.8v-1.1l.3-1.1v-3.9l-.7-2.2-1.2-2.3-1.1-.4h-2l-1-.4v-.8h1l.8-.7v-.8l.8-2.7v-3.8l-1.1-1.9-.8-2.3v-3l.8-1.2.7-.4h.8l.8-.7.7-.8v-.8l.4-2.2v-1.2l-.8-3v-.8l.8-.8h3.8v1.2l1.5 5 .8.7.8.8h.7v-1.2l.8-1.1.8-.4 2.6.8.8-.8.4-1.5v-4.2l-1.2-.8h-.7v.8l-1.2.4-3.8 1.5v-6.1l.4-.8.4-.8 1.9.4.7.4 2.3 1.5Zm-223.2 361-.8 3.5-.8.3h-.7l-.8-1.9.4-.7.7.3h.8l1.2-2.6h.3l-.3 1.1ZM556 109h-3.8v-.8l1.2-.8v-1.1l3 .8v.7l-.4 1.2Zm24.5-10.7-1.2.4h-1.5v-3.1l.8.4v1l1.1.4.8.8ZM623.2 57l-1.5 1.2-.4 1.1h-1.5l-1.2 2-1.1.3v1.2l.4 1.1h-.8l-.8 1.5v1.2l.4.8-1.1 1.5h-1.2v-2l.8-2.2V62l1.1-.4v-.4l2-1.9v-.7l-.8-.8v-1.1h1.5l.8.7.7-.4.4-1.1 1.6-1.9.3-1.5 1.6 1.1-.4 2-.8 1.4Zm10.3-22.5-.7.8-.8-.8-.8-2.3.4-1.1h.8l.7 1.9.4.8v.7Zm6.5-10.3-1.5 2-1.5-1.6-2-.8h1.2v-1.5l1.1-.7 2.3-1.2h.8l.8-.8v-.3l.3-.4 1.6-1.2.3 1.2v.7l-.7.4-1.2 1.2-.7 1.1-1.2.8v.4l.4.7Zm-1.9 2.3v.4h-1.5l-.8-2h1.2v.9l1.1.7ZM791.5-87.7h-1.1v-1.5l1.5.3-.4 1.2ZM111.4 568.8l3.8 6.1 1.5.8 2 2.6.3.8-.4 2-.7 5.3-.8 1.1-2.7-.8v-.7l-1.1-3.8-2.3-2.7h-1l-.8-2.3-1.1-2.7-3.9-5h3l1.6-1v-.8h.8l1.9 1.1Zm28.2 66.8h-1.5l-3.8-2.7-.4-.7v-1.6l-3.8-5.7v-1.5l1.1-4.6 3.9-.8.7.8.4 2.3 2 3.8.3 2 .8.7v1.1l1.1 2.7 1.1 1.1v2.3l-1.9.8Zm310 140-2.3 4.7.7.3.4.8-3.8.8h-2.3l-3.8-.8-2.7-1.1v-1.6h.8l1.9.4.8-.4v-6.5l2.6-2.6 1.6-1.2 1.5-.7 4.6 1.5.7.4.4.7v.8l-1.1 4.6Zm-21.4-8.7 1.5 1.1 2.7 3.1v.8l-.4 1.1-2 1.1-3.7 2.3-.8.8-.8 2-.3 1-.8.8h-2l.9-1.5V778l-.4-1.2-.8-1.1-1.9-1.6-1.9-1.5-2.3-.4-1.9-.3-.8-.8-1.1-1.5-.8-1.2v-1.9h2.7l3.8 1.2h3l2.7-2.3h.8l2.7.7 1.9.8ZM261 636.7l.8 1.2.7 1.1.8 1.6.8 6.4 2.6 5.8 7.7 2.3-1.2.7-.7.8v1.1l-1.6 3.8v.8l.8 1.2v1.5h-.8l-1.1-.4-1.2-.4-.7-.7-.8-.8h-.7l-2-1.5-1.9-.8-2.3-.4-1.1-1.9-.8-1.9.8-3-.8-.8-.7-.8-.8-2.3-.4-2.6-1.5-.8-2-.8-.7-.3-3.8.7h-.7l-.8-.7-2-.8v-1.5l1.2-1.2 2-1.1 1-.8V636l.8-.8.8-.8 2.3-.7.8 1.5.7 1.5.4 1.2 1.1-1.5-.7-2.7 1.9-.4h1.5l1.2.8.7.7.4 2Zm303.8 53v5.4l-.7-1.5h-1.6l-.7 2v1.4l-.4 1.2v4.6l.8-.8h.3l2 1.5.7.8v1.1l-1.1 1.2-1.6.8-1.1-.4-.8.7-.4.8v1.1l-1.1 2.3-.4.8-1.5-.8-.8.8h-.7l-1.2-2.3v-1.1l.8-1.6v-.7l.7-1.2.8-1.5.8-.8v-.7l.4-2.7V699l.3-1.2.4-2.3v-3.8l2-3.8 1.5-1.2h.7v.8l2 2.3Zm-9.5 15v1.5l-1.2.8h-1.5l-1.5-.8-.4 1.2h-1.1l-.4-1.6.7-3.8 1.2-1.1v-1.6l-1.2-3 .4-1.5 2.7-1.2 2.3-1.9h.7l.8.8.4 5.3-2.3 4.2.4 2.7ZM301.5 529l-2.3.8-1.6-1.2 1.6-1.5h.7v-.8l-2.3-.7-.7-.8-.8-1.9v-1.1l3.5-3.1.7-.4v1.2l2.7 3.4v3l-1.5 3.1Zm-2.3 134.7v2l-.8.7-1.5 1.2-.4.7H295v-1.1l-.4-.8-1.5-1.1h-.4l-.4 1.5-2.7 1.1h-1.1l.4-1.9-.4-1.1v-2.7h-.8l.8-1.5v-1.2l.8-1.5.3-3 3-.8.5.4 3.8.7 2.3 2.3 1.5 2.7-1.5 3.4Zm478.2-67.1h5l1.5.7 1.5-.4h1.2l3 3.1 1.6 1.9 2.2 1.5h2l-1.2 2-2.7 1h-.7l-2-.7-1.5.4-1.5-1.1v-1.6l-1.9-4.2-1.5 1.6-2.3-2h-.8v.4l-1.1-.7-.8-1.2v-.7Zm2.3 18.7h13l3.4 1.1 5.7-.4h2l1.1 1.2-3 1.1-1.6.8-2.7.4H795l-1.6.3-.7-.3-2.7-.4-3-1.2-7-1.1v-1.2l-.3-.3Zm-83.2-25.6 3 .8h.8l4.6 1.5.8 1.1v.8l.3.8-1.1 1.9h-.8l-.7-.4h-1.6l-1.5.4h-1.1l-.8-1.6-1.5-.7-2.3-2.7h-1.2v1.1l1.2.8 1.5 2h1.2l1.1 1v1.2l-2.7.8-.7-.8V596l-1.6.8-.7.7h-.4l-1.1-1.9h-2.7l-2-.7.8-1.2v-1.1l1.6-.8 1.1.4 1.2-.8h.7l.8-.4 2.3-.3 1.5-.8Zm-42.7-38.6-2.7.4-.8-.7-.7-4.2 1.5-3.9 2.7-1.9 1.5-.7h.7l1.6 2.3-1.2 5-1.1 2.6-1.5 1.1Zm-2.7 75.2-1.2.8h-6l-3.1 1.1-2-.3-1-1.2v-1.1l.7-2.7 2.3-2.3 1.1-.4 1.5.4 3.1 1.5 2.3 1.6 2.3 1.5v1.1Zm-36.7 18v.4l-1.1-1.2-1.1-2.7-.4-1.1-.8-2.7v-.7l.8-1.6h.7l.8.8-.4 3 1.5 3.9v1.9Zm-.7-13.4 5.3.4-.7.8-5.8 1.5h-2.3l-6 1.1h-.8v-1.1l-1.2-.8 1.2-.7h5l5.3-1.2Zm-18.7-.4 1.5.4h.8l.3-.8h1.2v1.6h2.3v1.9h-3l-2.4 1.5-3-.8-3.5 2-1.9.3h-1.9l-1.5-2.6.8-3.9h.4l1.1-.7h3.4l5.4 1.1ZM711 750h-3.8v-1l-.4-1.2.8-1.9V744h.7v-1.5l1.2-3 .7-.5.8-.3 1.1-2 .8-.3.4-1.6 1.1-.7v-1.6l2-.7.7.4.8 1.1-1.6 1.5.8 3.9-1.1 3.8-.8 1.1-1.1.8-.4 1.1-2 2v1.5l-.3.7-.4.4Zm-80.5-1.1v1.5l-2 .7-2.2 1.2-.8 1.1-.8 2-3-.8h-2.3l-1.1-.4h-1.6l-1.5.8-1.9 1.5h-.8v-2l.8-1.4 2.3-3.1 1.9.4h2.3l2.7-.8 1.9-1.5 2.6-.8 2 2 1.5-.4Zm-39.7 11.4.4 1.5 1.5-.7h1.5l3-.4h2l1.5.8v2.2l-.4.4L589 767l-1.6-.8v-.3l.8-2-.4-.7.8-1.5 1.1-1.2h1.2ZM701 616.1l-.8.4H698l-1-1.5-.8-1.5-.4-1.6v-.7l-.7-1.6v-.3l3.8-2 .8.8h1.5l.7.8v4.6l-.7 2.6Zm-604.6-124h2l3.7-.8 2.3.4 2 .8 1.8.7 4.6-.4h.8l.7.8.8.4 2 3 3.7 3 .8 2.4.4 2.3.4.4 3.8 5 .4 1.8-.8 2.3 1.1 2.3 3.9 2 2.2 1.4.4.8.4 1.1 1.5 1.6 1.6 1.1 4.5 2.7 6.5 5.7 3.8 2.7 2.7 3.8 1.2 2.3.7 2 2 3 3 3.8.8 1.1.7 1.5 1.2 1.6 1.1 1.5 1.2 1.1h1.5l2.3 3.1 1.1.8v-2l-1.1-1.9v-2.2l1.1-.8h1.2l1.9.8 3 3 1.2 2 .7 2.6 1.2 2.7 1.1 1.1 1.5.8h2l1.9 1.1 3.8 3.8 1.5 1.6 1.2 1.9.7 2.3v2.6l.4.4 2.7 3 1.5 1.6 1.5.8 5 .7 1.9 1.2 1.1 1.5.8 1.9-1.1 1.5-3.9 2.3-4.2 1.5 3.9-.3 2.2-.8 2-1.1 1.9-1.2 3-1.9.8-.4h1.5l1.2.8 1.5 1.9 1.9 1.9 1.1 2.3.8 2.7-1.5 1.1-2 1.1-3 2.3v1.6l-.4 1.9 1.6 1.1v1.2l-1.2 1.1v1.2l1.5 3.8 1.2.4 2.3 1.9 3.8 1.9 2.3 1.1 2.3.8h1.1l2-.4v.8l.7 3.8.4 1.9.7 5 .8 1.9v2.2l.8 2.3 1.9 1.2 1.9 1.1.7 1.2v2.6l-.7 1.2-2.3 1.9v1.1l-.8 2.3.4.8h1.5l2.7-3.4.8-.4.7-.4h7.7l1.5 1.1 1.5 1.6 5.7 7.6 2.7 4.6v2.3l-.4 1.1-2.3 2.7v1.1l-1.1 3v2.4l1.1 1.1.4 1.2v.7l-1.5 5v.8l.8 7.6v9.5l-1.6 13.4v.8l-1.1 2.2H254l-1.1-.3-.8-.8-.4-1.1-.7-.8-3-2.7-.8.4-3 3-.8.4h-1.2l-1.5-1.1-5.4-3.4v2.2l.8 3.9v1.5h-1.5l-2-2-1.8-2.2-2.3-3-1.6-1.6-1.5-1.9-4.2-6.1-1.1-1.1-6.5-4.2-1.2-1.2-1.5-1.9-1.9-1.5-3.8-2.7-6.9-6.9-2.7-3.8-3.4-5.7-.8-1.5-5.7-4.6-2.7-3-1.5-1.6-2.7-5.3-.7-2-1.2-1.5-1.5-1.5-1.5-1.5-3-5-1.2-1.9-.4-2.3v-4.2l-6.5-13-1.5-3.8-1.2-5.7-.3-.8-3.9-5-.7-1.5-1.5-1.5-1.2-1.9-2.7-5.7-.7-1.5-1.2-1.6-4.5-2.3-2-1.1-1.1-1.5-.8-2.3-.7-4.6-2.3-7.3-2-9.1-1.5-4.6-1.9-3-.7-.8-8-6.5-1.6-.8-1.5-.7h-1.9l-2-2-.3-2.6v-3.8l-.8-2.3v-1.2l-3.8-2.6-1.1-2.3-1.2-2.3-1.1-1.5-3.8-6.5-1.2-1.6-1.5-1.1-4.6-1.5-1.5-1.2-2.3-3.4-1.1-2-4.2-3.7-6.9-8.4-1.5-2-.8-2.2-1.1-2.3-2.7-6.5v-1.2l.8-1.1v-3l.7-.8 2-.4h2.2l2 .4 1.8.7L85 486l3 3.4 2 1.2 2.2.7 4.2.8ZM559 772.2l-2.7 1.2-1.5.7-1.1.8h-1.2l-1.9.4h-3.8l-4.6 3h-1.9l-1.5.8-.4-.8-.8-.7h-3l-1.6 2.3-2.2-.4h-1.2l-.8.4-1.1.4h-.8l-3.8-1.6-3.8-.7-4.2.3-3.8-.7-1.5.7-2 1.2-.7-1.2-.8-.7-.4-1.2v-2.6l.8-1.2v-1.9l1.2.4h.7l2.3-1.5 2.3-2 2.3-.7h3.4l1.2-.4 1.9 1.2.7.3h2.3l2.3.8 2 1.2 2.6.7 2 1.5 1 .4h2l1.1-1.1h1.2l1.1-.4h2.3l.7-.8 1.2-.3h.8l.7.7 3.8 2.3h1.2l1.9-.4.4-.7v-1.2l.7-1.1.8-.8.8-.4 2.6-1.1 2-1.2 1-1.9-2.6-.4.4-1.1.8-.8h1.5l1.1 1.2.4 3.4-.7.4-.8.8v.7l-2 1.2.8 1.9-.3.7h-.8Zm-49.6 17.6 1.1.8 3 1.9.5.7v1.2l.7.7h2.7l1.1.4 1.2.8 1.1 1.9 1.2 1.9 1.5 1.1 1.1 1.6-.3 1.5-2 2-1 .3h-1.6l-2.3 1.5-.8-.7h-2.3l-1.9-.8-1.9-1.5-.7-2-1.6-1-1.9-1.2-3.8-2.7h-4.2l-5-1.2-.7-.7-.8-.8-.4-1.1-.3-1.2.3-.7.8-.8 2.7-1.1 1.9-.4h2.3l3.8-.4h3.8l2-1.5.3.4.4 1.1Zm-31.7-20.2 1.1.7h.8l1.5-1.5 1.2-.4h2.3l.7 1.2.8 1.1v.4l.8-1.5.7-.8h2.3l1.2.8 1.1 2.3v2.2l.4.8.8.4.3.8v.7l-.7.4-1.6.8h-.3l-.8-.8h-2l-1.4.4v.7l1.5.4v.8l-2-.4h-.7l-3.8 1.2h-.8l-.3-.8v-2.3l-.4-.8-2.7 3-.8.9H475l-3.8 1.9H469l-3.8 1.5-2.3.8h-3l-1.2.7-1.5.8-2-.4-1.4-.8-1.6-.7-.4-1.2v-1.1l.8-1.5-.8-3.1.4-1.5.8-1.2.8-.4h1.1l2-1.5 1.8-1.5h1.2l2.3 1.1h3.8l1.1.4v1.5l.8.8h.7l1.6 2.7h3l2.3-1.2h2l.3-1.5-1.1-1.1-1.2-1.2h-2.3l-2.7-2.3-1.1-1.5-.4-1.5v-.8l2.3-1.1h4.6l.4.7 1.1 2.3.4 1.2Zm114.5-192.8-3.8 3.8-.8 1.6-.7 1.9-1.2 1.9-1.5 1.9-.8.4-1.9 1.1-1.1.4h-2l-6 1.9h-2l-1.9.4h-5l-1.4-2-2-1.5h-3l-11 .8-3.9.4-3.8.8h-2l-2.2-.8h-3l-7.7 1.1H522l-3.8-1.1H514l-2 1.5-.7.8-2 3-1 2-.8 2.6-.4 2.7-.8 2.3v2.3l.8 2.3.4 2.6.7 2 2.7 4.1.4.8 2.7 1.1 1.9 1.6 1.5 3.8 1.1 2.7h4.2l2.3.3 2-1.5 1-2.7 1.2-1.9 2.7-3.8 1.5-1.5.8-.4h1.1l.8.8 1.1.7 2 .4h2.2l2-1.5.7-.8.8-.7 1.9-1.2h6.9l3.8-.4v-.7l-.8-.4v-.8l.8-.4 2.3-.7 2.6-.8h2.3l1.6 1.2.7 1.1v5.4l-.4.7-1.5.4H564l-1.6-2-1.9-.7-2.3.8-1.1.4-.8.7-1.5 2.3-1.1 2.3-2.3 3.8-3 2.7-1.6 1.5-1.5.8-5.4 2.3-1.1 1.5-1.2 2-1.1.7h-2.7l-1.9-1.2-.8.8v1.5l1.2.4 1.5 1.5 1.5 2 .8.3 2 .8.7.8 1.1 1.5 2.3 4.2.8 2.3 1.5 1.9 3.8 3v2.7l1.5 2v1l-1.1 1.6v2.3l-.8 3v2l.4.7.8.4 1.1.4.8.7 1.9 2 .8.7.3.8v1.1l.8.8.8 1.1h1.5l.4-.7h1.1l.4 1.1v1.1l.4 1.2v2.7l-.4.7h-.8l-1.9-.7v.7l-.7.4h-3.9l-4.5 2-1.6 1-1.1 1.6v1.1l.4 2.3-.4.8-2.3.4-3-.4-1.6-.8h-1.1l-1.5-1.9-.4-1.9.7-6.1v-.8l.8-.7.4-1.2v-1.1l-1.2-1.5-2.3-.8-1.9-1.2-7.2-6.8v-3l2.3-4.3v-.7l.4-3.1v-2.7l-.4-2.6-1.2-1.6-1.9-.3h-1.9l-2.3.3-1.5 1.6-3.8 2.6-1.2 2v1.8l.8 2.3.8 1.6.7 2.3.8 7.2v.8l-.8 1.9V689l.8 3.8v2.3l-1.5 5-.8 2.7v1.1l2.3 5v1.9l.8 1.9-2.3-.8h-2l-2.2.8h-2.3l-.8.4-1.5 1.5-.8.4h-.7l-3.1-1.2-1.5-1.9-2-1.9v-2.3l.4-2.3.8-2.2 1.5-4.2v-5l1.2-2.3V681l-2-4.6-.3-.7v-4.2l-1.2-.8h-3l-4.6 1.5-1.1-1.1-1.2-1.5-.4-2.3-.3-2.7v-2.3l.3-2.3v-1.5l-1.1-2v-.7l.4-.7.7-.8h1.2l.8-1.1 2.2-2.3.8-2v-2.6l.8-2.3 1.1-2.3 1.2-2.3.3-1.9-.7-3.4.4-1.6v-3.4l.3-3.4 2.7-6.9 2.3-3.8 1.1-.8 1.6 1.5.7 2v-3.5l-1.1-3.8-1.2-8v-.8h1.2l.8-.7.3-1.2-.7-3v-1.2l1.5-3.8 1.5-2 .8-.7v-2.6l1.1-1.2.8-.8 1.1-1.5.8-2.3h1.2l.7 1.6.8.7 1.9.4 1.5-.8v-.7l.8-.8.7-1.1.8-.8 1.1-2.7.8-1.9.8-.7 1.1-.4.8-.4h1.1l2.3 1.1h3.5l.7.8.4 1.1.8 1.2h.7l.8.4 4.6-.4 4.5.8h5.8l1.9.7 1.9.8 2.3 1.5h1.9l1.1-1.5h5.8l9.9 1.1 1.1-.4 6.1-3.8 2.3-3.4 2.3-.8.4-1.5.4-1.9.7-.4 2-.7.7-.4 1.2-2.3 1.5-2.3.7-.4h2l1.1.8 1.1 3v.4L596 568v.4l-1.9 4.2-.8 2-1.1 2.2ZM284.3 725l1.5 2.3 1.5 1.1 2 .8h3.8l2.3 1.2 2.3.3h1.1l1.1-.3h1.2l1.5 2.2 2 2v.7l1.4 4.2 1.2 1.2 1.9.3h4.2l5 1.6h1.9l1.9-1.2 1.5.4 3.8 1.5h8.4l1.2.4.7.4h1.2l1.5-1.2 1.1-1.9 1.2-2.2.4-2.3.7-1.2.4-.7 1.2-.8h3l.8.4 2.6 4.2.4.4h3.8l1.6-.8h1.1l2 1.1.7.8.8.4 4.5.7 1.6 2h6l2 .3.7 2.7.8 2.7v.7l2 .8 1 .8-.3 2.6v2.3l3.8 2.3 4.6 1.2h4.2l4.5-.4 2.3-.8 3-.7h.5l5.7 2.6.4.4.7 2.3v2l-1.1 5.3v2.6l1.1 3.5.8.7 2 1.5v2l-2.4-.8-1.5-.8-.8-1.1-1.1-.4h-2l-3.7-1.1-4.6-1.6-7.6-3.8H387l-2.3.4-2 1.1-2.2.8H377l-4.2-.8-4.2-.7h-11l-3-1.2h-5.4l-3.8-1.1-3.9-.8-10.3-5.3-3.4-1.2-10.3-2.6h-5.3l-2-.8H308l-3.1.8-.8.7-1.1 1.2h-2.3l-1.9-.4-5.3-1.2-2.3-.7-2-1.2-1.5-1.5-1.1-.4-4.6-1.5-3.8-.4-7.6-.7-2-.4-1.5-.8-.7-1.1v-1.6l.7-1.1.8-1.2.7-1.1-5.7-2.7-4.6-1.5h-1.9l-2.3-.4h-5l-1-.4h-1.6l-.4-1.1.4-.8 1.2-1.1h.7v1.5h.8l.7.8h.4l2-2.3.3-1.2.8-3 1.1.8.8-.4.4-.4 1.5-6.9 1.5-2.3 1.5-1.5.8-.4 1.5 1.2h3.5l1.9 1.1h3.8l2.7 1.5h1.1l.8-.3 1.5-1.6.4-1.9 2.3 1.2 3 .3.8.8Zm40-161.8-1.5 2.3v1.1l.4.8 1.2.7.3 3 1.6 2 1.5 1.9.8.8 1.1 1.1 1.2 1.2.7.7 1.2 1.2 3.8 3.8 1.1 1.1 1.2 1.2.7.4h2l5.7-3.1h1.1l2-.8h3l3.8 1.2h.8l1.1-.8h1.5l1.2.8.7-.4 2-2 3-.7.8-1.9.7-1.9v-2.3l1.2-.7 1.9-.8 2.3-.8h8.7v2l.4.3h1.2l1.1.4 3.8 2h2.7l2 1.4 1-.3 1.6-1.2 1.1-1.1 1.2-1.2 1.9-.7h4.6l1.9-.8 2.3.8h.7v-1.2l1.6-1.9v-1.5l.7-2.7v-.8h1.2l.7-.7v-.8l.8-1.1-.4-.8-.4-.8-.7-1.9v-1.1l.3-.8 1.2-.4 2.3-1.5 1.9-2.3 1.1-.7.4-.8v-.8l-.8-.7-.7-.8V546l.4-1.1 1.1-2 1.2-.7 1.1.4h1.1l1.6-.8.4-2v-1.4l.3-2.7v-.4l.8-1.9v-9.5l.4-1.2.7-1.9.8-2.3 2-1.5.7-1.5h1.5l2.3.7 2-1.1h3l1.1.4.8.3 1.5-1.1h.8l.7.4h8.8l3 .4 3.1 2.3h2v.3l-1.6.8-.4 1.1 1.5 2v1.1l1.6.8 1.5 1.5v.7l.8.8v.8l-.8.7-1.5.4-1.2-.7-1.1-1.2v1.5l-1.2.8h-6.8 1.1l.8.8 3.4 3 .8 1.5-1.2 2.3.4 1.2 1.1.4 1.6 1.1h1.1l.8.8v1.1l.4 1.2-1.2.3 1.5.4.8.4-.4.8-.4.7 2 .8.3.8.4 1.5 1.5 2.3 2.7 3.4.8 1.2v1.1l-.4.8-1.5 1.1-1.2 1.5v.8l-1.9.8.8.3.7.8 1.2 2 2.7 3 1.5 1.5 5.3 4.2 3 1.9 3.9 4.2 2 1.1.3 1.2-1.5 1.9-2.3 1.1-3.8.8-3.9-.8-2.3-.3-1.9-1.2-1.5-1.9-1.5-1.1.7 1.1v3l-.7 1.2-1.2.8-1.1.7-.8.4-3 8-.8 2.3-.7 8.8v2.3l1.5 4.6v2.6l.7.8-.3 1.2-.8.3-2.7 1.6-2.3 1.1-1.5 2-1.1 1.8-1.6 1.6-1.5.7h-1.1l-.8-.7-.8-1.2v-1.5l-.3 1.1v1.2l.3 1.1v2.3l-.7 1.1-2 .8-.7 1.2v1.5l-.8 1.1-.7.4-2.3 2-.8.7v.7h2.3v1.6l.4 1.1v2.7l-2.3 1.5 1.1.4.8.8h2l.7 2.3v1.9l-.8 2.3-1.1.3h-2l-.7.4v1.2l1.1-.8v5.3l-.7 1.6-.4 1.1h-1.1l-1.2-.4v1.6l1.5 2.2h-.7l-.8 1.2v.8l-1.9 2.6-.8 1.6v1.9l-1.1 1.5-12.2 6.5-10 5.3h-.7l-.4-1.1-.4-8-1.1-4.2-.4-2.7-1.5 2.3h-.8l-1.1-.8-.4-.7v-.8l.4-2.7-.8 1.5-1.1 1.2h-.8l-1.1-.8v-.7h-.8l-2 2.3-3 1.1h-1.5l-1.1-.8v-3.4l-.8-1.1h-1.5l-2 .7h-.7l-.4.4-5.3-6.1-1.2 5-3.8 3-2.7 1.5-3-.7-2.7-.8-2.7 1.2-3 3-.8.4h-1.1l-.4-.4v-9.5l-.4-1.2-.7-1.1-1.2-1.2-.8.8-.7 1.1h-2.3l-2.3-1.1-2 .8-3.7 1.9h-3l-.8-1.2.3-1.1 1.2-.8-1.5.8-1.6.7-.3.8h-.8l-1.5-2.7-3.9 1.2-1.1.7h-.8l-.3-1.1v-5l-2-9.1-.3-5-.4-1.1-2.3-1.6v-2.3l1.1-2.2v-5l-.7-2.3-.8-1.9-1.1-1.5-1.6-2-1.9-1.5-3.8-1.1H319l-.7-.8-.4-.7V618l.7-1.1h1.2v-.8l-2-1.1-1.8-1.5-.4-1.2V607l.8-.8v-2.7l1.5-.7v-.4l-.8-.4-.7-1.1-.4-.8-1.6-2-2.2-1.8v-3.8l-.4-5v-2.7l.7-4.2 1.6-1.5.7-.4.8-.7h-1.2l-.7.3.7-3.8v-1.1l2-2.3 1.9-2 .7-2.6.8-1.9 4.6-1.5Zm317.7 14h2.7l.8-.8V575l.7-1.9 1.2-1.5 1.1-.4.8-.8v-3l1.1-2 3.5-2.6 1.9-.8 2.6-.4v2l.4 1.9v5.3l-.4.8-2.6 1.9-3 1.9-.9.4-.7 1.5v1.5l2.7 2 3.8 1.5.7.7.8 1.2v1.9l1.1.4 1.2.3.8.8.7.8-6.5-2-1.5-.7h-4.2l-2-1.2h-2.2l-.8.8-.3 1.2v6.4l1.5 6.2 2.3 4.5 3 4.6 1.6 2 1.5 1h-2.7l-.8-1.8-3.4-1.2-.4-1.1-2.3-4.6-.7-.8-2-1.5-1-1.1v-10.7l-.8-.8-.8-1.1-1.1-2-.4-2.2v-2.7l.7-1.2v-1.1l-1.5-1.5-1.5-3.8v-2.7l1.5-4.6v-3l.4-1.6 1.1-3 1.6-2.3 2.6-3.8 1.2-.8 1.5-.4v1.5l-2.3 3.9v1.9l.8.7 1.1 2 .4 2.2v4.6l-.4 1.2-1.5 2.6-3.8 3-.8.8v.8l1.2 1.1.7 1.2Zm38.2 72.5 3.8 1.5h7.6l3.9 2.7.7 2v1.5l.8 1.5 1.1.4h.8l1.5 2.2v.8l-.7 5.7-3.9-1.9-3.8-1.9-1.9-1.1-4.6-1.6-.7-.7-.4-1.2-2-1.1H677l-.3.8v1.9l-.8.3-2.7-.7h-1.9l-1.9-.8h-2.7v-1.9h-1.9l-1.1.4-.8.8-1.1 2.2-.8.8h-3.8l-2.7-3.8-.7-.4-.8-.8h-1.2l-.7.4-.4 1.2v1.5l-.4.8-1.1 1.9-.8 1.5v-4.2l-.4-1.1-.4-1.2 3.9-6 1.5-1.6 6.5-.8h6l1.6-.7h1.2v1.1l1.1.8h.8l1.9-1.2 1.5-1.5 1.1-.8h3.1l2.3 2.3Zm-51.2 7.6 3.1 1.2.8 1.1.3 1.2.8.7.8.4 1.1 1.2v4.2l-1.1.4-1.2.7-2.6 2-1.2.3h-1.5l-.8.8h-1.1l-2.3-.4-2.7-1.2-3.4-1.9-.4-.7-.8-.8-1.5-2.3-.4-1.1-.4-3.8v-.8l1.2-.4 2.3.8 1.5-1.2 4.2-1.1h4.6l.7.8Zm-31.6 119.9v2h.3l.8.3 2.3-1.2.8.8v1.5l-.8 1.6h-2.3v1.9l.4.4.8 1.1.7 2.7-1.5 1.1-.4 2-2.3 1.8-2.3 3.5-1.9 1.5-1.5 2.3-1.5 1.1-1.6.4-3 .4-3.4 2.7-2 1.1h-2l-1.9-.4-.7-1.1v-.8l.7-1.1.8-.8v-1l-2-1.2v-1.1l.8-2.7.4-2.7.8-1.5 3-3.8 1.6-1.5 1.1-.8.4.8.8.7h3.8l1.1-1.5.8-.8v-1.5l.4-1.1 2.3-.8 1.5-.8.7-1.1 3.5-2 .4-.3Zm172.9-77.5v2l.3 1.5-.7 1.1.7 2v5.3l-.7.3-.4.4-.4.8-3.8-.4-1.5-1.1-1.2-1.6-.4-.4-1.5-1.5-.4-.4v-1.1h2.3v-1.2l.8-2.6-2.3-2v-.3l.4-.8 1.9.4 1.9-3 .4-.8v-2h2.7l.3.8.4 1.2v.7l.8.4.4 2.3Zm-3 15.3v1.5l-.5 1.5-1.5 2-1.1 2.6-.4.8-2.3 1.5-2-1.5-.7-1.2.8-6h1.5l-1.1-.8-.4-3.8v-1.2h.7l1.6.8 1.5 1.5 1.5 1.5 2.3.8Zm72.4 30.5-4.2 3h-7.6l-3.4 1.2-.8-.4.8-2.6 2.3-6.9 3-6.1 1.2-2 1.9-1.4 1.9-1.2 4.2-1.9h3.8l.7.4 2 1.9 1.1 1.5.4 2-1.5 3.7-1.6 3.9-3 3-1.2 2Zm38.2-118.3v7.6l.4 4.6v3.8l.4 4.2v3.8l.3 4.2v4.2l.4 3.9v4.2l.4 4.2v3.8l.4 4.2v4.2l.4 4.2v3.8l.4 4.2v8l-1.2 3.8v2.3l.8 2 1.1 1v3.5l.4 3.8v8.4l.4 3.8v4.2l.4 4.2v3.8l.3 4.6v8h-.7l-2.3-2.3-2.3-2.2-1.5-2.3-2-2-7.2-5.7-1.5-1.9-.4-.7v-.4l.8-1.2 1.1-3.8-1.1 2.7-2 1.5-2.2.4-2.7.8-2.3 1.1-2.3.4h-1.1l-.8-1.5-.4-1.2v-1.1l-1.1 2.3-2 1.1-2.6 2.7h-.8l-.3-1.2v-1.9l.3-1.1.4-2.7 1.2-1.5.7-3 .4-1.2v-1.2l-.4-1.1H847l-.8-.8-1.1-1.9-.8-.7-.8-.8-1.1-.8 1.1-.7 1.2-.4h3.4l2-.8h-2.4l-3.8-.7-1.9-1.2-2.3-2.3v-.4l1.6-.7 3-.8-1.1-1.5-1.6-.8-.3-2.3-1.2-1.1-2.3-2-1.5-2.2-1.5-4.2-1.2-3.4v-1.2l1.2-1.1h-3l.7-2 1.5-1h-1.5l-1.5.7h-1.2l-.8-.4v-4.2l-1.5-.8-1.1-1.1h-1.6l-.7-.8-.8-1.1-8-3.8-.8-1.6-.3.8h-.8l-1.2-.4-1.1-.4h-1.9l-.8-.3h-1.1L803 679l-4.2-1.9-3.4-.8-2-1.1-2.2-1.2-4.6-.3-4.6-.4h-2l-1.4.4h-1.2l-8-4.2-1.5-2.3v-1.6l.4-1.1 3-.4h-3l-2 1.2h-.7l-1.5-.4-1.6-.8-1.9.8-1.1-.8-.8-1.5-.4-.4h-.7l-1.2.8h-1.1l-.8-.8-.4-1.1-1.1-.8-.8-.4-1.5-1.5-.8-2V652l1.6-2.3.7-1.9h-1.1l-1.2.8-.3 1.1v5l-1.2.7H747l.4 2.3-.4 2-1.5 2.2v3.5l-2.7 3.8h-3l-2 .7-1.1-.7-.8-.8-.4-1.1-1.1-2.3-.8-2.7 2-3-.8-2.7-1.6-2.3-3.8-3-3.4-3.1h-1.5l-2.7-.4h-1.2l-.7-1.5-.8-1.2 2-.7 2.6-2h1.5l4.6.4 1.5.8 1.2.4 3-2.7 2.3-3.8 1.5-.8 1.2-.3h1.1l2.7 1.1 2.3.4h1.1l1.2 1.1h.8v-1l.7-2 1.5-.7h.8v-2.7h-1.9l1.1-1.5.8-.8v-.7l.4-.8-3.8 2-3.8 1h-4.6l-4.6 1.6h-5.7l-2.3-.4-2 .4h-1.5l-1.9-.8-1.5-1.5-.8-1.1-1.1-.8-.4-1.1-1.1-4.6-.4-3H714l-7.7-2.4-1.1.8-1.2.4h-3V618l.7-1.9.8-.7.8-.8.7-1.1 1.2-3.5v-3h.4l3-1.6 5.7-1.9 1.6-1.1 1.1-1.5 1.5-1.2.8-1.1.8-.8 4.5-2.3h3.9l4.2.8 3.8 1.5 3.8 2.3 3.8 1.5h3.8l2.7-.4h2l1 .4 1.6 1.5-.4.8v2.3l.8 2 1.1 1.8 1.2 2.3v4.2l-1.6 2-.4 2.2.4 2.3.4 2.7v2.3l.4 2.3.8 1.9 3 6 2 4.3.7-2.3-.4-2.7.4-1.1 1.1-.4h1.2v3.8l1.5 4.2h1.1l1.2-.4.4 1.2v2.6l.7 2 .4.7 2.3 1.5h1.1l2.7.4h2.3l2-.8 1-1.5 1.2-1.9 3.8-4.2 1.2-1.9 1.1-3 .4-.4 3.8-3.9.4-.7.8-2.3.7-2 .4-1 3.8-1.6 3.8-.7 4.2-2.3 2-2v-.7l-1.2-2v-.7l.8-.7 3.8-2.7 3.8-3 3.4-2h1.6l1.9 1.2 1.9 1.1 9.5 2.7 1.5.7 1.6 1.6 1.9.7h2.3l1.9.8 1.9 1.1 3.8 2 5.7 2.2h1.6l5-.7.7.4 1.1.7h6.5l.8.4.7.8.8 1.9 4.2-.4Zm-32 119.8-.8.4h-4.2l-.8-.7v-.8l1.2-.8.7-1.5 1.5-.8h.8l2 3.1-.5 1.1ZM185.3 560l1.2 1.5v1.2l-.4 1.1v2l-2.3 1H182l-.8-.7-.7-3v-2.3l.7-.8h1.6l1.9-1.1.7 1.1Zm12.6 22.2-.7.3-1.2-.7-.7-1.6v-1.5l-.8-2.3V575l.4-1.1h.4l1.5 1.1.8 1.5.7.8v1.5l-.4 2v1.5Zm1.2-9.6v2.7l-1.2-.8-1.1-1.1-1.5-.8h-2l-1.5-1.1-.7-1.2v-1.5l7.6 2.3.4 1.5Zm9.1 14.5v.8l-.7-.4-3.8-1.1h-.8l-3-1.2-.8-.4-.8-.7v-1.2l.8-.7v-2l1.1-1.1 1.2 2 1.9 1 .7.8 3 1.2.9.7.3 2.3Zm2.7-2.3-.8.4h-.7l-.8-.8-1.5-1.1-1.2-1.1-1.9-.8h-.7l-.4-.4v-2.3h1.5l3.8 2 .8 1 2 3.1Zm2 6.5h-2.8l.4-1.9.8-1.1h.8l.7 1.9v1.1Zm3-2.3h-.4l-1.5-2.3v-1.5h.7l.8.8.8.7v1.2l-.4 1.1Zm9.9-10.3 1.1 1.2 1.2-.8v.8l-.4.7-1.1 2h-2v-1.2h-.3v-.8l.3-.7h.8l.4-1.2Zm10 0v1.2l1 .7v3l-.7 2-.4.4h-1.5v-1.2l-.4-.4v-.3l-.8-.4.4-.8v-1.1l-2.6.4h-.8v-1.6l1.9-1.5 1.1-.4h2.7Zm3 27.9h.7l.4-.8 1.2 1.5.7.8 1.2.8h-1.2v.4h-.7l-3.9-2.3-2.2.7-1.6-.7h-.4l.8-1.6 1.2-3 1.5.8v1l1.1.9 1.2 1.5Zm-5.4 3 2 2v.7l-.8 1.2-.4 1.5h-.4l-1.5-.4-.8 1.5-.7-2.6-1.2-1.6.8-1.5h.7l.4.4 2-1.2Zm-13 0-2.2.8-2.7-.8.4-1.1 1.5-1.5h.8l2.3 1.1.7.8-.7.7Zm105.4 18-3.8 1.9h-.8l-.4-.8V625l.8-1.1h3.8l.8 1.1v2l-.4.7Zm73.7 119H396l-1.9 2-1.5.4H385l-5-1.6-.8-1.1.8-1.5 1.9-2 3.8-.3 16-.4 1.6 1.5v.8l-3.5 1.1-.3 1.2Zm371-139.3h-2l-1.1-1.5.4-1.1 1.1-.8.8.4.4 1.1h.7l-.4 2Zm-136.3-2.6-1.2.4h-1v-4.6l1.1-.8 2 .8-.8.4.8 1.5-.8 2.3Zm5.7-3.8 2 2.6-1.2 3 .7 1.6h2.7l.8.4.4.8v1.9l-2 .7-1.5-1.1-.4-.8-.3-.4-2.3.8h-.4l-.8-1.1.8-2-1.5-.7-1.6-2v-4.1h1.2l1.5 1.1.4-1.1.8-.8.7 1.2ZM738 706.6l-1.1 1.9 1.1-4.2V702l1.5-1.1 1.6-6.5h.3l.8.7-.8 4.6-2.6 3.5-.8 3.4Zm-1.9-1.2-1.1 2.3-.8-.7h-.4v-3.5l-1.1-2.6h1.1l.4.7h.4l1.1 2.7.4 1.1Zm-81.7-38.1-.4 1.1-1.1.4h-.8v-.8h-.7l-1.2.4-1.1 1.5-.8-.7v-1.5l1.5-2h1.6l2.6-1.9h1.2v1.2l-.8.4v1.9ZM624 513.8l-.8.4h-1.1v-1.1l.7-1.6.8-2.2h-.8l-1.1-1.6v-1.5l.8-2.7h.7l1.2 1.6v1.9l1.1 1.5-1.1 2.3-.4 3Zm-20 13.4-.7.4-2-.8v-2.7l-.7-1.1-.4-.8v-1.1l1.5 1.5.8 2 1.2 1.8.3.8Zm98.9 231-1.5.7 1.1-2 3-3.7 1.2.7h1.5l-2.3 1.5-2.2 1.2-.8 1.5Zm-18.3-6.2-1.2 2h-1.1l-2.3-2.4V749h3.8l.8 1.5v1.5Zm-36 5.4 3.1.3h2v.8l-1.6 1.5-3.8-1.1v-1.2l.4-.3Zm41-132.5.3 1.5 1.2.8v1.9h-.8v1.1l.8.4-.8.4h-.8l-.7.8-.8.7h-2.7l-3.8-.7-2.3-2v-.3l3.8-2.7 2.3-.7h1.6l2.3-.8.3-.4Zm-494.3 87.8h-1.6l-2.6-2.7-.4-.7.7-.8h.8l3 1.5.4 1.2-.3 1.5Zm-34-47.7.8 3-2.3-1.9v-2.6l-1.6-1.2-.7-1.1-.4-3.9v-.3h1.1l3.9 4.5v2l-.4.3-.4 1.2Zm-3.8-8.8-1.2 1.5H154V654l-.7-.7.4-1.6.3-.4 3.9 3.9-.4 1.1Zm-6.1-8.4v.4l-2.7-1.5-1.5-.8-1.2-2v-1l.4-1.2v-.4h1.2l1.1.8.8 2.3 1.5 2.3.4 1.1Zm-23.7-37.4-1.1.8-1.6-.8.4-1.5.4-1.6 1.1-1.5v-1.5l-1.5-4.6h1.5l1.2 3.4 1.1 2-.4 2.2-1 3.1Zm-33.6-60H92l-.7-1.4-4.6-3.9H85l-.8-.7h-1.5l-1.2-2.7v-1.1l.8-.4.4-1.2 1.9.4 1.5 2.3 2 .8.3.7.8 1.2 3.8 3 .7 1.2v.7l.4 1.2ZM544.6 709l-.8.7-2.3-2.2-.7-2v-1.1l.7-.8V702l.8-.4h1.1l.4 1.2.8.4.4 1.5-.4 4.2Zm19-87 .5 1.5-.4.7.7 2.3 1.6-3h2.6l.8.7v3.1l-1.5 1.1h-1.2l-.7-1.1h-1.2l-.4 3h-.3l-.8.8-.8-.8v-.3l.8-1.6-.8-3.8-.7.8-2 3.8-1.5 1.5-.7-.7-.8-2.3v-3l1.5-2h1.2l3.4-.7h.8Zm-24-14.2.8.8-.4 1.1h-3l-.8.4h-.8l.4-.7 1.5-1.6h2.3Zm-21.3 119.5-.8 3.8-.4-1.5v-3l-.8-1.6.4-1.5v-4.6l.4-2 1.2 2.8v7.6Zm-91.6 16.4H425l-1.1-.4v-1.9l2.3-.4h1.1l1.2.4.7.8v.7h-1.9l-.7.8Zm16-63-3.8 3.9-.8-1.2.4-3.8-1.2-2.3v-2l.8-3 1.2-2.3 1.9-1.5h.7v3.8l.4.8v4.6l.4.7-.4 1.2.4 1.1Zm120.2 138.2h-2.3v-3l3.8-1.6 2-1.1 1.9-2.7 1.5-.8h.4v2l.7.7v.8l-1.9 1.1-1.5 2.3-3.8 1.5-.8.8Zm23-53.4-1.2 1.5-.8 1.9-.4.8-1.5.4-1.1-2h-1.6l.8-1.9.8-.7h1.1l.4.7 2.7-3h.7v2.3Zm-6.6-.8-2.3.8-1.5 2.6H574l-.4 1.2v1.1l-.8.4-1.1-.4-1.2.8-1.9-.8h-1.5l1.5-1.9 2.3-1.9.4-.4h-.8l-.7-.3v-.4l1.5-.4h2.3l3-2 1.2.5 1.1.3.4.8Zm-10.7 2.3-.3.8h-5v-1.2l1.5-1.1.4-.4 1.5-.4 2 .4v1.9Zm202-50h-1.2l-.4-1.5h.8l.7.7v.8Zm-555-135.5v1.1l-1.2-.3-.7-1.6.7-.7.8 1.1.4.4Zm6.9 5v.7l-1.6-1.1v-1.2l1.2.8.4.8Zm7.6-.4-1.5.4-1.2-2v-.7l1.2 1.1h.7l.8 1.2Zm7.6 15.6v.4l-.7-.4-.8-.4-2-3h.9l1.9 2.7.7.7Zm28.3-62.2v1.2l-1.2-.8v-2h.8l.4 1.6Zm-9.2 5.7h-.8v-1.9l-.3-.7v-1.2l.7.8.4.4.8.3.4.4v1.6l-1.2.3Zm54.6 0-.8.8-.7-.8 1.1-1.9h.4v2Zm1.1 90.9-2.3.7-.3-1.9 1.1-.4 1.5.4v1.2Zm-26.7 25.5v.8l-.7-.8v-1.1h1.5l-.8 1.1Zm-10 2.3h-1.4l-.4-.3-.8-.8v-.4l1.2-.8 1.9.8-.4 1.5Zm133.7 82.9v.7h-1.2l-.7-1.5.7-.4h.8l.4 1.2Zm-30.6-26.4v.8H377v-.8l.8-1.5h.8l.7.4-.4 1.1Zm-132.4 16.4h-2.3v-.7l1.2-1.2.3-.3h.8v2.2ZM109.1 556.6v.4l-2-2-1.8-1.5h2.7l.7.4.4 1.2v1.5Zm-32-76.7v.3h-1.2l-1.1-2.2h1.1l1.1.3v1.6Zm494.2 152.3h-1.5l-.8-.4v-3l.8-.8h.4v1.1l.7.8.4.7v1.6ZM566 681l-1.6 2.3H563l-1.5-1.5v-2.3l.8-1.2h3l.8 1.2v1.5Zm9.5-44.3.4.8h-1.2v-2.3l.8 1.5Zm-12.2-1.9-1.1 1.6V634h.7l.4.7Zm-63 142-.7.4h-.8v-3.4l.8-.8v-2.3l.7.4v.4h1.5v2.6l-1.1.8-.8 1.2.4.7Zm-7.2-9.9h-.8v-1.5h1.1l.8.4v.3l-.4.8h-.7Zm-61.5 12.6-.7.8-1.6-1.2v-.8l.8-.7h.4l1.1.7v1.2Zm32.8-261.8h1.6l2.6-.4.4 1.9v.7l-3 .8-2-2.3.4-.7Zm.4 17.9v.8l-1.5-2-.4-1.1v-.8h1.5l.8.4-.4 2.7Zm116.4 182v1.2l-1.1-1.1-.4-.4v-1.6l.8.4.7 1.6Zm-7.6-13.7-.4 2h-.7l-.4-.8v-1.6l1.5.4Zm-50.4 39.3H521v-1.9l2 .8h.3v1.1ZM466 770.3h-1.2l.4-1.1-.4-1.2v-1l1.2-.8h1.9v.8l-2 3.4ZM445 672l-.8 3.8-.8-2.3 1.2-2.3.4-.4v1.2Zm190.8-93.6v.4h-.7l-.4-.7v-.8l.4-.4h.7v1.5ZM761.4 628h-.4l-.4-.4v-1.2l.4-.3h.4l.8.3-.8 1.6Zm-12.6 43.9 1.1 1.1-2.3-.8-3-1.5v-1.1l2.3 1.5 1.9.8Zm-49.6-66.5v1.2l-1.2.7-7.6 2 .8-.8v-.8l.7-.4h.8l.7-.3h2.7l1.5-.4v-1.2h1.6Zm-5-4.5h-1.1l-2-.4 1.2-1.2h.8l.3-.3h.8l.4.7-.4 1.2Zm-19-5.4h-.8l-.8-1.1-2-1.2-1-2.3 4.1 3.9.4.7ZM638 594v.8l-.8-.8v-2.7l.8 1.2v1.5Zm-1.1-13-.4.4-.4-.8v-1.5h.8v1.9Zm-1.2 29H633l1.2-3.4h.8l.7 2.7v.7Zm26.7 53.8v1.2H661l-.8-1.5h1.6l.7.3ZM660 665l-3 1.1.7-1.9v-.4h1.9l.4 1.2Zm-37.4-148.1v.8l-1.2-2v-2.2l.4.7 1.1 2-.3.7Zm2.2 1.9h-.7l-.4-.8v-.7h.4l1.1.7v.4l-.4.4Zm-24 24-1.1-1.9.3-1.1h.8l.4.8-.8 1.1.4 1.1Zm122.1 190.9-.3.8h-.8l-.8-1.6h-2l-.4-.7 3-.4 1.2 1.9Zm-59.1 3.8-.8.4-1.1-.8-.4-.4.8-1.1.7-.4h.8v2.3Zm-22.2 10.3-.7.4v-2.7h1.9v1.5l-1.2.8Zm-70.2 58-1.5.8V805l1.1-2 1.2-.7.7.8-1.9 1.1.4 1.5Zm-27.5 6.9h-2.6l-.4-.4 1.5-1.1 1.5-1.6h2.3l-.4 2-1.9 1.1Zm229-98.5h-.7v-1.1l.4-.8.7-.4h.4l-.8 2.3Zm-2.6 6.5-.8-.4v-.4l.4-1.1.7-.8h.8v.8l-1.1 2Zm-121-68.3-.8 1.9H647l1.5-1.5.8-.4Zm-6.5 8.4.4.7-1.6-.3-.7-1.2.7-.4 1.2 1.2Zm-79.8 110-.4 1-1.1-.3v-1.2l.8-.7 1.5-1.2h1.9l.4.4-2.3.8-.8 1.1ZM-347 74.4l1.1-.8.8-.7h5l2.3.4 1.1-6.1v-.4h1.5l.4.7h.8l.4-.3 1.5.3h1.1l.8.4 1.9.4h3.8l1.5.8 1.2 1.1 1.1 1.2h1.6l1.9.3h1.5l.8-1.1.7-.8 3-1.1 3.9-.4h.8V71l1.1.7h2.3l1.9-1.5h1.5l1.2-.8v-.3l-.8-.4V65l.8-.4.7-.8v-1.5l-.7-2.7-.8-3.8-.8-2.7-1.1-3-.8-2 .8-3.7v-1.6l-1.1-.4h-3.9l-1.1-.7-2-4.2V34l1.6-2.6.8-2.7.4-2.7v-1.5l-1.2-.8-2.3-.3-2.6-1.2-2-1.9-1.1-.8-.4-.7V18l.8-3 1.1-3 .8-1.2 1.1-.8.8-.8 1.1-.7 3-3 3.5-3.9 2-3 .7-.8 1.1-.8 1.2-.7 1.5-.8h1.5l1.2 1.1.8 1.2v3.4l.7.8 1.2.7h1.1l5.3-1.9h5.8l3-.3 2.3-.8.8-1.5 1.1-2.7 3.8-3 .8-1.2 1.5-3 1.2-2.3 1.1-1.2 5-2.3 4.6-1.9 1.1-1.1 3.8-5.4 2-3.8.7-.8 1.1-3.4 1.6-3 1.5-.4 3.4-.8 2.3-1.1 1.5-1.2.8-1.1V-45l.4-.7 1.9-1.6 3.8-4.5 2.7-2.3h.8l1.9-1.2 2.3-1.1v-2l-1.2-.3v-2.7l2-3.8v-1.1l-.5-3.9v-1.1l1.2-1.1 1.1-1.2 2-1.1 5.7-2.3h1.1l2-.8 1-1.1.4-1.6v-.7l-1.1-1.2-2-1.1-1.4-1.2h-3l-1.6-1.1-.4-.8V-88l.8-3-.4-.4h-2.7l-1.9-.4-.8-1.2.8-.7v-2.7l-.4-.4-.7-.4-1.6-1.5-.7-1.1-.8-1.2v-1.1l1.1-1.2 1.6-1.5.4-1.5.3-.8v-.7l-.7-1.2-1.2-1.1v-1.6l.8-1.5 1.1-.7 2.3-.8.8-1.2v-.7l-.4-.4h-1.5l-2.3-.8-.4-.7v-1.2l.8-.7.7-.8v-1.1l-.7-1.2-1.6-.8v-1.1l.4-.8.8-1.1.8-1.2 1.5-2.2h1.5l2-.8 2.2-.8 2.7 1.2 1.5.4 2.7 1.1 2.6 1.1h2.3l1.2.4 1.1 1.2 2.7 1.5 2 .8h1.8l2.3-.8 1.5-.8 1.6-.7h1.9l5-1.2.7.4h1.1l1.6-.8 1.1-.7v-.8l.8-.4 1.5-.7 2-.8.7-1.5.4-.8 2.2-1.1 2-1.2 2.2-.7 2.3-1.6 2.3-1.1 1.5-.8.8.8h2.7v.8l-.8 2.6v1.2l.4 2.3.8 3.8.7 3.8v2.7l.8.7 2.7 1.6 2.3 1.1 1.1 1.2 1.5 1.5.8.7.4 1.2v1.5l-.8.8-3 1.9-.4.4v5.3l-.4 3v3.1l.4 1.5.7.8v1.2l1.2 1.1.7.8.4.7v2.3l-.4 1.2v.7l1.2 1.6v1.5l-.4 1.1v2.3l-.8 2.7v1.1h-.7l-.8.4-1.1 2h-2.3l-1.2-.8-.7-1.6V-80l-.8-.7h-2.7l-1.9.3h-.4v5.4l.4 1.1v.4l2.3 4.2.8 1.2v1.9l-1.2 1.5v1.1l.8 1.6.8 1.1-1.2 1.5-.7 1.6.3.7-.3 2.3.7.4h.8l.7-.4h1.2l.8-1.5h.7l.8.4 1.5 3.8 1.5 2.7v.3l.4.4 1.5 1.5 1.2 1.2h3.4l1.2 1.1.7.4 2.3 2.7h.8l.7.8v1.5l-.3 1.5v.8h.7l2.3 1.5 2 1.1h1l1.2 1.2.8 1.1 1.9 1.6 1.5 1.5v1.5l-.4-.4h-1.1l-1.2.4v.4l-2.6 2.3-1.2.7-1.1 1.2-3 3-1.6 3.1-1.5 2.7v2.3l-.8 2.3-1.1 1.5-.8.4L-142-6l-.8 2.6v.8l1.1 1.2 1.2 1.1 1.5 1.5 1.2 1.2h1.1l.8-.8h1.1l1.2 1.5.7.8v.4l2.3 1.9 2 1.1 2.2 2 .4.7.4 1.1 1.1 1.6 2.3 2.6 2.3 1.6 2 1.5 1 1.1h.8l.8-.3h1.5l1.1.7 2.7 2.7 2.3 2h3.4l.4 1.8V28l3.5 1.6 1.9.3 2.3 1.2 1.1.8 1.2-.8.3-.4 1.2-.4h1.5l3 2h1.6l1.1-.8h2l1-.8 2 1.5 3.8 2 2.3 1v4.3l.4 1.1 3.8 2.7 1.1 1.2h2v.7l.3 1.2.4.3.8.4.7.4 2.7-.8 2-.7h1l.8 1.1v1.6l.4 1.5.8.7h1.1l2.7-.7 1.5 1.1h2l1.8 1.2h.8l2 1.5 2.6 1.5h.7l4.2-1.9h.4l.8 2.3 1.1 1.1 2 .8 1.8-1.1 1.6.3 2.3.4 1.9-.4h1.5l2.3 1.2h.4l.4-.8 1.1-3 1.1-2.7V47l-1.9-3.8v-.8l1.2-5.3.7-3 .8-1.6 1.1-2.3v-1.9l-.7-.4v-.7l.7-.4h2.3l2.3-1.1h1.2l.7-.8.8-.4h.8l1.9 1.2.7.7v2l.4.7-.4 2.3-1.5 4.6v1.9l.8 1.5.7 1.1-1.9 1.6-.7 1.1.3.8.8.7.4.8v2l1.1.7 2 1.5 1.5 1.1 3-.3h.8l1.1 1.1h1.2l.7.4.4.4v.7H6l.8.8 3-.4 2.7-.4 1.6-1.9h.7l1.6-.7 1.9 1.1 1.5 1.2.8.3H29l2.2.4 2.7-1.1 1.2 1.1h3.8l1.5-.4h2.3l1.1-.3v-3.5l-.7-.7v-1.2l.7-1.5 1.2-1.5-.8-1.6-.7-1.9h-3.9l-1.1-1.1-1.2-1.2V36l.8-1.2h3.4l1.2.4h1.1l2-1.2H48v-.7l.8.4h3l1.2-.8 1.9-1.1.8-.8v-.8l-.4-.4v-1.1l.7-1.1 3.1-1.2 2.3-1.9 1.5-1.5.8-2 .7-1.8 1.2-.8H67l5-.8 1.5-.7 2.3-1.2 1.1-1.1.8-1.2v-.7l1.5-.4 1.6-1.5 1.9-2 2.6-1 2.7-2 .8.4.7 1.1.4 1.2 3 1.1h.8l2.3 1.2 2 1.1h1.8l1.2-1.1.4-.4.4-.4V8.9l3.4-2 2.7-1.5 2.6-1.1.4.7.8.8 1.1 2.3.4.4h2v.7l-1.6 1.2-1.2.7-1.1.8v3l.4.4 3-2.2h2v1.5l1 2.7.5 1.5-3 3-1.2 1.6v.7l-1.2.8.8.8.7.3 1.2-.7 2.7-.8h.7l2 2h.7l2.3.7 1.5-.8 1.2.8 2.2 2.3h.4v6l-.4.5-1.5.3-1.1 1.2-1.5 1.5-1.6 1.2-1.1.7-.4 1.2v3l3 5.7V52h-1l-1.2-.4-1.2-1.1-1.1-2.3-1.2-.8h-.9l-6.1.8h-1.6l-1.9.7-1.5 2-1.1 1.5-1.2.7-1.9 1.2L98 58l-2.6 1.5-1.6.4-1.1.8-.8 1.5-.7.8v5.7l.3 2.3.4.4v.7l-.7.8-.8 1.1-.4.4-.7 3-.8 1.2-1.5 2-1.2 1.4-1.9 1.2-.8 1.1L82 86v3l.4.8 1.1.4.4.7v1.2l-.8 2.3-1.5 3.4-1.5 2.3-2 2.7v.7l-1.8 2.7-1.5 4.2-.8 3-.8 2h-1.1l-.8-.8-2.7-1.2-1.5-.7-1.1-.4h-2l-1 .4h-.8l-1.2-2.3h-.8v1.1l.4 5 .8 1.9-.4 3-.4 3.9-.7 4.2v1.1l-1.2.8-.7.4-.8-.4h-.8v2.3l-1.1 2.3-.8 1.5v3.4l1.2 3.8v1.6l-.4 1.1-.8.4h-.7v.4l-.8.7-1.1 3h-2l-1.1-2.2-.8-.8h-.3l-.4.8-.4.8-.4.7-1.1.8v-11l-.4-3.5v-.8l-.8-1.9-.4-1.5-.7-.8v-11.4l-.8-3.8h-.8l-.7-.8-2 .8-.7-.4h-.8v3.8l-.7.4-2.3 2.3-.4 1.5v3.4l-.4 1.2-1.1.7-1.2.8-1.1-.4-.8-1.1v-2l-.7-1.5h-.8l-.4 1.6v1.1h-.7v-.8l-.8-5.3-1.1-4.2v-2l.7-1.8.8-3 1.9-2v-.7l.4-.8H32l.8-.8.7-.7h1.2l.7-.4 1.2.8h.4l.3-1.6.8-1.5.4-.4h1.9v-.4l.8-.7v-1.6L43 97l.4-1.5v-2.3h.7l2 .8h1.5v-2L46 90.6l-2.3-1.9-2.6-1.5H30.5l-1.5-.8h-4l-5.3-.3h-4.6l-3-1.2-2-.8-1.9-.7L6 82h-.7v-1.5l.8-3.8V71l.3-2-1.1-4.5-.8-1.2h-.7l-.8.4V66l-.8 1.5H-.4l-1.6-1-1.5-1.5-.8-2v-1.9l-.3-1.5-.8-.7h-1.1l-.8.3.4.8.4 1.1v.8h-2.3l-1.2-.8h-.4l-.7-.3v-1.2l-.8-1.5-1.5-2-1.5-1.4h-.8l-.4 1.5.4.7.8.8v.8l-1.2 1.1-.8 1.2-1.5 1.5-1.5 1.5-.4 1.5-.7 1.2-.4 1.1v1.2l.7.7 2 .4 1.5 2 1.1 2.6.8.8 1.5 1.1h2.7l.4 1.2V79l.7.8 1.5 1.1v.4l-.3.7-.8.8H-13l-2-.4h-1.9l-1.5 4.2-1.1 1.5h-.4l-1.5-.7h-.8l-1.9 3.8v1.1l-.4.8.8 1.5.7 1.6 1.2.3h1.1l.8.4.8 1.6 1.9.7 2.3.8 1.1 1.1v1.6l-.4 2.2-.4 1.6-1.5 3.8-1.1 2.7v1.5l.3.4v.7l1.2 1.2.8 1.1-.8 2.7v1.1l1.5.4 1.5.4.4.8-1.5 2.6v2.3l.4 2v4.1l.7 2.7.8 4.6v3.8l-.8 3h-1.1l.8 2v1.5l.3 2.3h-2.2l-.8-2-.4 1.6-1.5 1.5-.8-.7v-2.3l1.2-5.8v-.3l-.4-.4-.8-.4v-1.1l-1.9 5.7v3.8l-2.3.8-2.3-2.3v-.8l-.3 1.2-.4 1.5-2.3-.4-1.2-1.1 1.2-2 1.5-5 .4-1.8-1.5-2-1.6-1-.7-2.4v2.7l1.1.8 1.2.7 1.1 1.2-1.1 1.5-1.2 1.1-1.9 3.1-1.9 2-2.7 1.4-7.6 1.6-2 .7-2.6 2.3-1.9 2.7-.4 2.7.4 2.6.4 4.6.8.8-1.2 1.9-1.5 1.5-1.5 2.3v2l-4.6 2.6-1.2 1.5-1.1 1.5-1.2-1.1h-1.1l1.1 1.5v.8l-.7.4-.8.3-6.5 1.6-4.6 1.9h-1v-.8l1.1-.7V186h-.7l-.8-.4-3.8 2.3-1.5 2.6v.4h1.1l2.3-1.1 1.2.4v.7l-3.9 2-8 7.2-.7 1.1-1.2 2-1.1 1.5-3 3.8-5 5-1.6 2.2-7.6 3.9-2 1-3.4 4-3.4 3.7-3.8 2.3-6.9 3-3.8 3.5-1.5 2.3v2l.7 1v.8l-.3 1.5-.4.8-1.2 2.3-2.3 1.1-6.4 2.7h-.8l-5.3-1.5-2 .4-.7 1.5-2.7 5.7-1.5 1.5-1.2 1.6v.7h-1.1l-.8-.3h-.7l-.4-2-1.5-.7h-.8l-4.6 1.5-1.9 1.5-3.8 7.7-1.2 4.6v5.7l.8 4.6v4.5l-.8 1.2-.7 1.5v3l1.5 4.3v3.4l.8 4.2-.8-.8-.4-1.9-1.1-2.3-2 2.3.8 1.5 3 2 .9 1.9-3.1 13-2 5-2.2 2.6-.8 1.1-2.6 5-2 5.7-.3 2.3v2.7l-.4 1.5-1.2.8h2v1.1l.3 1.5-.7 8.8-.8 8.8h-4.2l-1.1-.8h-2.3l-1.5 1.2-1.2 1.5v3l-5 6.5-1.1 2.3-.8 2.3.8 1.2.8 1.1 1.5.8 2.7.7 1.5.8.8 1.1-3.1-1.5-3.8-.7-10.3 2.6-2.7 2-1.5 1.8-1.2 4.2-.3 3.1-1.6 2.7-5.3 3-3 1.2-1.2.7-3.8-1.9-3.9-3.8-1.5-1.9-5.3-9.5-.8-1.2-.7-3.8V386l-.4-.8h-.8v-.8l-1.1-4.5v-4.6l-.4-5h.4l1.1 2v6h1.2l-1.2-7.6-1.5-2.3-.8-1.5v-1.5l.4-.8-1.1-2.7v-1.5l-2.7-7.6-.8-6.1-1.5-6.2-1.2-2.2-1.5-5-1.5-2.3-1.5-3.4-1.2-1.6-.7-.3-3.1-10.7-.8-5.8-.7-3-.4-2-.8-8.7v-3.4l-.3-3.8-1.6-3.9v-3.8l-1.1-3.8v-2l-.4-1.4-.8-1.6-.7-1.5-2-3.8-.7-1.1-1.1-2.7-.8-5-1.2-1.9h2.3l-1.1-1.5-.8-1.2-.4-.7 1.2-2h-1.5l-1.2-1-.7-3.5-2-3.8v-2l-1.1-6.4v-15.3l-.8-6.5.4-1.9-1.1-6.1v-7.3l-.4-1.9v-4.5l-.8-1.2v-.7l.8-2 1.9-3 .8-1.5-.4-3-1.5 2.6-1.2.7v-5.7l.4-.7 3 .7-3.4-2.3v-1.5l.8-1.5-1.2-1.2v-5.3l1.2-5 3.8-9.1.8-2.3V139h-1.2l-.8-1.1-.7-4.2 1.1-1.2 1.2-.7h-2.3l2.3-1.6 1.5-1.1 3.8-1.2 1.5-.7-2.2.4h-2.3l-5-.8 1.1-3.4 1.2-1.2 1.1-.4h-1.5l-1.5-.3 1.1-3.9 1.2-.3h1.5l1.5-.4-1.5-.8-2-.8-2.2.4-1.9-.7h-2.3l.8.3.7 1.2-.7 1.9-.4 1.5-1.5.4-1.2 1.2-.7 1.1-.8.8 1.1.7 1.2.4.4 1.2.7 1.5-.7 2.7-3.9 5.7-.7 1.1-7.7 2.7-3.4 1.9-6.5 2h-2.3l-2.6-.9-3.9-2.6-5-5.7-1-2-3.9-7.2-2.7-3.8-2.2-3.8-2.7-3.5-2.3-4.2v-3.8l1.5-1.1 1.2.7.7 1.6.4 1.1h.8l5-1.5h1.5l1.5-.8h1.1l3.9-1.1h2.6l3-4.6 2.4-3 1.1-.5v-1.9h-1.1l-.8 1.2-.4 1.1-.7.4-1.2-.8h-2.3l-4.6 1.6-1.9 1.1h-1.5l-6.5-2.3-6-5-2.8-3.4-1.1-3.8-1.1-4.2.7-1.1 3-2 2.7-1.8-2.2.7-2.3.8-1.6.7-1.5 1.6h-1.9v-5ZM52.2 458.1l-1.1 1.5-1.5-5.3h-1.2v-2.7l.8-.7 2.3-1.2.7.8.8 4.6-.8 3ZM50 447.4l-1.5 1.5-.7-1.1v-.8h1.1l.8-.7.3 1.1Zm-9.1-18.7.7.8h-1.1l-.8-1.5v-.8l.8-.4.4 2Zm5 7.7h-1.2l-.4-.8-.7-1.2.7-.7h.8l.7 1.5v1.2Zm1.9-3.5-.8.8-.4-.8v-2.3l.4-1.1h.8l-.4 1.5.4 2Zm-11.9-22.5h-1.1v-2h.7l.8 1.2-.4.8ZM32 381.8l-.4.7-1.9-.7v-5l1.5-1.5 1.2-.4.7 2v1.8l-1.1 3Zm3.8-16.4h-1.5l.8-1.2v-1.5l1.1 1.1v.8l-.4.8Zm.8-3.1v.4l-.8-.4-1.5-3.8v-2.3l-.4-.8.4-1.1.8-.4.3-1.5.4-2 .8-1.5v-.3h1.9V347l-.8-.7v-5.8l.8-1.1v-3l1.1-1.2.4-2.3v-.8l.8-3.8v-2.6l1.1-2.3 2-1.2h.7v2.7l-1.1 1.5.7 1.6v.7l-.4 1.2-.7 1.5-1.2.4-.7 1.5v.8l1.1 1.9v6.5l-1.1 1.5H40v5.3l-1.5 2v1l-.8.8v1.2h.8v1.1l-.8 2.3v2.3l-1.1 2.3Zm5.7-10 .4 3.1-1.2-1.5-.3-.8.7-.7h.4Zm-4.2-16.7-.8 1.1v-3h.8v1.9Zm-340.8 2.3v-1.2 1.3Zm-.8 59.1h-.8.4l.4-.7v.7Zm767.2-288.9-.4 1.1h-1.1V107l1.5.7v.4Zm52.7-143.5-1.2.7-4.2-1.5-3-1.9-2-2.3v-1.1h1.6l2.3 1.1.3 1.2h.8l.8 1.1 3.8 1.5.4.4.4.8ZM524.6-5v.4l-2.2-1.1h-2l-.7-1.2v-1.5h1.9l2.7 1.5.7.8-.4 1.1ZM523.2.8v.4L521.7.1h-.8v-.8h1.2l.7 1.2.4.3Zm3.5-4.2v.8h-.8L525-4l.4-.8h.8l.4 1.5Zm-37 91.3-1.2.7h-.8V84h1.2l.7.8v.8l-.3 1.1.3.4v.8Zm-152 90.8.4.4h2v.8l-.5.7-1.5-.7h-2.3l.4-1.2h1.5Zm172.5-145-1.5.7h-.4V33l.8-1.5.8.4v.7l.3 1.2Zm-121 109.9v1.1l-1-1.5-1.2-.8v-.7h.7l1.2 1.1.4.8ZM377 168v.4l-.7-.8v-.7l-.4-.8.8-.8v-.7h1.1l.4.4-.8.7v.4l-.4 2Zm-2.3-.7-1.9.3.4-1.1 1.5-.8v1.6Zm-76.7 2.6-1.1-.7-2-2h-.3l-2.3.8h-2.7l-.3-.7-1.6.7-1.1-2.3H285l-2-1.5-.7-.8v-1.1l-.8-.8h-.7l-.8-.3-1.5-.8-.8-.4h-.8l-.3.4V155l-.4-.7-.8-.8-.8-.4v-3.4l.8-1.1.8-.4 1.1-1.2.4-1.5.8-1.1-2.3-2-1.6-.7h-1.5l-1.9.7h-1.5l-1.2-1.9h-.7l-1.2-.3h-1.1l-.8.7H263l-.7-.7-1.6-1.2-2.3-.8v-1.1l-.7-1.1-1.2-1.2-1.1-1.5-1.5-.8-.4.4-.8.8-3.4 1.9-1.2.4-.7.7-.8.8v1.5l-.4 2.3-1.1.8-.8.7h-2.7l-2.6 2.3h-1.2l-1.1-1.1v-1.2h-1.2L234 144l-.8 1.9-.3 1.5-.4.8h-1.2l-4.2-4.6-1.1.8-.8 2.2-.7.4-2-3-.3-.4h-.8l-.4 1.1-1.1 1.2-1.2 1.1v.8l-1.1 1.1-1.1.8h-1.2l-.8-1.5-.7-1.2-1.5-1.5-2.3-.8-1.2-1.1h-1.5l-.4.8-.4 1.1-1.5 2-1.1 1.8-.8.8-.8.7-.7-.7-1.2-.4h-1.1l-1.5.8-1.6-2h-.7l-.8.4v1.2l-.8 1.5-.7 1.2h-.8v1.1l.4 1.1v2l.8 1.5 1.5 2.3.4 1.1v5.7l-.4 2.7v2l.4.7.7.7v.4h-.4l-.7 1.2h-1.5l-.8-.8h-.4l-.8-.8h-1.9l-2.6.8-.8-.8v-3.4h-.8l.4-2.7-.7-.7v-3.5l-.8-.3H183l-3 1.9-2.7 2.6-1.1.8h-2.7l-1.5-.8-2.3.8-1.2-.4-.3-.7-.4-.8v-2.3l-.8-.4-1.1-.4-.4-1.1V157l-2-.8-3.7-.8-3-.7h-3.1V153l.3-1.9.8-1.9 1.5-2.3v-3.8l1.2-2.7 1.5-2.3.8-.3v-1.2l-.8-.7-.8-.4-1.1-.8h-2l-2.6-.7-3-1.6v-5l-.8-.7v-.8l.4-2.3-.4-2.2-.8-.8-1.1-1.2V118l.4-1.1 2.3-2.3v-.8h-.8l-3 .8-.4-.4-1.2-.4H140l-3 .8-3 1.5-1.6.8-1.2.7h-1.9v-1.9l2.3-2.6v-5l-.7-1.1-1.2-.4-.4-1.2v-2.6l1.2-3.1 1.5-.8h.8v-4.2l1.1-2.3.8-1.9h1.9l.7-.7 1.2-1.2.4-1.1L140 84h3l1.2-1.9 1.2-2.2 1.5-.4h1.1l.4-.8v-1.1l-.7-2-.4-1v-1.2h1.5l.4-1.2V70l.7-2.6v-3.1l.8-2.3v-7.2L150 52v-8l-.7-.4-1.5-1.2H146v1.2l-1.1 1.1-.8-.3v-1.2l-.7-1.1-1.6-6.1v-4l-.7-.7-.8-.4-1.1-2.3-.8-.8h-2l-.3-1.1-.4-1.5-.7-.4-.8-.4H133l-.7 1.2v.3l-1.2 1.6-1.1 1.9-.8.7-.4-.4-2.2-2.2-1.2-.8-1.5.8-2.3-.8h-.8l-1.9-2h-.7l-2.7.9-.8.7h-.4l-.7-.4-.4-.3v-.4l.8-.8v-1.1l1.1-1.6 3-3-.3-1.5-1.2-2.7v-1.2l-.3-.7-1.6.4-3 2.2v-3.8l.7-.7 1.2-.8 1.1-1.1.4-.8h-1.9l-.4-.4-1.1-2.3-.8-.7-.4-.8L108 5l-2.7 1.6-3.4 1.9v1.1l-.8.8-.8 1.1H98l-1.9-1.1-2.3-1.2h-.7l-3-.7V6.9l-1.2-1.1H88l-2.7 1.5-2.6 1.2-2 1.9-1.5 1.5h-1.5v1.2l-.8 1.1-1.1 1.1-2.3 1.2-1.5.8-5 .3-1.5.4-1.2.8-.7 1.9-.8 1.9-1.5 1.5-2.3 2-3 1-.8 1.2v3L53 32.6l-1.1.8h-6.2l-1.9 1.9h-1.1l-1.2-.8h-3v-4.2l-2-.7-1.8-.8-1.2-1.1h-1.1l-1.2.7-1.1.8H29l-.8-.4-.8-.8-3-1.1h-3.8l-2-.4V23l-1.9-.8-1.9-.7h-3l-1.6.7-1.1 1.2-1.5.3-2 1.2-1 .8L3 27.6l-2 2.2-2.2 2.7-.8 2.3-1.5 1.2-1.1 1.1-1.6 3-.7-1-.8-1.6v-2l1.5-4.5.4-2.3v-.8l-.4-1.9-.7-.7-2-1.2h-.7l-.8.4-.7.4-1.2.4-2.3.7h-2.3l-.3.8v1.1l-1.6-.3h-2.6l-2.7.7h-3.8l-2.7-.4-2.3-.7-1.5-2-1.5-.7-1.6-.8-1.1-.7-.4-.8-.4-.7h-2.3l-.7 2.6h-.8l-1.1.4-1.2-.8-1.5-1.1-.8-1.5-.3-.8-1.2.8v1.5l-.4 1.5h-1.9l-.4-1.5-1.1-3-.8-2-1.1-1.1h-4.6l-3-.8-1.2-.7-.4-1.2.8-2.3.7-1.5v-.4l-.7-.4h-.8l-3.8.8h-.4l-.7-.8-.8-.3-.4-.8-.4-.8-2.6-1.9-.8-1.1-1.5-1.6-1.2-1.1-.7-2.3v-2.7l-.4-1.1-1.2-.8-1.5-.7-2.3.7-1.9.8h-1.5l-1.5-2.7-1.6-3-1.5-2.3L-92-14h-2.3l-2.3-2-3-3-2.4-2.7-3.8-2.7-.7-1.1v-1.1l-.4-1.6-.8-1.9-3-.7-3.1-1.2-3.8.8-3 4.6-1.6 1.1h-.8l-.7-1.5-.8-1.2v-1.5l-1.5-1.5-2-1.5-.7-1.2-1.1-.8-1.2-.3-1.9-1.2-2.3-1.5h-.7v-.8l.3-1.5v-1.5l-.7-.8h-.8l-2.3-2.3-.7-.7-1.2-1.2h-3.4l-1.2-1.1-1.5-1.6-.4-.7-1.5-3-1.5-3.5-.8-.4h-.7l-.8 1.5h-1.2l-.7.4h-1.5v-.4l.3-2.3v-.7l.4-1.5 1.2-1.6-.8-1.1-.8-1.5v-1.2l.8-1.5.4-1.5v-.4l-.8-1.2-1.9-3.8v-.8l-.4-1.1v-3.4l-.4-1.2v-.4l.4-.3h4.6l.4.3v2l1.1 1.5 1.2 1.1h1.1l1.2-.4 1.1-1.9h1.5v-1.5l.8-2.7v-4.5l-.4-1.2-.4-.4v-1.9l.8-1.1v-1.2l-.8-.7-.7-.8-.8-1.1-.4-1.2-.7-.8-.8-1.5v-3l.8-3v-5.8l3.4-2 .8-.7v-2.7l-1.2-.7-1.5-1.5-1.1-1.2-2.3-1.1-2.7-1.6-.8-.7v-2.7l-.7-3.8-.8-3.8-.4-2.3v-1.2l1.2-2.6v-.8h-3l-.5-.4v-.4h-5.7l-2.3-1.1-2.7-1.2-3-1.5-1.5-1.1-.8-.4-1.1-1.5-.8-.8v-2.3h-.8l-1.9.8h-3l-.4-.4v-2.7l-.8-.7h-.7l-.8-.8-.4-.8v-.7l.4-.8.8-.8.7-4.2v-3l-.7-1.5v-1.2l-1.2-1.1-1.5-1.2h-3.4v-3l-.8-.8-2.7-1.5-1.1-.4h-2.7l-.8-.4-.7-.7-1.2-.8h-2.3l-.7-.8-1.6-1.9 3.5-1.5 1.5-.4 1.2-.4v.8l1.1.8h.8l.7-.4 1.6-.8 1.1-.8.8-.7v-1.5l-1.6-1.6-.7-1.1v-2.3l1.1-1.5v-.8l-.4-.8v-4.2l-.7-1.5v-1.5l.4-2 1.5-2.2v-1.2l-1.2-1.1-3-2.3-3-1.5h-1.6l-.8-.4-1.1.8-.8 1.5h-.7l-1.6-.8-.7-1.1-.4-2v-3.7l.4-.8h1.1v-2.7l-.7-1.5-.8-2.7.4-1.1.7-2.3v-.4h1.2l1.9-.4.8-.7.7-1.2v-5l.8-1 1.5-2 .8-1.1h.7l.8-.4h2.3l2.7-.8 3.8-2.3.7-.7h3v-2.7h.5l.4-.4 1.9 1.1h3.8l4.6-2.6h.3l.4.4v6l3 .4 2.4-1.1h3l.8-.8.7 2 1.2-.8 1.5-.8.8-1.5 1.1-1.2.8-1.5.8-1.5.3-.8.8-.7 2.3-3 1.5-.8h1.2l2.6.7h1.6l4.2 1.2 2.3-.4 1.5-.4h4.6l3.8-3.8v-.8l.7-1.1 1.2-.8 1.5-.8 3.4-1.5 6.5-2.7 2.3-1.1h3l3.9-1.5 1.9-2h5.7v-3l.4-.4.8-.4v-9.1l.7-1.2 1.2-1.1 2.7-1.1h1.5v-.8l-1.2-.8-.7-.7v-.8l.4-.8 1.9-.3 1.5-.8 1.9.8.4-.4.4-.8v-1.1l-.4-1.2-.8-1.1v-.8l.8-1.5v-2.7l-.4-2.7-.8-3.8-.7-1.5v-2l-.4-1v-2l.4-1.1.3-2v-2.2l.8-2.3.8-1.5v-.8h.7l.4-.8v-.7l-1.1-.8-1.6-.7h-3.8l-.7-.8-.8-.8v-.7l1.5-1.2 2-.7 2.2-.4 3-.8h1.2l2-.4h3l2.7-.4 4.5-1.1 3.9-.8 1.5-.7.7.7v2l1.2.7 1.1.8h.4l2.3-.4 2-.4h.7l.7 1.2 1.2 1.1h.8l.3-.8.8-1.1.8-1.5v-2.7l-2-1.1-1.5-1.2v-1.5l.8-1.5 1.5-2.7 2-3.8 1-2.7 2.7-4.6 2.7-4.6 3.8-6.5v-1.1l.8-2 .4-1h2.3l3 2.2 2.7 1.6.8.3 1.9.8 2.3.8h4.5l2.7.7h2l.3.8v1.5l.8.8h.7l2.7-1.2 1.5-1.1 2-1.1h3.4l.7-1.2.8-1.5 1.5-1.2.4-1.9v-1.1l-.8-2 .4-1.5v-7.2l1.2-2.7 1.5-2.7.4-1 .7-1.2 1.2-1.2 1.1-.4h3l3.1-.3L8-390h1.5l1.1-.8 2-1.9.7-1.1 1.1-3v-1.6l.4-1.5.8-.8 1.1-.8h5l1.1.8h2l.7-.8h2.3l1.2-.3h.7v3.8l-.7.4-.8.7v.8l.4.7v1.2l1.5.4 1.1.7.4.8v.4l-.7.7-.8.8v.8l1.1.7 1.2.4 1.9 1.2 1.1 1.5H37l.3 1.9v1.9l1.2 1.1 1.9 1.6h1.1l.8 1.1.8 1.2h.7l1.2.3 1.9-.7h2.3l.7.7 1.2 2 .4.7.4.4.7.8h2l.7-1.2h.7l.4.8v1.1l.4 1.2 1.2.7 1.5.8v.4l.4 1.1v1.2l.7 1.1v3.5l.4.7.8 1.5.7 2.3.8 2.3h1.1l1.2 1.2v1.5l.8 2.7v4.5l-1.2 2.7-.8 1.2v3l.8 1.5v1.6l-1.1.7-1.2 1.2-.4.7-.7.8-1.6 2.3-1.1 2.7v2.3l.8 1.1v1.1l1.1 2.3v1.6h.8l.4-.4h1.5l1.1.4 1.2 1.1 1.1.8h2l.7.4 1.1.7h3.9l2.2.4 2 .8 3.8.7h6.8l5 1.6 3 .7 2 1.2 1.5 1.5 1.1 2.3 1.2 1.1 3.8.8 1.9 2.7 1.5.7 3 2.7 2 1.1 2.7 1.2h4.2v1.5l-.8 2v1l.4.8 1.5.4.8.8.4 1.1.3.8 1.2 3.8 1.5 6.1v2.3l.8 1.1 2.3 2.7 1.1 1.5 1.5 2 .8 1.5v2.6h3.8l3-.3 5.4-.4 7.6 1.5 7.3 1.2 6.5 1.1 3.8.8 7.2 1.1 3.9-.8 3.8-1.1h1.1l6.5 1.5 3.8.8 4.2.8 3 .3h2.8l1.1.8h1.1l.8 1.1 2.3 3.9 1.5 1.1 2.3 1.5 6.1 1.6 3.5.7 3.8 1.2 2.3 1.1 3 2 3.8 2.2 3.9-.8 4.5-1.1 3-.4v4.2l3.9.4h1.1l2 1.1.7-.3 1.2-.8 1.1-1.5 2-.8 3-1.5.4-.4 4.5-2.7 6.5-2.6 3-1.6h.8l2-.7 1-.8h2l2.7-.4 2.6-.7 7-.8h.7l3.8-.8h6.9l1.9.4h2.6l3.9-.4h5l2.2-1.5 1.5-.8 2.3-1.1 2.7-1.1 2-.8 1.4-.8 1.6-.7.3-.8.4-.4 1.2-1.1 1.5-2 1.1-1.8.4-.8 1.6-1.5.7-1.2 1.5-1.9 1.2-.4 1.5-.7 3.8-1.6.4-.3h.8l1.5-1.6.8-1.1.7-.8 1.6-.4.7-.7v-2l-.7-1.5-.4-1.1-2.3-2-1.2-1.4-1.1-1.6-.8-1.5-.7-1.1v-2l.7-1.9.4-1.1.8-2.3.7-3 .8-1.6 1.1-1.1 2-2 1.9-.3h5.3l1.5 1.1 1.2 2 1.5.7 5 1.5h3.8l1.9.8h3l1.2-1.5 1.9-1.2.8-.4 1.1-.7.8-.8 1.1-1.5 1.5-1.1 2-2 1.1-1.5v-1.9l.8-.4 1.1-.4h1.5l2.7.4h4.2l3-.7 1.2-.4 2.3-.4 1.1-1.5 2.3-2 1.2-1h1.1l1.2-1.6.3-1.2v-1.9l.4-1.5 1.2-2.7 1.1-1.1 1.2-1.2.3-1.5.8-.4 1.1-.3 1.2-1.2h7.2l.4-.4v-1.1l.4-2v-.7h3l.8.8h2l1.5-2 1.9-1h1.5l1.9-1.2 1.1.4h4.6l.8-1.2h2.7l.7 1.2 2 1.1h8.3l1.6-1.1v-3.9l-.4-1.1-1.2-1.1-.3-1.2v-1.1l-.8-1.2-2-1.5-.7-.8-2.3-2.3-.7-.3-.4-.4v-1.2h-1.2l-1.1-.7-.4-.8-.4-1.1v-.8l-1.1-.8H454l-.7-.7-2-.4-.7-1.2-2-2.6-1-.8h-3.9l-1.1-.8h-1.2l-1.1.8h-2.7l-1.1 2-1.5 2.2-1.6 1.2-.7 1.5-.4.4h-1.2l-1.1-2-2-1-1.4-.5-.8-.4h-9.2l-2.3 1.6-.7 1.5-1.5.4-1.2-.8-1.5-1.1-1.2-1.6-1.1-1.5-.4-3.8 1.5-1.1 2-1.2v-6.5l1.9-2.3.7-1.9v-1.1l1.2-2.3.7-2 .8-2.6 1.9-5 2.3-5.7 1.1-2.7 3 1.6 2 1.1 3 1.2h3.1l3 1.5 1.6.4h.7l3.9-3.8 3.8-3.1 3.8-2.3 3-.4 2.3-1.1 1.2-.8.7-1.9v-2.7l-.3-1.5H454l-.3-.7.7-.8v-.8l.8-1.9.4-1.1 1.5-1.6.4-1.5v-2.3l.7-1.5 1.6-2 .7-1.4v-1.6l.8-1.5 1.5-3.4 1.2-3.8 1.9-2.3 3.8-2.7 1.9-2.3.8-2.7-.4-2.3-1.2-1.9-.4-1.9.4-1.9-.7-1.5-1.6-.8h-2.2l-2.3.4-1.6-.4-.3-1.9.3-1.1 1.6-1.2 2.6-2.6 3.5-4.2 3.4-2.3 5.3-1.2 3.9-1.5 4.5-1.5 3.5-.8.4.4h4.5l3-1.2 2.4-.7 1.9-.4h3.8l2 .4 3.7 1.9 2 .8h.7l1.1.3 1.2 1.6 1.1.7h2.3l2.7 1.6h.8v-.8l1.1-.8h1.2l1.9.8 3 1.1 1.5.8h1.6l.4.8v1.1l.7 1.2h2l1 1.5.8.7.8.4v2.7l.4.8 1.5.3.8.4v.8l.3.7 1.2.8.8.8v1.5l.7.4v2.3l1.2.7.3 2 .8 2.2 2.3 2.7.8 1.5v2l.3.7 1.2.4.4.8v1.1l.4.8.3.7v1.2l.4 1.1.8.4v1.1l.7 1.6 1.6 2.3 2.6 3 2 2.3.7 1.5v3.8l.4.8v.8l1.1 1.1 2.7 1.5-.8 3.1v1.9l.4 2 .8 1.4 1.5.8.8.8v.7l1.9.8 2.7 1.1h3l3.8-1.1h3.5v1.9l.7.4h2l1 .7.9.8h3.4l.7-.4h1.6l.7 1.2.8.7h1.1l2 1.6 3.8 4.2 2.3 1.5h5l1 1.9-.3 2v1.4l.8.4 1.1 2 1.1 1 .4.8.8.8v1.9l-.8 2.7.8 1.9 1.9 1.9 1.1 1.5.4 1.5.4 1.2h2.3l2.7-.8h1.9l1.5.8h3l5-1.5 3-.4h1.6l1.1-1.2.4-2.3.8-1.5h1.1l1.2-.7 1.9-2 1.5-.7h4.6l1.1-1.2 1.2-1.5 2.3-1.5 4.5-2.3 1.2-.4h2.3l1.5.8 1.5 1.1.4.8v1.9l-.4.8-.3 1.5v.7l1.5 2 .7 1.5 1.2 1.5v.8l-.4 1.1-1.1 2.3-.8.8-.4.7h-1.5l-.4.4-.8.4v.8l-.7.7-.8 1.2v.7l.8 1.2.4 1.5-.8 1.2v1.9l-.4.7v4.6l-.4 2.3-1.1 2.3.4 1.5.4 1.2v3l-1.6.8-.4.7v3.9l-.7.7-.4.8h-.8v5.7l-1.1.8-.8.7h-.3l-1.2 1.2-.4 3.8v1.9l.4 1.5-1.1 1.6-.8.7h-1.5l-2-.7h-.7l-1.5-.4-2.7-.8-3-.4-1.6-.4-1.1-.3-1.2-.4-1.1-1.2-.8.4-.4 1.5-1.1.8v1.5l-.8 1.2-1.1 1.5-.4.4-2.3 1.1-.7.4-2 .4-.7.8-.4.7v.8l.4 1.1 1.1 2 .4 1 1.2 2.8 2.6 7.6v10.3l.4 1.1.4.4.8.4v.8l.3 1.1v2.3l-.3 2.7-.8.7v.8l-.4.4v3h-.8l-.7 1.2H630l-.8.4-2.3.7-1.1.8-.4.4-.4.7v.4l1.6.4.7 1.1.4 1.2-.8.4-.3-.4h-.8l-1.5-1.2-1.2-1.1-.7-1.1v-2.7h-.4l-1.6-.8v-.7h-2.2l-.8-.4h-.8v.7l-.4 1.2-.7 2.7v6.4h-1.2l-.3.4-.4 1.2h-1.5l-.8-.8h-.8l-.7.4-.8 1.1-.4 1.2v1.9l-.7 1.1-.8.4-1.5 1.5-.8.8h-2.3l-1.9.8-2.7.4h-3.8l-1.9.7v2l.4.7h.7l.8 1.9.8 1.1 1.1.8.8 1.1v2l-1.2 1.5-.3 1.1h-.8l-.8-.7-.7-.4h-1.6l-3 .4h-2l-.7-.8h-1.5l-2.3-.4h-1.1l-.8-.7v-.8l-.8-.8-.4-1.1-1.1-.8-.8-.7h-.7l-.8.7-.8.4h-.7l-.4.8-1.5 1.1v1.2l-.4 1.9v1.9l-.4.7h-.8l-.3.8-1.2 2.3-.7 1.9-1.6 1.1-.7 1.2v1.1l-1.2 1.2-1.9.4-1.1.7h-.8l-.4.8-.7.8-.8.3-.8.8-1.5 2h-1.5l-2 1.4-1.5.8-.3.8v.3l-.4.8h-1.5l-2 2-.7 1-3 3.1-1.2 1.5v2.3h-.4l-1.1 1.6-2.3 1.9-5 .7-1.9-1.1-.4.7-.4 1.2-1.1.4h-2.3l-1.1 1.1-.4.8h-3l-.8 1.5-2 .4-7.2 5-1.5 2.2-1.2 2.3-1.1 1.2-.8 1.1h-.7l-1.2 1.2H504l-.7.7.7 1.6v.3l-2.3.8-2.6.8-1.2.7-.4.4-.7.4-.8-1.5v-2.7l.8-.4 1.1-.4 6.1-3.4-1.1-2.3.8-.8 1.1-1.9.8-.7h-.4l-3.8.4h-3.9l.4-1.2v-1.5l-.7-.4 1.9-2h1.9v-.7l-.8-1.5.4-2 3.8-2.2 1.2-2 1.5-1.8 2.7-4.6v-.8l.7-2.3v-.7l-1.1-1.2-.8-1.5-4.2-3-.7-2.7-.8 1.9-.4.8h-1.9l-1.1-.8h-5.4l-1.1 1.1-1.2 2-1.1 1.5-1.2.7-.7 1.2-3.8 7.6-1.6.4-7.6 4.6-3.8 1.9-2.7 3-.8 2-.7 2.2-.4 3.1-2.7 3.8-.7.8-1.2.4h-4.2l-2.3 1.1-2.3 1.1-2.6-2.2-1.6-.8-2.3.8-1.5 1.1-2.3 5.7-.7 3.5v1.5l1.9 3.8 1.9 2.3 3.8 2.3 7.6 1.5 2-.4h1.9l2.2 1.6 1.6 2.6v2.7l.7.4v1.1l-.3.8-.8.4-.4 3v3.5l.8.7 1.9 1.6 2.6 1.1h2.7l4.6-.4 1.5-2.3v-1.9l3.8-3 2.3-2.7-.3-.8h-.4v-.4l1.5-.3 5.7-3 4.6 2.2 2.7 2.3h2.3l1.9 1.5 2.3 1.2h4.5l.8-1.2.8-.7h.7l.8 1.5 2.7 1.1 2.3-.4 1.9-.3.7.3-1.1 2v2.6l-.8.8-.7 1.5.3 1.2h.8v1.5l-.8.4-1.9 1.9h-1.5v-.8l-.4-1.1-.7-.8h-3.5l-3.8 3-3.8 2-3.8 1.9-1.6 1.1h-.7l-2-.4h-.7v.4l1.2 1.6v1.9l-.4.3-1.2-.7-1.1 1.1v5l-.8.7-1.5.4-2 1.2h-.7l-.4-.8v-2.7h-1.1l-1.1.8-1.2 1.1v.4l1.2 2.3h1.5v.4l-.8 1.1-2.3 1.6-.4 1.1-.7 1.5-.8.8-.7 1.2-.8.3-1.5.8-1.6 2.3-1.1 2.7-1.5 1.1-.8 3.8-2 2-.7 3.4.8 1.9h2.3l1.1.7 2.3 2.7 3 1.5 3.1.8 3.8 2.3 1.2 1.1.8 2.3 1.9 5.7 1.1 3.1v1.5l2.3 3 1.9 5 2.3 4.6.8 3.5-.8 1.5v2.3l2.3 1.5 5 2.3.7.4L508-53v3.5l.7 1.1.8.4 3 1.5 1.2 1.2 1.1 1.5.8 1.9v2.3h-2.7l-5.3-3H506l-1.5.7-3-.8-2.7-3-2.3-.8-2.3-.4-5 3h-1.5l-.7.5 2.6.7 2.3-1.1 2.3-1.5 3.4.7.4 1.2.8 1.9L501-40l1.9.4 2.7 1.9L508-35l5 3 2.2 3 .8 2.4.7 2.6-1.5 1.2h-1.5l-2.3.7-1.5 1.2-2 1.9-4.5 3-.8 2-.8 1.5-1.1.7-3-.7H495l-3 2.7-.8.7h.3l.4-.4h1.6l2.2-1.1 2.3 3.4 4.2-.7 3.8-3h1.6l1.5.3 1.5 1.1 3.8 4.6 2.3.8 2.3.7h1.2l.7.4-2.6 2.3-3.5 3.8-1.5 1.2-.8 1.1 2.7-.7 2-2 1-.3h.8l.8 2.6-.4 7.3h-1.1l-1.2-2-1.1-.3h-1.2l-1.5.4-.8.7-.7 1.6h1.1l2.7 2.3v1l-.4.8h-1.9l2.3 1.1-.4 2-.8.3-1.1.8-.4 1.5 1.2 2.3 1.1 3v1.6l-1.5-.8-2.3 2.3h-1.5l-.8-2.3H508l-.8 1.1-.8 2.7-1.1 2.3-1.2.8h-2.3v.7l1.6.8v.8l-2.3 3v2.3l-1.5 1.2.7 1.9v1.5l-1.1 1.9-1.2 1.5-1.1 2-2 1-1.8 4.7-.4 1.9V63l-.8.7-1.1 1.2-1.5-.4V63h-.8v-1.2l-.4-1.1v-1.2l-.4.4-.4 1.1-1.1 1.2-.8-.4-1.1-.8v1.2l.8 1.1v.8h1.5l1.1 1.5.8 2v.7l.8.8v.7l-1.2.8-1.5 1.5-2 2.3-1.8 1.5h-2.3l-1.2-1.1h-1.5l2 2.7 1 .3h1.6l1.1-1.1h2l.7 2-.8 1.8-.7 2.3v2.3l1.1 3v1.6L484 89l-1.1-1.1H480l-1.2.3-.7.8.4 1.2 1.5 1.1.8 1.1-1.2.8H476l-.8 1.5.8 2.7-.8 1.5-1.5.4-1.5 1.2-1.2.3v.8l.8.4.8.8-1.2 2.6-1.5.8-2.3-.4-2 .8-1.8-1.2h-1.5L461 107v1.5h-2.7v.7l.4.8 2.7.4v1.1l.4 1.6-2.3 3-1.2 2h-1.5l-1.1 1.4-.4 2h-2.7l-.8 1.1h.8v1.1l-.8 2.3-.7.8-.4-1.1V124h-1.1l-.8 1.6-1.2.7-1.1.4-.8-.8h-2.3l-.3 3.9-2 1.1-.7.4h-1.1l.7.7v2l-1.5.3-.8.8v3.8l-.7 1.2h-2.3l-1.6-.8-.3.8v.3l-1.2.8h-1.5l-3.4 2-1.6-.5-1.9-.7-1.1.7-.4 1.2-.8.7H419l-1.5-.7-1.5-.8-1.6.4-1.5 1.5-1.5.8v.7l-.8.4h-1.9l-.7-2.3h-.8l-.8.8-.4 1.1-.3.4v2h-.8l-1.5-1.2h-1.2l-1.1 1.1h-.8l-.7-.3h-2.7v.7h-2l-1.4-1.5-1.2-2.7-1.5-1.5-.8-1.2-.4-2.2V137l-1.5.8-1.1.7v2.3l-2 .8.4.7 1.6 1.6v1.1l.7.8 1.2 1.9v3.8l.7 1.2v1.1l-.7 1.5v-.4h-.8v.8h-.4l-.7.4-1.2.4-.4.4-1.1 1.1-2 .4-.7-2.7-1.5 2v3.7l-.8.4-.7.4-1.6-1.1-1.5.7-1.1 1.2v.7l-1.2.8-1.5-.8-1.1-1.1v-1.5l-.4-.8h-.8l.4 1.5v3h-3l-1.2-.7-1.5-.8h-1.2l-.4 1.2-1.1 1.1h-1.5l-.8 1.6-.8.7-1.1 1.2-3.4.3-1.2 1.2h-3.8l-.4-.8h-.8l-.3 2-2 .7h-1.8l-2 2.3-1.5 1.1h-1.5l-.4-2.3h-.4v1.6l-.7 1.5-.8 1.1-2.3 2-.4 1.9v1.5l3.5.4v1.9l-.8.4v1.1l3 3v1.2l-.3.8-.8 1.5-1.5 1.1-3.8.4-3-.4-.9-1.5v-.8h1.6v-.7l-.4-.8-1.5-.7-1.2-2.3v-1.6l-.4-1.5-.7-1.1-.8-.8v-.8l.4-2.6v-1.6l1.1-2.2v-2l2.7-.7v-2.3h-1.5l-1.2-1.5-.3.7h-.8l-1.5-3h-.8l-.8-.4.4 3-1.5 1.2-1.5.8h-2.3l-1.2.3h-.7v-1.1l.7-1.2-.7-1.1-1.2-.8h-4.2l-.4-.3-1.1-1.6-1.1-.7v-2.7h-2v3l.8 1.6-.4.7-1.1.4-.8-1.5h-1.1l-.4 1.1-.8 1.6h-1.9l-1.1.7H298Zm48.1 30.6.8 1.1.4 1.2.3 2.6v2l-1.1 1.5-1.5.7-3 5.4-.8 1.5-.4.8v1.5l-.8 2.7-.7 3-.4 1.2-1.2 1.1-1.1.4h-.4l-.8.4-1.5 1.9-1.9 1.1v1.2l-.4.7h-.7l-2.7.4-.8 1.2-1.1 1.5-2 .7h-1l-2-1.1h-1.1l-2.7-.8-2.3-1.1-1.9-.8-3.8-2.3v-4.5l-.8-2.3v-8l.4-.8.4-.8 1.9-1.5 1.5-1.1 2.7-2.7 1.9-1.2 2-1.9h-2l.8-1.5.7-.8.8-.7 1.9.4h1.5l1.2-1.6h5l3-.4 1.1-1.1h3l.8 1.5v-1.9h.4l2.7 2v-2.7l1.1-.8h.4l1.2 1.5 1.1 1.2h2Zm-133.6 174h-.7v-1.9h.7v2Zm4.6 11.5-.7 1.1-1.2-1.9 2 .8Zm72.5-79v1.1l-.7 2.3-.8 1.9-1.5 1.5v1.2l-.4 3.8v1.1l.4.8.4.8 1.5 3.8.8 3 1.1 2.7v1.5l-.8 4.2-1.1 3.8v2.3l.4 2 .7 2.6v5.4l-.7 1.5-1.2 1.1-.7.8-1.2-1.1H284l-1.1.7-1.6 2.3-2.3 2-2.6.3-1.2 1.5h-3.8l-1.5.4v5.3h-1.2l-1.9-.3-2.3-1.2H263l-1.1 1.5-.4.8h-1.2v.8l-.3.7v1.6l.3 2.3v1.5l.4 1.1 3.8 3.5.8.7v.4l-.4 2 .4 2.6h-1.1l-2-1.2-.7-.7-1.2.4-1.1-1.2-.8-1.5h-1.1l-2 .4-1.8.4h-1.2l-1.5 2.2-.4-.3-2.3-.8-1.9-.4v4.2l-1.1.8-1.5 1.5-.8 1.1h-5l-.7 1.2-.8.8h-.8l-2.6-2.3-5.8-1.2-.3-1.1h-.8l-.4 1.1-3 1.5-1.2-.7-1.1-1.2v-1.5l1.1-.8 1.5-.7.8-2.7-1.1-3.4-.8-1.2-1.1-.7-1.2 1.5-1.1 2-.8 1h-3.4l-.8-3v-8l-1.5-2.7v-2.3l-1.2-1.1v1.1l-.4-.4-3-7.6-.4-3 .4-2.7.4-.8-.8-1.5-1.1-1.5-2.3-2v-3.4l-.4-3.8-.8-1.1-.7-2.3-.8-2v-5.3h2l1.8-.4.4-1.1v-.4l1.1-1.1 2-2.7 1.1-2.7 1.1-1.5.8-1.5 2.3-2.3 2.7-1.6 1.9-.3 1.9-.4 1.9-.8h1.1l2.3.8h1.6l1.1.4h2.7l3-.4 3 .4h2.8l3.4-1.2 1.5.8 1.5.7v1.6l.8.7.4.4h.8l.7-1.1.8-1.2v.4l.7 1.5.4 1.2.8.7 1.1 1.2h.8l2.3-1.2 3.8 1.6v.7l1.1 1.6 1.2 1.1h3l.8-2.7v-1.5l-1.9-2.7v-1.9h2.7l.7-.7.4-1.6h.8l1.5.4 1.5-1.1.8-1.2.8.4.3.8.8.7.8.8 1.5 1.1.8 1.2h2.2l1.2-1.2.8-.7h1.1l1.5-1.5 1.2-1.6h.4l1.5.4h.7l.8-2.3 1.5-.7ZM168.3 191.3l-2-1.1-.7-.8h-1.2l-1.1.4-.8.7-.7.4h-1.6l-1.9-.4-1.1-.3.4 1.9v2.3l-.4.7H156l-.7.8H154l-1.1-1.2h-1.2l-1 .4-.5.4-.4.8-.7 3.8-.4.7-.8.8h-2.6l-4.6 1.2h-4.6l-2-1.6h-1.4l-.8 2.3-1.1 1.2-2 2.6-.3 3.9v2.6l-1.6 2.7v8.4h-.9l-1.5.8-1.2.7h-.4l-1.5-.4.8 3 1.1 1.2h2v2.7l1 2.7v2.3l-.3 1.9v1.1l1.5 2 2 3 2.2 3.8 1.5 2.3 1.6 1.9 2.6 3.8.8 1.5v3.5l.4 1.9.8 1.1.3 1.2 1.2 3.8.4.8 2.6-2.3.4.4v3l-.7 1.1-3.9 2.7-.7 2.3v3.4l-.4 3.9v4.2h-2l-2.2 1.5h-.8l-.7.8-.8.7v4.6l.8 3 1.1 2.7 1.2 2 1.5 2.6 1.1 2.3 2.7 2.7 3.4 3.8 1.2 1.9 1.1 2.7.8 2.3v2.6l.4 1.6v5.3l-.8 1.1-.4 1.6v1.5l1.2 1.5v1.5l.4 2.7 1.5 2 1.1 1 .4 1.2v3l.4 2 .4 2.3 1.1 1.9 1.2 6.5v.3l-.8 1.6-.8.7-.7.4-.8 1.2-1.5 3.4-3 5.7-2.7 3.8-2.7 2.3-1.5 1.6-.8.7v.8l.4 1.5v2.3l-.8 2-.4 1.4v1.6h-1.1l-1.5 3-.8-1.5-.4-1.5.4-3.5-.8-6.5.8-.7.8-.4 1.1-2.7 1.1-2.3v-3l1.6-2v-7.2l.7-1.5 1.6-.8-.4-.4-.8-1.1-1.9 1.1h-.8v-3.8l.8-.7v-3.5l.4-1.9h-1.2l-.3-.7v-.8l1.5-1.1-1.2-2 .8-1.9v-6l-.8-3.1v-3.5l-1.5-2.6-1.1-3.9-2.7-5.3v-3.8l-.8-1.2-1.1 7-.4-1.6v-3.8l-.4-1.6.4-3.8-1.5-3.4V308l-1.2-3.8V303l1.6 1.2-1.2-2.3h-1.1l-.8-2.3v-6.5l-.7-2.7.3-2.2-.7-9.2-2-2.7.4-2.6.8-2.3v-3.9l.4-1.5 1.1-.7h-.7l-.8.3h-4.2l-.8-2.6-.7-1.6-1.2-3v-3.8l-1.5-2v-.7l-1.9-2.3-2-2v1.6l.9.8-1.2 1.9.8 3.4-.8 2.3-.8 2.7-.7 1.5-2.7 2.7-1.9.8h-2.7l-1.1-1.6v-1.5l-.4-2-.4-.3h-.7l.7 3v1.2l1.6 2.7-.8.4-2.7 1.5-.7-.4H97v1.5l-.8.4-3.8 1.5-1.1 2-.8 1.9-2.3 2.6-2.7 2.3h-.7l-.8-.7v-2.7l1.2-2V273v1.1l-2.3 3-.8 1.2-1.9-.4h-2.3l-.4-3v-4.2l-.7 2v1l-1.2 1.2-2.3 1.1v-3l.8-1.5v-2l.8-3v-2.3l-.8 1.5v2l-.8.3-.7.4-1.6 2-1.1 1.8-2.7 1.6H66v-2.3l1.5-7.7.8-1.5.7-1.1.8-4.6 1.1-1.6.4-3.8.4-.4 1.5-3 .4-5v-2.6l-1.1-2.7-.8-7.6-2.3-6.5v-2l-1.5-2.6h1.5l-2.7-2.3v-1.1l-.3-5v-2.7l-.8 2-1.2.7.4 3v.8l-.7 1.2-2-1.6-1.5-1.1-1.5-3.8-1.5-3.5.4-.4h.7l2.7 2.7 1.5.8.8-.8 1.5-1.1.8-2.3-.8-.8-1.1-.4-.8-.7-1.1-1.6V199l-1.6-.7-.7-.8.7-1.5 1.2-1.2h-2.3l-2.3-2.3-.4-.3-.8-.8h-3.4l.8 3v1.2h-1.5l-1.6-4.6.4-1.1 1.2-1.2h-1.6l1.2-3.8-.4-.7v1.1l-.8 1.1-1.9 2.7-1.1-.4-.4-.7.8-1.6h.7v-1.1l-.4-1.5-1.1-1.2-.4-1.9h-.8l.4 2.3v3l-1.9-3.8-3.8-5-.4-1.4V174l-.7-1.5v-2.3l-.8-1.1v-2l-.4-1.8.8-1.2 1.1-1.5h.8l.7.4 1.6 1.1 1.1 1.2v1h.8l.4-.7V152l1.1-.8v-.7l.8-.8v-.8h.7l.8.8 1.1 2 1.2.3h.8l1.1-3 .4-.8h1.1l.8-.8v-2.7l-.4-3.8v-3.4l.4-1.5 1.1-2.3v-2.3h.8l.8.4h.7l.8-1.2v-1.1l1.1-3.8.4-3.9v-5.3l-1.1-5 .3-.7h.8l1.2 1.5.7.4h1.2l1.1-.4h.8l1.1.4 1.5.7 2.7 1.2.8.7h1.1l.8-1.9.8-3 1.5-3.8 1.5-3 .4-.8L80 100l1.5-2.3 1.5-3.4.8-2.3v-1.2l-.4-.7-1.1-.4-.4-.8v-2.7l1.1-1.5.8-1.1 2-1.2 1-1.5 1.6-2 .8-1 .7-3.1v-.4l1.2-1.1.7-.8v-1.1l-.7-2.3v-5.8l.7-.7.8-1.6 1.1-.7 1.6-.4 2.6-2 4.6-3.7 2-.8 1-.7 1.2-1.6 1.5-1.9 2-.7h1.5l6-1.2h1.2l1.2 1.2 1.1 2.2 1.2 1.2 1.1.4h1.2v-1.2l-3.1-5.7v-3l.4-1.2 1.1-.8 1.6-1.1 1.5-1.5 1.1-1.2h1.5l.4-.7v-5.8l.8-.7 1.1-2 .8-1.5.4-.3.7-1.2h2l.7.8v1.5l.8.8h1.9l.8 1.1 1.1 2.3h.8l.3 1.1v2l.4 1.9 1.6 6 .3 1.2.4 1.2h.8l.7-.8.4-1.2h1.6l1.5 1.2.7.4v8l.4 2.7v9.5l-.4 3-.7 2.7v2.3l-.4.8-1.5.4v2.3l1.1 1.9v1.1l-.4.8h-.9l-1.5.4-1.2 2.2-1.1 2h-3l-1.2 3.4-.4 1.1-1.2 1.2-.7.7h-2.3l-.8 2-1.1 2.2v3.9l-.8.3-1.5.8-1.2 3v2.7l.4 1.2 1.2.4.7 1.1v5l-2.3 2.6v1.6l1.2.7.8-.4 1.1-.7 1.5-.8 3-1.5 3.1-.8h4.6l1.2.4v.4l3.4-.8h.8v.8l-2.3 2.3v2.6l.7 1.2.8.8.4 2.2-.4 2.3v.8l.8.8v5l3 1.5 2.7.7h1.9l1.1.8.8.4.4.7v1.2l-.4.3-1.5 2.3-.8 2.7v3.8l-1.9 2.3-.8 2-.3 1.8v.8l.7.4h2.7l3.4.7 3.8.8 1.2.8.8.7-.4 1.6v3l.4 1.2h1.1l.8.7v3l.7.8h1.2l2.3-.3 1.5.3 1.5.8 1.2-.4 1.1-.7 2.7-2.7 3-1.5 1.2-.4h.4v.7l.3 2.7-1.1 2.3-2.3 2-2 1h-1l-.8 1.2-.8 2.3-1.1 1.5h-.8l-.4 1.2v3h1.2v.4l-.8.8h-2.7l-1.1.3-1.5 1.6-1.2 2.6-1.1 4.2.4.8Zm-38.2 187 1.1 3.9v.7h-.7l-.4-1.9-1.2-1.1h-1.5l1.2-1.6h1.5Zm-1.5 21-.8 1.2v-2.3l1.5-1.2h1.2v.8l-.8 1.1-1.1.4Zm1.9-31.3v.4h-.8v-2.3l1.2-1.1.7-2.3v-.8l.4 1.5-.4 2.3-.4 1.6-.7.7Zm5.3-8.4h-.7v-3.4l.7 1.5 1.5 1.2-.7.3-.8.4Zm.4 3.5-.4 3.8-1.1-.4h-.8l-.4-2.3V362h2.3l.4 1.2Zm-2-17.6.5.8h.7l-.3 1.9-1.6 2.3-.7.4v-7l1.5.8v.8Zm-4.9 9.2h-.4l-.7-.4-.4-1.5v-.8h.8v1.5l.7 1.2Zm-58.7-79.4-1.2 1.9v-3l1.5-1.6 1.2-1.5.7-1.2v1.6l-.7 2.3-1.5 1.5Zm52.2-3.8h-.7l-.8-1.2v-3l.8-.8h.4l.7.4v1.9l-.4 2.7Zm-63-52-1.8-1.9-1.2-2.2h2.3l2 .3v1.2l-.5 1.9-.7.8ZM58 194.8v3l-.8-1-.4-1.6v-1.5l1.2 1.1Zm3.4 7.3 1.9 1.5h.8l.7 1.2v1.1l-.7.8-1.6.7-.7-.7v-2l-1.6-.7v-.8l.8-1.1h.4ZM135 378.7h-.8v-.4l.8-2.3v2.7Zm-7.7-15.3v1.6l-.7-1.6v-3l.7 1.9v1.1Zm.4-13.7v.8l-1.1 1.5-.8-1.1v-.4l.8-.8h1.1Zm5-14.1v3.4l-1.2-1.9v-3.4l.8.7.4 1.2Zm-57.3-57.3h-.7v-.4l1.5-2.2v1.1l-.8 1.5ZM50 193.6v2.3l-.3-1.2-1.2-2.6v-1.6l1.2.8.3 2.3ZM38.5 34.4v.4l-.8 1.2-.4 1.5v1.1l1.2 1.2 1.1 1.1h3.9l.7 2 .8 1.5-1.2 1.5-.3 1.5v2l.7 1.4V52l-.4.8h-3.4l-1.5.7H35l-.8-1.1h-.4l-2.7 1.1H20.6l-.8-.7-1.5-1.2-2-1.1-1.5.7h-.7l-1.6 2-2.6.3H4.5V52h-.4l-.7-.8H2.2l-1.1-.7-.8-.4h-3l-1.6-.8-1.9-1.5-1.1-.8v-2.6l-1.2-.8v-2l2.3-1v-.4l1.6-3.1 1.1-1.1 1.5-1.2.8-2.3 2.3-2.7L3 27.6l1.5-2 1.2-.7 1.9-1.2H9l1.1-1.5 1.6-.7h3l2 .7 1.8.8v3l2 .4h2.2l1.6.4 3 1.1.8.8.8.4H30l1.1-.8 1.2-1.1h.7l.4.4 1.2 1.1 1.9.8 1.5.7.8.8-.4 2.3v1.1ZM-12 146.3v-3.9l-.8-4.5-.7-2.7v-6.1l-.4-2.3 1.5-2.7-.4-.7h-1.5l-1.1-.8-.4-1.1.8-2.7-.8-1.2-.8-1.1v-.8l-.7-.4v-1.5l1.1-3 1.5-3.5v-1.5l.8-2.3V102l-1.1-1.2-2.3-.7-2-.8-.7-1.5-.8-.8-1.1.4-1.2-.4-.7-1.5-.8-1.5v-.8l.4-1.1 2-3.9h.7l1.5.8h.4l1.1-1.5 1.5-4.2h3.9l1.1.7h1.2l1.1-.3.8-.8v-1.5l-1.2-1.2-.4-.7v-1.6l-.7-.7-2.7-.4-1.5-1.1-.8-.8-1.1-2.7-1.6-1.9-1.9-.4-.3-.7-.4-1.2v-1l1.1-1.2v-1.5l2-1.5L-17 61l.8-1.1 1.2-1.1v-1.2l-.8-.8-.4-.3v-.4l.4-1.2h.8l1.5 1.2L-12 58l.8 1.5v1.2h1.1l1.2 1.1H-7l.4-.8v-1l-.8-.8.8-.3h1.1l.8.7v3.5l1.1 1.9 1.5 1.5 1.6.8L1 68l1.1-.4.8-1.5v-2.3l.8-.4h.7l.8 1.2 1.1 4.6L6 71v5.7l-.7 3.8V82H6l2.2 1.2 2 .7 1.9.8 3 .8h3l1.6.4H29l1.5.7 1.5.4h9.2l2.6 1.5 2.3 2 1.6 1.5v1.5l-.4.4H46l-1.9-1.2h-.4V95l-.7 2-2 3.7v1.6l-.3.7h-2.3v.8l-1.2 1.5v1.2l-.7.4-1.2-.8h-1.9l-.7 1.1-.8.8h-3l-.8.8v.7l-2 2-.7 3-.7 1.9v1.9l1.1 3.8.4 5.7.4.8h.3v-1.1l.4-1.6h1.2l.4 1.6.3 1.9.8 1.1h2.3l1.1-1.1v-4.6l.8-1.5 2.3-2.3.4-.4v-3.8h1.9l1.5-.4h.4l.7.8h.8l.4 3.8.8 3.8v8.4l.7 1.5.4 2 .4.7v5.7l.4 7.6v15l-.4.3h-.4l-.4-.8-1.1-1.1-1.6-1.1-.7-.4H40l-1.1 1.5-.8 1.2v3.8l1.2 1.1v2.3l.3 1.5v1.6l-.7-2-.8-2.2-2.3-3.9v-10.3l-1.1-3.8-.8-5.7-.4-1.5.8-2v-.7l-1.2 1.1-.7-2.3-.8-1.9-2.3-4.2-.7-1.9v-1.9l-1.2 2-1.5 1-2 1.6-.7.8h-3.8l-1.5-2.7-2.3-6.5v-11.4l-.4.3-.4.8v2.3h-2.6l-2.3-.8 1.9 2 1.9.3 1.1 2v2.6l-1.1.8-1.2.3v1.6l1.2 1.5-1.5.8-.4.7v1.6l.4 1.5v1.9l.7 1.1.8 2v3.8l-.8.7-1.1.8-2.7 2.3-1.1 3-1.2 1.2H5.7v-.4l-1.2-.8v-2.6l2.3-2.7H6L4.5 147l-1.9 1.2-.4-2v-3.8l1.6-3-2 1.5-.3 2v2.2l-.4 1.5-.8 2.3-1.1 1.2-1.5.7-.8 1.2-.8 1.1v-4.5l-.7-5.8v7.3l-1.2 1.5-1.9 2h-1.9l-1.1-1.6-.8-1.5v-3l-.4-1.2Zm34.4.7-2 1.2 1.2-8.4 1.1 3.4v1.5l-.3 2.3Zm6.8-3.8-.7.4-.8-.4-.8-1.9.8-2.7.8.4v2l.7 1.4v.8Zm-13 5-3 .7-1.5-.3 3-5.4v-4.6l-1.5-1.5v-2.7l-.4-1.9 1.5-.4 1.2 1.2v1.9l.8 1.5 1.9 3.5v1.9l-1.2 4.5-.7 1.6Zm17.6 6.5-.8 1.5v-2.7l.4-.7.4.7v1.2Zm.8 6.5h-1.2V157h.8l.4.7v3.5Zm-19.1-30.6v.8l-1.2-.4-.3-.8-.4-.7.7-.4 1.2 1.5Zm908.8 679.8-.4 2.7-.8 1.9v2.7l1.5.7 1.2.8.8 1.9 2.2 2.7v1.9l.8 2.3 1.5 4.5v4.2l1.6 2.7-.8 6.1.8 2.7 1.1 1.9 1.1 3.8 1.2 3.8 1.1.8 2.7.8 2.3-1.6 2-2.3 1.8-.3 2.7-1.6 2.3 2.3 1.1 2.7 5 3 2.7 2 1.9 1.1 2.3 1.5v2l-.8 1.5.4 1.9.4 2.3v3l1.5 4.6.4 3.8 1.5 3v7.3l.8 2.3 1.1 1.5 1.5 2 2.3 3h3v3.4l2.7 5.8 1.6 5.3-.8 6.9-1.1 3.8.3 2.3 3.9 4.2 1.5.7v2.3l-.4 3.9 1.5 2.2 2 2 1.8.7 2 .8 2.2.7h3.5l1.5 1.2.8 1.1h3.8l1.1-.7 1.2.7.7.8 1.2 3 3 2.7h2l1 1.6h3.1l2 1.1 3 2.3h3l1.2.4 3 2.6 1.2 1.6 1.1 1.9-1.5.4h-1.1l-.8 2.2 2 2.7 2.2 2 2.7 1.8 2.7 3 .3 2.4.8 1.1 1.2 3.5 2.2 1.5v3.8l1.2 5.3 1.5 4.3.8 1.5 1.1 1.9h1.2l1.1-1.2 1.5 2 1.2.7.4-.4-1.2-4.2.8-2.6.7-.4h.8l1.5 1.5 1.6 2 3 1.4 2.3 1.6h.8v-3.5l.7-.4 1.2.8 1.5 3 .4 6.6v5.3l1.1 5.7 1.5 1.2 1.2 1.1 2 2 1 1.5 1.6.3 4.6 3.5h3.4l2.7 1.1 1.1 1.5 3 5.4 1.2 1.9 2.7 1.9h1.5l2 1.5.3 2v1l1.5 2 1.5 2.7 2.3.7 2.3 3v5l1.6 2.7.7.8 1.5.7.8.8-1.5 7.3 1.5 13.3-.8 4.2 1.6 3.8 3.4 6.9.8 2.7.3 3 2.3 3.4v5.8l.8 2.7v3.8l-2.7 4.2-2.3 5v4.1l-1.1 8-.8 2.3-.7 3.8-2.7 8v7l-.4 3.8-.7 2.2-.8 4.6-2.7 7.7-3.8 5.7-.4 3.8-.7 2-.8 2.2-2.7 2.7-1.1 1.1-.8 1.5h-1.5v.8h1.1l-.3 1.2-3.9 1.5-2.6 1.9-2.7 4.6-1.2 1.9-1.1 2.3-.8 1.1-.3 1.2-.8 2.2-1.1.8-1.2.8.4 2.3-.8 2.6v2l-.7 1.5-.8-.4h-.4l-.8.8h1.2l.8.3-2.7 3-2.3 3.1-.8 2-.7 2.2-1.2 5-.7 3 .7 2-.7.3-1.6.8v1.5h.4v1.6h-1.5l-1.1 1.1-3.5 7.6-1.5 2.3-1.5 3-.8 3.1-.4 3-.8 5-.7 3.9-1.2 3.4-.7 2.3v4.6l.4 3.8v3.4l-.8 1.5-2.3.8-1.9 1.5-2.7 2.7-1.1 1.2-3.5 1.1-6.4.4-11.9 2.7-2.6.7-4.2 2-4.6 3-4.2 3.8-9.6 10-7.6 1.8h-2.7l-1.1.8v1.1l1.1 1.2.8.8 1.9-1.6h.4l.4 2.7v1.9l-.4.8-1.2.7h-1.1v-1.1l-1.5-2-1.6-1.5-1.5-.7-.8.8-1.5 1.1-1.5-2.3-1.1-1.9h-3.5l-1.1-.8-2.3-1.1v-1.2l1.1-1.1 1.2-.8v-1.5l-1.2-1.1h-3l-.8 1.5-1.1 1.9-3.9 2.7-2.2-1.2-2.3-1.5h3.8l1.9-2.3.8-1.1 1.1-2.3-1.1-1.5-1.6-.8-1.5-.8-6.1 3.8-1.5.8-1.2 1.2h3.5l1.1.7-1.9 1.5-2 .8-1.8 1.1-4.2 2.7-5.4 5.4-2.3 1.5-2.2 1.5-3.9-1.1h-1.9l-2.6-1.6-4.2-.7-3.9-2-3-1h-2l-3 1-4.5-1.8H904l-2.3 2.6h-2.6l-3.8-3.4-3.9-1.5h-6.8l-4.2-2.3-3-4.6-6.2-5-1.5-1.9-.8-1.9v-1.5l.8-3.4.7-3 .4-2-2.3-5.3-3-5-1.5-1.5-3.9-3.5-3.8-2.3-1.1-1.1v-.8h1.5l.8-1.1 1.1-.4 1.2 1.5h1.1v-2.3l.4-1.5-.4-.4v-.4l-1.9-.3-2 .7-1 1.6-2 .7-.7 1.2h-2l-.7.7-3.8 2-2.3.3h-3.8l1.5-2.7 1.1-1.9 1.6-1.5 1.9-6.5-.4-5-1.1-1.8-3.1-3.9-1.1-2.6-2-2.7-.7 1.5-.8 2-1.5 2.6-.8 5.3-3.4 8.8h-4.2l-3.4 1.2-2.3 1.5h-2l-1 .8h-1.6l2.3-7h2.3l2.3-.3h2.3l1.1-3.4.8-3.5-.4-1.9v-5.3l.4-2 2.6-6 2.7-3.5 2.7-2.6-.4-2.3-1.2-3v-2l1.2-.8 1.1-1.9-1.1-6-1.2-2-1.1-1.5v4.6l-1.9 3.4-2.7 2.3-1.5 2.3-2 5-1.8 3.8-2 1.9-1.8.7-1.6.8-2.6 1.5-3 2-2 1.9-1.5 1-5.7 8.5-2.7 2.7v1.1l-1.5 1.2v1.1l1.1.8.8 3.4-.4.8h-.8l-2.3-2-1.5.8-1.1.8-3.1-3-1.1-.8-1.6-1.6-1.9-.7h-1.9v-.8l1.2-1.1h.3l1.6 1.1 1.5.8h.8l.3-.4-1.1-3.8-1.2-3.8-.3-.8-1.2-3.8-.7-.8-2.7-2.3-2.7-3-.7-3.5-1.2-2.3-1.1-1.1-2-1.2H771l-2.3-3.8-1.1-4.2.8-.3h1.5v-3.9l-5.4-2.3-2.6-2.6-2.3-1.2H755l-3.8.4-7.7-3.8h-2.2l-5.8 2h-1.9l-9.1-5.8-5.8-2.3-1.9-.4-2.6-.4-2.3.8-1.2.8-3 1.1-11.9.4-10.3 1.9-6.8 1.1-4.2 1.2-7.7 3.8-8.4 4.6-6.8 1.9-6.5 2.7-4.2 1.1-5.7.4h-11.5l-3.8.8-6.5 4.5-2 1.2-3.7 1.5-9.2 5.7-3.8 1.5-3 .4-2.4 1.2-2.2 2.7-2.7 6.4-2 3-3.7 5-2.7 1.6h-2.7l-2.7 1.9-2.6-2h-5.4l-11.4 2.8-1.5-2.3h-11.9l-10.7 1.1-5 1.1-2.2.8H516l-6.1.8-2.3 1.5-2 1.1-3.4 5.4-3.8 1.9h-2.7l-3.4.8-6.9 5.3-6.8 5-2.3.7-2.7.8-3.4.8-1.6.3-8-1.1h-5l-6.4-.4-5.4-2.3-4.2-1.5-5-5-2.6-2.3-5.3-2.2H425l-1.1.7-2.3-1.5v-2.3l-.4-1.9v-10.3l2 1.5 1.4 1.2h3.5l2.7-2.3 1.9-3.5 1.1-3.4v-3.8l-1.1-6.9.7-1.1.8-.8.4-3.4v-10l-.4-3.8-4.6-7.6-2.7-7.3-2.3-3-1.9-5-1.5-6.8v-3.5l-.8-6.5.4-3.8v-1.9l-1.9-5.7-4.2-5.4-.7-1.9v-2.3l-.8-2.3-3.8-5-3-4.5-.8-1.9-.4-8.8-1.5-3.8-5.8-10-6.8-8.7-2-3.8-.7-.8h1.1l1.2 1.2.7-.8v-2.7l.8.4.8 2 1.9 4.9.7 2.3 2.7.7 1.2-.7.7-1.2.4-3.4-1.5-1.5-1.2-.8-1.9-2.3-1.5-3.8-2.3-3.8v-1.5l1.2-.8h1.5l1.5 2.7 1.5 1.9v3.4l-.4.8v.7l.8.8.8.8.7-.8.8-2.3.4.4 1.1 4.6 1.2 1.1 1.5 1.5 1.5-1.1.8-.8v-9.5l-3.8-6.1-3.8-7.6-2.3-3.9-2-5.7-1-2-1.6-3v-6l1.5-5.4 1.2-2.7 3.8-6.5v-5l.4-3v-2.3l-.4-1.9-1.6-3.8 2-6.1 3-7.6 1.2-1.6 1.5-1.1.4 1.5-.8 5.7 1.1 2.7v3.5l.8-.8 2-.4 1.4-2 .4-1.4 3.8-6.5 1.6-2.7 2.6-1.5 5.8-2.3 5.3-3 2.3-2.7 3.4-2.3 2-2.7 2.2-2 10.7-6.4 2-1.5h4.5l2.7-.4 3 1.5h2l4.9-1.9 2.7-1.1 4.6-3.5 1.9-1.1 4.5-.8 5.4-1.5 6.5-5.7h4.6l3.8.4 3.8-1.6 7.6-1.1 3.8-1.5 8.4-3.9 2.3-1.5 3-2.7 2.8-3.4 3-4.6 1.5-3.8.8-1.9 1.5-3.4 1.2-2.3 1.1-1.6 3-1.5 4.6-5 1.6-1V963l-.8-.8-1.5-.4-.8-5-.7-3.7v-4.6l1.9-3.8 1.1-1.6 2-1.9 1.4-.4 1.6-1.9 2.3-1.5.7-1.5 1.6-3.5 1.1-2.2h.8l1.9 5.3 1.5 3 2.3 3.5 1.9 5 1.9 2.2.8 1.6.7.7v-2.3l.8-3.8-.4-2.6v-1.2l.4-.4h.8l1.9 1.6.7.3h.4v-2.6l.8-1.6v-.9h-1.6l-.7-1.2-1.2-1.5-1.5-.7-1.5-2.7-.4-1.2h1.5l.8-1.5.4-1.5-.8-2.3.8-.8h1.5l2.3 3.9 1.1-.4.8-2h3l.8.8 2.3 1.2h4.2l2.7-.4h1.5l-2-.8h-3.7l-.8-.7-.4-2 .4-1.5.4-.4h2.7v-1.9l.3-1.9.8-1.1v-1.5l-.8.3-1.9 3.5-.7-2.7-1.5-2 .3-2.6.8-2.7h2.3l1.5-1.5.8-1.1v-2h.7l4.2 2.4.8 1.1.8-.4v-2.6h-2.7l-.4-.8v-.4l-.8-1.5 1.2-1.2h1.1l.8-1.1v-1.2l1.1.4h2l1.9 1.6h1.1v-.8l.4-1.2-2.7-1.5v-1.5l-1.1-1.5v-1.6l1.5-1.5.4-1.1 1.1-.8h1.6l1.1-1.1 1.5-.4V884l.8-.4 1.5.4-.4 1.9v1.9l-.3 1.1h.3l.4-.3.4-1.6 1.5.4.4 1.5v1.2l1.1.4.8-2 1.5-.7v-4.2l.4-1.5.8-.4v-1.5l-.4-1.2-.4-1.5 1.2-.4 1.1.8.8 1.9.7 1.1.4-.7.8-1.2 1.1-1.1 1.6 1.1 1.5 1.5 1.9-1.5 1.9-2.7V873l2.3-1.1 1.9.3 1.5 2 3.5 1.1 3 2 1.2 1 2.6 2 2 1.9 1.8 3.8 5.8 3.8v1.1l-.4 1.6-.8 1.9-.7 3.4v5l.7-.4.8-2h.8l.7 1.2v-1.5l-1.1-2.3v-1.1l.4-1.2 1.5-1.1 1.1-.8.8-.7v-.8l1.1-.8 2-.4h1l7.7 1.6 2 1.9v2.7l1 .7v-5.3l.8-.4h2l1.5.8 1.9 2.2.4 1.2.7.8v-6.5h2.3l1.5-.8h-.7l-.8-.4-1.9-1.5-1.1-1.2 1.9-1.9h-2l-1.8-1.1-2-2 1.2-3.7 3-3.8 1.6-1.2v-1l.7-2.3.4-2v-1.5l.8-1.5 1.9-1.5 2.3-.8 1.1-.7 1.2-1.2 1.1-1.9-2.3-3V854l.4-2.3 2.7-1.5 1.5-3.8.8-1.2h3V841l.8-.7 1.1.4.8 1.5 1.9 1.1.4-.7V841l-.4-1.5 1.5-.7h1.2v-3.1l3.4-.8.8-1.1v-1.2l.7.8.4 2.3 2 1.1 5.3-.3 2.6-1.2 1.2.4h1.9l2.3-.8 1.1-1.1 2.3 1.1.8.8v-2.3l1.5-1.1 1.5-.4h2.7l-1.5-1.5v-6.5l.4-1.6-3.9-2.6-3.4-.4-2.3.8h-1.1l-2.3-2.7-2.3-.8v-.7l2.3-2h1.1l1.6 2 .7.3h.8l.7-1.5.4-.8 1.6.4 3.8 2.7 2.3 2.7 1.1-1.2 2-1.5h1.8l1.2 1.1 1.9 3.1 1.1 1.5h3l1.6.8 2 1.1 1.8-.4h4.6l4.2 2 1.9 1.1h2l1 .8h2.3l3.5-2 1.5 1.2.8 1.1 3 1.6h3.8l2-2 3.8-1.5 2.3-2.3 1.5-1.5 1.9-1.5h.4l-1.2 1.5v1.2h.8v.7l-1.5 1.2-1.6 2.3v1.1l.8.4h.8l1.1-1.2 1.5-.7 1.2.7.4 2.7 1.1 1.5h3l1.2-2.6-.8-2-.7-.3.4-1.2 3-3.8h2l1 3.5 2 1.5h3.4l.8 2.3-6.9 9.5-.4.8.8 1.5.8 2-2.3 4.5-1.2.4-.7-1.2-1.2-.7-1.1.7-1.2.4-4.2 3v6.6l1.2 3.8-.4 2.3-1.2 4.5-1.5 1.6-1.1 1.1-3.5 6.5-1.1 1.5-1.2 2.3.4 2 .8 1 1.1 1.6 5.8 2.7 2.2 2.3 4.2 2.3 1.2 1.5.8 1.5 3 1.5 2.3.8h.4l.4-.8h1.1v3l1.5 1.2h2.7l1.1-.7 2 1.1 1.1.8 2.7 1.5 3.8 1.5 3.4 1.2 3.8 4.6 2.7 2.2 3.4 2 4.6 1.1 2.3-.8 3.5 1.6 3.4.3 1.9 2.3.4 1.6v1.5l1.9 3 3.8.4 4.2 3 3.8.8 1.2.8 1.5 1.1 3-.3 5.4-2.3 2.3-2 3.4-3 1.5-4.6.8-3.8 4.2-7.6 1.1-3.8 1.2-5 1.1-3.4-.7-3 1.1-6.2 2-8.8.7-2.6-.4-3.9-1.5-7.6.4-3 .3-3.9-.7-2.6-1.2-1.6V851l.8-5 .8-2.7.7-3.8-.7-6 2.3-2.4.7-1.1h2.7v-1.2l-.8-1.1v-1.2l-.7-.7h-1.2l-.7-.8-1.2-.8v-2.6l2-5.7 1-2.3.8.7.8.8v-3.4l1.1-5.4 1.6-7.6V792l3-1.5 1.5-2 .8-1.9h1.5l1.2.4-.8 1.6v1.1l3 2.7 1.2 1.9.4 1.9.8 1.9v2.3l.3 3.8.4 3.8 1.2 1.2 1.1.7h1.5l1.6.4Zm183.2 255-.8.4-.8-.8-.7-3.8.4-2 1.1-1.8v-1.2l-.4-1.9 2.7-3 .8-1.6v-1.5l-.8-1.5-.8-.4.4-1.1.8-.8h1.5l.4 3.8 1.1.8v1.9l-3.8 9.5-1.1 3.4v1.6Zm-246.2-155-1.5 2h-.8l-.4 1-1.5.4h-.8l-1.1.8-.4-.4v-1.9l1.5-2.3 1.2-1.1 2.6-.8 2.3-1.1h.4l2 1.9-2.8.7-.7.8ZM810.2 860l.8.8h1.1l.4-2.3.8.4v.4l.4.7-1.2 1.6-.7 1.1-.8 2.7v.7l.8.8 1.9.8.7-.4v1.1l-.7 1.2h-4.2l-3.5-.4h-1.9v-.4l.8-.8.4-1.1v-5.3l1.9-1.6.8-1.5 1.1-1.1h1.1v2.6Zm-113-34.3h1.6l.8.7.3.8v.8l-1.5.7-3.8-1.1-3 1.1h-.8l-.8-.4.4-2.2h1.1l1.2-.8V823l-.8-1.1 1.5-2.7h.8l.8-.4.7 1.5v2l1.2 1.5.4 1.9Zm3.1-6.5h2.3l2.7-1.5h1.9l2.3-1.6 1.1-.3 1.2-1.2.7 1.2 2.3 1.1.8 1.1.7.8v.4l-.7 1.5v1.5H714l-1.6 2.7-6 5-5.8-3.5-2.3-2.3-1.5-3.4-.4-2.7-.8-1.9.4-.7h.4l2 1.9.7.7 1.1 1.2Zm-312.2 311-.4.8-3.8-6-.8-4.7.8-.7h.8l1.9 5.7.7 1.5v2l.8 1.5ZM831 1299h4.1l1.6-.8h2.3l1.5 2-1.2 1h-4.5l-3 .8-.8.8-.8 1.9-2.3 1.1-1.1-.7-3.5-.8-.7 1.5h-2.3l-2.3.4h-2.7l-3-1.5-.8-.8.7-1.9.8-1.1 8.4-2.7 4.2-1.5h4.6l1.1.4-.7 1.5.4.4Zm141.2 35-2.7 2-1.1-.8v-1.1l2.6-.4 1.2.4Zm-3 3.1.3 1.2h-3.8l1.5-1.5h1.5l.4.3Zm65.2-371.7-.8.4h-1.1l.7-3.1.4 1.5.8.8v.4Zm-2-2.7h-.7v-.8l.8-.7.4-.4v1.9h-.4Zm40.5 61.8.8.8h.8v1.2l1.1 1.5v1.1l-.4.8h-1.5l-2.7-3.8.4-2 1.5.4Zm-11.4-21.7h-.8v-2.3l.8.4.8 1.5-.8.4Zm-10.3-1.2-.8.8-.4-1.5v-1.6l.8-.7v2.3l.4.7Zm65.2 96.2-1.5 5.8h-.4l-.7-.8v-3l.7-2.4h1.6l.3.4Zm-1.5-2.3-.4.4-.7-1.5-.4-2v-1.8l1.1-.8h.8l-.8 3.8.4 2Zm-207.6-308-1.2 1.2-1.1-.4v-2l1.1-1 1.2 2.2Zm1.1-10.7-1.1 1.5H906l-.3-.7v-1.2l1.9-.3.7.7Zm-3.4 0-1.1-.7.7-1.6.8.8-.4 1.5Zm78.2 153.8.8 2 .8 1.5-.4.7-.4.8-1.1-.4-.8-1.5-1.5-1.5-.4-.8h1.5l.8-.4.4-.4h.3ZM806.4 811.2l-1.1 1.5v-1.1l.7-.8 1.6-3 .4-.8.3-.4.4-1.2V804l.8-.4-.4 3.9-2.7 3.8Zm-4.2 5-3 1.8 1.5-2.2 3.4-2.3h.4v.7l-1.9 1.6-.4.3Zm15.3 83.1-.4.8-1.1-.8v-1.1h-1.2l.4-1.1h.4l.4-1.6 1.1 1.6v1.5l.4.7Zm-3.8-3h-.4v-1.5l.4-.8v2.3Zm-5 .8h-1.1l-.4-.8v-.8l1.1-.4h.8l-.4 2Zm52 24.8-.8.3v-.7l.7-.8.8-1.5 1.1 1.1v1.2l-1.9.4Zm-59.2-60.7h-2v-1.6l.4-.3 1.2-1.6.7.8v1.5l-.3 1.2Zm-66-45.8-.4.4-1.6-3.1.4-.8-.8-1.5 1.2-.4.8-1.1v2.7l1.1 1.1-.8 2.7ZM604 890.6l-1.1 1.1-.8-.8.4-2.2.8-.8.7.4v2.3Zm-10.7 17.1-.3.8h-.8v-1.1l-.8-.8v-1.1h1.6v.3l1.1 1.2-.8.7Zm-164 115.3-1.2 1.5H427v-1.1l.8-1.1 1.1-2 .8 1.2-.4 1.5Zm534.3 359.6h1.9l1.1-.8h1.2l1.1.8 1.5.4h1.6l.7.7 2 .4h1l.9.8.7.7 5 1.2h3.8l4.6-.8 1.1-.8 1.5-.7 1.2.4 1.1 1.1v-2.3l1.2-.8 1.1-.7h2.3l2-.8.7-.4h3.4l.8-.7 1.5-2 .8-.7h4.6l1.5-2h1.1l3 .9 1.6 1.5v21.4l.4.3.4.8v3h-.8l-.4-.7v-1.5l-.4-.8-1.1-.4v-.7h.8v-1.2l-1.2.8-.4 1.1v.8l-1.5 1.5-.8 1.5v3.9l-.7 1.1-.8 1.5-.4 1.6v3l.8 2.7.4 3.8-.8.4-1.9.7-.8.4-1.5-1.5-.7-2 .3-.7h2.3v-1.5l-1.9-1.1h-2.3l-.7.7.4 1.5v.8l-1.6.8-.7-2.7-2.3-1.5v.7l1.1 1.6v.7l-.4 1.2-1.1.3v2l-.4 1.5-1.5 1.1-3-1.5v1.5l1.5.8-.8 1.1-.4 1.2-1.1 2.7-1.2 2.3h-3l-3-1.6-2.4.8H984l-2.7 1.1-.4-1.9-.7-.4v-.7l2.3-.8h2.3l-.4-.8h-6.1l-1.2-.3-2.3-3-1.1-1.6h-.8l-.7-.4-.8-.4-3.8-6.8-.8-2-.4-3.8 3.1 1.6 1.1 1.1.4 1.5 1.2-2.3v-.3l-3-2.3v-.8l-.5-.8-.7 1.2h-1.2l.4-1.5v-2l-3.8-3-2.3-3.4-2.3-3.9v-1.5l-1.5-2.7-.4-2.3-.4-1.8 1.2-3.9v-2.3l1.9.8 4.2.8Zm-19.9-10.3h-.7v-2.7l-1.2-1.5.8-1.6v-2.3l1.1-1.1v-1.5h1.2l1.5.7.8 3-.4 1.6.4 1.5v1.6l-1.6 1.1-1.9 1.2Zm72.6-16.5 3 3.1h1.5l.8.8v1.5l-1.2.8 1.6.7v.4h-.4l-2 1.5-1.5.8-.7-.4-.4-.4-.4-.7-2.3-2.7v-1.2l-.3-1.1h-1.2l-.8-.4 1.2-.7 1.9-2.3 1.1.3Zm-11.9 71.8-.8 2h-1.5l-1.1.3-1.2-1.2h1.2l.4-.7v-.4h.7v-1.1l1.2-1.2h.4l.3 1.2.4 1.1Zm13.4-15.3-1.2.4v-1.1l.4-1.2h1.5v.8l-.7.8v.3Zm-11.9 12.3h-1.5v-1.2h-1.1l.4-.8v-.3l.7-.8.8.8.7 2.3Zm-47-47-.7 2-.7-2 .7-.4.8-.7v1.1Zm63-11.8 1.6.7 1.1 1.2-1.5 1.1-.8.4-.7-1.1-1.5.7h-2.3l-1.2-.4v-.7l.4-.4h2.7l2.3-1.5Zm-1.5 4.2-1.1 1.5-1.1-.8v-.4l1.5-.3h.7Zm189.4 236.2-.4.8v-.8l.4-3.8 1.1-.7v1.9l-1.1 2.6Z" stroke="#fff"/></g><defs><clipPath id="a"><path fill="#fff" d="M0 0h1211v846H0z"/></clipPath></defs></svg>