<svg width="800" height="550" viewBox="0 0 800 550" fill="none" xmlns="http://www.w3.org/2000/svg">
<g id="Frame 1">
<rect width="800" height="550" fill="white"/>
<rect class="rectangle" x="56.5" y="55.5" width="219" height="79" fill="#FFC52B" fill-opacity="0.6" stroke="#333333"/>
<rect class="rectangle" x="503.5" y="55.5" width="219" height="79" fill="#008A97" fill-opacity="0.3" stroke="#333333"/>
<rect class="rectangle" x="56.5" y="275.5" width="219" height="79" fill="#FFC52B" fill-opacity="0.6" stroke="#333333"/>
<text id="Provincial Administrations" fill="black" xml:space="preserve" style="white-space: pre" font-size="14" font-weight="600" letter-spacing="0em"><tspan x="132.914" y="311.591">Provincial</tspan><tspan x="112.365" y="328.591">Administrations</tspan></text>
<g id="Submits budget STEP 1">
<text fill="black" xml:space="preserve" style="white-space: pre" font-size="12" font-weight="300" letter-spacing="0em"><tspan x="193" y="163">Submits budget</tspan></text>
<text fill="black" xml:space="preserve" style="white-space: pre" class="step" font-weight="600" letter-spacing="0.12em"><tspan x="218" y="175">STEP 1</tspan></text>
</g>
<g id="Approves budget STEP 2">
<text fill="black" xml:space="preserve" style="white-space: pre" font-size="12" font-weight="300" letter-spacing="0em"><tspan x="344" y="65">Approves budget</tspan></text>
<text fill="black" xml:space="preserve" style="white-space: pre" class="step" font-weight="600" letter-spacing="0.12em"><tspan x="372" y="77">STEP 2</tspan></text>
</g>
<g id="Raise claims for spending STEP 4">
<text fill="black" xml:space="preserve" style="white-space: pre" font-size="12" font-weight="300" letter-spacing="0em"><tspan x="288" y="284">Raise claims for spending</tspan></text>
<text fill="black" xml:space="preserve" style="white-space: pre" class="step" font-weight="600" letter-spacing="0.12em"><tspan x="288" y="296">STEP 4</tspan></text>
</g>
<g id="Approval and issuing cheque STEP 5">
<text fill="black" xml:space="preserve" style="white-space: pre" font-size="12" font-weight="300" letter-spacing="0em"><tspan x="316" y="355">Approval and issuing cheque</tspan></text>
<text fill="black" xml:space="preserve" style="white-space: pre" class="step" font-weight="600" letter-spacing="0.12em"><tspan x="449" y="367">STEP 5</tspan></text>
</g>
<g id="Approval and issuing cheque STEP 5_2">
<text fill="black" xml:space="preserve" style="white-space: pre" font-size="12" font-weight="300" letter-spacing="0em"><tspan x="316" y="505">Approval and issuing cheque</tspan></text>
<text fill="black" xml:space="preserve" style="white-space: pre" class="step" font-weight="600" letter-spacing="0.12em"><tspan x="448" y="517">STEP 5</tspan></text>
</g>
<g id="Raise claims for spending STEP 4_2">
<text fill="black" xml:space="preserve" style="white-space: pre" font-size="12" font-weight="300" letter-spacing="0em"><tspan x="288" y="428">Raise claims for spending</tspan></text>
<text fill="black" xml:space="preserve" style="white-space: pre" class="step" font-weight="600" letter-spacing="0.12em"><tspan x="288" y="440">STEP 4</tspan></text>
</g>
<g id="Warrants issued, cash to operational accounts STEP 3">
<text fill="black" xml:space="preserve" style="white-space: pre" font-size="12" font-weight="300" letter-spacing="0em"><tspan x="624" y="196">Warrants issued,</tspan><tspan x="624" y="208">cash to operational accounts</tspan></text>
<text fill="black" xml:space="preserve" style="white-space: pre" class="step" font-weight="600" letter-spacing="0.12em"><tspan x="624" y="220">STEP 3</tspan></text>
</g>
<g id="Warrants issued, cash to operational accounts STEP 3_2">
<text fill="black" xml:space="preserve" style="white-space: pre" font-size="12" font-weight="300" letter-spacing="0em"><tspan x="624" y="379">Warrants issued,</tspan><tspan x="624" y="391">cash to operational accounts</tspan></text>
<text fill="black" xml:space="preserve" style="white-space: pre" class="step" font-weight="600" letter-spacing="0.12em"><tspan x="624" y="403">STEP 3</tspan></text>
</g>
<rect class="rectangle" x="503.5" y="275.5" width="219" height="79" fill="#008A97" fill-opacity="0.3" stroke="#333333"/>
<rect class="rectangle" x="56.5" y="420.5" width="219" height="79" fill="#FFC52B" fill-opacity="0.6" stroke="#333333"/>
<text id="District Administrations" fill="black" xml:space="preserve" style="white-space: pre" font-size="14" font-weight="600" letter-spacing="0em"><tspan x="141" y="456">District</tspan><tspan x="112" y="473">Administrations</tspan></text>
<rect class="rectangle" x="503.5" y="420.5" width="219" height="79" fill="#008A97" fill-opacity="0.3" stroke="#333333"/>
<path id="Ellipse 1" d="M275.5 226C275.5 230.169 272.593 234.247 267.072 238.044C261.568 241.83 253.57 245.259 243.642 248.147C223.793 253.922 196.342 257.5 166 257.5C135.658 257.5 108.207 253.922 88.3579 248.147C78.43 245.259 70.4322 241.83 64.9277 238.044C59.4075 234.247 56.5 230.169 56.5 226C56.5 221.831 59.4075 217.753 64.9277 213.956C70.4322 210.17 78.43 206.741 88.3579 203.853C108.207 198.078 135.658 194.5 166 194.5C196.342 194.5 223.793 198.078 243.642 203.853C253.57 206.741 261.568 210.17 267.072 213.956C272.593 217.753 275.5 221.831 275.5 226Z" fill="#FFC52B" fill-opacity="0.6" stroke="#333333"/>
<text id="Provincial Assemblies" fill="black" xml:space="preserve" style="white-space: pre" font-size="14" font-weight="600" letter-spacing="0em"><tspan x="133" y="222">Provincial</tspan><tspan x="127" y="239">Assemblies</tspan></text>
<path id="Vector 1" d="M615.5 419.5L621.274 409.5H609.726L615.5 419.5ZM500.5 94.5L490.5 88.7265V100.274L500.5 94.5ZM383.5 480L393.5 485.774V474.226L383.5 480ZM383.5 332L393.5 337.774V326.226L383.5 332ZM395 306L385 300.226V311.774L395 306ZM395 452.5L385 446.726V458.274L395 452.5ZM615.5 274.5L621.274 264.5H609.726L615.5 274.5ZM169 135.5L163.226 145.5H174.774L169 135.5ZM614.5 356.5V358.469H616.5V356.5H614.5ZM614.5 362.406V366.344H616.5V362.406H614.5ZM614.5 370.281V374.219H616.5V370.281H614.5ZM614.5 378.156V382.094H616.5V378.156H614.5ZM614.5 386.031V389.969H616.5V386.031H614.5ZM614.5 393.906V397.844H616.5V393.906H614.5ZM614.5 401.781V405.719H616.5V401.781H614.5ZM614.5 409.656V413.594H616.5V409.656H614.5ZM279.5 95.5H281.473V93.5H279.5V95.5ZM285.42 95.5H289.366V93.5H285.42V95.5ZM293.312 95.5H297.259V93.5H293.312V95.5ZM301.205 95.5H305.152V93.5H301.205V95.5ZM309.098 95.5H313.045V93.5H309.098V95.5ZM316.991 95.5H320.938V93.5H316.991V95.5ZM324.884 95.5H328.83V93.5H324.884V95.5ZM332.777 95.5H336.723V93.5H332.777V95.5ZM340.67 95.5H344.616V93.5H340.67V95.5ZM348.563 95.5H352.509V93.5H348.563V95.5ZM356.455 95.5H360.402V93.5H356.455V95.5ZM364.348 95.5H368.295V93.5H364.348V95.5ZM372.241 95.5H376.187V93.5H372.241V95.5ZM380.134 95.5H384.08V93.5H380.134V95.5ZM388.027 95.5H391.973V93.5H388.027V95.5ZM395.92 95.5H399.866V93.5H395.92V95.5ZM403.812 95.5H407.759V93.5H403.812V95.5ZM411.705 95.5H415.652V93.5H411.705V95.5ZM419.598 95.5H423.545V93.5H419.598V95.5ZM427.491 95.5H431.437V93.5H427.491V95.5ZM435.384 95.5H439.33V93.5H435.384V95.5ZM443.277 95.5H447.223V93.5H443.277V95.5ZM451.17 95.5H455.116V93.5H451.17V95.5ZM459.062 95.5H463.009V93.5H459.062V95.5ZM466.955 95.5H470.902V93.5H466.955V95.5ZM474.848 95.5H478.795V93.5H474.848V95.5ZM482.741 95.5H486.687V93.5H482.741V95.5ZM490.634 95.5H494.58V93.5H490.634V95.5ZM389.35 481H393.25V479H389.35V481ZM397.15 481H401.05V479H397.15V481ZM404.95 481H408.85V479H404.95V481ZM412.75 481H416.65V479H412.75V481ZM420.55 481H424.45V479H420.55V481ZM428.35 481H432.25V479H428.35V481ZM436.15 481H440.05V479H436.15V481ZM443.95 481H447.85V479H443.95V481ZM451.75 481H455.65V479H451.75V481ZM459.55 481H463.45V479H459.55V481ZM467.35 481H471.25V479H467.35V481ZM475.15 481H479.05V479H475.15V481ZM482.95 481H486.85V479H482.95V481ZM490.75 481H494.65V479H490.75V481ZM498.55 481H500.5V479H498.55V481ZM389.35 333H393.25V331H389.35V333ZM397.15 333H401.05V331H397.15V333ZM404.95 333H408.85V331H404.95V333ZM412.75 333H416.65V331H412.75V333ZM420.55 333H424.45V331H420.55V333ZM428.35 333H432.25V331H428.35V333ZM436.15 333H440.05V331H436.15V333ZM443.95 333H447.85V331H443.95V333ZM451.75 333H455.65V331H451.75V333ZM459.55 333H463.45V331H459.55V333ZM467.35 333H471.25V331H467.35V333ZM475.15 333H479.05V331H475.15V333ZM482.95 333H486.85V331H482.95V333ZM490.75 333H494.65V331H490.75V333ZM498.55 333H500.5V331H498.55V333ZM279.5 307H281.563V305H279.5V307ZM285.688 307H289.813V305H285.688V307ZM293.938 307H298.062V305H293.938V307ZM302.187 307H306.312V305H302.187V307ZM310.437 307H314.563V305H310.437V307ZM318.687 307H322.812V305H318.687V307ZM326.938 307H331.062V305H326.938V307ZM335.188 307H339.312V305H335.188V307ZM343.437 307H347.563V305H343.437V307ZM351.688 307H355.812V305H351.688V307ZM359.938 307H364.063V305H359.938V307ZM368.187 307H372.312V305H368.187V307ZM376.438 307H380.562V305H376.438V307ZM384.687 307H388.813V305H384.687V307ZM279.5 453.5H281.563V451.5H279.5V453.5ZM285.688 453.5H289.813V451.5H285.688V453.5ZM293.938 453.5H298.062V451.5H293.938V453.5ZM302.187 453.5H306.312V451.5H302.187V453.5ZM310.437 453.5H314.563V451.5H310.437V453.5ZM318.687 453.5H322.812V451.5H318.687V453.5ZM326.938 453.5H331.062V451.5H326.938V453.5ZM335.188 453.5H339.312V451.5H335.188V453.5ZM343.437 453.5H347.563V451.5H343.437V453.5ZM351.688 453.5H355.812V451.5H351.688V453.5ZM359.938 453.5H364.063V451.5H359.938V453.5ZM368.187 453.5H372.312V451.5H368.187V453.5ZM376.438 453.5H380.562V451.5H376.438V453.5ZM384.687 453.5H388.813V451.5H384.687V453.5ZM614.5 135.5V137.544H616.5V135.5H614.5ZM614.5 141.632V145.721H616.5V141.632H614.5ZM614.5 149.809V153.897H616.5V149.809H614.5ZM614.5 157.985V162.074H616.5V157.985H614.5ZM614.5 166.162V170.25H616.5V166.162H614.5ZM614.5 174.338V178.426H616.5V174.338H614.5ZM614.5 182.515V186.603H616.5V182.515H614.5ZM614.5 190.691V194.779H616.5V190.691H614.5ZM614.5 198.868V202.956H616.5V198.868H614.5ZM614.5 207.044V211.132H616.5V207.044H614.5ZM614.5 215.221V219.309H616.5V215.221H614.5ZM614.5 223.397V227.485H616.5V223.397H614.5ZM614.5 231.574V235.662H616.5V231.574H614.5ZM614.5 239.75V243.838H616.5V239.75H614.5ZM614.5 247.926V252.015H616.5V247.926H614.5ZM614.5 256.103V260.191H616.5V256.103H614.5ZM614.5 264.279V268.368H616.5V264.279H614.5ZM168 141.125V144.875H170V141.125H168ZM168 148.625V152.375H170V148.625H168ZM168 156.125V159.875H170V156.125H168ZM168 163.625V167.375H170V163.625H168ZM168 171.125V174.875H170V171.125H168ZM168 178.625V182.375H170V178.625H168ZM168 186.125V189.875H170V186.125H168ZM168 193.625V195.5H170V193.625H168Z" fill="black"/>
<path id="Vector 2" d="M169 258V274" stroke="black" stroke-width="2" stroke-linecap="square"/>
<text id="Public Administration" fill="black" xml:space="preserve" style="white-space: pre" font-size="14" font-weight="600" letter-spacing="0em"><tspan x="78" y="37">PUBLIC ADMINISTRATION</tspan></text>
<text id="National Department of Treasury" fill="black" xml:space="preserve" style="white-space: pre" font-size="14" font-weight="600" letter-spacing="0em"><tspan x="96" y="91">National Department</tspan><tspan x="128" y="108">of Treasury</tspan></text>
<text id="Provincial Treasuries" fill="black" xml:space="preserve" style="white-space: pre" font-size="14" font-weight="600" letter-spacing="0em"><tspan x="579" y="311">Provincial</tspan><tspan x="576" y="328">Treasuries</tspan></text>
<text id="District Treasuries" fill="black" xml:space="preserve" style="white-space: pre" font-size="14" font-weight="600" letter-spacing="0em"><tspan x="587" y="456">District</tspan><tspan x="576" y="473">Treasuries</tspan></text>
<text id="National Department of Finance" fill="black" xml:space="preserve" style="white-space: pre" font-size="14" font-weight="600" letter-spacing="0em"><tspan x="542" y="92">National Department</tspan><tspan x="577" y="108">of Finance</tspan></text>
<text id="Financial Management" fill="black" xml:space="preserve" style="white-space: pre" font-size="14" font-weight="600" letter-spacing="0em"><tspan x="525" y="37">FINANCIAL MANAGEMENT</tspan></text>
</g>
</svg>
