<svg width="278" height="24" viewBox="0 0 278 24" xmlns="http://www.w3.org/2000/svg">
    <g fill="#FFF" fill-rule="nonzero">
        <path d="M0 23.596V.393h5.107v18.562H16.68l-1.16 4.638zM29.98 23.993a11.892 11.892 0 0 1-8.693-3.348 11.883 11.883 0 0 1-3.61-8.585v-.066C17.863 5.329 23.311.018 29.98 0c6.67-.018 12.147 5.264 12.368 11.927v.067a11.997 11.997 0 0 1-3.643 8.616 12.006 12.006 0 0 1-8.726 3.383zm7.03-12a7.048 7.048 0 0 0-7.03-7.291 6.944 6.944 0 0 0-6.96 7.225v.067a7.048 7.048 0 0 0 7.03 7.293 6.944 6.944 0 0 0 6.96-7.227v-.066zM69.36 23.76h-4.444l-5.24-15.18-5.238 15.18h-4.444L42.069.394h5.472l4.807 15.711L57.555.326h4.377l5.205 15.778L71.945.393h5.34zM93.083 14.347v9.249h-5.106v-9.149L79.057.39h5.97l5.536 9.313L96.2.39h5.8z"/>
        <g>
            <path d="M113 23.633V.335h5.092v23.298zM137.993 23.633l-11.21-14.81v14.81h-5.025V.335h4.696l10.842 14.345V.335h5.027v23.298zM154.249 23.967a14.673 14.673 0 0 1-9.82-3.728l3.009-3.628a10.582 10.582 0 0 0 6.91 2.83c2.084 0 3.34-.833 3.34-2.198v-.067c0-1.297-.794-1.963-4.663-2.962-4.66-1.197-7.67-2.495-7.67-7.122v-.067c0-4.22 3.372-7.023 8.096-7.023 3.12-.05 6.162.997 8.597 2.963l-2.646 3.86a10.81 10.81 0 0 0-6.017-2.296c-1.95 0-2.976.898-2.976 2.038v.067c0 1.53.993 2.037 4.993 3.056 4.694 1.231 7.34 2.928 7.34 6.985v.066c.007 4.63-3.497 7.226-8.493 7.226zM176.45 5.072l-.07 18.571-5.092-.018.072-18.573-7.044-.028.02-4.725 19.175.074-1.189 4.72zM185.862 23.633V.335h5.09v23.298zM205.814 5.062v18.571h-5.092V5.062h-7.044V.335h19.178l-1.171 4.727zM250.676 5.062v18.571h-5.091V5.062h-7.052V.335h19.177l-1.171 4.727zM225.507 24c-6.217 0-10.019-3.493-10.019-10.352V.335h5.092v13.18c0 3.795 1.88 5.758 4.992 5.758s4.993-1.892 4.993-5.591V.335h5.092v13.147c0 7.056-3.935 10.518-10.15 10.518zM260.377 23.633V.335h17.457l-1.13 4.56h-11.276V9.62h10.91l-1.128 4.56h-9.782v4.893H278l-1.13 4.56z"/>
        </g>
    </g>
</svg>
