<?xml version="1.0" encoding="UTF-8"?><svg id="b" xmlns="http://www.w3.org/2000/svg" viewBox="0 0 645.18 314.89"><g id="c"><g id="d"><line x1="34.83" y1="4.91" x2="611.87" y2="4.91" fill="none" stroke="#eee" stroke-miterlimit="10"/><line x1="34.83" y1="52.91" x2="611.87" y2="52.91" fill="none" stroke="#eee" stroke-miterlimit="10"/><line x1="34.83" y1="100.91" x2="611.87" y2="100.91" fill="none" stroke="#eee" stroke-miterlimit="10"/><line x1="34.83" y1="150.91" x2="611.87" y2="150.91" fill="none" stroke="#eee" stroke-miterlimit="10"/><line x1="34.83" y1="198.91" x2="611.87" y2="198.91" fill="none" stroke="#eee" stroke-miterlimit="10"/><line x1="34.83" y1="246.91" x2="611.87" y2="246.91" fill="none" stroke="#bbb" stroke-miterlimit="10"/></g><g id="e"><text transform="translate(18.61 250.54)" font-family="ArialMT, Arial" font-size="11"><tspan x="0" y="0">0</tspan></text><text transform="translate(6.12 203.42)" font-family="ArialMT, Arial" font-size="11"><tspan x="0" y="0">$2b</tspan></text><text transform="translate(6.12 153.35)" font-family="ArialMT, Arial" font-size="11"><tspan x="0" y="0">$4b</tspan></text><text transform="translate(6.12 103.78)" font-family="ArialMT, Arial" font-size="11"><tspan x="0" y="0">$6b</tspan></text><text transform="translate(6.12 56.2)" font-family="ArialMT, Arial" font-size="11"><tspan x="0" y="0">$8b</tspan></text><text transform="translate(0 9.44)" font-family="ArialMT, Arial" font-size="11"><tspan x="0" y="0">$10b</tspan></text></g><g id="f"><text transform="translate(627.09 250.54)" font-family="ArialMT, Arial" font-size="11"><tspan x="0" y="0">0</tspan></text><text transform="translate(626.83 203.42)" font-family="ArialMT, Arial" font-size="11"><tspan x="0" y="0">100</tspan></text><text transform="translate(626.83 153.35)" font-family="ArialMT, Arial" font-size="11"><tspan x="0" y="0">200</tspan></text><text transform="translate(626.83 103.78)" font-family="ArialMT, Arial" font-size="11"><tspan x="0" y="0">300</tspan></text><text transform="translate(626.83 56.2)" font-family="ArialMT, Arial" font-size="11"><tspan x="0" y="0">400</tspan></text><text transform="translate(626.83 9.44)" font-family="ArialMT, Arial" font-size="11"><tspan x="0" y="0">500</tspan></text></g><g id="g"><rect x="95.61" y="17.76" width="26.82" height="228.55" fill="#ec8b51"/><rect x="211.47" y="56.2" width="26.82" height="190.12" fill="#ec8b51"/><rect x="327.23" y="137.12" width="26.82" height="109.2" fill="#ec8b51"/><rect x="443.37" y="156.88" width="26.82" height="89.44" fill="#ec8b51"/><rect x="557.78" y="63.71" width="26.82" height="182.61" fill="#ec8b51"/><rect x="63.61" y="189.11" width="26.82" height="57.51" fill="#5d85c8"/><rect x="178.38" y="192.02" width="26.82" height="54.6" fill="#5d85c8"/><rect x="294.92" y="203.42" width="26.82" height="43.2" fill="#5d85c8"/><rect x="410.12" y="211.42" width="26.82" height="35.19" fill="#5d85c8"/><rect x="524.86" y="190.31" width="26.82" height="56.3" fill="#5d85c8"/></g><g id="h"><text id="i" transform="translate(72.92 272.96)" font-family="ArialMT, Arial" font-size="11"><tspan x="0" y="0">2016-17</tspan></text><text id="j" transform="translate(186.57 272.96)" font-family="ArialMT, Arial" font-size="11"><tspan x="0" y="0">2017-18</tspan></text><text id="k" transform="translate(304.33 272.96)" font-family="ArialMT, Arial" font-size="11"><tspan x="0" y="0">2018-19</tspan></text><text id="l" transform="translate(418.79 272.96)" font-family="ArialMT, Arial" font-size="11"><tspan x="0" y="0">2019-20</tspan></text><text id="m" transform="translate(534.74 272.96)" font-family="ArialMT, Arial" font-size="11"><tspan x="0" y="0">2020-21</tspan></text></g><text id="n" transform="translate(132.92 310.99)" font-family="ArialMT, Arial" font-size="12"><tspan x="0" y="0" letter-spacing="-.07em">V</tspan><tspan x="7.11" y="0">alue $ (LHS)</tspan></text><text id="o" transform="translate(233.07 310.99)" font-family="ArialMT, Arial" font-size="12"><tspan x="0" y="0" letter-spacing="-.06em">V</tspan><tspan x="7.34" y="0">olume kg (LHS)</tspan></text><rect x="115.08" y="302.79" width="10" height="10" fill="#5d85c8"/><rect x="215.24" y="302.79" width="10" height="10" fill="#ec8b51"/><rect x="331.62" y="302.79" width="10" height="10" fill="#853347"/><text id="p" transform="translate(349.47 310.99)" font-family="ArialMT, Arial" font-size="12"><tspan x="0" y="0" letter-spacing="-.02em">A</tspan><tspan x="7.79" y="0">verage free-on-board price (RHS)</tspan></text><path d="M92.26,122.81c103.94-11.67,106.38-7.01,199.41-59.22,46.61-25.04,105.26-20.68,155.67-10.68,38.45,9.6,72.21,31.92,108.79,46.3" fill="none" stroke="#853347" stroke-linecap="round" stroke-linejoin="round" stroke-width="2"/></g></svg>