<?xml version="1.0" encoding="UTF-8"?><svg id="b" xmlns="http://www.w3.org/2000/svg" viewBox="0 0 590.29 482.75"><g id="c"><g><path d="M298.84,33.44c113.77-.02,206.02,92.19,206.04,205.96,.02,81.08-47.53,154.63-121.48,187.9l-33.81-75.14c62.25-28.01,90.01-101.18,62-163.43-19.96-44.37-64.09-72.9-112.74-72.89l-.02-82.4Z" fill="#002b45" stroke="#fff" stroke-linejoin="round"/><path d="M383.22,427.38c-48.39,21.71-103.29,23.93-153.27,6.18l27.57-77.65c29.99,10.65,62.93,9.32,91.96-3.71l33.73,75.18Z" fill="#7cb5ec" stroke="#fff" stroke-linejoin="round"/><path d="M229.76,433.49c-37.19-13.25-69.79-36.9-93.92-68.15l65.22-50.36c14.48,18.75,34.04,32.94,56.35,40.89l-27.65,77.62Z" fill="#90ed7d" stroke="#fff" stroke-linejoin="round"/><path d="M135.72,365.18c-20.17-26.18-33.75-56.83-39.59-89.35l81.1-14.56c3.5,19.52,11.65,37.91,23.76,53.61l-65.27,50.3Z" fill="#f7a35c" stroke="#fff" stroke-linejoin="round"/><path d="M96.09,275.63c-5.76-32.26-3.73-65.43,5.9-96.75l78.76,24.23c-5.78,18.79-6.99,38.7-3.54,58.05l-81.12,14.48Z" fill="#8085e9" stroke="#fff" stroke-linejoin="round"/><path d="M102.05,178.68c6.07-19.65,15.04-38.29,26.63-55.28l68.08,46.42c-6.95,10.2-12.34,21.38-15.98,33.17l-78.73-24.3Z" fill="#f15c80" stroke="#fff" stroke-linejoin="round"/><path d="M128.8,123.22c10.9-15.96,24-30.3,38.9-42.61l52.48,63.53c-8.94,7.38-16.8,15.99-23.34,25.57l-68.04-46.49Z" fill="#e4d354" stroke="#fff" stroke-linejoin="round"/><path d="M167.86,80.48c12.04-9.93,25.17-18.45,39.14-25.41l36.76,73.75c-8.38,4.18-16.26,9.29-23.48,15.25l-52.41-63.58Z" fill="#2b908f" stroke="#fff" stroke-linejoin="round"/><path d="M207.18,54.98c6.09-3.03,12.32-5.75,18.68-8.16l29.21,77.05c-3.81,1.45-7.56,3.08-11.21,4.9l-36.68-73.78Z" fill="#f45b5b" stroke="#fff" stroke-linejoin="round"/><path d="M226.05,46.74c6.3-2.38,12.7-4.45,19.2-6.2l21.45,79.56c-3.9,1.05-7.74,2.29-11.52,3.72l-29.13-77.08Z" fill="#91e8e1" stroke="#fff" stroke-linejoin="round"/><path d="M245.45,40.49c17.33-4.66,35.2-7.03,53.15-7.05l.11,82.4c-10.77,.01-21.49,1.44-31.89,4.23l-21.37-79.58Z" fill="#bdbdbd" stroke="#fff" stroke-linejoin="round"/></g><g><path d="M537.85,196.3h-37.53" fill="none" stroke="#002b45"/><path d="M313.3,475.25h-6.2v-29.98" fill="none" stroke="#7cb5ec"/><path d="M155.22,432.99h18.18l4.45-26.86" fill="none" stroke="#90ed7d"/><path d="M78.09,334.97h26.05l6.38-12.14" fill="none" stroke="#f7a35c"/><path d="M58.33,226.86s27.08-.41,34.94,0h0" fill="none" stroke="#8085e9"/><path d="M81.29,136.97h26.5l5.52,13.03" fill="none" stroke="#f15c80"/><path d="M108.47,93.44h33.96l4.39,7.04" fill="none" stroke="#e4d354"/><path d="M127.64,61.56h55.9l3.26,5.03" fill="none" stroke="#2b908f"/><path d="M151,45.12h63.14l2.4,5.5" fill="none" stroke="#f45b5b"/><path d="M193.32,25.94h39.63l2.71,17.44" fill="none" stroke="#91e8e1"/><path d="M262.98,3.44h6.65l2.28,31.77" fill="none" stroke="#bdbdbd"/><text transform="translate(543.22 198.33)" font-family="Arial-BoldMT, Arial" font-size="11"><tspan x="0" y="0">Australia</tspan></text><text transform="translate(321.22 478.61)" font-family="Arial-BoldMT, Arial" font-size="11"><tspan x="0" y="0">Qatar</tspan></text><text transform="translate(98.89 436.44)" font-family="Arial-BoldMT, Arial" font-size="11"><tspan x="0" y="0">Malaysia</tspan></text><text transform="translate(17.63 337.67)" font-family="Arial-BoldMT, Arial" font-size="11"><tspan x="0" y="0">Indonesia</tspan></text><text transform="translate(11.89 231.44)" font-family="Arial-BoldMT, Arial" font-size="11"><tspan x="0" y="0">Russia</tspan></text><text transform="translate(1.71 139.83)" font-family="Arial-BoldMT, Arial" font-size="11"><tspan x="0" y="0">United States</tspan></text><text transform="translate(0 96.69)" font-family="Arial-BoldMT, Arial" font-size="11"><tspan x="0" y="0">Papua New Guinea</tspan></text><text transform="translate(83.97 64.07)" font-family="Arial-BoldMT, Arial" font-size="11"><tspan x="0" y="0">Nigeria</tspan></text><text transform="translate(113.05 47.6)" font-family="Arial-BoldMT, Arial" font-size="11"><tspan x="0" y="0">Oman</tspan></text><text transform="translate(158.89 32.44)" font-family="Arial-BoldMT, Arial" font-size="11"><tspan x="0" y="0">Peru</tspan></text><text transform="translate(217.89 9.44)" font-family="Arial-BoldMT, Arial" font-size="11"><tspan x="0" y="0">Others</tspan></text></g></g></svg>