<?xml version="1.0" encoding="UTF-8"?><svg id="b" xmlns="http://www.w3.org/2000/svg" viewBox="0 0 489.58 330.25"><g id="c"><g><path d="M274.07,36.11c62.27-.01,116.27,43.02,130.16,103.72l-52.05,11.91c-8.34-36.42-40.74-62.24-78.1-62.23V36.11Z" fill="#002b45" stroke="#fff" stroke-linejoin="round"/><path d="M404.26,139.95c10.18,44.69-3.27,91.47-35.63,123.92l-37.81-37.71c19.42-19.47,27.49-47.54,21.38-74.35l52.07-11.86Z" fill="#7cb5ec" stroke="#fff" stroke-linejoin="round"/><path d="M368.53,263.97c-26.98,27-64.23,41.16-102.34,38.9l3.16-53.31c22.86,1.36,45.21-7.14,61.4-23.34l37.77,37.74Z" fill="#90ed7d" stroke="#fff" stroke-linejoin="round"/><path d="M266.06,302.87c-37.78-2.28-72.81-20.48-96.39-50.09l41.77-33.27c14.15,17.76,35.17,28.69,57.84,30.05l-3.21,53.3Z" fill="#f7a35c" stroke="#fff" stroke-linejoin="round"/><path d="M169.59,252.68c-14.71-18.5-24.24-40.57-27.62-63.96l52.85-7.64c2.03,14.03,7.75,27.28,16.57,38.38l-41.8,33.23Z" fill="#8085e9" stroke="#fff" stroke-linejoin="round"/><path d="M141.95,188.58c-3.16-22.01-.77-44.45,6.94-65.3l50.08,18.53c-4.63,12.51-6.06,25.98-4.17,39.18l-52.86,7.59Z" fill="#f15c80" stroke="#fff" stroke-linejoin="round"/><path d="M148.94,123.15c6.23-16.79,15.77-32.15,28.06-45.17l38.84,36.65c-7.37,7.81-13.1,17.03-16.84,27.1l-50.06-18.58Z" fill="#e4d354" stroke="#fff" stroke-linejoin="round"/><path d="M177.09,77.89c5.35-5.66,11.19-10.84,17.45-15.49l31.82,42.88c-3.75,2.79-7.26,5.9-10.47,9.29l-38.8-36.69Z" fill="#2b908f" stroke="#fff" stroke-linejoin="round"/><path d="M194.65,62.32c6.19-4.58,12.77-8.62,19.65-12.07l23.92,47.74c-4.13,2.07-8.08,4.49-11.79,7.24l-31.78-42.92Z" fill="#f45b5b" stroke="#fff" stroke-linejoin="round"/><path d="M214.42,50.19c18.47-9.23,38.84-14.05,59.49-14.08l.07,53.4c-12.39,.02-24.61,2.91-35.69,8.45l-23.87-47.77Z" fill="#91e8e1" stroke="#fff" stroke-linejoin="round"/></g><g id="d"><path d="M381.09,41.82h-12.6l-11.12,23.45" fill="none" stroke="#002b45"/><path d="M436.2,214.88h-14.22l-19.6-8.31" fill="none" stroke="#7cb5ec"/><path d="M337.13,322.46h-7.82l-7.82-28.05" fill="none" stroke="#90ed7d"/><path d="M193.63,314.65s10.72,.7,11.29,0c.02-.03,2.85-11.56,2.86-11.59l4.7-15.02" fill="none" stroke="#f7a35c"/><path d="M118.95,234.31l12.45-.43,20.11-11.44" fill="none" stroke="#8085e9"/><path d="M106.52,152.2h10.18l24.65,3.19" fill="none" stroke="#f15c80"/><path d="M130.26,83.25h10.33l20.14,15.85" fill="none" stroke="#e4d354"/><path d="M156.18,51.36h16.87l12.5,18.34" fill="none" stroke="#2b908f"/><path d="M185.9,28.86h9.2l9.2,26.94" fill="none" stroke="#f45b5b"/><path d="M231.57,6.36h6.65l5.24,33.31" fill="none" stroke="#91e8e1"/></g><g id="e"><text transform="translate(388.68 44.82)" font-family="Arial-BoldMT, Arial" font-size="11"><tspan x="0" y="0">Qatar</tspan></text><text transform="translate(443.72 217.33)" font-family="Arial-BoldMT, Arial" font-size="11"><tspan x="0" y="0">Malaysia</tspan></text><text transform="translate(346.6 326.11)" font-family="Arial-BoldMT, Arial" font-size="11"><tspan x="0" y="0">Indonesia</tspan></text><text transform="translate(149.6 317.11)" font-family="Arial-BoldMT, Arial" font-size="11"><tspan x="0" y="0">Russia</tspan></text><text transform="translate(40.6 237.11)" font-family="Arial-BoldMT, Arial" font-size="11"><tspan x="0" y="0">United States</tspan></text><text transform="translate(0 155.55)" font-family="Arial-BoldMT, Arial" font-size="11"><tspan x="0" y="0">Papua New Guinea</tspan></text><text transform="translate(85.22 85.47)" font-family="Arial-BoldMT, Arial" font-size="11"><tspan x="0" y="0">Nigeria</tspan></text><text transform="translate(117.91 53.69)" font-family="Arial-BoldMT, Arial" font-size="11"><tspan x="0" y="0">Oman</tspan></text><text transform="translate(156.18 30.64)" font-family="Arial-BoldMT, Arial" font-size="11"><tspan x="0" y="0">Peru</tspan></text><text transform="translate(191.07 9.44)" font-family="Arial-BoldMT, Arial" font-size="11"><tspan x="0" y="0">Others</tspan></text></g></g></svg>