<?xml version="1.0" encoding="UTF-8"?><svg id="b" xmlns="http://www.w3.org/2000/svg" viewBox="0 0 1050.59 526.49"><g id="c"><g id="d"><line x1="75.96" y1="6.7" x2="1045.85" y2="6.7" fill="none" stroke="#eee" stroke-miterlimit="10"/><line x1="75.96" y1="63.7" x2="1045.85" y2="63.7" fill="none" stroke="#eee" stroke-miterlimit="10"/><line x1="75.96" y1="120.7" x2="1045.85" y2="120.7" fill="none" stroke="#eee" stroke-miterlimit="10"/><line x1="75.96" y1="177.7" x2="1045.85" y2="177.7" fill="none" stroke="#eee" stroke-miterlimit="10"/><line x1="75.96" y1="234.7" x2="1045.85" y2="234.7" fill="none" stroke="#eee" stroke-miterlimit="10"/><line x1="75.96" y1="291.7" x2="1045.85" y2="291.7" fill="none" stroke="#eee" stroke-miterlimit="10"/><line x1="75.96" y1="348.7" x2="1045.85" y2="348.7" fill="none" stroke="#eee" stroke-miterlimit="10"/><line x1="75.96" y1="405.7" x2="1045.85" y2="405.7" fill="none" stroke="#eee" stroke-miterlimit="10"/><line x1="75.96" y1="462.7" x2="1045.85" y2="462.7" fill="none" stroke="#bbb" stroke-miterlimit="10"/></g><g id="e"><path id="f" d="M91.03,454.97c56.21-3.44,112.96-2.97,169.09-9.73,33.9-.86,67.85,6.63,101.46-.75,57.29-4.3,117.43-7.63,167.61-38.8,19.6-12.02,42.63-13.27,63.94-19.88,22.08-7.69,42.86-18.52,59.19-35.08,7.09-8.05,24.52-36.45,33.08-37.51,39.14-1.83,32.49-2.8,66.55-20.8,26.33-22.62,53.88-46.03,71.92-75.97,5.63-13.17,12-26.02,17.92-39.07,7.13-16.68,14.93-32.48,29.86-43.55,19.21-20.96,45.53-32.21,70.49-44.82,16.08-8.17,33.43-10.73,50.61-14.37,12.23,.72,24.2,5.98,36.29,8.45" fill="none" stroke="#5d85c8" stroke-linecap="round" stroke-linejoin="round" stroke-width="2"/><path id="g" d="M1030.49,333.11c-3.18,0-6.37,.24-9.52-.04-17.29-1.54-34.56-1.62-51.85,0-20.19,1.89-39.4,7.49-58.09,15.11-.83,.33-1.67,.66-2.51,.99-15.45,5.12-30.82,10.54-46.39,15.28-12.87,3.92-25.91,7.35-39.03,10.36-3.85,.88-8.21-.23-12.3-.73-5.61-.69-11.21-1.54-16.77-2.57-4.71-.87-9.09-.6-13.57,1.41-19.43,8.7-39.9,13.97-60.99,15.93-7.72,.72-15.96-1.01-23.57-3.07-9.69-2.62-17.53-1.15-25.09,5.56-5.81,5.16-12.57,9.26-18.9,13.83-.45,.34-.91,.67-1.37,1.01-3.58,.53-7.18,1.65-10.72,1.49-18.47-.84-35.82,3.01-52.78,10.34-12.8,5.53-26.08,10.17-39.48,14.06-9.36,2.71-19.24,3.77-28.96,5.07-27.56,3.69-55.1,7.67-82.75,10.53-42.22,4.37-84.3,10.46-126.83,11.42-22.49,.51-44.98,.92-67.47,1.14-48.49,.48-96.98,.81-145.46,1.19-1.62,.01-3.24,0-4.86,0" fill="none" stroke="#ec8b51" stroke-linecap="round" stroke-miterlimit="10" stroke-width="2"/></g><g id="h"><text transform="translate(0 409.22)" font-family="ArialMT, Arial" font-size="11"><tspan x="0" y="0">100,000,000</tspan></text><text id="i" transform="translate(1.3 351.97)" font-family="ArialMT, Arial" font-size="11"><tspan x="0" y="0">200,000,000</tspan></text><text id="j" transform="translate(1.64 295.31)" font-family="ArialMT, Arial" font-size="11"><tspan x="0" y="0">300,000,000</tspan></text><text id="k" transform="translate(2.15 238.94)" font-family="ArialMT, Arial" font-size="11"><tspan x="0" y="0">400,000,000</tspan></text><text id="l" transform="translate(2.29 181.21)" font-family="ArialMT, Arial" font-size="11"><tspan x="0" y="0">500,000,000</tspan></text><text id="m" transform="translate(2.79 124.43)" font-family="ArialMT, Arial" font-size="11"><tspan x="0" y="0">600,000,000</tspan></text><text id="n" transform="translate(3.25 66.57)" font-family="ArialMT, Arial" font-size="11"><tspan x="0" y="0">700,000,000</tspan></text><text id="o" transform="translate(3.81 10.3)" font-family="ArialMT, Arial" font-size="12"><tspan x="0" y="0">800,000,000</tspan></text></g><g id="p"><text id="q" transform="translate(85.18 491.21) rotate(-45)" font-family="ArialMT, Arial" font-size="11"><tspan x="0" y="0">1992</tspan></text><text id="r" transform="translate(120.23 491.21) rotate(-45)" font-family="ArialMT, Arial" font-size="11"><tspan x="0" y="0">1993</tspan></text><text id="s" transform="translate(155.28 491.21) rotate(-45)" font-family="ArialMT, Arial" font-size="11"><tspan x="0" y="0">1994</tspan></text><text id="t" transform="translate(190.33 491.21) rotate(-45)" font-family="ArialMT, Arial" font-size="11"><tspan x="0" y="0">1995</tspan></text><text id="u" transform="translate(225.38 491.21) rotate(-45)" font-family="ArialMT, Arial" font-size="11"><tspan x="0" y="0">1996</tspan></text><text id="v" transform="translate(260.44 491.21) rotate(-45)" font-family="ArialMT, Arial" font-size="11"><tspan x="0" y="0">1997</tspan></text><text id="w" transform="translate(295.49 491.21) rotate(-45)" font-family="ArialMT, Arial" font-size="11"><tspan x="0" y="0">1998</tspan></text><text id="x" transform="translate(330.54 491.21) rotate(-45)" font-family="ArialMT, Arial" font-size="11"><tspan x="0" y="0">1999</tspan></text><text id="y" transform="translate(365.59 491.21) rotate(-45)" font-family="ArialMT, Arial" font-size="11"><tspan x="0" y="0">2000</tspan></text><text id="z" transform="translate(400.64 491.21) rotate(-45)" font-family="ArialMT, Arial" font-size="11"><tspan x="0" y="0">2001</tspan></text><text id="aa" transform="translate(435.69 491.21) rotate(-45)" font-family="ArialMT, Arial" font-size="11"><tspan x="0" y="0">2002</tspan></text><text id="ab" transform="translate(470.75 491.21) rotate(-45)" font-family="ArialMT, Arial" font-size="11"><tspan x="0" y="0">2003</tspan></text><text id="ac" transform="translate(505.8 491.21) rotate(-45)" font-family="ArialMT, Arial" font-size="11"><tspan x="0" y="0">2004</tspan></text><text id="ad" transform="translate(540.85 491.21) rotate(-45)" font-family="ArialMT, Arial" font-size="11"><tspan x="0" y="0">2005</tspan></text><text id="ae" transform="translate(575.9 491.21) rotate(-45)" font-family="ArialMT, Arial" font-size="11"><tspan x="0" y="0">2006</tspan></text><text id="af" transform="translate(610.96 491.21) rotate(-45)" font-family="ArialMT, Arial" font-size="11"><tspan x="0" y="0">2007</tspan></text><text id="ag" transform="translate(646.01 491.21) rotate(-45)" font-family="ArialMT, Arial" font-size="11"><tspan x="0" y="0">2008</tspan></text><text id="ah" transform="translate(681.06 491.21) rotate(-45)" font-family="ArialMT, Arial" font-size="11"><tspan x="0" y="0">2009</tspan></text><text id="ai" transform="translate(716.11 491.21) rotate(-45)" font-family="ArialMT, Arial" font-size="11"><tspan x="0" y="0">2010</tspan></text><text id="aj" transform="translate(751.04 490.92) rotate(-45)" font-family="ArialMT, Arial" font-size="11"><tspan x="0" y="0">20</tspan><tspan x="12.24" y="0" letter-spacing="-.07em">1</tspan><tspan x="17.54" y="0">1</tspan></text><text id="ak" transform="translate(785.4 491.21) rotate(-45)" font-family="ArialMT, Arial" font-size="11"><tspan x="0" y="0">2012</tspan></text><text id="al" transform="translate(820.45 491.21) rotate(-45)" font-family="ArialMT, Arial" font-size="11"><tspan x="0" y="0">2013</tspan></text><text id="am" transform="translate(855.5 491.21) rotate(-45)" font-family="ArialMT, Arial" font-size="11"><tspan x="0" y="0">2014</tspan></text><text id="an" transform="translate(890.55 491.21) rotate(-45)" font-family="ArialMT, Arial" font-size="11"><tspan x="0" y="0">2015</tspan></text><text id="ao" transform="translate(925.61 491.21) rotate(-45)" font-family="ArialMT, Arial" font-size="11"><tspan x="0" y="0">2016</tspan></text><text id="ap" transform="translate(960.66 491.21) rotate(-45)" font-family="ArialMT, Arial" font-size="11"><tspan x="0" y="0">2017</tspan></text><text id="aq" transform="translate(995.71 491.21) rotate(-45)" font-family="ArialMT, Arial" font-size="11"><tspan x="0" y="0">2018</tspan></text><text id="ar" transform="translate(1030.76 491.21) rotate(-45)" font-family="ArialMT, Arial" font-size="11"><tspan x="0" y="0">2019</tspan></text></g><text id="as" transform="translate(494.41 522.6)" font-family="ArialMT, Arial" font-size="12"><tspan x="0" y="0">Australia</tspan></text><text id="at" transform="translate(589.18 522.6)" font-family="ArialMT, Arial" font-size="12"><tspan x="0" y="0">Brazil</tspan></text><rect x="473.34" y="514.4" width="10" height="10" fill="#5d85c8"/><rect x="568.14" y="514.4" width="10" height="10" fill="#ec8b51"/></g></svg>