<?xml version="1.0" encoding="UTF-8"?><svg id="b" xmlns="http://www.w3.org/2000/svg" xmlns:xlink="http://www.w3.org/1999/xlink" viewBox="0 0 424.67 246.84"><defs><clipPath id="d"><rect x="126.47" y="188.64" width="20.28" height="8.88" fill="none"/></clipPath><clipPath id="e"><rect x="126.47" y="168.37" width="20.28" height="8.88" fill="none"/></clipPath><clipPath id="f"><rect x="126.47" y="148.08" width="20.28" height="8.76" fill="none"/></clipPath><clipPath id="g"><rect x="126.47" y="127.69" width="20.28" height="8.88" fill="none"/></clipPath><clipPath id="h"><rect x="126.47" y="107.4" width="20.28" height="8.76" fill="none"/></clipPath><clipPath id="i"><rect x="126.47" y="87.01" width="20.28" height="8.88" fill="none"/></clipPath><clipPath id="j"><rect x="126.47" y="66.72" width="20.28" height="8.88" fill="none"/></clipPath><clipPath id="k"><rect x="126.47" y="46.44" width="20.28" height="8.76" fill="none"/></clipPath><clipPath id="l"><rect x="126.47" y="26.04" width="20.28" height="8.88" fill="none"/></clipPath><clipPath id="m"><rect x="126.47" y="5.76" width="17.04" height="8.76" fill="none"/></clipPath></defs><g id="c"><text transform="translate(421.91 243.61)" font-family="ArialMT, Arial" font-size="9.96"><tspan x="0" y="0"> </tspan></text><path d="M390.44,0V203.27M336.95,0V203.27M283.55,0V203.27M230.03,0V203.27M176.51,0V203.27" fill="none" stroke="#eee" stroke-linejoin="round" stroke-width=".75"/><path d="M123.06,199.44h50.09v-12.72h-50.09v12.72Zm0-20.28h71.93v-12.72H123.06v12.72Zm0-20.4h163.13v-12.72H123.06v12.72Zm0-20.28h228.77v-12.72H123.06v12.72Zm0-20.28h123.29v-12.72H123.06v12.72Zm0-20.4h210.41v-12.72H123.06v12.72Zm0-20.28h75.29v-12.72H123.06v12.72Zm0-20.4h49.97v-12.6h-49.97v12.6Zm0-20.28h97.25v-12.72H123.06v12.72Zm0-20.28h85.61V3.84H123.06v12.72Z" fill="#539ed4"/><line x1="123.06" y1="203.27" x2="390.44" y2="203.27" fill="none" stroke="#ccc" stroke-linejoin="round" stroke-width=".75"/><path d="M390.44,203.27v2.72m-53.49-2.72v2.72m-53.4-2.72v2.72m-53.52-2.72v2.72m-53.52-2.72v2.72m-53.45-2.72v2.72m267.38-2.72v2.06m-26.73-2.06v2.06m-26.76-2.06v2.06m-26.76-2.06v2.06m-26.64-2.06v2.06m-26.76-2.06v2.06m-26.76-2.06v2.06m-26.76-2.06v2.06m-26.76-2.06v2.06m-26.76-2.06v2.06m-26.69-2.06v2.06" fill="none" stroke="#ccc" stroke-linejoin="round" stroke-width=".75"/><line x1="123.06" y1="203.27" x2="123.06" y2="0" fill="none" stroke="#ccc" stroke-linejoin="round" stroke-width=".75"/><g clip-path="url(#d)"><text transform="translate(126.82 195.87)" fill="#fff" font-family="ArialMT, Arial" font-size="7"><tspan x="0" y="0" letter-spacing="0em">N</tspan><tspan x="5.01" y="0">e</tspan><tspan x="8.9" y="0" letter-spacing="0em">p</tspan><tspan x="12.79" y="0">al</tspan></text></g><g clip-path="url(#e)"><text transform="translate(126.82 175.55)" fill="#fff" font-family="ArialMT, Arial" font-size="7"><tspan x="0" y="0" letter-spacing="0em">C</tspan><tspan x="5.01" y="0">hina</tspan></text></g><g clip-path="url(#f)"><text transform="translate(126.82 155.22)" fill="#fff" font-family="ArialMT, Arial" font-size="7"><tspan x="0" y="0" letter-spacing="0em">C</tspan><tspan x="5.01" y="0">hina</tspan></text></g><g clip-path="url(#g)"><text transform="translate(126.82 134.89)" fill="#fff" font-family="ArialMT, Arial" font-size="7"><tspan x="0" y="0" letter-spacing="0em">C</tspan><tspan x="5.01" y="0">hina</tspan></text></g><g clip-path="url(#h)"><text transform="translate(126.82 114.57)" fill="#fff" font-family="ArialMT, Arial" font-size="7"><tspan x="0" y="0" letter-spacing="0em">C</tspan><tspan x="5.01" y="0">hina</tspan></text></g><g clip-path="url(#i)"><text transform="translate(126.82 94.24)" fill="#fff" font-family="ArialMT, Arial" font-size="7"><tspan x="0" y="0" letter-spacing="0em">C</tspan><tspan x="5.01" y="0">hina</tspan></text></g><g clip-path="url(#j)"><text transform="translate(126.82 73.91)" fill="#fff" font-family="ArialMT, Arial" font-size="7"><tspan x="0" y="0" letter-spacing="0em">N</tspan><tspan x="5.01" y="0">e</tspan><tspan x="8.9" y="0" letter-spacing="0em">p</tspan><tspan x="12.79" y="0">al</tspan></text></g><g clip-path="url(#k)"><text transform="translate(126.82 53.59)" fill="#fff" font-family="ArialMT, Arial" font-size="7"><tspan x="0" y="0" letter-spacing="0em">C</tspan><tspan x="5.01" y="0">hina</tspan></text></g><g clip-path="url(#l)"><text transform="translate(126.82 33.26)" fill="#fff" font-family="ArialMT, Arial" font-size="7"><tspan x="0" y="0" letter-spacing="0em">C</tspan><tspan x="5.01" y="0">hina</tspan></text></g><g clip-path="url(#m)"><text transform="translate(126.82 12.93)" fill="#fff" font-family="ArialMT, Arial" font-size="7"><tspan x="0" y="0" letter-spacing="0em">I</tspan><tspan x="1.99" y="0">ndia</tspan></text></g><rect x="176.19" y="187.29" width="19.34" height="11.62" fill="rgba(83,158,212,.2)"/><text transform="translate(179.13 195.87)" fill="#539ed4" font-family="ArialMT, Arial" font-size="7"><tspan x="0" y="0">-</tspan></text><text transform="translate(181.65 195.87)" fill="#539ed4" font-family="ArialMT, Arial" font-size="7"><tspan x="0" y="0">4%</tspan></text><rect x="197.96" y="166.97" width="21.22" height="11.62" fill="rgba(83,158,212,.2)"/><text transform="translate(200.89 175.55)" fill="#539ed4" font-family="ArialMT, Arial" font-size="7"><tspan x="0" y="0" letter-spacing="0em">+</tspan><tspan x="4.11" y="0">4%</tspan></text><rect x="289.2" y="146.64" width="21.22" height="11.62" fill="rgba(83,158,212,.2)"/><text transform="translate(292.12 155.22)" fill="#539ed4" font-family="ArialMT, Arial" font-size="7"><tspan x="0" y="0" letter-spacing="0em">+</tspan><tspan x="4.11" y="0">2%</tspan></text><rect x="354.86" y="126.31" width="21.22" height="11.62" fill="rgba(83,158,212,.2)"/><text transform="translate(357.79 134.89)" fill="#539ed4" font-family="ArialMT, Arial" font-size="7"><tspan x="0" y="0" letter-spacing="0em">+</tspan><tspan x="4.11" y="0" letter-spacing="0em">8%</tspan></text><rect x="249.31" y="105.99" width="21.22" height="11.62" fill="rgba(83,158,212,.2)"/><text transform="translate(252.24 114.57)" fill="#539ed4" font-family="ArialMT, Arial" font-size="7"><tspan x="0" y="0" letter-spacing="0em">+</tspan><tspan x="4.11" y="0" letter-spacing="0em">3%</tspan></text><rect x="336.48" y="85.66" width="21.22" height="11.62" fill="rgba(83,158,212,.2)"/><text transform="translate(339.4 94.24)" fill="#539ed4" font-family="ArialMT, Arial" font-size="7"><tspan x="0" y="0" letter-spacing="0em">+</tspan><tspan x="4.11" y="0" letter-spacing="0em">8%</tspan></text><rect x="201.41" y="65.33" width="21.22" height="11.62" fill="rgba(83,158,212,.2)"/><text transform="translate(204.33 73.91)" fill="#539ed4" font-family="ArialMT, Arial" font-size="7"><tspan x="0" y="0" letter-spacing="0em">+</tspan><tspan x="4.11" y="0">2%</tspan></text><rect x="176.08" y="45" width="16.84" height="11.62" fill="rgba(83,158,212,.2)"/><text transform="translate(178.98 53.59)" fill="#539ed4" font-family="ArialMT, Arial" font-size="7"><tspan x="0" y="0">0%</tspan></text><rect x="223.3" y="24.68" width="21.22" height="11.62" fill="rgba(83,158,212,.2)"/><text transform="translate(226.23 33.26)" fill="#539ed4" font-family="ArialMT, Arial" font-size="7"><tspan x="0" y="0" letter-spacing="0em">+</tspan><tspan x="4.11" y="0" letter-spacing="0em">4%</tspan></text><rect x="211.62" y="4.35" width="23.51" height="11.62" fill="rgba(83,158,212,.2)"/><text transform="translate(214.49 12.93)" fill="#539ed4" font-family="ArialMT, Arial" font-size="7"><tspan x="0" y="0">-</tspan></text><text transform="translate(217.01 12.93)" fill="#539ed4" font-family="ArialMT, Arial" font-size="7"><tspan x="0" y="0">11%</tspan></text><text transform="translate(116.56 216.86)" fill="#4f4f4f" font-family="ArialMT, Arial" font-size="8"><tspan x="0" y="0" letter-spacing="0em">0</tspan><tspan x="4.47" y="0">%</tspan></text><text transform="translate(167.54 216.86)" fill="#4f4f4f" font-family="ArialMT, Arial" font-size="8"><tspan x="0" y="0" letter-spacing="0em">2</tspan><tspan x="4.47" y="0" letter-spacing="0em">0</tspan><tspan x="8.85" y="0">%</tspan></text><text transform="translate(221.01 216.86)" fill="#4f4f4f" font-family="ArialMT, Arial" font-size="8"><tspan x="0" y="0" letter-spacing="0em">4</tspan><tspan x="4.47" y="0" letter-spacing="0em">0</tspan><tspan x="8.85" y="0">%</tspan></text><text transform="translate(274.49 216.86)" fill="#4f4f4f" font-family="ArialMT, Arial" font-size="8"><tspan x="0" y="0" letter-spacing="0em">6</tspan><tspan x="4.47" y="0" letter-spacing="0em">0</tspan><tspan x="8.85" y="0">%</tspan></text><text transform="translate(327.97 216.86)" fill="#4f4f4f" font-family="ArialMT, Arial" font-size="8"><tspan x="0" y="0" letter-spacing="0em">8</tspan><tspan x="4.47" y="0" letter-spacing="0em">0</tspan><tspan x="8.85" y="0">%</tspan></text><text transform="translate(378.95 216.86)" fill="#4f4f4f" font-family="ArialMT, Arial" font-size="8"><tspan x="0" y="0" letter-spacing="0em">1</tspan><tspan x="4.47" y="0" letter-spacing="0em">0</tspan><tspan x="8.85" y="0" letter-spacing="0em">0</tspan><tspan x="13.32" y="0">%</tspan></text><text transform="translate(21.73 195.79)" fill="#4f4f4f" font-family="ArialMT, Arial" font-size="8"><tspan x="0" y="0">W</tspan><tspan x="7.55" y="0" letter-spacing="0em">e</tspan><tspan x="11.94" y="0" letter-spacing="0em">s</tspan><tspan x="16" y="0" letter-spacing="-.01em">t</tspan><tspan x="18.14" y="0" letter-spacing="0em">e</tspan><tspan x="22.65" y="0" letter-spacing="0em">r</tspan><tspan x="25.24" y="0" letter-spacing="0em">n</tspan><tspan x="29.75" y="0" letter-spacing="0em"> </tspan><tspan x="31.9" y="0" letter-spacing="0em">S</tspan><tspan x="37.3" y="0" letter-spacing="0em">y</tspan><tspan x="41.26" y="0" letter-spacing="0em">d</tspan><tspan x="45.65" y="0" letter-spacing="0em">n</tspan><tspan x="50.15" y="0" letter-spacing="0em">e</tspan><tspan x="54.55" y="0" letter-spacing="0em">y</tspan><tspan x="58.6" y="0" letter-spacing="0em"> </tspan><tspan x="60.75" y="0" letter-spacing="0em">U</tspan><tspan x="66.51" y="0" letter-spacing="0em">n</tspan><tspan x="71.01" y="0" letter-spacing="0em">i</tspan><tspan x="72.81" y="0" letter-spacing="0em">ve</tspan><tspan x="81.15" y="0" letter-spacing="0em">r</tspan><tspan x="83.86" y="0" letter-spacing="0em">s</tspan><tspan x="87.81" y="0" letter-spacing="0em">it</tspan><tspan x="91.86" y="0">y</tspan></text><text transform="translate(29.75 175.46)" fill="#4f4f4f" font-family="ArialMT, Arial" font-size="8"><tspan x="0" y="0" letter-spacing="0em">U</tspan><tspan x="5.75" y="0" letter-spacing="0em">n</tspan><tspan x="10.26" y="0" letter-spacing="-.01em">i</tspan><tspan x="11.96" y="0" letter-spacing="0em">v</tspan><tspan x="16.01" y="0" letter-spacing="0em">e</tspan><tspan x="20.41" y="0" letter-spacing="0em">r</tspan><tspan x="23.1" y="0" letter-spacing="0em">s</tspan><tspan x="27.05" y="0" letter-spacing="0em">it</tspan><tspan x="31.09" y="0" letter-spacing="0em">y</tspan><tspan x="35.05" y="0" letter-spacing="0em"> </tspan><tspan x="37.29" y="0" letter-spacing="0em">o</tspan><tspan x="41.69" y="0" letter-spacing="0em">f</tspan><tspan x="43.93" y="0" letter-spacing="0em"> </tspan><tspan x="46.08" y="0">W</tspan><tspan x="53.63" y="0" letter-spacing="0em">o</tspan><tspan x="58.14" y="0" letter-spacing="0em">l</tspan><tspan x="59.84" y="0" letter-spacing="0em">l</tspan><tspan x="61.64" y="0" letter-spacing="0em">o</tspan><tspan x="66.03" y="0" letter-spacing="0em">n</tspan><tspan x="70.54" y="0" letter-spacing="0em">g</tspan><tspan x="74.93" y="0" letter-spacing="0em">o</tspan><tspan x="79.43" y="0" letter-spacing="0em">n</tspan><tspan x="83.83" y="0">g</tspan></text><text transform="translate(0 155.13)" fill="#4f4f4f" font-family="ArialMT, Arial" font-size="8"><tspan x="0" y="0" letter-spacing="0em">U</tspan><tspan x="5.75" y="0" letter-spacing="0em">n</tspan><tspan x="10.26" y="0" letter-spacing="-.01em">i</tspan><tspan x="11.96" y="0" letter-spacing="0em">v</tspan><tspan x="16.01" y="0" letter-spacing="0em">e</tspan><tspan x="20.41" y="0" letter-spacing="0em">r</tspan><tspan x="23.1" y="0" letter-spacing="0em">s</tspan><tspan x="27.05" y="0" letter-spacing="0em">it</tspan><tspan x="31.09" y="0" letter-spacing="0em">y</tspan><tspan x="35.05" y="0" letter-spacing="0em"> </tspan><tspan x="37.3" y="0" letter-spacing="0em">o</tspan><tspan x="41.69" y="0" letter-spacing="0em">f</tspan><tspan x="43.94" y="0" letter-spacing="-.01em"> </tspan><tspan x="46.08" y="0" letter-spacing="0em">T</tspan><tspan x="51.03" y="0" letter-spacing="0em">e</tspan><tspan x="55.43" y="0" letter-spacing="0em">c</tspan><tspan x="59.38" y="0" letter-spacing="0em">h</tspan><tspan x="63.88" y="0" letter-spacing="0em">no</tspan><tspan x="72.67" y="0" letter-spacing="0em">l</tspan><tspan x="74.47" y="0" letter-spacing="0em">o</tspan><tspan x="78.98" y="0" letter-spacing="0em">g</tspan><tspan x="83.37" y="0" letter-spacing="0em">y</tspan><tspan x="87.32" y="0" letter-spacing="0em"> </tspan><tspan x="89.58" y="0" letter-spacing="0em">S</tspan><tspan x="94.87" y="0" letter-spacing="0em">y</tspan><tspan x="98.93" y="0" letter-spacing="0em">dn</tspan><tspan x="107.71" y="0" letter-spacing="0em">e</tspan><tspan x="112.22" y="0">y</tspan></text><text transform="translate(46.29 134.8)" fill="#4f4f4f" font-family="ArialMT, Arial" font-size="8"><tspan x="0" y="0" letter-spacing="0em">U</tspan><tspan x="5.75" y="0" letter-spacing="0em">n</tspan><tspan x="10.26" y="0" letter-spacing="-.01em">i</tspan><tspan x="11.96" y="0" letter-spacing="0em">v</tspan><tspan x="16.01" y="0" letter-spacing="0em">e</tspan><tspan x="20.41" y="0" letter-spacing="0em">r</tspan><tspan x="23.1" y="0" letter-spacing="0em">s</tspan><tspan x="27.05" y="0" letter-spacing="0em">it</tspan><tspan x="31.09" y="0" letter-spacing="0em">y</tspan><tspan x="35.05" y="0" letter-spacing="0em"> </tspan><tspan x="37.29" y="0" letter-spacing="0em">o</tspan><tspan x="41.69" y="0" letter-spacing="0em">f</tspan><tspan x="43.93" y="0" letter-spacing="0em"> </tspan><tspan x="46.08" y="0" letter-spacing="0em">S</tspan><tspan x="51.49" y="0" letter-spacing="0em">y</tspan><tspan x="55.44" y="0" letter-spacing="0em">d</tspan><tspan x="59.84" y="0" letter-spacing="0em">n</tspan><tspan x="64.34" y="0" letter-spacing="0em">e</tspan><tspan x="68.73" y="0">y</tspan></text><text transform="translate(35.43 114.48)" fill="#4f4f4f" font-family="ArialMT, Arial" font-size="8"><tspan x="0" y="0" letter-spacing="0em">U</tspan><tspan x="5.75" y="0" letter-spacing="0em">n</tspan><tspan x="10.26" y="0" letter-spacing="-.01em">i</tspan><tspan x="11.96" y="0" letter-spacing="0em">v</tspan><tspan x="16.01" y="0" letter-spacing="0em">e</tspan><tspan x="20.41" y="0" letter-spacing="0em">r</tspan><tspan x="23.1" y="0" letter-spacing="0em">s</tspan><tspan x="27.05" y="0" letter-spacing="0em">it</tspan><tspan x="31.09" y="0" letter-spacing="0em">y</tspan><tspan x="35.05" y="0" letter-spacing="0em"> </tspan><tspan x="37.29" y="0" letter-spacing="0em">o</tspan><tspan x="41.69" y="0" letter-spacing="0em">f</tspan><tspan x="43.93" y="0" letter-spacing="0em"> </tspan><tspan x="46.08" y="0" letter-spacing="0em">N</tspan><tspan x="51.84" y="0" letter-spacing="0em">e</tspan><tspan x="56.34" y="0" letter-spacing="0em">w</tspan><tspan x="62.09" y="0" letter-spacing="0em">c</tspan><tspan x="66.05" y="0" letter-spacing="0em">a</tspan><tspan x="70.55" y="0" letter-spacing="0em">s</tspan><tspan x="74.5" y="0" letter-spacing="0em">tl</tspan><tspan x="78.55" y="0">e</tspan></text><text transform="translate(54.79 94.15)" fill="#4f4f4f" font-family="ArialMT, Arial" font-size="8"><tspan x="0" y="0" letter-spacing="0em">U</tspan><tspan x="5.75" y="0" letter-spacing="0em">n</tspan><tspan x="10.26" y="0" letter-spacing="-.01em">i</tspan><tspan x="11.96" y="0" letter-spacing="0em">v</tspan><tspan x="16.01" y="0" letter-spacing="0em">e</tspan><tspan x="20.41" y="0" letter-spacing="0em">r</tspan><tspan x="23.1" y="0" letter-spacing="0em">s</tspan><tspan x="27.05" y="0" letter-spacing="0em">it</tspan><tspan x="31.09" y="0" letter-spacing="0em">y</tspan><tspan x="35.05" y="0" letter-spacing="0em"> </tspan><tspan x="37.29" y="0" letter-spacing="0em">o</tspan><tspan x="41.69" y="0" letter-spacing="0em">f</tspan><tspan x="43.93" y="0" letter-spacing="0em"> </tspan><tspan x="46.08" y="0" letter-spacing="0em">N</tspan><tspan x="51.84" y="0" letter-spacing="0em">S</tspan><tspan x="57.24" y="0">W</tspan></text><text transform="translate(24.08 73.82)" fill="#4f4f4f" font-family="ArialMT, Arial" font-size="8"><tspan x="0" y="0" letter-spacing="0em">U</tspan><tspan x="5.75" y="0" letter-spacing="0em">n</tspan><tspan x="10.26" y="0" letter-spacing="-.01em">i</tspan><tspan x="11.96" y="0" letter-spacing="0em">v</tspan><tspan x="16.01" y="0" letter-spacing="0em">e</tspan><tspan x="20.41" y="0" letter-spacing="0em">r</tspan><tspan x="23.1" y="0" letter-spacing="0em">s</tspan><tspan x="27.05" y="0" letter-spacing="0em">it</tspan><tspan x="31.09" y="0" letter-spacing="0em">y</tspan><tspan x="35.05" y="0" letter-spacing="0em"> </tspan><tspan x="37.3" y="0" letter-spacing="0em">o</tspan><tspan x="41.69" y="0" letter-spacing="0em">f</tspan><tspan x="43.94" y="0" letter-spacing="-.01em"> </tspan><tspan x="46.08" y="0" letter-spacing="0em">N</tspan><tspan x="51.84" y="0" letter-spacing="0em">e</tspan><tspan x="56.34" y="0" letter-spacing="0em">w</tspan><tspan x="62.09" y="0" letter-spacing="0em"> </tspan><tspan x="64.35" y="0" letter-spacing="0em">E</tspan><tspan x="69.65" y="0" letter-spacing="0em">n</tspan><tspan x="74.05" y="0" letter-spacing="0em">g</tspan><tspan x="78.55" y="0" letter-spacing="-.01em">l</tspan><tspan x="80.25" y="0" letter-spacing="0em">a</tspan><tspan x="84.75" y="0" letter-spacing="0em">n</tspan><tspan x="89.15" y="0">d</tspan></text><text transform="translate(25.03 53.49)" fill="#4f4f4f" font-family="ArialMT, Arial" font-size="8"><tspan x="0" y="0" letter-spacing="0em">S</tspan><tspan x="5.3" y="0" letter-spacing="0em">o</tspan><tspan x="9.81" y="0" letter-spacing="0em">u</tspan><tspan x="14.2" y="0" letter-spacing="0em">t</tspan><tspan x="16.45" y="0" letter-spacing="0em">he</tspan><tspan x="25.24" y="0" letter-spacing="0em">r</tspan><tspan x="27.94" y="0" letter-spacing="0em">n</tspan><tspan x="32.33" y="0" letter-spacing="0em"> </tspan><tspan x="34.59" y="0" letter-spacing="0em">C</tspan><tspan x="40.34" y="0" letter-spacing="0em">r</tspan><tspan x="43.04" y="0" letter-spacing="0em">o</tspan><tspan x="47.43" y="0" letter-spacing="0em">s</tspan><tspan x="51.49" y="0" letter-spacing="0em">s</tspan><tspan x="55.43" y="0" letter-spacing="0em"> </tspan><tspan x="57.68" y="0" letter-spacing="0em">U</tspan><tspan x="63.44" y="0" letter-spacing="0em">n</tspan><tspan x="67.83" y="0" letter-spacing="0em">i</tspan><tspan x="69.63" y="0" letter-spacing="0em">v</tspan><tspan x="73.58" y="0" letter-spacing="0em">e</tspan><tspan x="78.08" y="0" letter-spacing="0em">r</tspan><tspan x="80.67" y="0" letter-spacing="0em">s</tspan><tspan x="84.73" y="0" letter-spacing="0em">i</tspan><tspan x="86.53" y="0" letter-spacing="-.01em">t</tspan><tspan x="88.67" y="0">y</tspan></text><text transform="translate(44.4 33.16)" fill="#4f4f4f" font-family="ArialMT, Arial" font-size="8"><tspan x="0" y="0" letter-spacing="0em">M</tspan><tspan x="6.65" y="0" letter-spacing="0em">a</tspan><tspan x="11.04" y="0" letter-spacing="0em">c</tspan><tspan x="15.1" y="0" letter-spacing="0em">q</tspan><tspan x="19.49" y="0" letter-spacing="0em">u</tspan><tspan x="24" y="0" letter-spacing="0em">a</tspan><tspan x="28.39" y="0" letter-spacing="0em">r</tspan><tspan x="31.08" y="0" letter-spacing="-.01em">i</tspan><tspan x="32.78" y="0" letter-spacing="0em">e</tspan><tspan x="37.29" y="0" letter-spacing="0em"> </tspan><tspan x="39.44" y="0" letter-spacing="0em">U</tspan><tspan x="45.19" y="0" letter-spacing="0em">n</tspan><tspan x="49.7" y="0" letter-spacing="0em">i</tspan><tspan x="51.5" y="0" letter-spacing="0em">v</tspan><tspan x="55.45" y="0" letter-spacing="0em">e</tspan><tspan x="59.84" y="0" letter-spacing="0em">r</tspan><tspan x="62.55" y="0" letter-spacing="0em">s</tspan><tspan x="66.49" y="0" letter-spacing="0em">it</tspan><tspan x="70.54" y="0">y</tspan></text><text transform="translate(34.48 12.83)" fill="#4f4f4f" font-family="ArialMT, Arial" font-size="8"><tspan x="0" y="0" letter-spacing="0em">C</tspan><tspan x="5.75" y="0" letter-spacing="0em">h</tspan><tspan x="10.26" y="0" letter-spacing="0em">a</tspan><tspan x="14.65" y="0" letter-spacing="0em">r</tspan><tspan x="17.35" y="0" letter-spacing="0em">l</tspan><tspan x="19.05" y="0" letter-spacing="0em">e</tspan><tspan x="23.55" y="0" letter-spacing="0em">s</tspan><tspan x="27.5" y="0" letter-spacing="0em"> </tspan><tspan x="29.76" y="0" letter-spacing="0em">S</tspan><tspan x="35.06" y="0" letter-spacing="0em">t</tspan><tspan x="37.31" y="0" letter-spacing="0em">u</tspan><tspan x="41.7" y="0" letter-spacing="0em">r</tspan><tspan x="44.4" y="0" letter-spacing="-.01em">t</tspan><tspan x="46.54" y="0" letter-spacing="0em"> </tspan><tspan x="48.79" y="0" letter-spacing="0em">U</tspan><tspan x="54.55" y="0" letter-spacing="0em">n</tspan><tspan x="58.94" y="0" letter-spacing="0em">i</tspan><tspan x="60.74" y="0" letter-spacing="0em">v</tspan><tspan x="64.8" y="0" letter-spacing="0em">e</tspan><tspan x="69.19" y="0" letter-spacing="0em">r</tspan><tspan x="71.89" y="0" letter-spacing="0em">s</tspan><tspan x="75.84" y="0" letter-spacing="0em">i</tspan><tspan x="77.64" y="0" letter-spacing="-.01em">t</tspan><tspan x="79.78" y="0">y</tspan></text><rect x="154.43" y="229.03" width="5" height="5" fill="#539ed4"/><text transform="translate(163.58 234.4)" fill="#4f4f4f" font-family="ArialMT, Arial" font-size="8"><tspan x="0" y="0" letter-spacing="0em">T</tspan><tspan x="4.9" y="0" letter-spacing="0em">o</tspan><tspan x="9.38" y="0" letter-spacing="0em">p</tspan><tspan x="13.75" y="0" letter-spacing="0em"> </tspan><tspan x="15.99" y="0" letter-spacing="0em">c</tspan><tspan x="20.04" y="0" letter-spacing="0em">o</tspan><tspan x="24.42" y="0" letter-spacing="0em">un</tspan><tspan x="33.36" y="0" letter-spacing="0em">t</tspan><tspan x="35.6" y="0">r</tspan><tspan x="38.27" y="0" letter-spacing="0em">y</tspan><tspan x="42.22" y="0" letter-spacing="0em"> </tspan><tspan x="44.46" y="0" letter-spacing="0em">2</tspan><tspan x="48.93" y="0" letter-spacing="0em">0</tspan><tspan x="53.31" y="0" letter-spacing="0em">2</tspan><tspan x="57.78" y="0">1</tspan></text><text transform="translate(273.2 234.4)" fill="#4f4f4f" font-family="ArialMT, Arial" font-size="8"><tspan x="0" y="0" letter-spacing="0em">C</tspan><tspan x="5.76" y="0" letter-spacing="0em">hange</tspan><tspan x="28.13" y="0" letter-spacing="-.01em"> </tspan><tspan x="30.26" y="0" letter-spacing="0em">s</tspan><tspan x="34.31" y="0" letter-spacing="0em">i</tspan><tspan x="36.12" y="0" letter-spacing="0em">n</tspan><tspan x="40.59" y="0" letter-spacing="0em">c</tspan><tspan x="44.64" y="0" letter-spacing="0em">e</tspan><tspan x="49.11" y="0" letter-spacing="-.04em"> </tspan><tspan x="51.04" y="0" letter-spacing="0em">202</tspan><tspan x="64.46" y="0">0</tspan></text><rect x="264.89" y="228.74" width="5" height="4.69" fill="rgba(83,158,212,.2)"/></g></svg>