<svg width="800" height="250" viewBox="0 0 800 250" fill="none" xmlns="http://www.w3.org/2000/svg">
<g id="diagram">
<rect width="800" height="250" fill="white"/>
<path class="shape" d="M15 76H195L223.5 124.5L195 175H15L45 124.5L15 76Z" fill="#FFC52B"/>
<path class="shape" d="M205 76H385L405 124.5L385 175H205L235 124.5L205 76Z" fill="#A5DD75"/>
<path class="shape" d="M395 76H575L595 125L575 175H395L415 125L395 76Z" fill="#16B56F"/>
<path class="shape" d="M585 76H765L785 125.5L765 175H585L605 125.5L585 76Z" fill="#008A97"/>
<text id="Delegation" class="shape-text1" xml:space="preserve" style="white-space: pre" font-weight="600" letter-spacing="0em"><tspan x="82.1719" y="132.318">Delegation</tspan></text>
<text id="Devolution" class="shape-text1" xml:space="preserve" style="white-space: pre" font-weight="600" letter-spacing="0em"><tspan x="272.438" y="132.318">Devolution</tspan></text>
<text id="Regionalism" class="shape-text2" xml:space="preserve" style="white-space: pre" font-weight="600" letter-spacing="0em"><tspan x="447.453" y="132.318">Regionalism</tspan></text>
<text id="Federation" class="shape-text2" xml:space="preserve" style="white-space: pre" font-weight="600" letter-spacing="0em"><tspan x="643.055" y="132.318">Federation</tspan></text>
</g>
</svg>
