<?xml version="1.0" encoding="UTF-8"?><svg id="b" xmlns="http://www.w3.org/2000/svg" xmlns:xlink="http://www.w3.org/1999/xlink" viewBox="0 0 577.7 450.61"><defs><clipPath id="d"><rect width="577.7" height="450.61" fill="none"/></clipPath></defs><g id="c"><g clip-path="url(#d)"><g><g id="e"><polygon points="80.79 127.65 79.32 126.05 78.95 126.67 78.02 131.04 78.76 131.48 78.02 132.91 80.98 133.09 81.53 131.66 80.98 128.36 80.79 127.65" fill="#d8d8d8"/><polygon points="81.16 112.05 80.61 105.73 78.02 105.19 75.25 108.85 75.07 111.43 76.36 112.86 78.76 113.66 81.16 112.05" fill="#d8d8d8"/><polygon points="75.07 90.4 68.41 90.93 68.6 92.54 71 96.28 74.14 96.9 76.91 90.66 75.07 90.4" fill="#d8d8d8"/><polygon points="90.78 120.43 88.74 122.12 87.45 125.96 88.19 126.58 90.22 126.94 90.22 124.89 92.25 123.91 93.36 122.66 93.73 121.23 92.99 120.7 90.78 120.43" fill="#d8d8d8"/><polygon points="253.6 310.08 249.9 308.57 237.7 309.37 232.71 311.95 250.46 316.95 253.78 320.24 254.52 318.91 255.82 313.83 255.26 311.42 253.6 310.08" fill="#d8d8d8"/><polygon points="71.74 125.69 70.81 126.13 68.78 127.38 67.12 129.25 66.19 129.25 63.98 130.15 64.35 131.13 66.19 133.62 70.26 132.91 72.48 131.66 73.4 129.88 72.66 125.78 71.74 125.69" fill="#d8d8d8"/><polygon points="95.77 108.58 98.72 109.56 99.09 108.4 100.57 107.51 102.6 106.8 102.79 103.5 100.02 104.21 95.77 108.58" fill="#d8d8d8"/><path d="M17.48-65.3l-13.49,6.68-6.28,1.87,4.62,5.35,1.29-3.74,3.7-.27,4.44,1.43,4.81,3.12,4.44,8.11,5.54,4.1,4.81,9.98,4.25,5.88,.18,4.55h2.59l3.88-1.6,2.4-.18-1.11,1.69-4.81,2.32-1.66,2.94,1.11,3.3,4.99,3.56,3.14,4.19,1.29,5.26,1.66,6.59,4.62,5.35,4.44,.53,11.09-5.35,14.79-.62,14.42-2.05,6.65,.89,.55,.71-2.22,.53-7.58-.09-9.61,1.78-9.24,.8-8.87,1.34-1.48,2.94,.18,2.23-4.44-.53-7.39,1.25-7.21-1.78-2.22-2.76-.92-4.01-2.77-2.05-4.07,2.58-3.88,4.28,2.77,9.89,.37,4.37,.37,4.37-.55,4.9,.37,9.27-.92,1.69,.55,2.14,1.11,2.23,2.22-.98,1.48-.89,1.85-3.3,2.03-1.52,2.59,2.67,4.81,1.96,.55,.8-.37,1.43h-1.85l-3.51-1.25-6.28,2.32-4.25,1.78-1.29,2.76,2.03,3.74,1.66,2.32,14.23,7.66,6.28-1.96,3.51,.27-.55,1.6-3.14,3.21-.55,4.72,2.77,3.83,7.02,3.12,9.24-2.23,1.85,1.16,.92,.89-2.03,6.86,6.28,1.16,8.69-2.76,7.02-5.17,4.07-1.34,12.75,.89,3.88-2.23,1.66,.09,.37,1.07-1.48,1.69-1.66,.36-4.07,1.87h-10.53l-2.59,1.43-1.66,3.39-.18,2.76,4.62,5.61,2.77-.45,2.22-2.41,4.44-.89,5.54,1.34,2.59,3.3-4.81,.8-4.44,.45-9.06,3.83-2.59,4.55,1.48,.98,2.59-.53,2.22,.27,.37,.89-2.4,2.23-.18,3.56,.37,2.5,3.88,3.3,2.77-.45,2.4,.27-.37,6.42,2.22-.18,4.25-5.44,2.22-.09-2.03,6.77,2.59,3.56,2.22-2.67,2.77-4.1,8.5-17.11,3.14-3.92,1.85-1.34,4.07-.18,7.76-2.23,6.47-3.83,3.14-1.52,7.39,.36,8.69-.62,11.27-3.65,.18-5.08-.18-6.42-.37-2.58-3.88-2.23-2.4-2.05-2.03-2.5-2.4-1.87v-1.87l3.14-1.6,1.85-.89,4.62,.09,1.66-.98,1.11-1.6,1.29-4.19,.37-4.37-2.96-5.88,.18-4.1,16.63,.53,1.66,.45,7.39,.8,4.62-.09,2.77,.36,1.29,.98-.18,1.69-.92,2.32,.92,2.41,2.59,.62,1.29-.71,1.29-1.16,1.66-.98,2.03,.62,4.81,3.56,4.25,.89,4.81,1.96,4.44,.98,3.88-.09,2.96,1.96,5.54,.62,7.21-2.5,5.54-1.07,7.95-.27,4.25,.8,12.01-2.05,5.91,.45,3.51,.71-1.48,1.34-1.48,3.03-1.48,3.74-1.48,2.5,.55,1.6,4.07,3.21,5.54,4.55,2.4,.62,2.59-1.07,4.07-3.65,3.33-3.83,3.14-1.96,3.7,.18,2.77,2.67,3.7,6.06,3.14,5.53,.55,.53,1.29,.89h1.66l1.66-1.34,1.29-.8,1.48-2.5,6.28-7.66,4.81-2.05,1.66-.62,3.33-1.16,5.54,1.87,8.13,3.12,9.8,3.74,3.33,.71,2.03-.71,2.96-5.17,3.51-1.96,5.17-2.41,4.25-1.16,2.4-.18,.92-1.43,.37-2.14-.37-2.14-2.77-3.92v-1.16l1.48-.71,3.33-.53,4.44,.36,4.81,1.69,4.07,2.41,2.22,2.94,2.4,6.15,1.85,5.97,4.99,9.62v5.88l-.18,6.86,2.22,1.34,2.4,.53,1.11,.98,2.4,5.26,2.22,1.6,2.59,.36,5.18,3.39,3.14,1.25,.55,1.07-.18,1.34-1.29,1.78-1.85,1.25-2.96,2.32-2.4,3.03-4.99,7.22-.18,1.43,1.11,.89,2.03,.18,2.22-.45,4.44-2.67,3.7,.98,3.51,1.96,1.11,2.14,.37,2.76-.74,3.56-.18,3.92,1.29,6.77,1.66,6.77,1.85,2.5,11.46,5.97,1.11,2.23,.55,2.5-.74,3.39-1.11,1.96-3.33,2.94-3.14,2.32-.92,2.5,.55,4.72v10.61l.37,9.18,2.59,3.39,2.96,1.69,3.51-.36,3.33-.62-.18,5.53-.92,6.15,4.07,1.96,2.03,1.87,1.11,1.69-6.47,3.3-1.85,1.96-.74,5.08,.18,4.81,8.5,3.39,3.33,4.01,1.48,4.1,.55,7.84-.74,1.78h-2.22l-2.59-2.41-1.85-2.32h-2.22l-4.44-.53-4.81-.89-6.1,.18-2.22,.45-1.48,1.43-.37,2.41-.55,7.93,2.03,1.78,3.88,1.96,2.59,.8,2.22-.27,1.66,1.34,.37,3.39-1.29,2.5-2.03,2.32-2.77,5.97,.55,2.23v3.3l-4.62,8.73-1.29,1.69-5.95-1.65c1.28-7.59-16.98-16.16-19.43-1.16l-.13,.31-.18,3.21-.37,2.5-1.48,1.43-3.14,3.83-1.29,3.56-1.85,3.12-2.4-.18-1.29-.45-.74,.8-3.88,1.69-3.33,.53-.92-1.78-1.85-1.43-2.22-2.85-2.59-2.23-4.62-1.6-1.85,.71-2.22-.18-1.48-.89,.18-1.43,2.4-3.48,1.48-3.12,.74-3.48v-3.3l-1.29-4.72-2.22-3.65-.37-2.14,.18-3.03-.55-2.85-.74-1.52-.18-2.85-.74-2.5-1.29-.98-.74-4.37,.37-4.37-1.85-1.69-2.96-1.25-1.66-1.69-1.11-1.96-.92-.53-.92,.09-.92,1.25-.92,.27-1.66-4.19-.74-.18-1.11,.98-13.31,4.55-.55-1.78-1.11-2.05-2.59-.71-4.44,1.52-2.59,.27-3.88-.53-1.85,.71-5.17,6.06-3.14,2.41-2.4-.18-2.59-.53-1.66,.45-1.29-.71,.55-1.52,1.29-1.87,2.4-6.59,6.47-6.68,.18-1.43-2.77-3.92-2.59-5.35-.18-5.7-.37-4.1-5.73-1.16-1.11-.71-.18-1.34,1.48-3.74,1.85-3.39,.18-1.52-.37-1.25-3.51-3.65-5.36-6.68-5.17-7.49-4.25-6.42-3.51-2.94-3.33-4.19-1.29-2.67-3.51-.98-10.16,.09h-12.2l-10.35,.09-.55,3.65-11.27,2.41-7.02-2.85-7.76,1.69-3.7,1.78-1.11,3.92-1.85,4.19-1.66,1.69-.55,1.96-1.11,1.69-1.48,1.96-1.66,4.01-3.7,5.7-3.88,3.65-6.47,1.96-2.03,5.97-1.48,2.23-2.59,1.78-2.77,1.16-2.4-.71-2.96-.45-2.96,1.07,1.11,3.12,6.1,4.63,4.81,.89-.55,1.25-7.02,.62-.92,4.01-.18,3.56,2.4,6.15,3.14-.62,1.66-1.87,6.84,.53,2.59-2.14,.55,1.34-.92,2.5-4.25,2.85-4.62,5.17-3.7-.89-2.4-2.14-2.96-.18-.55,3.03,3.51,4.81,2.77,6.15,6.65,.71,3.14,2.85,1.66,4.63,2.22,10.25,1.66,1.96,3.51,1.34,4.25,3.92,6.65,.8,2.96-2.76h1.66l-1.66,4.55,4.07,6.15-2.4,5.26-.37,2.94,7.21,2.23,21.44,8.11,9.98,4.9,9.61,7.31,2.03,2.05,11.09,11.23,14.79,6.68,6.92,4.11c1.14-.46,4.05,6.06,6.23,7.46,1.22,.78,6.39,5.66,6.39,5.66l1.35,.59,9.24,2.23,7.21,4.55,4.3,3.86,5.47,6.51,3.93,4.1s4.92,2.38,5.18,2.47l13.1,11.76,14.23,14.26,12.57,9.63,44.73,23.8,13.49,4.19,17.37,7.31,5.91,.8,6.1-1.25,9.98-5.7,8.87-3.03,6.84-4.72,4.07-1.78,15.34-4.63,24.95-9.8,7.58-2.94,17.93-4.01,25.69-2.14-2.22-1.6-8.13,.09-5.17,.45,1.48-2.05,2.77-.98,13.31,.36,2.77,2.85,3.51,.45,12.38-1.69,31.97-2.94-1.29-1.43-2.77-.27-25.32,1.34,2.96-2.23,9.98-1.07,12.2-.45,7.02,.8,5.73,3.74,26.98,4.63,1.85-1.52,3.7-9,2.03-.98,2.4,.36-.92,7.4,5.36,2.32,2.03,.36,.37,1.07-3.51,.09-6.65-.98-1.48,1.69,6.84,1.34,1.48,.36,6.1,1.87,12.38,1.6,16.63,4.37,6.84,2.85,9.06,5.61,4.44,.09,11.64-6.06,7.02-5.17,7.02-2.94,22.55-7.4,13.68-2.23,6.65-4.72,9.43-3.92,7.02-5.44,11.27-3.48,19.96-9.71,21.07-.09,4.07-.09,10.17-2.58,2.96-4.9,2.22-4.46,2.96-2.94,4.07-1.96,6.47-2.94,15.89-3.65,10.16-2.23,24.03-3.48,21.44-2.14,3.51-.27,28.83-1.07,4.81-6.6,3.88-.36,10.9-3.39,1.85,.71-10.53,5.44-2.96,1.07-2.03,1.52,1.85,.98,32.9-.18,15.52,3.21,10.53,6.77,11.64,9.8,9.24,11.76,2.59,1.52,.74,2.05,.37,4.46,2.96,1.96,5.36-1.96,1.48-2.76,1.11-.62v3.03l1.29,1.25,3.51-.09,1.85,.71-3.14,1.87-5.36-.09-3.88,.27-.74,1.96,1.66,2.58,7.95,4.19,8.32-3.74-.92,2.5-1.48,2.41-3.33,.71-3.51,1.43-.18,4.01,.18,3.3,.92,1.07,4.62,1.07-1.29,1.34-2.59-.8-.92,.71,3.33,9.36,2.22,5.53,3.14,5.44,1.85,4.37,10.72,9.89,5.54,3.48,3.33,2.5,5.36,2.5,4.99,.62,1.66-.71,.55-4.81,2.77-2.41,.37,3.12-1.11,1.96,.37,1.25,1.85,.27,8.5-1.52,1.85,.09,2.77-.45,1.29-6.95,1.11,1.07,.37,1.64V-91.59H37.63l-4.44,7.13-15.71,19.16Z" fill="#d8d8d8"/><path d="M221.07,235.49l2.4,.71,2.77-1.16,2.59-1.78,1.48-2.23,2.03-5.97,6.47-1.96,3.88-3.65,3.7-5.7,1.66-4.01,1.48-1.96,1.11-1.69,.55-1.96,1.66-1.69,1.85-4.19,1.11-3.92,3.7-1.78,7.76-1.69,7.02,2.85,11.27-2.41,.55-3.65,10.35-.09h12.2l10.16-.09,3.51,.98,1.29,2.67,3.33,4.19,3.51,2.94,4.25,6.42,5.17,7.49,5.36,6.68,3.51,3.65,.37,1.25-.18,1.52-1.85,3.39-1.48,3.74,.18,1.34,1.11,.71,5.73,1.16,.37,4.1,.18,5.7,2.59,5.35,2.77,3.92-.18,1.43-6.47,6.68-2.4,6.59-1.29,1.87-.55,1.52,1.29,.71,1.66-.45,2.59,.53,2.4,.18,3.14-2.41,5.17-6.06,1.85-.71,3.88,.53,2.59-.27,4.44-1.52,2.59,.71,1.11,2.05,.55,1.78,13.31-4.55,1.11-.98,.74,.18,1.66,4.19,.92-.27,.92-1.25,.92-.09,.92,.53,1.11,1.96,1.66,1.69,2.96,1.25,1.85,1.69-.37,4.37,.74,4.37,1.29,.98,.74,2.5,.18,2.85,.74,1.52,.55,2.85-.18,3.03,.37,2.14,2.22,3.65,1.29,4.72v3.3l-.74,3.48-1.48,3.12-2.4,3.48-.18,1.43,1.48,.89,2.22,.18,1.85-.71,4.62,1.6,2.59,2.23,2.22,2.85,1.85,1.43,.92,1.78,3.33-.53,3.88-1.69,.74-.8,1.29,.45,2.4,.18,1.85-3.12,1.29-3.56,3.14-3.83,1.48-1.43,.37-2.5,.18-3.21,.13-.31,8.36-7.04,11.07,8.2,5.95,1.65,1.29-1.69,4.62-8.73v-3.3l-.55-2.23,2.77-5.97,2.03-2.32,1.29-2.5-.37-3.39-1.66-1.34-2.22,.27-2.59-.8-3.88-1.96-2.03-1.78,.55-7.93,.37-2.41,1.48-1.43,2.22-.45,6.1-.18,4.81,.89,4.44,.53h2.22l1.85,2.32,2.59,2.41h2.22l.74-1.78-.55-7.84-1.48-4.1-3.33-4.01-8.5-3.39-.18-4.81,.74-5.08,1.85-1.96,6.47-3.3-1.11-1.69-2.03-1.87-4.07-1.96,.92-6.15,.18-5.53-3.33,.62-3.51,.36-2.96-1.69-2.59-3.39-.37-9.18v-10.61l-.55-4.72,.92-2.5,3.14-2.32,3.33-2.94,1.11-1.96,.74-3.39-.55-2.5-1.11-2.23-11.46-5.97-1.85-2.5-1.66-6.77-1.29-6.77,.18-3.92,.74-3.56-.37-2.76-1.11-2.14-3.51-1.96-3.7-.98-4.44,2.67-2.22,.45-2.03-.18-1.11-.89,.18-1.43,4.99-7.22,2.4-3.03,2.96-2.32,1.85-1.25,1.29-1.78,.18-1.34-.55-1.07-3.14-1.25-5.18-3.39-2.59-.36-2.22-1.6-2.4-5.26-1.11-.98-2.4-.53-2.22-1.34,.18-6.86v-5.88l-4.99-9.62-1.85-5.97-2.4-6.15-2.22-2.94-4.07-2.41-4.81-1.69-4.44-.36-3.33,.53-1.48,.71v1.16l2.77,3.92,.37,2.14-.37,2.14-.92,1.43-2.4,.18-4.25,1.16-5.17,2.41-3.51,1.96-2.96,5.17-2.03,.71-3.33-.71-9.8-3.74-8.13-3.12-5.54-1.87-3.33,1.16-1.66,.62-4.81,2.05-6.28,7.66-1.48,2.5-1.29,.8-1.66,1.34h-1.66l-1.29-.89-.55-.53-3.14-5.53-3.7-6.06-2.77-2.67-3.7-.18-3.14,1.96-3.33,3.83-4.07,3.65-2.59,1.07-2.4-.62-5.54-4.55-4.07-3.21-.55-1.6,1.48-2.5,1.48-3.74,1.48-3.03,1.48-1.34-3.51-.71-5.91-.45-12.01,2.05-4.25-.8-7.95,.27-5.54,1.07-7.21,2.5-5.54-.62-2.96-1.96-3.88,.09-4.44-.98-4.81-1.96-4.25-.89-4.81-3.56-2.03-.62-1.66,.98-1.29,1.16-1.29,.71-2.59-.62-.92-2.41,.92-2.32,.18-1.69-1.29-.98-2.77-.36-4.62,.09-7.39-.8-1.66-.45-16.63-.53-.18,4.1,2.96,5.88-.37,4.37-1.29,4.19-1.11,1.6-1.66,.98-4.62-.09-1.85,.89-3.14,1.6v1.87l2.4,1.87,2.03,2.5,2.4,2.05,3.88,2.23,.37,2.58,.18,6.42-.18,5.08-11.27,3.65-8.69,.62-7.39-.36-3.14,1.52-6.47,3.83-7.76,2.23-4.07,.18-1.85,1.34-3.14,3.92-8.5,17.11-2.77,4.1-2.22,2.67-.37,5.44,1.85,1.6h2.03l2.59-7.22,1.85-1.25,2.59,.36,3.14,1.52,.92,3.56,3.33,6.24,.92,2.67,4.25-4.01,.18,1.69-1.29,5.97,.18,3.48,9.43,15.51,13.12,6.15,4.44,.09,2.03-.71,.74,1.34,.55,3.39,3.33,4.1,7.02,4.19,3.33,.89,2.03-2.76,1.29-.18-.55,3.92,2.03,3.83,.06,2.47c.53,4.32,2.65,4.97,3.79,6.16,.76,.8,4.89,5.75,4.55,6.74l3.05,2.9,1.66,3.03,.37,2.41,5.17,4.9,1.48,2.5-1.85,4.72,.55,1.52,2.96-1.07,2.96,.45Z" fill="#f6e8d7"/></g><g id="f"><g><line x1="216.45" y1="229.87" x2="217.63" y2="228.26" fill="none" stroke="#d07b00" stroke-miterlimit="11" stroke-width="2"/><polyline points="219.98 225.02 244.62 191.16 296.01 179.86 346.22 184.9 431.45 222.65" fill="none" stroke="#d07b00" stroke-dasharray="0 0 4 4" stroke-miterlimit="11" stroke-width="2"/><polyline points="433.28 223.46 435.11 224.27 435.38 226.25" fill="none" stroke="#d07b00" stroke-miterlimit="11" stroke-width="2"/><line x1="435.9" y1="230.07" x2="437.75" y2="243.46" fill="none" stroke="#d07b00" stroke-dasharray="0 0 3.86 3.86" stroke-miterlimit="11" stroke-width="2"/><line x1="438.01" y1="245.37" x2="438.28" y2="247.35" fill="none" stroke="#d07b00" stroke-miterlimit="11" stroke-width="2"/></g><g><line x1="441.45" y1="327.91" x2="441.9" y2="325.96" fill="none" stroke="#d07b00" stroke-miterlimit="11" stroke-width="2"/><polyline points="442.83 322.01 452.48 280.7 457.74 245.39 456.48 236.38" fill="none" stroke="#d07b00" stroke-dasharray="0 0 4.06 4.06" stroke-miterlimit="11" stroke-width="2"/><line x1="456.2" y1="234.37" x2="455.92" y2="232.39" fill="none" stroke="#d07b00" stroke-miterlimit="11" stroke-width="2"/></g><polyline points="459.08 311.78 457.59 318.38 455.25 321.8 450.99 324.98 441.19 327.82 436.94 337.75 428 346.69 414.49 355.07 406.07 366.06 398.67 376.92 389.04 387.78 380.06 399.05" fill="none" stroke="#d07b00" stroke-miterlimit="11" stroke-width="2"/><polyline points="200.16 207.4 218.39 193.08 229.81 187.09 239.22 178.13 245.77 175.12 257.94 172.56 267.55 169.98 276.31 167.85 290.29 162.58 305.26 159.81 322.6 155.32 346.3 148.87 365.94 149.69 388.92 155 406.72 164.64 419.57 167.85" fill="none" stroke="#d07b00" stroke-miterlimit="10" stroke-width="2"/></g><g id="g"><path d="M201.71,200.87c-.19-.02-.38-.03-.57-.03-3.31,0-6,2.69-6,6s2.69,6,6,6c2.64,0,4.88-1.71,5.68-4.07,.21-.6,.32-1.25,.32-1.92,0-3.12-2.38-5.68-5.43-5.97Z"/><path d="M347.61,367.36c-.8,0-1.56,.16-2.26,.44-2.19,.89-3.74,3.04-3.74,5.56,0,3.31,2.69,6,6,6,2.43,0,4.52-1.45,5.46-3.53,.34-.76,.54-1.59,.54-2.47,0-3.31-2.69-6-6-6Z"/><circle cx="276.85" cy="168" r="3" transform="translate(-23.34 46.52) rotate(-9.22)"/><circle cx="419.86" cy="167.49" r="3" transform="translate(104.45 491.29) rotate(-67.5)"/><circle cx="346.05" cy="185.2" r="3.5" transform="translate(42.52 434.04) rotate(-67.5)"/><circle cx="434.7" cy="224.92" r="3"/><path d="M381.67,394.94c-1.19,0-2.26,.53-2.99,1.35-.62,.71-1.01,1.63-1.01,2.65,0,2.21,1.79,4,4,4,1.17,0,2.22-.51,2.95-1.31,.65-.71,1.05-1.65,1.05-2.69,0-2.21-1.79-4-4-4Z"/><path d="M459.28,308.54c-1.48,0-2.71,1.07-2.95,2.49-.03,.17-.05,.34-.05,.51,0,1.66,1.34,3,3,3s3-1.34,3-3c0-.05,0-.11,0-.16-.08-1.58-1.39-2.84-2.99-2.84Z"/><circle cx="217.31" cy="229.31" r="3"/></g><g id="h"><text transform="translate(271.34 122.71)" font-family="ArialMT, Arial" font-size="18" isolation="isolate"><tspan x="0" y="0" letter-spacing=".2em">GUINE</tspan><tspan x="75.01" y="0" letter-spacing=".14em">A</tspan></text><text id="i" transform="translate(130.27 171.49)" fill="#d07b00" font-family="ArialMT, Arial" font-size="10" isolation="isolate"><tspan x="0" y="0">Conakry-Kankan railway</tspan></text><text id="j" transform="translate(419.57 365.36)" fill="#d07b00" font-family="ArialMT, Arial" font-size="10" isolation="isolate"><tspan x="0" y="0">Nimba – Buchanan railway</tspan></text><text id="k" transform="translate(386.78 277.49)" fill="#d07b00" font-family="ArialMT, Arial" font-size="10" isolation="isolate"><tspan x="0" y="0">Proposed </tspan><tspan x="-16.4" y="10">Simandou-Liberia</tspan><tspan x="7.23" y="20">railway</tspan></text><text id="l" transform="translate(466.28 222.11)" fill="#ff2300" font-family="ArialMT, Arial" font-size="10" isolation="isolate"><tspan x="0" y="0">Simandou</tspan><tspan x="5.56" y="10">iron ore</tspan><tspan x="-5" y="20">concessions</tspan></text><text id="m" transform="translate(249.69 204.73)" fill="#d07b00" font-family="ArialMT, Arial" font-size="10" isolation="isolate"><tspan x="0" y="0">Proposed</tspan><tspan x="42.81" y="0" letter-spacing="-.02em"> </tspan><tspan x="45.41" y="0" letter-spacing="-.04em">T</tspan><tspan x="51.14" y="0">rans-Guinean</tspan><tspan x="40.31" y="10">railway</tspan></text><text id="n" transform="translate(140.11 208.16)" font-family="ArialMT, Arial" font-size="12" isolation="isolate" letter-spacing=".1em"><tspan x="0" y="0">Conakry</tspan></text><text transform="translate(280.74 378.4)" font-family="ArialMT, Arial" font-size="12" isolation="isolate" letter-spacing=".1em"><tspan x="0" y="0">Monrovia</tspan></text><text transform="translate(257.67 160.19)" font-family="ArialMT, Arial" font-size="8" isolation="isolate" letter-spacing=".1em"><tspan x="0" y="0">Mamou</tspan></text><text transform="translate(413.44 160.28)" font-family="ArialMT, Arial" font-size="8" isolation="isolate" letter-spacing=".1em"><tspan x="0" y="0">Kankan</tspan></text><text transform="translate(330.04 177.28)" font-family="ArialMT, Arial" font-size="8" isolation="isolate" letter-spacing=".1em"><tspan x="0" y="0">Faranah</tspan></text><text transform="translate(386.3 229.4)" font-family="ArialMT, Arial" font-size="8" isolation="isolate" letter-spacing=".1em"><tspan x="0" y="0">Kérouané</tspan></text><text transform="translate(330.99 406.14)" font-family="ArialMT, Arial" font-size="8" isolation="isolate" letter-spacing=".1em"><tspan x="0" y="0">Buchanan</tspan></text><text transform="translate(463.85 323.23)" font-family="ArialMT, Arial" font-size="8" isolation="isolate"><tspan x="0" y="0" letter-spacing="0em">Y</tspan><tspan x="5.4" y="0" letter-spacing=".1em">ekepa</tspan></text><text transform="translate(188.58 236.42)" font-family="ArialMT, Arial" font-size="8" isolation="isolate" letter-spacing=".1em"><tspan x="0" y="0">Benti</tspan></text></g></g></g><polygon points="445.1 216.04 442.6 213.61 446.06 213.11 447.6 209.97 449.15 213.11 452.6 213.61 450.1 216.04 450.7 219.49 447.6 217.86 444.51 219.49 445.1 216.04" fill="#ff2300"/><polygon points="450.1 229.46 447.6 227.02 451.06 226.52 452.6 223.39 454.15 226.52 457.6 227.02 455.1 229.46 455.7 232.9 452.6 231.28 449.51 232.9 450.1 229.46" fill="#ff2300"/><polygon points="443.59 249.32 441.09 246.89 444.55 246.38 446.09 243.25 447.64 246.38 451.09 246.89 448.59 249.32 449.18 252.76 446.09 251.14 443 252.76 443.59 249.32" fill="#ff2300"/><polygon points="433.59 257.4 431.09 254.96 434.55 254.46 436.09 251.33 437.64 254.46 441.09 254.96 438.59 257.4 439.18 260.84 436.09 259.21 433 260.84 433.59 257.4" fill="#ff2300"/><text transform="translate(495.92 64.24)" fill="#fff" font-family="ArialMT, Arial" font-size="10" letter-spacing=".2em"><tspan x="0" y="0">MALI</tspan></text><text transform="translate(109.04 66.6)" fill="#fff" font-family="ArialMT, Arial" font-size="10" letter-spacing=".2em"><tspan x="0" y="0">GUINEA-</tspan><tspan x="3.5" y="10">BISSAU</tspan></text><text transform="translate(183.29 35.88)" fill="#fff" font-family="ArialMT, Arial" font-size="10"><tspan x="0" y="0" letter-spacing=".2em">SENEGA</tspan><tspan x="53.68" y="0" letter-spacing=".16em">L</tspan></text><text transform="translate(267.31 248.01)" fill="#fff" font-family="ArialMT, Arial" font-size="10"><tspan x="0" y="0" letter-spacing=".2em">SIERR</tspan><tspan x="40.56" y="0" letter-spacing=".14em">A</tspan><tspan letter-spacing=".2em"><tspan x="2.39" y="10">LEONE</tspan></tspan></text><text transform="translate(356.97 345.03)" fill="#fff" font-family="ArialMT, Arial" font-size="10"><tspan x="0" y="0" letter-spacing=".2em">LIBERI</tspan><tspan x="43.68" y="0" letter-spacing=".14em">A</tspan></text><text transform="translate(80.18 299.12)" fill="#d8d8d8" font-family="ArialMT, Arial" font-size="10"><tspan x="0" y="0" letter-spacing=".13em">A</tspan><tspan x="7.93" y="0" letter-spacing=".2em">TLANTIC OCEAN</tspan></text></g></svg>