<svg viewBox="0 0 587.5 215.8" xmlns="http://www.w3.org/2000/svg">
<rect width="100%" height="100%" fill="#002b45"/>
<path style="fill:#8b738b;stroke-width:.176389" d="M175 538c0-1 0-1 0 0zm1-1h1-1zm-46-1s-1 0 0 0zm56-4 1-1h1-1l-1 1-1 1zm-67-2h1-1zm2 0s-1 0 0 0zm9-2c-1 0-1 0 0 0 0 1 0 1 0 0zm-42-7h-1 1zm1 0 1-1-1 1zm4-1h2l2-1h-1l-3 2v-1zm45-2v1h2l3-1h1v-1 2h-5l-1-1zm-31 0h1-1zm28 0h-1a37 37 0 0 1-3 0l1-1 3-1 1 1h-1v1c0 1 0 0 0 0zm-27 0h1-1zm40 0 2-1h1l1-1h2v1h-2l-2 1h-2zm-19 0h1-1zm28-1h1-1zm-46-1h1-1zm-28-1-1-1h-2l1-1 1-1h1c1 0 2 0 1-1 0 0-1 0 0 0v1l-1 1h-1c-2 1-2 1 0 1h2v1h-1zm71 0c0-1 0-1 0 0h1-1zm-40 0v-1 1zm-65-1h-2 2l1 1-1-1zm20 0v-3l-1-1c-2-2-2-2 0 0l2 1 1 1v1h-1l-1 1h-1 1zm1-2-1 1 1-1zm101 2h1-1zm-57 0v-1 1zm-52-1c1 1 1 1 0 0zm40 0h-1l-2-1c-1-1-1-1 0 0h1c1 0 1 0 0 0v-1l2-1v-1h-1 1v2h1v2h-1zm-1-1zm84 0h3-3v1-1zm-125 0zm-25 0c-1 0-1 0 0 0zm1-1 1-1-1-1 1-1v-2h2l1 1-2 2v2h-1l-1 1v-1zm1-1 1-1v-1h-1l-1 2h1zm22 2zm50 0v-1l1 1h-1zm59 0 1-1v1h-1zm-149-1h1-1zm172 0 1-1s0-1 0 0v1l-1 1v-1zm-171 0h1-1zm-2 0h1-1zm-2-1h-2 3v1l-1-1zm34 0 1-1 2-1v-1l2 1v-1 3h-5zm2 0h1-2 1zm2-1v-1l-1 1h1zm61 1c0-1 0-1 0 0zm-52 0 1-1-1 1zm127-1zm1 0zm-147 0v-1l1-1 1-1 1 1-1 2h-2zm2 0 1-2h-1l-1 1h-1l2 1zm53 0h1-1zm-69-1 1-1v1h-1zm221-1h1-1zm-229 0v-3l1 2-1 1zm1-1-1-1v1h1zm229 0h1-1c0 1 0 1 0 0zm-50 0 2-1-1 1h-1zm6 0h1l1-1 2-1h-2v1l-1 1h-1zm-3 0v-1 1c1 0 0 0 0 0zm2 0c1 0 0 0 0 0s-1 0 0 0zm-175-1v-1l1-1v2h-1zm1 0v-1l-1 1h1zm-19-1c-1 0 0 0 0 0v-1l1-1 1 2h-2zm1-1v-1 2-1zm-11-1 1-1v-1l1 1v1H4zm-36-1v1-1zm-1 0h-1l-1-1 2 1zm33 0v-2h1v2H0zm-32-1v-1l2 1h-2zm20-1v-1l1-1 1 1h1l-2 1h-1zm2 0v-1h-1l-1 1h2zm7 0v-1l1 1h-1zm2-1v-1 1zm-45-4h-1v-1h1l1 1h-1zm6-1v-1h1c0-1 0-1 0 0v1h-1zm-26-16h-1 1zm3-1 1-1v1h-1zm188 0 1-1v-2l1-1h1v1l-1 2s-1 0 0 0h-1l-1 1zm2-2h-1 1zm-196 1h1-1zm7 0v-1 1zm225-1c0 1 0 1 0 0zm-11-1 1-1v1h-1zm236-2v-1l-2-1 1-1h2l1-1 1-1 3 2h2v1h-3 1l1 1v1-1l-2-1-2 1-1 1h-2zm5-3-2-1-1 1 2 1 1-1zm-5 0v1-1zm-467 2-1-1 1 1zm-2-2h-1v-1 1h1v1-1zm465 0h-2l-1-1-2-1c0-1-1-2-3-2h-6 1-5l-2-1-2-1-3-2h-5l-1-1-1 1 1 1h3l1 1h-3l-7-1a61 61 0 0 0-7-2h-10l-1 1h-2l-3-1 2-1h2l1-1a74 74 0 0 0 3 1h3l1-1 4-1h-1v1l6 1h3l-2-1a22 22 0 0 1-5-1h3a94 94 0 0 0 7 1h5l-2 1h-3a769 769 0 0 1-9 1l4 1 4 1h1l-1-1h-1l1-1a4316 4316 0 0 1 9 1l2-1c3 0 4 0 3-1-1 0-1 0 0 0l1 1 1 1h4v-1l-1-1-1-1v-1s0-1 0 0v1l2 1 1 2v2l1-1 1-1a62 62 0 0 0 5 1h2l-1-2h2v3l1 2h1l2 1 1-1-1-1-2-2 1-1v1l2 1 1 1v2h1v1l-1 1-2 1h-1zm1-1h2l1-1-3-1-1 1-1 1h-1 3zm-3-2 1-1-3 2h1l1-1zm-3-1h-1v-2l3 1-2-1h-4l-1 1 1 1h4zm-12-1 2-1h2l-1-1 1-2-1 1h-4v1l-1 1h-1v1h3zm14-2v-1 1zm-52-2 1-1h2-5l-1 1h-1l4 1v-1zm6-1h1v-1l-2 1h1zm61 9zm-245 0v-1 1zm1-1h1l-1-1 1 1-1 1v-1zm244 0v1-1zm0 0v-1 1zm-2-1-1-1h1v1zm-5-1v-2l1 1v2h-1v-1zm6-1v1-1zm-229-1v-1 1h1-1zm-247 0-1-2 1 1v1zm-5-1h-1l-2-1h3l2 1h-2zm2 0-4-1 1 1h3zm247-1zm213-1-2-1v-1l-1-1-1-2h2v1l1 1 1 2v1zm0-1-1-1v1h1zm-2-2v-1 1zm-208 2v1-1zm196 0h-1c-1 0-1 0 0 0h1zm-4 0h1-1s-1 0 0 0zm-66-1v-1l-1-1 1 1h4-3l-1 1zm-145-1h-2v-1h2v1c0 1 0 1 0 0zm182 0v-1 1l1-1h1l-2 1zm-34-1v1-1zm-151 0zm164 0h1-1zm5 0h1-1zm4 0c-1 0-1 0 0 0h1-1zm-8 0h1-1zm23-1v-1h-1v1l-1 1v-1l1-1v-1l1 1v2h-1zm-18 1v-1l1 1h-1zm-171-1v-2l-1 1-1-1-3-2h2v1l1 1h3l-1 1v1c1 1 1 1 0 0zm148 0zm44 0 1-1-1 1zm-125-1-1-1h1l1 1h-1zm3 0h1-2 1zm93 0 1-1v1h-1zm-90-1-1 1 1-1zm150 0-1-1 1-1-1-1-1-1 1 1 1 1h1v-2l2 1c1 0 0 0 0 0l-1 1-1 1v1l-1 1v-1zm-4 0v-1h-1l1-1 1 2h-1zm-146 0 1-1h1-1l-1 1zm-89-1-1-1h2v-3l1 1 1 2-1 1h-2zm2 0 1-1-1-2-1-1v3l-1 1h2zm78 0h1-1zm148 0h1l-1 1v-1zm-446 0v-1 1zm310 0c-1 0-1 0 0 0zm118 0h-1l-1-1h4v1h-2zm6-1h-1 1c2 1 3 1 1 1l-1-1zm-33 0c0 1 0 1 0 0zm61 0h-1 2-1zm-251-1h-1v-1l1 2v-1zm85 0v1-1zm14 0zm-73 0h1-1zm-245 0v-1l1 1h-1zm304 0-1-1v-1c0-1 0-1 0 0h1l2 1-1 1h-1zm43-1-1-1v-2l3 1h2-5l1 1v1c0 1 0 0 0 0zm-1 0h1-1zm-129 0zm118 0h1-1zm-117 0h1-1zm28 0v-1h1l-1 1zm90 0v-1 1zm7 0h1c2 0 2 0 0 0h-1zm95 0 1-2h1v2h-2zm1-1c0-1 0-1 0 0-1 0 0 1 0 0zm-111 0v-1 1c0 1 0 1 0 0zm24 0h1-1zm-49-1zm-83 0v-1l1 1h-1zm19 0s0-1 0 0zm16 0h1-1zm83 0 1-1-1 1zm-34-1h1-1zm-301 0h1-1zm384 0h-1l-1-1-3-2c-1 0-1 0 0 0h2l2 2 1 1zm-132-1-1-1c1 0 1 0 0 0l1 1zm-28 0v-1l1-1v1l-1 1zm186-1v-1 1zm-191-1h-1l1-1h1l2-1v-2l1-2 4-1h1l-1 1-1 1h-1v-1l-1 1c-2 0-2 1 0 1v1l-1 2h-2l-1 1h-1zm4-2h-1 1zm187 1h-1v-4 2l1 2v1-1zm-195 0h1l-1 1v-1zm-224 0v-1l1 1h-1zm257-1v-1l1 1h-1zm217-1h2-2zm-5-1v-1 1h3l-1 1-2-1zm-212-1-1-1 1 1v1-1zm-17 1h-1l-1-2 2-1 3-1 2 1h-3l-2 3c1 0 0 0 0 0zm1-2 1-1h-2l-1 1h-1l2 1 1-1zm252 1h3l-2-1h2v1h-3zm-492 0c0 1 0 0 0 0zm226-3v1-1zm12-3c0-1 0-1 0 0h1-1zm-1-1v-6h1l-1 3v2l1 1h-1zm10-1h1-1zm43 0 1-1 2 1h-3zm4 0h1c0-1 0-1 0 0h-1zm-47-1c0 1 0 1 0 0zm-5 0 1-1 1-3 2 2h-1v-1l-1 1-1 2h1l1-1-1 1h-2zm195 0h4-4zm5 0zm-195-1c1 0 1 0 0 0 0 1 0 1 0 0zm2 1-1-1c1 0 1 0 0 0v-1h4l1-1 1 1 2-1h2-1l-1 1h-1l-2 1h-3v1h-1zm-260-1h1l-1 1v-1zm5 0v-1l1 1h-1zm244 0v-3l1-2v2l-1 2v1zm203 0h1-1s-1 0 0 0zm-2 0v-1l1 1h-1zm-111-1h3-3zm82 0v-1h-3l-3-1h1l2-1h2v-1l1-3v-2 4h1c0 1 0 1 0 0h1v1l-1 1v1l-1 1v1zm-2-2h-2l1 1 1-1zm3 0c0-1 0-1 0 0zm-1-1v-1 1zm-79 3h1-1zm-62-3v-1l1-1v1l-1 1v1-1zm-11 0s0-1 0 0zm72-1v1c1 0 0 0 0 0v-1zm-345 0-1-1h1v1c0 1 0 0 0 0zm244 0v-3l-1-3c0-1 0-1 0 0h1v1l1 4c0 1 0 2-1 1zm0-2c0-1 0 0 0 0v1-1zm21 1h1v1l-1-1zm-13 0-1-1h1c0 1 0 1 0 0h1v1l-1 1v-1zm29 1h1-1zm-277-1h1l-1 1v-1zm270 0 1-1 2-2 3-1 2-1h1-1l-1 1-2 1c-1 0-1 0 0 0h1l-1 1c0 1 0 1 0 0 1 0 1 0 0 0l-2 1-2 1h-1zm8 0v-1c1 0 1 0 0 0v1zm-3-1-1 1zm-16-2-1 1 1-1zm4 1 1-1v1h-1zm-20-2v-1l-1-2v-5 2l1 4c1 0 1 0 0 0l1 2h-1zm2 0c0-1 0-1 0 0h1-1zm18 0v-1l1 1h-1zm22-1c0-1 0-1 0 0 0 0 0 1 0 0zm-6 0h1-1zm161-1h2-2zm-155 0v-2 2zm123 0-3-1h4c1 1 0 1-1 1zm-70-1h1-1s-1 0 0 0zm72 0-2-1h3v1h1-2zm-73-1v1-1zm71-1v-1l1 1h-1zm-415-1h-3l1-1h2c0-1 0 0 0 0a836 836 0 0 1 0 1zm414 0h-1v-1l1 1zm-2-1h1-1zm-417 0h1-1zm253-3zm2-3 1-3-1 1v2zm-251 0v-1l1 1h-1zm161 0h1c1 0 1 0 0 0h-1zm91-4v-2l1-1h3l-2 1h-1l-1 2c0 1 0 1 0 0zm39 0h1-1zm3 0c-1 0-1 0 0 0h2l2-1 2 1h1-7zm-4 0v-1l1 1h-1zm-300-1h5v1h-3l-2-1zm186 0h2l-2 1v-1zm126 0h2l2-1v-1l1-2 1-1 1-1 1-1h1l1-1h-1c0 1 0 1 0 0h1l1-3 1-1 1-1-1 1v2l-2 2-1 1h-1l-1 1-1 2v1l-1 1v1h-1l-2 1h-3zm51-1h-1 1c1 1 0 1 0 0zm-88 0h-1l-2-1h-1 1v-1h-1 1l2 1 3 1h1c1 0 1 0 0 0h-3zm-6 0-2-1h-1 3l1-1v1h1-1l-1 1zm25 0h1-1zm-34-1v-1 1c0 1 0 0 0 0zm30 1s-1 0 0 0zm-287-2h1v1l-1-1zm308 0v1-1zm-45-1h1-1zm-1-1h1l-1 1v-1zm27 0c-1 0-1 0 0 0h1v-1 1h-1zm-294 0v-1 1zm4 0-2-2 3 2h-1zm130 0h1-1zm176 0h1c1 0 0 0 0 0h-1zm56 0h1v-1 1h-1zm-83 0 1-1h1v1h-2zm12-1h-1 2-1zm72 0h1-1zm-183 0 1-1v1h-1zm7-1c0-1 0-1 0 0v1-1zm177 0h1-1zm-94 0s-1 0 0 0zm85-1 2-1-1 1-1 1zm-82 0s-1 0 0 0zm-31 0v-1 1c1 0 0 0 0 0zm126-2v1-1zm0 0c0-1 0-1 0 0zm-16 0 1-1v-1 1l-1 1zm-170-3c-1 0-1 0 0 0zm5 0h1-1zm27-1v-2 2zm-219-1h1v1l-1-1zm364 0v-2 2h1-1zm-233 0c0-1 0 0 0 0zm0-1c0-1 0-1 0 0zm-139-1 1 1-1-1zm-3-2-1-1 1 1zm13-1 1-1v1h-1zm-12 0 1-1v1h-1zm380-1c1 0 0 0 0 0zm1 0v-1 1zm1-3zm-380 0v-1 1zm8 0v-2l1 1-1 1zm-9-2-1-1v-1l-1-1s0-1 0 0l1 1v1h1v1c1 1 1 1 0 0zm3 0-1-1v-1l1 2c-1 0-1 0 0 0zm375 0v-1h1l-1 1zm-162-1v-1 1zm10-2h1l-1 1zm-229-2 1-1v1h-1zm217 0v-1 1zm-4-1c0 1 0 1 0 0zm1 0 1-1c0 1 0 1 0 0l-1 1zm-212-2 1-1v1h-1zm-17-2c0 1 0 1 0 0zm6-1-1-2-2 1 1 1v1h-1l-1-1-1-1h-1l1-1v-1l1 1 1-2-1-1 1-1 1 1 1 1h2v-1l1-1v-4l1 1v4l1 1v3h1-1l-1-1h-1c0 1 0 1 0 0h-1c-1 0-1 0 0 0v3l-1-1zm-1-2-1-2-1-1v1l1 1v1h1zm3-3 1-1c0-1 0-1 0 0l-1 1v1-1zm1 6v-1h1l-1 1zm-11-1v-1l-1-1 2 2h-1zm236-1v-1 1zm4-2h1v1l-1-1zm-241 0-1-3h2l1 1-1 3-1-1zm2-5h1v1l-1-1zm3-2v-2l-1-1 1-1 1-1v-1 2l-1 1 1 1v2l-1 1h-1zm1 0v-2l-1 1 1 1zm-11 0v-1h4l1 1h-5zm4-1h-1l1 1v-1zm-6-1h1-1zm7 0-1-1h1v1c1 0 0 0 0 0zm242 0-1-1 1 1h1-1zm12-1c-1 0 0 0 0 0v1-1zm-254-1 1-1v-1 2h-1zm-3-4 2-2v1l-1 1h-1zm4 0v-1h1l-1 1zm-10-1h2-2zm2 0v-1l-1-1h-1v-1l2 1h1v1l-1 1zm-9-1v1-1zm4 0v-1l1 1h-1zm-6-1h1-1s-1 0 0 0zm-3-2c0 1 0 0 0 0z" transform="translate(191 -330)"/><path style="fill:#5c5168;stroke-width:.176389" d="M163 545h1-1zm1 0 1-1-1 1zm-1-1c0 1 0 0 0 0zm4 0c0-1 0-1 0 0 1 0 0 0 0 0zm-4-1h1-1zm3-1h1l-1 1v-1zm2-1 1-1-1 1-1 1 1-1zm1 0h1-1zm-20 0 1-1v1h-1zm3-1-1-1 1 1zm-2 0 1-1-1 1zm25-3zm1 0h1-1zm-6-1v-1 2-1zm-37 0h1-1l-1 1zm-2 0h-1c-1 0-1 0 0 0h2-1zm41 0h-1 1zm-37 0c-1 0-1 0 0 0zm-7-1s-1-1 0 0l1 1-1-1zm43 0v1-1zm8 0c0 1 0 1 0 0zm4 0s-1 0 0 0zm1-1-1 1 1-1zm-9-1v1-1zm9 1 1-1-1 1zm-5-1h1-1zm1 0h-1 1zm-43 0-1-1 1 1zm36 0h1-1zm6-1s0-1 0 0 0 1 0 0zm7 0 1-1h1c0-1 0-1 0 0l-2 1-1 1zm-51 0v-1 1s1 0 0 0zm-11-1h-1l-3-1h-2 1l1-1 3 2h1c1 1 0 1 0 0zm50-1v-1 1c0 1 0 0 0 0zm-58-1h1-1zm72 0h1-1zm-73 0-1-1 1 1zm67 0v-1 1c0 1 0 0 0 0zm-51 0zm-2-1 1 1-1-1zm-15 0-1-1 1 1c0 1 0 0 0 0zm61 0v-1 1zm7-1c1-1 1-1 0 0h-1zm-69 0h1c0-1 0-1 0 0h-1zm63 0zm5 0v-1 1zm-53-1h1-1zm-13 0zm64 0-1-1 1 1zm2 0zm-64-1zm8 0 1-1-1 1h-1 1zm1 0s1 0 0 0zm59-2c0-1 0-1 0 0zm6-1c1 0 0 0 0 0zm1 0h1-1zm1-1zm-105 0h-1l-1-1h1l1 1h2v-1 1h-2zm5-1 2-1 2-1 1 1h-1l-2 1h-2v1zm-8-1v1-1zm307 0v-1 1s1 0 0 0zm-314 0h1c1 0 0 0 0 0h-1zm4 0s0-1 0 0zm56-1h-1c-1 1-1 0 0 0h6l1-1v1h-1l-4 1-1-1zm-38 1 1-1-1 1zm35-1v-1h1l-1-1-3 1-3 1h1l2-1 1-1h3v1l-1 1c1 0 1 1 0 0zm-59 0h1-1zm30 0zm1 0h1c1 0 1 0 0 0h-1zm41 0c-1 0-1 0 0 0l2-1c1 0 1 0 0 0l-2 1zm-83 0v-1 1zm21 0v-1 1zm17 0 1-1v1h-1zm22-1 1 1-1-1zm265 0 1 1-1-1zm-316 1c1 0 1 0 0 0zm7 0 1-1-1 1zm28 0 1-1v1h-1zm2 0 1-1v1h-1zm-5-1zm16 0v-1 1h1-1zm4 0h1c1 0 1 0 0 0h-1zm-51 0h1-1zm71 0zm-77 0v-1 1zm32-1h1-1v1-1zm9 1v-1 1zm42-1h3-3l-1 1 1-1zm-96 1 1-1-1 1h-1zm14-1h-1 1c0 1 0 1 0 0zm29 1h1-1zm8-1v1-1zm50 1c0-1 0-1 0 0zm-93-2-1-1 1 1zm49 1h1-1zm2 0h1-1zm43 0s1 0 0 0-1 0 0 0zm-103 0s0-1 0 0zm30 0s0-1 0 0c1 0 1 0 0 0zm17 0h2-2zm10 0h1-1c-1 0-1 0 0 0zm-56 0zm50-1v1-1zm9 1c-1 0-1 0 0 0zm9 0v-1 1zm32 0s-1 0 0 0zm1-1v1-1zm-91 0h1-1zm17 0a157 157 0 0 0-3-1v-1h1v-1l1-1h2c1 1 0 1-1 1h-1l-1 1-1 1h2l1 1zm23 0s0 1 0 0zm48 0h-1l-1-1h1l1 1c1 1 1 1 0 0zm-8 0zm12 0h1-1zm2 0h1c1 0 1 0 0 0h-1zm-107 0c1 0 1 0 0 0zm61 0v-3 3zm5 0v-1 1zm26 0c-1 0-1 0 0 0zm-94 0c1 0 0 0 0 0zm35 0c0-1 0-1 0 0zm11 0h-1 2-1zm50 0v-1 1zm241-1-1-1 1 1 1 1-1-1zm-339 0h-1l-1-1 1 1h2-1zm19 0v-1l1-1-1-1v-1l-1-1h-1 1l2 2v2l-1 1c0 1-1 1 0 0zm28 0c0 1 0 1 0 0zm25 0h-1 1c0 1 0 0 0 0zm-34 0zm32 0h1-1zm30 0h1-1zm22 0 1-1 1-1-1 1v1h-1c-1 0-1 0 0 0zm-108 0-2-1-3-1h-1 4l2 2zm40-1h-1l2-2-1 1v2h1l-1-1zm6 1 1-1-1-1v-1 1h2v-1 1l-1 1v1h-1zm34 0c0-1 0-1 0 0zm21 0h1-1zm15 0s1 0 0 0zm1 0v-1 1zm-87-1zm47 0h1-1zm-94 0zm80 0a29 29 0 0 0 1 0h-1zm-62 0 1-2v2h-1zm7-1c0-1 0-1 0 0 0 0 0 1 0 0v1-1zm5 1h1c0-1 0 0 0 0h-1zm64 0c-1-1-1-1 0 0zm-107-1h1-1v1-1zm-1 0c1 1 1 1 0 0zm12 0v1-1zm133 0v1-1zm6 0h1v1l-1-1zm-103 0h1-1zm19 0a536 536 0 0 0 2-2l-1-1h-1 3l-1 1v1c-2 0-2 1-1 1s1 0 0 0h-1zm62 0c1 0 0 0 0 0s-1 0 0 0zm2 0c1 0 1 0 0 0zm22 0h1l2-1v1h-3zm176 0zm-199 0c1 0 1 0 0 0zm-132 0h1-1zm5 0 1-1-1-1v-2h1l1-2c-1-1 0-1 1-1l1 1 1 1v1l-1 1-1 1v-2l2-1-1-1h-2v1l-1 1v1h-1l2 1-1 1-1 1zm43-1h1-1v1-1zm87 1h2-2zm6 0c1 0 1 0 0 0zm196 0h1-1zm-325 0h1-1zm95 0h1c1 0 0 0 0 0h-1zm219 0zm-188 0 1-1-1 1zm197 0c-1 0 0-1 0 0h1-1zm-346-1h-1 2-1zm1 0 1-1h1a26 26 0 0 0-1 1h-1v1-1zm144 0h1-1zm7 0s-1 0 0 0zm10 0c0-1 0-1 0 0s0 1 0 0zm-50 0c1 0 0 0 0 0zm2 0h1-1zm56 0c1 0 1 0 0 0 0 0-1 0 0 0zm2 0v-2h-1 2v1l-1 1c-1 0-1 0 0 0zm-166 0h1-1zm148 0zm1 0c1 0 1 0 0 0zm-120 0s0-1 0 0c1 0 0 0 0 0zm53 0h2-2zm158 0h1-1zm88 0s0-1 0 0zm14 0c0-1 0-1 0 0h1-1zm-350 0-1-1h-2 4l-1 1zm33 0v-1c-1-1 0-1 1-1l2-1v-1h2v1l-1-1-1 1-2 1-1 1h5-2l-3 1zm32 0h1-1zm301-1-1-1 1 1 1 1-1-1zm-360 1h1-1s-1 0 0 0zm16 0h1-1zm136 0c0-1 0-1 0 0zm6-1h1-1l-1 1 1-1zm214-2v-2a53 53 0 0 1 0 2zm-228 2h1-1zm197 0c1 0 1 0 0 0 0 0 0 1 0 0zm-268 0zm-85 0h1-1zm104 0v-1 1s-1 0 0 0zm49 0zm-103 0c1 0 0 0 0 0zm2-1h2c0-1 0-1 0 0l-2 1v-1zm101 1v-1 1zm21 0h1-1zm43 0c-1 0-1 0 0 0zm138 0v-1 1zm-310-1c0 1 0 0 0 0zm2 0h1l1 1-2-1zm40 0h1-1zm90 0h1-1s-1 0 0 0zm-145 0v-1l1-1 1-1h2v3h-4zm3 0 1-2-1-1v1l-2 1-1 1h3zm180 0h1-1zm1 0h1-1zm141 0zm-14-1h1-1v1-1zm-324 0h-1l1-1 1-1 1-2 1-1 1 1-1 1-1 1v1c0 1-1 2-2 1zm1 0v-1l-1 1h1zm2-3v-2l-1 1v2l1-1zm334 3c1 0 1 0 0 0zm12 0h2-2zm4-1v-1 2-1zm-372 0s-1 0 0 0zm11 0-1-1 1-1-1-1h2v3h-1zm1-1v-1l-1-1v3l1-1zm228 1h1v-1l-1 1zm18 0c0-1 0-1 0 0h1-1zm86-1v1-1zm-105 0v1-1zM9 506h1-1zm192 0zm2 0 1-1h2l1 1h1-1l-2-1-2 1c-1 0-1 0 0 0zm180 0zm-14 0 1-1v1h-1zm-161 0h1l1-1v-1h1l1-1 1 1h-1l-2 1-1 1h-1zm160 0c1-1 1-1 0 0zm-358-1c0 1 0 1 0 0zm192 0 1-1h-1v1c-1 1-1 0 0 0zm70 0zm97 0v-1 1zm-349 0zm350 0v-1 1zm14 0h1-1zm-387 0c1 0 0 0 0 0zm16 0v-1l1-1v-2h1l1 1-1 3h-2zm3-1v-1l-1-1-1 1v1c-1 0-1 0 0 0h2zm235 1c-1 0-1 0 0 0zm-274-1zm78 0zm214 0h1-1zm-294 0zm19 0zm211 0c-1 0-1 0 0 0h1l1-1-1 1h-1zm190-1v1-1zm-409 1v-1h1-1v1c-1 0-1 0 0 0zm61 0h1c0-1 0-1 0 0h-1zm-56-1v1-1zm52 1h1-1zm-71-1h1v1l-1-1zm77 0v1-1zm2 0v1-1zm152 0c1 0 1 0 0 0 0 1 0 0 0 0zm10 0h1l-1 1v-1zm144 0v1-1zm-83 0h1v-1 1h-1zm-224 0zm162 0h1-1zM5 503l-2-2h2l1-1v2l-1 1zm1-1v-1l-1-1v1l-1 1h2zm-36 1s-1 0 0 0zm300-1v1-1zm-302 0-1-1-3-1h-2 2l3 1 1-1 1-1h1l-1 2h-1c2 2 2 2 0 1zm1-2h1l-2-1v1h1zm241 2c1 0 1 0 0 0v1-1zm185-1v-1 2-1zm-174 1zm149 0zm-335 0s0-1 0 0zm323 0 1-1-1 1zm13 0v-1 1zm-2 0c0-1 0-1 0 0zm-148-1h1-1zm147 0h1-1zm-333 0zm231 0c1 0 0 0 0 0zm-267 0v-4l1 1 1 1v1l-1 1h-1zm2-1v-1H0v2l1-1zm-2-2v-1 1zm368 2h1v1l-1-1zm3 1zm-102-1c0 1 0 1 0 0zm3 0-1 1 1-1zm-312 0h1c1 0 0 0 0 0h-1zm-1 0h1-1zm40-1-3-1h3l1 1h-1zm0 0-1-1v1h1zm364 1h1-1zm5 0c-1 0-1 0 0 0zm-379-1-1-1h1l1-1h1c2 1 1 1-1 2h-1zm2 0 1-1h-1l-1-1-1 1v1h2zm-35 0s-1 0 0 0zm19-1v-1h1v1h-1zm36 0-1-1c-1 0-1 0 0 0l1 2v-1zm-2 0c1 0 1 0 0 0zm370 0zm-105 0c1-1 1-1 0 0zm-320 0v-1 1zm322-1c0 1 0 1 0 0zm102 0v1-1zm-6 0zm2 0h-1 3-2zm3 0h1-1zm-100 0v-1 1zm106 0zm-344 0h1c1 0 0 0 0 0h-1zm338 0v-1 1zm-97-1h-1l1 1v-1zm-235 0h1-1v1-1zm326 0h1v1l-1-1zm2 0h1-1c-1 1-1 1 0 0zm10 0c-1 0-1 0 0 0 0 1 0 1 0 0zm-2 0h1-1zm-326 0c1 0 0 0 0 0zm183 0c0-1 0-1 0 0zm-203 0h1-1zm340 0v-1 1zm6 0v-1 1zm-347-1h1-1zm13 1h2-2zm89-1v1c1 0 1 0 0 0v-1zm1 0c-1 0-1 0 0 0zm244 0h1-1zm-6 0zm-419-1-1-1-2 1v-1h3v1c0 1 0 1 0 0zm79 0h1l-1 1v-1zm-69 0h1-1zm13 0 1-1h1l-1 1h-1zm394 0c1 0 1 0 0 0zm-1 0h1-1zm12 0h1-1zm-419 0 1-1v1h-1zm420 0v-1l1 1h-1zm-410 0 1-1-1 1zm29 0zm-29 0-1-1h1c0-1 0-1 0 0v1zm93-1v1-1zm-68 0v1-1zm396 0c-1 0-1 0 0 0 0 1 0 1 0 0zm-436 0 1-1v-2l1 1 1 2h-3zm2 0v-1c0-1 0-1 0 0h-1v1h1zm17 0zm48 0c-1 0-1 0 0 0zm6 0c-1 0-1 0 0 0zm14 0c-1 0-1 0 0 0zm318 0h1-1zm2 0h1-1zm28 0-1-1 1 1zm-364 0zm19 0zm19 0v-1 1zm-80 0c0-1 0-1 0 0 1 0 0 0 0 0zm6 0c0-1 0-1 0 0zm373 0h1-1zm-380-1h-1 1zm320 0h1-1zm-366 0h2-2zm425 0zm-384 0h1-1zm2 0h1-1zm1 0c1 0 0 0 0 0zm384 0h1-1zm-405 0s1 0 0 0zm-18 0h2-2zm77 0zm284-1c0 1 0 0 0 0zm62 0c-1 0-1 0 0 0zm-350-1 1 1-1-1zm348 1zm-404 0v-1 1zm403 0v-1 1zm-424-1 1-1-1 1v1-1zm74 1zm298-1c1 0 1 0 0 0 0 1 0 1 0 0zm79 0v1-1zm-428 0v-1 1c0 1 0 1 0 0zm15 0zm37 0c0 1 0 1 0 0zm294 0 1-1-1 1zm55-1 1 1-1-1zM7 490v-1 1zm6 0c0-1 0-1 0 0zm5 0h1-1zm-54-1v1-1zm-27 0h1-1zm449 0v-1 1h1-1zm-79 0c0-1 0-1 0 0zm-364 0v-1 1zm23-1v1-1zm427 0h1-1c0 1 0 1 0 0zm-449 0c1 0 1 0 0 0zm370 0h1v-1l-1 1zm-335-1-1-1 1 1 1 1-1-1zm29 1c0-1 0-1 0 0zm304 0h1-1zm-4 0zm5 0v-1 1zm1 0v-1 1zm-368-2s0-1 0 0v1-1zm417 0h-1 1l1 1-1-1zm-353 1h1-1s-1 0 0 0zm300-1zm3 0zm-180-1-1-1h1c0 1 0 1 0 0v2-1zm184 1c0-1 0-1 0 0zm-339 0v-1 1zm384-1v1-1zm32 0h1-1zm-87-1v1-1zm-339 0h1-1zm3 0h1-1zm344 0s0-1 0 0zm-8 0h1-1zm-340 0c0-1 0-1 0 0zm-1-1s1 0 0 0zm167-2v-2 4zm-175 2h1-1zm350 0v-1 1zm87-4v-2a73 73 0 0 1 0 2zm-442 3-1-1h1l1 1h-1zm-6 0c1-1 1-1 0 0zm9 0zm-5-1v1-1zm12 0h1-1s-1 0 0 0zm-14 0zm436 0c0-1 0 0 0 0h1c0-1 0-1 0 0h-1zm-437 0s0-1 0 0zm13 0h1-1zm172-1v1-1zm-185 0h1-1zm341 0h1-1zm74-1zm-1 0zm23 0c0-1 0-1 0 0zm-457-1-1-1 1 1 1 1-1-1zm15 1h1-1zm89 0h1-1zm278 0h1-1zm4 0c1 0 0 0 0 0zm46 0h1-1zm-417-1zm2 0c0-1 0-1 0 0zm365 0zm0 0zm56 0 1-1v1h-1zm-77-1v1-1zm20 0v1-1zm-375 0c1 1 1 1 0 0zm424 0h1-1zm6 0h1-1zm21 0h-1 1zm-455 0-1-1 1 1zm12 0zm-5-1 1-1 1-1c0 1 0 1 0 0h-1v1l-1 1c0 1 0 1 0 0zm225 1h1c0-1 0-1 0 0h-1zm204 0c0-1 0-1 0 0 1 0 1 0 0 0zm-205 0zm198-1h1-1zm2 1zm2-1h1l1 1h-1l-1-1zm-430 0h-1l-2-1h-1 3v1h1zm429 0c1 0 1 0 0 0 0 0 0 1 0 0zm-240 0c-1 0-1 0 0 0zm3 0v-1l1-3h1l1 1v2h-1s0 1 0 0c-1 0-1 0 0 0l1-2v-1h-1l-1 1v2l-1 1zm240 0h1-1zm2 0h1-1zm-441 0-1-1h1v1zm237 0c0-1 0-1 0 0zm222 0zm-258 0h1-1zm4-1h1-1zm162 0v1-1zm65 1v-1 1zm-238-1h1l-1 1v-1zm194 0h-1v-1l1 1c0 1 0 1 0 0zm-375 0h1-1zm430 0h1-1zm16 0zm-73 0c0-1 0-1 0 0zm-18 0s0-1 0 0zm64 0v-1 1zm13 0c-1 0-1 0 0 0zm15 0c0-1 0 0 0 0zm-462-1c0 1 0 0 0 0zm239 0h1-1zm198 0v-1l1 1c-1 0-1 0 0 0h-1zm1 0zm5 0c1 0 1 0 0 0zm-235 0zm19-1 1 1-1-1zm207 1zm-197 0c0-1 0-1 0 0zm-42-1s0-1 0 0zm33 0v-1 1c0 1 0 0 0 0zm142 1v-1 1zm-371-1-1-1 1 1v1-1zm236 0h1-1zm8 0v-1 1l-1 1zm127 0h1v1l-1-1zm64 0h1v1l-1-1zm37 0c0 1 0 0 0 0zm-36 0zm-198 0c0-1 0-1 0 0zm12-1v1-1zm-13 0zm195 0a29 29 0 0 0 1 0h-1zm-433 0v-1h-1 1v1zm435 0v-1 1zm-207-1v1-1zm6 0v1-1zm6 0h1v1l-1-1zm191 1 1-1h1-1l-1 1zm35-2-5-2h-2l-2-2-4-1-3-1-2-1 1 1 1 1h-2l-4-1a107 107 0 0 1-5-2l-1-1-2-1h-3l1 1 1 1h-2l-7-1-4-1-3-1-6 1h-2l-2-1-1 1-1 1-2-1-4-1 1-1h2l2-1h3l1 1h2l1-1-1 1h-3a208 208 0 0 1-3-1l-2 1-2 1 3 1h2l1-1h10a661 661 0 0 0 12 1l1-1 1 1h5l3 2 2 1 2 1h5-1 6c2 0 3 1 3 2l1 1h1l1 1h3l2-1h1v-2h-1v-2l-1-1-2-1v-1l-1 1 2 2 1 1-1 1-2-1h-1l-1-2v-3h-2l1 2h-3a17 17 0 0 0-4-1l-1 1-1 1v-2l-1-2-2-1v-1c0-1 0 0 0 0v1l1 1 1 1-2 1-3-1-1-1 1 1 4 1h1l-1-1-2-2 1-2 1 1 1 2 1 2 1 1v-1h3l2 1h2v-3h1c1 0 2 0 1 1l1 1v3l3 1v-1l-2-1c0-2 0-3 1-2l2 2 1 1v1l1 1v-4l1 1 2 2v1h-2v1l-1 1h1c0 1 0 1 0 0l1-1h3l1 1 1 1h1l-1-3v-1 1h-2c-1-2-1-2 1-2h1c0-1 0-1 0 0l1 3v2h-2l-3-2-1 1-1 1h-2l-1 1 2 1 2 1 1-1 2-1 2 2-2-1-2 1h-2l-1-1zm0-2-1-1c-1 0-2 1 0 1h1zm6-4h-1l1 1v-1zm-4 0v-1l-1-1v3h1v-1zm-36-4h-1c-1 0-1 0 0 0h1zm-190 11c0-1 0 0 0 0zm-45 0 1-1v-1 1l-1 1zm43 0v-1 1zm-32-1v1-1zm228 0h1c-1 0-1 0 0 0 0 1 0 1 0 0l-1 1v-1zm-437 0-1-1h-1v-1h-1l-1-1h1v1l2 1 1 1 1 1-1-1zm231 0h-1 1zm199 0v-1c1 0 1 0 0 0v1zm-2-1c0 1 0 1 0 0zm-192 0v-1 1zm194 0zm10 0zm-201 0h1-1zm231 0-1-1h2v1h-1zm1-1h-1 1zm-231 0s0 1 0 0zm191 0c0 1 0 0 0 0zm-432 0v-2 2h1-1zm1 0zm243 0h1c0-1 0-1 0 0h-1zm182 0h1-1zm-225-1v1-1zm224 0a29 29 0 0 0 0 1v-1zm7 1-1-1 1 1zm-9-1h2-2zm-182-1v-1 1c0 1 0 0 0 0zm-246 1h1-1zm236-1h-1 3l-1 1-1-1zm-205 0v-1 1zm-25 0c-1 0-1 0 0 0zm419 0h1-1zm-192 0h1-1zm193 0zm-178 0s0-1 0 0c1 0 1 0 0 0zm-249 0zm253-1c0-1 0 0 0 0 0 1 0 1 0 0zm-20 0s-1 0 0 0zm18-1h1-1zm-33 0c-1-1-1-1 0 0zm35 0-1-2c-1-1-1-1 0 0l1 2zm168 0zm-189-1v1-1zm187 0h1l-1 1v-1zm-1 0h1-1zm-210-1v-1 2-1zm9 0v1-1zm-213 0v-1c0-2 0-3 1-1v2h-1zm1 0v-1l-1-1 1 2zm412 0c-1 0-1 0 0 0 0 1 0 0 0 0zm-416 0-3-1-1-2h3l2 2 1 1h-2zm1 0c1-1-1-2-3-2l-2-1 1 2 3 1h1zm248 0c0-1 0-1 0 0zm-218 0v-1 1zm209-1h1v1l-1-1zm6 0v1-1zm165 0 1 1h-1v-1zm3 0h1l-1 1v-1zm-198 0c0 1 0 1 0 0zm26 0h1-1zm166 0h1-1s-1 0 0 0zm72-1c0-1 0-1 0 0v1-1zm-264 0c0-1 0-1 0 0zm30 0v1-1zm0 0h1v1l-1-1zm2 0zm-256 0v-1 1zm239 0zm230 0-2-2-2-4-1-1v-1l2 1 2 2v1h1v1l1 1v1l-1 1zm0-2-1-2-1-1v-1h-2l1 2 1 1v1l2 1v-1zm-431 1s0-1 0 0v1-1zm372 0 1 1-1-1zm-170 0h-1 1zm-242-1h-1 1zm217-1s0-1 0 0v1-1zm25 1zm18 0v-1 1h2-2zm2 0h1c0-1 0-1 0 0h-1zm195 0h1-1zm-3 0-2-1 5 1h-3zm-11-1-6-1h-4l-1 1h-1l3-1h5a440 440 0 0 0 4 1zm-180 0zm226-1 1-1v1h-1zm-269 1zm189 0v-1 1zm-183-1v-1 1c0 1 0 0 0 0zm203 1v-1h1l-1 1zm-174-1c0 1 0 1 0 0zm-258 0 1 1-1-1zm225 0h-1 1v1-1zm20 0v-1h-3l-1-1v-1l1-1h-3l-1-1-1-1-1-1h1l1 1 1 1v1l2-1 1 2v1h-1l1 1h1l1-1 1 1h1v1h-1zm181 0v-1h1v1h1l1-1-2 1h-1zm-203 0s1 0 0 0zm40 0zm1 0c1 0 1 0 0 0zm-90 0v-1l1 1h-1zm218 0h-1c-2 0-2-1-2-2l-1-1 1 1v1h1l2 1v-2l2 1h1l1-1-1 1-2 1h-1zm1-1c0 1 0 1 0 0zm17 1s1 0 0 0zm3 0v-1 1zm-191-1h1-1zm193 1v-1h-1 2l-1 1zm-416-1c0 1 0 0 0 0zm412 0 1-1 1 1h-2zm23 0zm-28 0h1v-1h1l-1 1h-1zm29 0zm-7 0v-2l2-1v3h-1l1-1v-1l-1-1-1 1v2c-1 0-1 0 0 0zm5-1v-1h1l1 1-1-1-1 1c0 1 0 1 0 0zm-24 0c0 1 0 1 0 0zm-4 0h1-1zm-249-1v1-1zm21 1zm258 0zm-126-1-1-1-2-1-2-1-1-1s0-1 0 0h1l1-1-2-1c-1 0-2-1-1-2h3-3v1l1 1h2v1l-1 1v1l4 2 1 1h2l2-1h1v-1 1h-1l-2 1h-2zm140 0h-2v-1a25 25 0 0 0 3 1h-1zm-47 0c0-1 0 0 0 0zm2 0h2-3 1zm57 0-2-2v-1l2 1 1 2h-1zm0-2-1-1-1 1h1l1 1v-1zm3 2-1-1v-1c-1 0-1 0 0 0l-1-1-1-2h2l1 1v1h1l-1-1v-1l4 1h1l1 1h-4l1 1h2-4v1l-1 1zm1-1v-1l1-1 1-1s1 0 0 0l-2-1v2h-1l-1-1-1-1 1 1 1 1-1 1 1 1v1l1-1zm5-2h-2 2zm22 3h1-1zm-53 0s0-1 0 0zm-395-1h-1 1v1-1zm186 0zm96 0h1-1zm-73 0-1-1h1l1 1h-1zm149 0h1-1zm-43 0s0-1 0 0h1-1zm-134 0-1-2c0-1 0-2 1-1v-1l1-2 2 3v2l-1 1h-2zm2-1 1-1-1-2-2-1a65 65 0 0 1 1 3h-2l1 1h2zm102 1v-1 1zm77-1h1v1l-1-1zm9 1v-1 1zm38 0v-1l2 1h-2zm1-1h-1v1l1-1zm-448 0 1-2 1 2-1 1h-1v-1zm1 0v-1 1zm163 1 1-1-1 1zm160-1h1-1v1zm57 0h1v1l-1-1zm49 1a124 124 0 0 0-4-2h3l1-1h1v3h-1zm1-1v-1h-4l1 1h3zm56-1v-1 2-1zm-450 1s0-1 0 0zm187 0v1-1zm128 0-1-1 1 1v1-1zm82-1-1-1h2l1 1 2 1-2 1h-1zm3 1v-1h-3 1l1 1h1zm-128 0h1l1-1v-2 3h-2s-1 0 0 0zm73 0h1-1zm-25 0zm-366 0h1-1zm419 0h-1 1zm-260-1h-1 1v1-1zm18 1v-1 1zm-13 0v-1 1zm1 0v-1 1zm90-1v1-1zm77 1v-1h1-1v1zm67-1c0 1 0 1 0 0zm1 1v-1 1zm3 0 1-1-1 1zm8-1h-1 1c0 1 0 1 0 0zm-76 0c0 1 0 0 0 0zm-171 0zm17 0h1-1zm155 0h1-1zm57 0zm4 0h1-1zm-165 0zm106 0h1-1zm28 0-1-1 1 1zm34 0h1-1zm-179-1-2-1v-1h1l2 2s0 1 0 0v1l-1-1zm0-1h-1 1zm-6 1v1-1zm33 0h-3l1-1h2v-1l1 1v1h-1zm0 0h-1 1zm1-2h-1v1l1-1zm84 3h1-1zm-332-1v-1h2l1 1h-3zm2 0-1-1v1h1zm178 0h1-1zm75 0h1-1zm-98 0v-1 1zm6 0h1-1zm68 0v-1 1zm133 0s0-1 0 0zm-200 0h1-1zm15 0zm222 0 1-1-1 1zm-277 0h1-1zm32 0v-1 1zm61 0v-1 1h-1 1zm-62 0zm21-1v1-1zm-181 0v-1l1 1v1l-1-1zm152 0h1-1zm7 0zm25 0c0-1 0-1 0 0zm155 0h3v-1 1h-3zm13 0h-3 4l-1-1-1-2h2l4 1 1 1h1-1l-1-1h-2l-3-1v2l1 1h-1zm43 0v-1 1zm8 0h1-1zm-35 0zm34 0h1-1zm24 0h1-1s-1 0 0 0zm18 0v-2l1-1 1 1v1l-2 1zm2 0v-2h-1l-1 2h2zm-229 0v-2 2zm105 0h1-1zm11 0v-2h-1 1v1h1v-1l-1 2zm-89 0v-1 1c-1 0-1 0 0 0zm-85 0v-1 1zm164 0h1-1zm106 0h1-1zm-267-1zm-110 0zm83 0c-1 0-1 0 0 0zm21 0h1-1zm2 0 1-1-1 1zm23 0zm79 0h1-1zm107 0s0-1 0 0zm37 0s1 0 0 0zm-253-1v1-1zm187 1h1-1zm-183 0h1-1zm173 0zm172-1s0-1 0 0 0 1 0 0zm-274 0-1-2c1-1 1-1 2 1 0 2 0 2-1 1zm1 0-1-1v1h1zm17 1 1-1 1-1-1 1-1 1zm-235-1v-2l1 1-1 1zm1-1h-1 1zm149 1h1-1zm24 0h1-1zm-202 0c1 0 0 0 0 0zm176 0v-1 1zm181 0-1-1 1 1zm84 0s-1 0 0 0zm52 0zm-292 0v-1h1l-1 1zm140 0zm22 0 1-1 1 1-1-1-1 1h-1zm-363 0v-1 1zm165 0h1-1zm326 0h-1 1v-1h1v1h-1zm-211 0h1-1zm-183-1c0 1 0 0 0 0zm81 0c0 1 0 0 0 0zm171 0h1l-1 1v-1zm91 0v1-1zm49 0h1v1l-1-1zm-396 0zm292 0h1-1zm27 0-1-1-2-2h-4l2-1 3 1 2 2v1zm-237 0 1-1v1h-1zm61 0c-1 0-1 0 0 0zm119 0c1 0 1 0 0 0zm-186 0c0-1 0-1 0 0zm84 0 1-1v1h-1zm99 0v-1h1-1v1zm99 0 1-1v1h-1zm39 0c-1 0-1 0 0 0zm-395-1v1-1zm81 1 1-1-1 1zm88-1h1v1l-1-1zm75 1h1-1zm101 0v-1 1zm-238-1-1-1 1 1v1-1zm78 0-1-2h1v2c1 1 1 1 0 0zm193 0v1-1zm46 0zm-340 0h-1 1zm73 0v-2h1-1v1h2-1v1h-1zm80 0h1c1 0 0 0 0 0h-1zm94-1 1-1c1 0 1 0 0 0l-1 1-2 1zm45 1h1c-1 0-1 0 0 0h-1zm-375 0v-1 1s1 0 0 0zm258 0h1-1zm98 0zm36 0v-1 1zm-324 0c0-1 0-1 0 0zm173 0c-1 0-1 0 0 0zm138 0v-1 1zm-395-1h1l-1 1v-1zm96 0s0 1 0 0zm89 0c-1 0-1 0 0 0zm89 0v-1 1zm25 0zm74 0c1 0 1 0 0 0zm28 0c1 0 1 0 0 0zm1 0h1-1zm-482-1 1 1-1-1zm78 1zm123 0zm287 0zm-405 0v-1 1c-1 0-1 0 0 0zm153 0 1-1v1h-1zm11 0c-2-1-2-1-1-2h1l1-1h2v-3l1-1 2-1 1-1h1l2 1h2v-1h5l1 2h-4l-1 1v1c-1 0-1 0 0 0v-2l1-1h3l-2-1-3 1-2 1 1 2h1-1l-1-1-1-1-1 1h-3v1l1 2-1 1-2 1h-2l-1 1zm2-2h2l1-2v-1c-2 0-2-1 0-1l1-1v1h1l1-1 1-1h-1l-4 1-1 2v2l-2 1h-1l-1 1h2l1-1zm133 2s-1 0 0 0zm56 0v-1l1 1h1-2zm80-1h1v1l-1-1zM7 442h1v1l-1-1zm352 0h1l-1 1v-1zm-412 0v1-1zm91 0v1-1zm40 0h1v1l-1-1zm40 0 1-1h1l-1 1h-1zm2-1h-1v1l1-1zm108 1c-1 0 0 0 0 0 0 1 0 1 0 0zm16 1 1-1-1 1zm60-1v1-1zm-159 0zm98 0zm10 0h-1 1zM3 442l1-1v1H3zm17 0zm338 0h1-1zm5 0zm-408 0v-1 1zm13 0h1-1zm362-1v1-1zm29 0h1l-1 1v-1zm1 1h1v-1c-1 0-1 0 0 0v1h-1zm-485-1 1 1-1-1zm269 1v-1 1zm10 0v-1l1 1h-1zm77 0v-1 1zm82 0v-1h-1v-2 1l1-1v2h1l-1 1zm-62-1v1-1zm-285 0c0 1 0 0 0 0zm111 0c1 0 1 0 0 0 0 1 0 1 0 0zm63 0h1-1zm93 0h1-1s-1 0 0 0zm6 0h1-1zm-344 0-1-1h3v1h-2zm1 0-1-1v1h1zm340 0c-1 0-1 0 0 0h1-1zm126 0v-1 1zm-411 0zm17 0 1-1v1h-1zm112-1v1-1zm32 1zm134 0zm-218 0zm273 0s0-1 0 0zm-157-1-1-1 1 1v1-1zm3 1v-1h1-1v1zm5-1v-1l-1-2v-1 1l1 2v1l2 1h-1l-1-1zm96 1h1-1zm-219-1h1-1zm-157 0h1-1zm76 0c-1 0 0 0 0 0zm163 0v-1 1zm177 0v-1 1h1-1zm-415 0h1-1zm271-1v1-1zm-210 0s0-1 0 0zm102 0h1-1zm255 0 1-1v1l-1 1v-1zm10 0h1-1c0 1 0 1 0 0zm68 0h-1l2-1h1v1h-2zm2 0h-2 2zm23 0v-1h-1 1l1 1h-1zm-251 0h1-1zm139 0zm3 0h1-1zm76 0h1-1zm-333 0h1-1zm258 0h1-1zm15 0v-1 1zm11 0v-1 1zm52 0-1-2h2l2 1v1h-3zm3-1h-3v-1 1l2 1 1-1zm-254 1 1-1h1-1l-1 1c-1 0-1 0 0 0zm35 0v-1 1zm-275-1 1 1-1-1zm57 1c0-1 0-1 0 0zm2-1h1v1l-1-1zm105 0v1-1zm245 1h1c1 0 0 0 0 0h-1zm-325-1-1 1 1-1zm45 0H1h1c0 1 0 1 0 0zm35 0c-1 1-1 1 0 0zm264 0zm-328 0h1-1zm1 0h1-1zm164 0zm254 0h1-1zm-362 0c0-1 0-1 0 0zm360 0s0-1 0 0zm-495 0v-2h1v2h-1zm1-1s0 1 0 0zm36 1v-1 1zm204 0h1-1zm-205-1zm2 0s0 1 0 0zm181 0h1-1zm183 0h1-1zm15 0zm75 0zm1 0 1-1c1 0 0 0 0 0h-1 2v1h-2zm-417 0c1 0 0 0 0 0s-1 0 0 0zm174 0v-1l1 1h-1zm-210-1v1-1zm363 1c1 0 0 0 0 0zm-366-1 1 1c0-1 0-1 0 0l-1-1zm370 1 1-1v1h-1zm32 0c0-1 0-1 0 0zm-391-1v-1h-3 1l2 1c0 1 0 1 0 0zm-46 0h1c0-1 0-1 0 0h-1zm34 0v-1l1 1-1 1zm150 0s-1 0 0 0zm216 0h-1 1zm-155 0zM3 436s-1 0 0 0zm-51-1h-1 1v1-1zm130 0v1-1zm213 1h1-1zm13-1h-1 1v1-1zm-424 0-1-1 1 1c0 1 0 0 0 0zm259 0c1 0 0 0 0 0zm60 0h1-1zm181 0h-1 1c0 1 0 0 0 0zm-487 0zm37 0v-1 1zm182-1v-1 2-1zm5 1v-1h1c1 0 2 0 1 1h-2zm1 0v-1 1zm-186 0h1-1zm-38-1h1-1v1-1zm-29 1v-1 1zm466-1c0 1 0 0 0 0zm-404 0h1-1zm4 0zm-30 0c0-1 0-1 0 0h1-1zm28 0h1-1zm-65 0h1-1zm0 0c-1-1-1-1 0 0zm30 0c0-1 0-1 0 0zm103 0-1-1h1v1zm201 0 1-1v1h-1zm-335-1zm420 0v-1c-1 0-1 0 0 0l1 1h-1zm4 0h1-1zm12 0zm1 0s0-1 0 0zm34 0h-2 2zm-405 0h1-1zm350-1h-1 1l1 1-1-1zm24 1c0-1 0-1 0 0zm34 0zm-438 0h1-1zm97 0zm82-1 1 1-1-1zm217 1h1-1zm-410-1h1v1l-1-1zm1 0h1-1zm17 0h1l-1 1v-1zm27 0s0-1 0 0zm364 0zm44 0zm-226 0h1-1zm-35 0h1-1zm-80-1s0-1 0 0 0 1 0 0zm302 1-1-1h2v1h-1zm-413-1h1v1l-1-1zm49 0 1 1-1-1zm141 1 1-1v-1 1l-1 1zm264 0h1-1zm-461-2c0-1 0-1 0 0v1-1zm60 1h1-1zm185 0v-2l1 1v1h-1zm6 0-1-1v-6 6h1l1 1h-1zm68 0s0-1 0 0zm104 0zm-440 0h1-1zm71 0v-1l1 1h-1zm180-1v1-1zm19 0v1-1zm-203 0v1-1zm413 0c0 1 0 0 0 0zm-396 0zm-19 0zm326 0h1-1zm49 0 1-1v1h-1zm-369 0h1-1zm321 0v-1h1v1h-1zm-73-1 1-1h5l-1 1h-1l-2-1-1 1-2 1 1-1zm-235 0zm193 0v-2l1-1-1-1h6l2 1 2-2 1-2 1 1-1 1-1 1h1c1 0 1 0 0 0h-2l-2 1-1-1-1 1h-4v1h1-1l-1 1v1c0 1 0 1 0 0zm11-6c0-1 0 0 0 0zm-73 6v-2 2zm284-1-1-1 1 1 1 1-1-1zM0 429zm147 0h1-1zm209 0s-1 0 0 0zm-77 0c0-1 0-1 0 0zm-351-1v1-1zm210 1v-2l1-1 1-2v-1l2 2v1h-1v-1l-1-1-1 3-1 1h2l1-1v1l-2 1h-1zm113 0v-1 1c1 0 1 0 0 0zm-312 0 1-1v-1 1l-1 1zm207-1v-1h3-1l-1 1h-1v1-1zm161 0v1-1zm-172 0zm56 0h1-1zm88 0zm54 0h-1 4c3 0 3 0 0 0h-3zm-449 0 2-1 1-1 1 1-2 1h-2zm2-1h-1v1l1-1zm280 1zm29 0h1-1zm10 0c-1 0-1 0 0 0h1-1zm140 0zm-416 0v-1 1h-1 1zm16 0h1-1zm135 0zm115 0h1-1zm7 0h1-1c-1 0-1 0 0 0zm-312-1v-2l1 1v1h-1zm1 0-1-1v1h1zm58 0h-1 1v1-1zm310 0v1-1zm-315 0h1-1zm238 0h1-1zm11 0c-1 0 0 0 0 0h1-1zm148 0zm22 0zm-418 0h1-1zm190 0-1-1 1-2v-1 4zm-274 0zm329 0c0-1 0-1 0 0 0 0 1 0 0 0zm116-1h-1l-3-1-2-1 3-1h2v-4a85 85 0 0 1 0-2v5l-2 1-2 1h-1l3 2 2-1h1v2-1zm29 1-1-1h1l2 1h1-3zm-256 0v-1 1c-1 0 0 0 0 0zm177 0h1-1zm-375-1v1-1zm31 0s0 1 0 0v1-1zm28 0 1 1-1-1zm3 0v-1 2zm337 0c0 1 0 0 0 0zm-371 0h1-1zm39 0zm170 0zm70 0h1-1zm36 0 2-1 2 1h-4c-1 0-1 0 0 0zm-279 0s0-1 0 0zm226-1 1-1-1 1c0-1 0 0 0 0v1zm13 1zm44 0h1-1zm51 0zm-373 0v-1h1c0 1 0 1 0 0l-1-1v1-1l1 1-1 1zm94-1v1-1zm172 1v-1 1zm13 0h1-1zm146 0h1c1 0 1 0 0 0h-1zm27 0s-1 0 0 0zm-34-1h2l-1 1-1-1zm33 1c0-1 0-1 0 0 0 0-1 0 0 0zm-373-1h1-1zm343 0h1-1zm-413 0zm71 0c1 0 1 0 0 0zm-124-1v1-1zm221 0c0-1 0-1 0 0zm85 1v-1a29 29 0 0 0 0 1zm112 0 1-1-1 1zm-364-1v1-1zm248 0s0-1 0 0h1v1l-1-1zm-249 0h1-1zm250 0v-1l1-1 1-1-1 2-1 1zm143 0v-1 1zm-392 0h1-1zm1 0h1-1zm12-1v-1 2-1zm300 1-1-1-1-1h-2 2l1 1 1 1h1-1zm-102 0-2-4 1 1c1 2 1 2 1 0l-1-4v-1 1l1 5v2zm30 0 1-1-1 1zm11-1c0-1 0-1 0 0s0 1 0 0zm108 1c1 0 0 0 0 0zm-371-1h-1 2-1s-1 0 0 0c0 1 0 1 0 0zm375 0v1-1zm-400 0h1-1zm291 0h1-1zm99 0 1 1-1-1zm-409 0zm21 0h-1l-1-3 1 1h1l1 1-1 1zm0-1v-1h-1l1 1zm257 1h1-1zm84 0a29 29 0 0 0 1 0h-1zm51 0h1-1zm-155 0v-1 1zm23 0zm131 0s0-1 0 0zm-110 0 1-1v1h-1zM0 422v1-1zm146 0v-2h1v2h-1zm1 0v-1h-1l1 1zm24 0s0-1 0 0zm100 0c0 1 0 1 0 0zm-103 0h1-1zm-267 0v-1 1zm232 0-1-1-1-1h3-1l-1 1 1 1zm139 0c-1 0-1 0 0 0zm-109 0 1-2-1 1v1zm-261 0c0-1 0-1 0 0zm225 0s0-1 0 0l1-1v1h-1zm-242-1h1-1l1 1h-1v-1zm284 0v1-1zm-283 0h1l-1 1v-1zm199 0v-1 1zm70 0 2-3h1l3-1 1-1h3-3l-4 2-2 2-1 1h1l2-1 2-1h1-1l-1 1v1-1l1-1-2 1-2 1h-1zm-276 0h-1 1zm8 0zm112 0v-1 1h1-1zm268 0c-1 0-1 0 0 0zm-117 0v-1l1 1h-1zm115 0h1-1zm-377 0zm240 0s1 0 0 0zm-240 0v-1 1zm12 0 1-1v1h-1zm93 0c-1 0-1 0 0 0zm274 0 1-1v1h-1zm-379-1zm198 0zm136 0h2-2zm-98-1v-4 4zm23 1v-1h1v-2l-1-1 1 1h1v2l-1 1c1 0 1 0 0 0h-1zm2-1v-1l-1 1h1zm-251 1v-1 1zm29-1c0-1 0-1 0 0v1-1zm216 0 1-1-1 1-1 1 1-1zm23 1h1-1zm-268-1h1l-1 1v-1zm268 1zm85 0v-1 1zm-330 0h1-1zm1-1v1-1zm73 1 1-1-1 1zm93-1h1-1zm244 0c-1 0 0 0 0 0zm-436 0zm102 0h1-1zm136 0zm129 0zm-365 0h1-1zm24 0zm197 0h1c0-1 0-1 0 0h-1zm211 0h1-1zm-472-1v1-1zm134 0v1-1zm-98 0c0-1 0-1 0 0 0 0 0 1 0 0zm26 0h1-1zm209 0-1-1-1-3a54 54 0 0 0-1-4l1-1v5l1 2v1h1l-1-2 1 1 2 1h-1v1l1 1-2-1zm1-2h-1 1zm137 3 1-1-1 1zm-413-1h1-1zm23 0zm48 0h1-1s-1 0 0 0zm72 0h-1 1zm-139-1v1zm62 1zm72 0h1-1zm155 0v-1 1zm170-1v1-1zm-54 0v1-1zm-269 0c0-1 0-1 0 0s0 1 0 0zm175 0 1-2v-2 3c-1 1-1 2-2 1h1zm98 0h1-1zm-135 0h-1 1zm18 0zm-260 0zm-34 0h1-1zm234-1h1-1v1-1zm63 1 1-1-1 1h-1zm-262-1h1-1zm26 0-1-1h1v1zm73 0h1-1zm177 0-1-1-1 1 1-1 1 1zm-20 0v-1 1zm123-1v1-1zm-7 0h1v1l-1-1zm-387 0h-1c0-1 0-1 0 0h1zm356 0v-1l1 1h-1zm29 0h1-1zm3 0c1 0 0 0 0 0h1-1zm-103 0h1-1zm130 0-1-1 2-1h1l-1-1c1-1 0-1-1-1l-1-1h-1 1l1 1h1l3 1 1 1h-3l4 1h1-4 1v1h-4zm3 0v-1h-4l4 1zm11 0v-1l1 1h-1zm21 0c-1 0-1 0 0 0 1-1 1 0 0 0zm-336 0zm235 0h1-1zm-103 0v-1 1zm33 0h2-2zm7 0h1-1zm-246-1c-1 0-1 0 0 0v1-1zm177 0h1l1 1-1-1c-1 0-1 0 0 0v1l-1-1zm134 0v1-1zm97 0h-1 1v1-1zm1 1zm-102-1v-1h1v1h-1l-1 1zm51 0h1-1zm-149 0zm99 0h1-1zm59 0h-1l1-1a259 259 0 0 0 0 1zm-64 0zm-228 0c1 0 0 0 0 0zm101 0c0-1 0-1 0 0l1-1c-1 0-1 0 0 0l-1 1zm3 0c1 0 0 0 0 0zm127-1v1-1zm4 1c-1 0-1 0 0 0zm51 0zm26 0h1-1s-1 0 0 0zm24 0h1c1 0 0 0 0 0h-1zm-449 0v-1h1l-1 1zm112 0zm133 0v-1 1c1 0 0 0 0 0zm108 0v-1 1zm95 0-1-1 1 1c1 0 0 0 0 0zm-415-1 1 1-1-1zm214 0-1-1 1 1c0 1 0 1 0 0zm38 1h1-1zm67 0c0-1 0-1 0 0zm48 0 1-1v-1 1l-1 1zm-221-1c0-1 0-1 0 0 0 0 0 1 0 0zm38 0zm-183 0h2-2zm411 0h1-1zm-449-1h-1 1v1-1zm184 1v-1c-1 0-1 0 0 0v1zm34 0v-1 1zm-165-1h1-1zm165 0zm129 0h1-1zm-55 0h1-1zm-289 0v-1h-3v-1h-1c0-1 0-1 0 0l1-1v1h4l1-1v2c-1 0-1 0 0 0h-1v-1s0-1 0 0h-2l-1 1h2v1zm21 0zm91 0v-1l1 1h-1zm101 0c1 0 0 0 0 0zm3 0 1-1-1 1zm-196 0v-1c1 0 1 0 0 0v1zm94 0s-1 0 0 0zm-84-1v-1 1h1-1v-1 1l1 1-1-1zm188 0h1-1zm-244 0zm76 0h-1 1zm124 0v-1 1h1v-1 1h-1zm39 0h1-1zm134 0-1-1h1v1c-1 0-1 0 0 0zm-146 0s-1 0 0 0zm-180 0h1-1zm18 0c1 0 0 0 0 0zm233 0v-1 1c1 0 1 0 0 0zm69 0h1-1zm44-1h-1 1v1-1zm-411 0v1-1zm228 0c0 1 0 1 0 0zm16 0h1v1h-1v-1zm-195 0c1 0 0 0 0 0zm194 0h1-1zm-223 0v-1 1h1-1zm348 0v-1 1zm-302 0zm207 0v-1 1zm-220 0h1-1zm22 0h1-1zm295 0h1-1zm-170-1c0 1 0 1 0 0zm100 1h1-1zm71 0v-1c1 0 1 0 0 0v1zm42 0h1-1zm-169-1c0 1 0 0 0 0zm56 0c-1 1-1 1 0 0zm1 0c0 1 0 1 0 0zm1 0h1l-1 1v-1zm135 0v1-1zm-418 0v-1 1h1-1zm35 0zm12 0h1-1zm368 0h1-1zm-19 0c0-1 0-1 0 0zm-347 0v-1 1zm344 0v-1 1zm7 0v-1 1c-1 0-1 0 0 0zm-6 0h1-1zm-353-1c0 1 0 0 0 0zm168 0zm45 0v-2 2s0 1 0 0zm101 0-1-1 1 1 1 1-1-1zm-292 0h1-1zm0 0-1-1h1v1zm57 0v-1 1zm84 0c-1 0-1 0 0 0zm-159 0c0-1 1-1 0 0h1-1zm74 0v-1 1c1 0 0 0 0 0zm93 0s0-1 0 0c1 0 1 0 0 0zm-209 0 1-1-1 1zm45 0s-1 0 0 0zm-66-1v1-1zm407 0s0-1 0 0c1 0 1 0 0 0 0 1 0 1 0 0zm-331 0h1-1zm198 0zm-53 0zm191 0h1-1zm-395 0v-1 1zm59 0 1-1h1-1l-1 1zm-76 0v-1c0 1 0 0 0 0v1zm136 0v-1 1zm275-1v-1 1h1-1zm-347 0 1-1-1 1zm15 0c0-1 0-1 0 0zm192 0zm136 0zm-408-1h1v1l-1-1zm221 0c0 1 0 1 0 0zm191 0h1-1zm4 0zm-2 0h1-1zM1 405h1-1zm-82 0c0-1 0-1 0 0zm152-1c0 1 0 1 0 0zm56 0 1-3v-3h-1l1-1v-1l1 1h4l3-1h2-1l-1 1h-6l-1 1v3l-2 3zm-250 0v-1h1v1h-1zm1 0-1-1v1h1zm42 0c0 1 0 0 0 0zm118 0 1-1 1 1h-2zm2 0h-1c-1 0-1 0 0 0h1zm30 0zm155 0v-1 1zm-305-1v1-1zm307-1s0-1 0 0v1-1zm-374 1h3-3zm11-1v1-1zm40 0c0 1 0 1 0 0zm1 0c0 1 0 1 0 0zm-41 0v-1 1zm17 0v-1l1 1h-1zm23-1h-1 1l1 1h-1v-1zm-21 0c0 1 0 1 0 0zm19 0h1-1zm5 1h1-1s-1 0 0 0zm81-1v1-1zm-127 0c1 1 0 1 0 0zm58 0h-1 1zm128 0v-1h1v1h-1zm-147 0h1-1zm325 0v-1 1zm-173 0v-2h4l-2 1-1 1h-1zm2-2h1-2 1zm-154 2 1-1-1 1zm-39-1v1-1zm375 0 1-1v-1 2h-1zm-369 0v-1h3v-1h2v2h-5zm5-1h-5l2 1h3zm9 1h1-1zm286-1-1-1 1 1 2 1h2l2-1h5l-1 1-1-1-3 1h-5zm-255 1v-1 1zm-32-1c1 0 1 0 0 0v1-1zm344 0c-1 0-1 0 0 0v1-1zm-363 0zm125-1v-1 2-1zm241 1c0-1 0 0 0 0zm-310 0zm262 0 3-1 1-2 1-2 2-1 1-1 2-2 1-2 2-2-2 2-1 3h-1c0 1 0 1 0 0h1l-1 1h-1l-1 1-1 1-1 1-1 2v1l-2 1h-2zm54 0h1-1c-1 0-1 0 0 0zm-318-1 1 1-1-1zm181 1v-1 1zm53 0v-1l1 1h1-2zm81-1h-1c-1 0-1 0 0 0h1c1 1 1 1 0 0zm-88 0h-6v-1h3a213 213 0 0 0 3 1zm10 0c1 0 0 0 0 0zm-8 0-3-1-2-1c-1 0-1 0 0 0h4l1 1 1 1 1-1v1h-2zm10 0h1-1zm-6 0c0-1 0-1 0 0zm10 0h1-1zm4 0zm61-1v1-1zm-66 0v1-1zm19 0h1l1-2h1l-1 2h-2zm2-1v1-1zm-265 1h1-1zm234 0h1-1zm-277 0c-1-1 0-2 1-1v1h-1zm1-1h-1l1 1v-1zm39 1c-1 0-1 0 0 0zm313-1s0-1 0 0v1-1zm-126 1v-1 1zm-252-2v-1 2-1zm15 1zm372 0-1-1 1 1s1 0 0 0zm-370 0c-1-1 0-2 1-1v1h-1zm359 0v-1 1zm-305-1v1-1zm212 0v1-1zm-223 0zm21 0c0 1 0 1 0 0zm-11 0v-1 1zm182 0h1v-1 1h-1zm-228-1-2-2v-1l1 1 3 3h-1l-1-1zm1 0-3-2 3 2zm25 1zm238 0h-1l-1-1 1 1h2-1zm26 0-2-1h1l1-1-1-1h1l1 1h2l-1 1-1 1h-1zm1-2v1h-1c-1 0-1 0 0 0h1v-1zm-301 2v-1h1v1h-1zm6 0-1-1 1-1 1 1-1 1zm0-2v2-2zm45 2v-1 1zm15-1zm204 1a29 29 0 0 0 1 0h-1zm-103 0v-1 1zm205 0v-1l1-1 1-1h2l1-1v1h-2l-2 1-1 2zm-246-1 1-1v1h-1c0 1 0 1 0 0zm14 0 1-1v1h-1zm1 0h-1 1zm25 0c0 1 0 1 0 0zm200 0-1-1 1 1 1 1h-1v-1zm-327 0c0-1 0-1 0 0 0 0 0 1 0 0zm6 0h1-1zm316 0zm7 0 1-1-1 1zm-330 0c-1 0-1 0 0 0zm136 0h1-1zm97 0zm18 0 1-1h2l-1 1h-2zm2 0v-1h-1v1h1zm26 0h1-2zm-260 0v-1 1zm4 0c-1 0 0 0 0 0zm113 0v-1 1zm98 0c-1-1-1-1 0 0zm3 0h1-1zm-275-1v1-1zm42 0-1-1 1 1 1 1-1-1zm29 1h1-1zm175 0h1-1zm7-1 1-1v-1c1 1 0 1-1 2l-1 1zm52 1v-1 1c-1 0-1 0 0 0zm-323-1h-1 1v1-1zm56 1 1-1-1 1zm107-1v-1l1 1H4zm32 0h1v1l-1-1zm13 1v-2h1v1l-1 1zm1-1v-1l-1 1h1zm57 1c1 0 1 0 0 0 0 0-1 0 0 0zm3 0zm114 0v-1c-1 0-1 0 0 0v1zm-321-1c0 1 0 0 0 0zm22 0c0 1 0 0 0 0zm83 0c1 0 0 0 0 0zm93 0c0 1 0 0 0 0zm8 0v1-1zm-211 0v-1h1l-1 1zm26 0zm85 0zm47 0-1-1 1-1h1v2h-1zm0-1c0-1 0-1 0 0v1-1zm-29 1c0-1 0-1 0 0zm77 0c-1 0-1 0 0 0zm63 0h1-1zm-256 0v-1l1 1h-1zm17 0 1-1v1h-1zm3 0v-1 1zm249 0h-1 1zm-42-1 1-1 1-1v2h-2zm1 0c-1 0 0 0 0 0zm83 0v1-1zm-377 0zm285 0h1-1zm-291 0zm83 0zm100 0h1-1zm-19 0zm18 0h1-1zm2 0 1-1-1 1zm5 0c-1 0-1 0 0 0zm129 0c1 0 0 0 0 0zm24 0s-1 0 0 0zm-276 0c0-1 0-1 0 0h1-1zm112 0zm83 0v-1l1 1h-1zm1 0v-1 1zm81 0v-1 1c-1 0-1 0 0 0zm-256 0s0-1 0 0c1 0 1 0 0 0zm215 0 1-2 1 1-1 1h-1zm1-1c-1 0 0 0 0 0zm83 0 1-2v1a38 38 0 0 0-1 1zm-212 0v1-1zm138 0h2l-1 1-1-1zm-40 0v-1l1 1h-1zm-267 0zm71 0c-1 0 0 0 0 0 0-1 0 0 0 0zm13 0h1-1zm87 0s-1 0 0 0zm84 0 1-1v1h-1zm48 0h1-1zm-225 0v-1 1zm215-1c0 1 0 1 0 0zm12 1h1-1s-1 0 0 0zm80 0zm-330 0v-1l1 1h-1zm103 0c0-1 0-1 0 0zm-99 0c1 0 0 0 0 0zm6 0zm15-1v1-1zm297 0v1-1zm-291 0v1-1zm-31 0zm338 0v-2 2zm-310 0h1-1zm262 0v-1 1zm-203 0v-1h1l-1 1zm14 0h1-1zm144-1h1v1l-1-1zm39 1h1-1zm2 0v-1 1c-1 0-1 0 0 0zm-343-1c0 1 0 0 0 0zm157 0v-1l1 1h-1zm138 0c0-1 0-1 0 0zm-238 0zm146 0h1-1zm176 0 1-2v1l-1 1zm-111 0c-1-1-1-1 0 0zm75 0h1-1zm4 0v-1 1h-1 1zm0 0 1-1v1h-1zm-352-1v1-1zm20 0s0-1 0 0zm131 0h1-1zm39 0s0 1 0 0zm15 0h1-1zm2 0h1-1zm-57 0zm152 0s-1 0 0 0h2-2zm-240 0v-1 1zm149 0zm183-1-1 1 1-1zm-390 1c-1-1-1-1 0 0zm148 0v-1c1 0 1 0 0 0v1zm248-1h1l-1 1v-1zm-337 0c1 0 1 0 0 0zm3 0v-1 1zm325 0c0 1 0 0 0 0zm-241 0c0-1 0-1 0 0zm2 0v-1l1-1-1 1v1zm39 0zm12 0h1-1zm146 0zm-350 0v-1 1zm1 0s-1 0 0 0zm160 0h1-1zm40 0h1-1zm15-1h-1 1c0 1 0 1 0 0zm1 0h1-1c0 1 0 1 0 0zm53 0v1-1zm81 0h1-1c0 1 0 1 0 0zm-137 0h1-1zm6 0h1-1zm1 0a29 29 0 0 0 1 0h-1zm-195 0 3-3 1 1v1h-1l-2 1h-1zm3-2h-1l1 1v-1zm32 2h1-1zm99 0h1-1zm-6 0v-1 1zm233-1v1-1zm-324 1h1-1zm138 0v-1c1 0 1 0 0 0v1zm46 0-1-2c0-2 1-2 1-1l1 1v2h-1zm0-1v-2 2zm-245 0h1-1c0 1 0 1 0 0zm158 0v1-1zm-98 0c1 1 1 1 0 0zm290 0h1-1zm47 0zm-378 0v-1 1h-1 1zm180 0h-1 2-1zm-137 0zm131 0h1-1zm197-1v-2 2c1 1 1 1 0 0zm-333 0v1-1zm297 0-1-1 1 1zm-335 0v-1 1zm35 0zm102 0v-1h1l-1 1zm229-1zm-334 0c0-1 0-1 0 0h1-1zm170-1v1-1zm-203 0 1 1-1-1zm35 0h1v1l-1-1zm2 0c1 0 1 0 0 0zm101 0h1-1zm230 0h-1 1zm-335 0v-1 1zm1 0v-1 1zm103-1h1v1l-1-1zm-99 0c0 1 0 0 0 0zm97 0v-1 1zm235 0v-1 1s0 1 0 0zm-342 0v-1 1c1 0 1 0 0 0zm-30-1a129 129 0 0 1-2-1l-1-1 2 2h1v1-1zm245 1s0-1 0 0zm-106-1v1-1zm-109 0h-1v-1l1 1zm4 0c1 0 1 0 0 0zm338 0 1-1-1 1zm-360-1v-1l2-1v1l-1 1h-1zm1 0v-1 1zm-13 0v-1l2 1h-2zm1 0v-1l-1 1h1zm371 0c0-1 0-1 0 0zm-335 0c1 0 0 0 0 0s-1 0 0 0zm170-1c1 1 1 1 0 0zm4 0h1l1-1h1l-1 1h-2zm34 0h-1 1s-1 0 0 0zm-249 0h1-1zm32 0s0-1 0 0zm179 0v-1 1zm173 0 2-2v-1c0 2-1 3-2 3h-1zm-397-1h-1 2-1zm261 0c-1 0 0 0 0 0h1c1 0 1 0 0 0h-1c0 1 0 1 0 0zm-219 0zm216 0zm-217-1h-1 1l1 1-1-1zm-41 1c0-1 0-1 0 0h1-1zm395-1v1-1zm-4 1h1-1zm-131-1h1-1zm-35 0c1-1 1-1 0 0zm-218-1h1v1l-1-1zm20 0-1-1 1-2 1 2-1 2v-1zm1-1-1-1v2l1-1zm-9 1zm1 0zm2 0zm241-2-2-2 2 2 2 2-2-2zm-257 1h-1 1v1-1zm-17 0h1-1zm1 0c0-1 0-1 0 0zm15-2v-1 2-1zm-19 0h-1 1l1 1-1-1zm2 0h-1 1l1 1-1-1zm32 1-1-1 1 1v-1c0-1 0-1 0 0v1zm377-1c1 0 1 0 0 0l-1 1 1-1zm-375 1v-1h1l-1 1zm211-1v-1h1v1h-1zm1 0v-1 1zm165 0 1 1-1-1zm-375 0 1-1h1c0 2-1 2-2 1zm-6 0c1 0 1 0 0 0zm211-1h-1 1v1-1zm-245 1h1-1zm-1-1h-1 1c0 1 0 0 0 0zm38 0v-1 1zm15 0c1 0 1 0 0 0zm2 0zm205 0v-1h1l1-1 1 1-3 1zm2-1h-1v1l1-1zm-259 1s-1 0 0 0zm-5-1 1 1-1-1zm53 1 1-1-1 1zm0-1zm-16 0c1 0 0 0 0 0zm242-1v1-1zm-240 0zm-15 0-1-1h1v1zm10 0v-1 1zm245 0v-1 1zm-241-1h-1 1v1-1zm209 0 2-1h-1l-1 1c0 1 0 1 0 0zm-246 0zm249 0 1-1v-1h1v2h-2zm1-1v1-1zm-251 1h1-1zm127 0zm-93 0 1-1-1 1zm132 0 1-1-1 1zm-130-1zm243 0zm-226 0c0-1 0-1 0 0h1-1zm196 0h1-1zm-213-2-1-2 3 1v1h-2zm1 0v-1l-1 1h1zm240 0c-1 0-1 0 0 0zm-25-1v-1 1h1-1v1zm-119 0c0 1 0 0 0 0zm-108-1c-1-3-1-3-2-2h-1l1 1 1 1c1 0 1 1-1 1l-2-1v-1h-1l-2-1 1-1s1 0 0 0v-1h1c2 1 2 0 1-1v-2h2l1 1h2l1-1-1-3v-1h1l2 1v5l1 2v2l-1 1h-1l-1-1v1l-1 1-1-1zm2-1-1-2h-1 2c0 1 0 1 0 0h1l1 1h1-1v-3l-1-1v-4l-1-1v4l-1 1v1h-2l-1-1-1-1-1 1 1 1-1 2-1-1v1l-1 1h1l1 1 1 1h1v-1l-1-1 2-1 1 2 1 1 1-1zm2 0h-1v1l1-1zm-1-1zm-9 3v-1l-2-2-1-2s-1 0 0 0l-1-1-1-1 1-1h3l1 1-2 3v1l1 1 1 1 1 1h-1zm-1-6v-1l-1-1h-2l1 3 1 1 1-2zm116 6-1-1 1 1zm123-1c0-1 0-2 1-1v1h-1zm16 0c0-1 0-1 0 0 1 0 0 0 0 0zm4-1v1-1zm1 0c1 0 0 0 0 0 0 1 0 1 0 0zm0 0-1-1 1 1zm-2-1zm-23 0 1-1-1 1h-1zm25 0zm-20-1h-1v-3l1 3c0 1 0 1 0 0zm0-1h-1l1 1v-1zm121 1v-1 1zm-106 0v-1 1h1-1zm2 0zm1-1a29 29 0 0 0 0 1v-1zm-5 0s-1 0 0 0zm2 0zm-5 0h1-1zm1 0h1-1zm1-1h1-1zm5 0h1-1c-1 0 0 0 0 0zm1 0h1-1zm103 0zm-105 0zm-234 0h1-1zm-26 0v-1h-1l1 1zm263 0v-1l1 1h-1zm3 0c0-1 0-1 0 0zm-122 0h1-1zm117-1h1-1c0 1 0 1 0 0zm-116 0h1-1zm121 0h1-1zm-121 0v-1 1zm-149 0c0-1 0-1 0 0zm-1-1s1 0 0 0zm9-1v-1h1l1 1h-2zm1-1h-1l1 1v-1zm259 1c1 0 1 0 0 0s-1 0 0 0zm-270 0c-1-1-1-1 0 0zm245 0v-1h1-1v1zm-217 0zm237-1v1-1zm2 0c0 1 0 1 0 0zm1 0h1-1zm1 0h-1v-1l1 1c1 0 1 0 0 0zm-121 0zm118 0s-1 0 0 0zm1 0v-1 1s-1 0 0 0zm3-1 1 1-1-1zm116 0h1-1zm-375 0 1-1v-3l1-1v-2l2-1v2l-1 1v2l1 2-2 1h-2zm3-1 1-1-1-1-1-1 1-1v-2 1l-1 1-1 1 1 1v3l1-1zm136 0h1-1l-1 1 1-1zm118 1c0-1 0-1 0 0zm-244-1h-1 1v1-1zm-21 0h-1l4-2h1v-2l1-1v-1l1-1 1 1c0 2 0 2-2 2-1 0-1 0 0 0l1 1v1l-1 1 1 1h-1a433 433 0 0 0-5 0zm5 0v-1h-4c-1 0-2 0-1 1h5zm0-2v-1h-1l1 1s1 0 0 0zm1-3v-1 2-1zm237 5c0 1 0 0 0 0zm25 0c0 1 0 1 0 0zm115 0h1-1zm-363 0v-1 1zm249 0h1c1 0 1 0 0 0h-1zm-4 0s0-1 0 0zm119-1 1-1v1h-1zm-386 0v-2l2 1-1 1h-1zm1-1h-1 1zm-7 0v1-1zm255 0-1-1 1 1h1c1-1 1-1 0 0h-1zm136 0v-1 1h1-1zm-124 0h-1v-1h1l1 1h-1zm-268-1 1 1-1-1zm264 0v1-1zm1 0h1v1l-1-1zm5 0h1l-1 1v-1zm-16 0h1-1zm5 0zm-1 0c1 0 0 0 0 0zm2 0zm133 0c0-1 0-1 0 0zm-1-1c0 1 0 0 0 0zm-393-1h-1 1v1-1zm27 0v-1 1zm-13-1c0-1 0-1 0 0zm13-1v-1 1zm-15-1 2-2 1 1h-1v1h-2zm1 0 1-1v-1l-2 2h1zm2 0v-1h2l-1 1h-1zm1 0 1-1h-1v1zm-11 0v-1l2-1h1-1l-1-1v-2l2 1 1 1v2l-2 1h-2zm2-1c1 0 1 0 0 0h-1 1zm2-1v-1h-1l-2-1v1h1l1 1v1l1-1zm-11 1-1-1h-1v-2h1l2 1v1h1l-2 1zm1-1v1-1zm-1-1h-1c-1 0 0 0 0 0h1zm28 1v1-1zm-31 0zm7 0 1-1 1 1h-2zm2 0-1-1v1h1zm-10-1h1-1zm30 0h1-1zm-30-1v-1l-1-1 1 1v1zm29 0zm-6-1h1-1zm0 0zm-9-1h2-2zm-6-2-1-1 1 1 1 1-1-1zm-2-2 1 1-1-1zm-6-1v1-1zm1 0h1-1zm2 0c1 0 0 0 0 0zm-4-3h1-1z" transform="translate(191 -330)"/><path style="fill:#4d3d55;stroke-width:.176389" d="M165 544h1-1zm3-1v-1c1 0 1 0 0 0v1zm1-1h1-1zm-19-1zm22-4c-1 0-1 0 0 0 0-1 0-1 0 0h3-3zm3 0h1-1zm-43 0 1-1h2-2l-1 1zm-1-1h-1l-2-1c-1-1-1-1 2-1a239 239 0 0 0 2 2c-1 0-1 0 0 0h-1zm39 0h1-1zm9 0v-1 1h-1 1zm-43-1v1-1zm47 0 1-1s0-1 0 0l-1 1zm-2-1c-1 0-1 0 0 0v1-1zm-6 0v-1c-1 0-1 0 0 0h2l-1 1h-1zm-49-1v-1 1l1 1-1-1zm59-1 2-2h1l-1 1-1 1h-1zm-12 1v-1 1zm0-1h1c0-1 0-1 0 0h-1zm-49-1h-1l-3-2-1 1h-1v-1h4l1 1 1 1zm56 0v-2h1v-2l-1 1-1-1v-1h2v1h2v3h-2l-1 1zm2-2v-1 1s0 1 0 0zm-53 0v-1c0-1 0-1 0 0l1 1v1zm48-1-1-1 1-1v2c0 1 0 1 0 0zm-3 0h1-1zm17-2c0 1 0 1 0 0zm-68 0h1-1zm3-1h1v1l-1-1zm52 0zm5 0h1-1zm8 0zm-1-1 1 1-1-1zm-6 0v-1 1zm2-2 1-1v1h-1zm-98-1-1-1h5-1l-1 1h-2zm305-1 1 1-1-1zm-308 0h1-1zm8 0 4-2h1l-1 1-1-1-1 1-2 1c-1 0-1 0 0 0zm7-1v-1c1 0 1 0 0 0v1zm-23-1h1-1zm58 0 1-1v-1h-3l-1 1h-3l1-1h1v1l1-1v-2h1c0 2 1 2 2 2l1-1h1l1 1v1h1c0 1 0 1 0 0l1-1v-1l1 2v1h1l2-1h2-2l-1 1h-8zm-60 0s1 0 0 0zm31 0h2l1-1v-2l1 1v1l-1 1h-3zm-4 0s-1 0 0 0zm1-1zm-29 1v-1h1v1h-1zm38 0c1 0 0 0 0 0zm13 0 1-1v1h-1zm22-1h1v-1h1l1-1 1-1-1 3c-1 0 0 0 0 0h1-4zm-77 0s-1 0 0 0zm12 0zm45 0h1-1zm19 0h1-1zm-55 0h-1c-1-1 0-1 1-1l1-1v-1h1v3h-2zm-15-2c0-1 0-2 1-1a20 20 0 0 1-1 1zm48 1v1-1zm28 0v-2l1 1h1l1 1c1 0 1 0 0 0h-3c-1 1-1 1 0 0zm-38 0h1-1zm44 0h1-1s-1 0 0 0zm-47 0h1v-1 1h-1zm2 0zm282-3v-1a38 38 0 0 1 0 1zm-306 3v-2h2c0 1 0 2-1 1l-1 1zm16-1v1-1zm52 0h1v1l-1-1zm-23 0v-1l1 1h-1zm26 0h1-1c0 1 0 0 0 0zm-79 0-4-1h1l1-1h-1v-2h4-3 4-1l-1 1v1h-1v1l1 1zm0-3h-1 1zm32 3v-3l1 1v2h-1zm-61 0h1-1zm-1 0c-1 0-1 0 0 0zm90-1h-3l1-1h2l1 1h-1zm-91 0h-1l-1-1h-1 2l1 1c0 1 0 1 0 0zm13 0-2-2h-2l-1-1h2l-1-1h-1v-1l1 1h1l1 1h-1 1v1h2l1-1h-1l-1-1h1l2-1h2l1 1v1l1 1-1 1c1 1 0 1-1 1 0 1 0 1 0 0l-1-1-2 1c-1 0-1 0 0 0v1l-1-1zm2-1v-2l-1 2h1zm3-2h-2 2zm57 4v-1 1zm37 0v-1 1h-1zm-14-1zm22 0v-2h1l1 1-1 1h-1zm0 0zm-67-1v-1h1-1v1l1 1-1-1zm5 1v-1h1l-1-1h-2v-1h2l1 1 1 1-1 1h-1zm-19-1h1-1v1-1zm-35 0v-1 1zm42 0v1-1zm72 1 1-1v1h-1zm-75-1h1-1zm69 0zm224 0v-1l1 1h-1zm-292 0h1-1zm-62-1c-1 0-1 0 0 0l4-1-1-1v-2l-1-2h-1l-1 1v1h-3l-1-1h-1l1-3 2-1 2-1h1l1 2 1 2 1 1v-1c-1-1-1-1 1-1h2l1 3-1 1v1h-1l1-1 1-1v-1l-1-1-1-1c-1 0-2 0-1 1l-1 2h-1v2c2 1 1 2 0 2h-3zm-1-4 1-1v-1l1-1 1-1-1-1-1 1-1 2-1 1-1 1 2 1v-1zm-1-2v-1 1l-1 1 1-1zm1-2-1-1v1h1zm14 8v1-1zm118 0v1-1zm-120 0h1-1zm28 0zm101 0h1-1zm12 0 1-1v-1l1 1h1v1h-3zm169 0zm8 0h1-1zm-194 0 1-1h1c-1 0-1 0 0 0l-1 1a170 170 0 0 0-1 0zm13 0v-1 1zm3 0v-1 1zm180-1-1 1 1-1zm3 1c1 0 0 0 0 0zm-346-1h-2v-1h-3l2-1h1v1h3l-1 1s0 1 0 0zm145 0h1-1zm-115 0-1-1v-3l3-2v1l2 1s1 0 0 0h-1v1l-2 1c-1 0-2 0-1 1l1 1h1l3-1h-1l-1 1h-3zm62 0h1-1s-1 0 0 0zm18 0h1-1zm4 0h1-1zm29 0h1-1zm25 0zm2 0h1-2l-2-1 3-1h1v1l-1 1zm175 0v-1 1zm-267 0 1-1 1-1 1 1-1 1h-2zm3-1zm70 1zm3 0 1-1v1h-1zm7-1c1 0 0 0 0 0zm-17 0v-1 1zm-104 0s1 0 0 0zm35 0h1-1zm272 0v-1 1zm-324-1c-2-2-2-1-1-2v-1l1-1 2-1c0 1 0 1 0 0h1-1l1 1h1l1 2-1 2-2 1-2-1zm4 0v-3h-2l-1 1-1 1 2 1h2zm115 0v1-1zM8 509h1-1zm11 0v-1l1-1-1-1v-2h5v1l-1 2-2 1h-1v1h-1zm4-2v-3h-2l1 1-1 1 1 1h1zm-3-2zm164 4h1-1zm84 0zm97 0zm9 0h1-1zm-318 0s1 0 0 0zm317 0v-1 1h1-1zm-5 0 1-1-1 1zm15 0v-1c1 0 1 0 0 0v1zm-370-1h2-2zm150 0v1-1zm204 0v1-1zm11 0s-1 0 0 0zm-361 0h1-1zm367-1s0-1 0 0v1-1zm-368 0v-1l1 1h-1zm353 0v-1 1c0 1 0 1 0 0zm-118 0 1-1v1h-1zm-49-1v-2h1c0-1 0-1 0 0l1 1h-1l-1 1zm-191 0zm196 0-1-1h-1v-1c-1 0-1 0 0 0h2l-1 1h4v-2h-1l2-1 1 1h1-1l-1 1h-1v1l-3 1zm62 0v-1 1zm-17-1c-1 0-1 0 0 0zm-239 0-1-1v-3c1-1 4 0 4 1v3h-3zm2 0 1-3-1-1h-1v2l-1 1v1h2zm26 0h1-1zm315-1c1 0 0 0 0 0v1-1zm-378 0h1-1s-1 0 0 0zm61 0c1 0 0 0 0 0zm-1 0v-1l1 1h-1zm9 0zm223 0zm-285 0c-1 0-1 0 0 0zm7 0h1-1zm60 0h1-1zm-79-1h-3v-1h-1c0 1 0 0 0 0l-1-1h1l1-2h-1l-1 1-1 1-2-1h-2v-2l-2-1v-1h1a82 82 0 0 1 4 1h3c0-1 0-1 0 0h-3l-1-1v-1l-1 1-1-1v-1h-1l2-1h1v1l2 1 3 1 1 1v-1l1-1v-2h-1l-2 1-1-2h-1v-1c0-1 0-2 1-1h1l3 2 1 1h1c-1 0-1 0 0 0l-1 2-1 3h2v-2h1l1 1-1 1-1 1v1h-2v1l1 1 1 1h-1zm2-5v-1h-1v1h1zm8 5h1-1zm22 0-2-1v-3h2l2 2-1 2H5zm1-1v-2l-1 1H3l2 2 1-1zm202 1zm-211 0v-1l1-1v-1h-2l-3-1-1-1-1 1-3 1-1-1v-3h3l3 2 4-1h-5l2-2h6v1l1 3v2H0l-1 1-1 1h-1zm4-3v-1l-1-1-1-1v3l1 1 1-1zm-3-2h-3l3 1h1l-1-1zm-9 1c2-1 3-1 1-2h-1l-1 1h-1l1 2 1-1zm47 3h-1 1v1-1zm322 0zm10-1-1-1 1 1zm-333-1v1-1zm233 0zm-307 0zm-4-1c1 0 0 0 0 0s-1 0 0 0zm-1 0c-1 0-1 0 0 0zm319 0c1 0 1 0 0 0zm-322-1c0 1 0 1 0 0zm28 0v-1h3l-1 1h-2zm-5 0 1-1v-1l1 1v1h-2zm400 0h1-1zM8 498zm369 0h1-1zm-7 0zM4 497l-1-1h1l1 1H4zm29 0zm334 0h2-2zm-414 0h1c0-1 0-1 0 0h-1zm90 0h1-1zm-1 0h1-1zm331 0v-1l1 1h-1zm-419-1c1-1 1-1 0 0v-1h1v1h-1zm415 0c1 0 0 0 0 0zm7 0c-1 0-1 0 0 0zm1 0h1-1zm18-1v-1 1c0 1 0 1 0 0zm-159 0h1v1l-1-1zm-204 0zm-53 0-2-1v-1c0-2 1-2 3-1l1 1-1 2h-1zm0-1 1-1h-1l-1 1h1zm-1-1zm-23 1v-1h-2l-1 1s-1 0 0 0v-1h-2l-1-1h1c0 1 0 1 0 0h2v-3h1l1 1h2v1-1h1c0 1 0 1 0 0h1v1l-1 1-1 1v1l-1 1zm-1-3-1-1v1l1 1v-1zm2 0h-1 1zm9 3h1v1l-1-1zm1 0h1-1zm36-1 1 1-1-1zm2 1c1 0 0 0 0 0s-1 0 0 0zm1-1h1-1v1-1zm359 0v1-1zm-405 0v-4h3a27 27 0 0 1 1 2v2h-4zm3 0-1-2-1-1v2l-1 1h3zm409 0h1v1l-1-1zm-375 0zm370 0zm-297 0s-1 0 0 0c0 0 1 0 0 0zm-80 0h1-1zm39 0h1-1s-1 0 0 0zm19 0h1c1 0 0 0 0 0h-1zm-23-1 1 1-1-1zm44 0c0 1 0 1 0 0zm-75 0c0 1 0 0 0 0zm-29 0h1-1zm-20 0h1-1s-1 0 0 0zm38 0c-1-1-1-1 0 0zm-44-1v1-1zm427 0v1-1zm-426 0h1-1zm80 0v-1l1 1h-1zm-9-1H9v-1l1-1v1l1-1h1v2l-1 1h-1v-1zm5 1c1 0 0 0 0 0zm351-1zm27 0v-1 1zm-86-1v1-1zm59 0 1 1-1-1zm-428 0zm42 0v-1 1zm28-1v1-1zm378 1 1-1v1h-1zm-422-1zm-19 0c1 0 1 0 0 0zm420 0-1-1 1 1zm-51 0v-1 1zm-350-1h1v1l-1-1zm344 0c0 1 0 0 0 0zm-1 0h1-1zm-329-1c0 1 0 1 0 0zm338 0zm-369 0h1v-1h1v1h-2zm360 0 1-1v1h-1zm-330-1h1-1zm418-1v-1 1c0 1 0 0 0 0zm-426 0h1-1zm2 0zm-3 0zm164 0 1-1v1h-1zm183-1c0-1 0-1 0 0zm-7 0zm-351-1h-1 1v1-1zm9 1-1-1 1 1zm343 0v-1 1zm-362-1s0 1 0 0zm18 0-1-1 1 1zm168-1v1-1zm181 0v1-1zm-353 0zm-9 0c1 0 0 0 0 0s-1 0 0 0zm408-1c0 1 0 0 0 0zm4 0c0-1 0-1 0 0-1 0-1 0 0 0zm22 0zm-72 0h1c0-1 0-1 0 0h-1zm48 0s0-1 0 0h1-1zm-229 0c0-1 0-1 0 0zm157-1s0-1 0 0 0 1 0 0zm20 0h1-1v1-1zm51 1zm25-1v1-1zm-2 0v-1l1 1h-1zm-351 0v-1c-1 0-1 0 0 0v1zm326 0h1-1zm26-1c-1 0-1 0 0 0zm-96 0h1-1zm21 0h-1s0-1 0 0h1c1-1 1-1 0 0zm5-1c-1 0-1 0 0 0v1zm-387 0v1-1zm439 1v-1 1zm-1-1c0 1 0 1 0 0zm-432 0v-1h-1l2 1h-1zm3 0c0 1 0 0 0 0zm448 0h1-1zm-28 0v-1l1 1h-1zm2 0zm-236 0h1-1zm166 0h1-1zm-165 0v-3l1-2 1-1v-2h2v1l1 1v4h-2c0 1 0 1 0 0h1v-2l-1-1h-1l-1 3-1 2zm38 0v-1 1zm-217-2v-1a21 21 0 0 1 0 1zm215 2s0-1 0 0h1-1zm130 0v-1h-1 1v1zm70-1v1-1zm-424 0v-1c1 0 1 0 0 0v-1h2v1l-1 1h-1zm-3 0-1-1h-3v-1l-1-1c-1 0-1 0 0 0 2 0 2-1 2-3l-1-2h-1l-1-1 1-1 2 2h1v4l1 2 1 2zm188 0v-1 1zm172 0h1-1zm70 0s-1 0 0 0zm-51-1v1-1zm73 0h1l-1 1v-1zm-14 0zm24 0v-1 1zm-27 0h1-1zm-443 0c0-1 0-1 0 0zm433 0v-1 1zm28 0s0-1 0 0zm-223-1 1-1v1l-1 1v-1zm-263 0h1-1zm461 0h1-1zm8 0h1-1zm-56 0zm45 0h1-1zm-207-1 1-1v2l-1-1zm-252 1h1-1zm457-1h1-1c0 1 0 1 0 0zm3 0zm-200 0h1v-1 1h-1zm197 0c0-1 0-1 0 0zm-200 0h1-1zm138 0c0-1 0 0 0 0zm66 0v-1 1c-1 0 0 0 0 0zm-2 0zm-413-1c0 1 0 1 0 0zm450 0v1-1zm-239 0zm10-1h-1 1l1 1-1-1zm194 1zm-436 0-1-1-1 1v-1l-1-1-1-1-2-1v-1h-2v-1l-1-1v-1h1l1 1 2 1 1 1v1l2 1 2 1h1v1l-1 1zm1 0v-1l1-1 1 1v1h-2zm21-1v-1 1c0 1 0 0 0 0zm442 0-5-2-3-1-1-2-3-1h-2 2l3 1 2 2h2l5 2 1 1h2l2-1 2 1-1-1h-2l-1 1-1 1-2-1zm-269 0v1-1zm5 0-1-1v-1h1l1 1h-1v1zm35 0h1-1zm6 0zm-15 0c1-1 1-1 0 0zm207 0v-1 1c1 0 1 0 0 0zm2-1a29 29 0 0 0 0 1v-1zm-203 0h1-1zm-26-1v-1 2-1zm229 1zm-1 0zm-196-1h1-1zm189 0h1-1zm-187 0v-1 1zm197-1h1v1l-1-1zm-14 0c1 0 1 0 0 0zm44 0h1-1zm4 0-1-1-1-1h-3l-1 1c0 1 0 1 0 0h-1l1-1v-1h2v-1a3 3 0 0 0-3-3v4l-1-1v-1l-1-1-2-2c-1-1-1-1-1 1l1 2h1v1l-3-1v-3l-1-1c1-1 0-1-1-1h-1v3l-1-1v1h1-2l-2-1h-3v1l-1-1-1-2-1-2-1-1-1 2 2 2 1 1-5-1-1-1 1 1 2-1-1-1h-2v1s-1 0 0 0a36 36 0 0 0-2-1h-14l-2-1h-2c-3-1-6 0-8 1h-1 1l2-1h1v-1l1-2 1-1h1l-1-1v-1l-1-1v1l-1 2h-2v2l-1-1h-1v2h-3l-1 1-1 1h-2l-2 1h-2l-1 1 4 1 2 1 1-1 1-1 2 1h2l6-1a107 107 0 0 0 16 3l-1-1-1-1h3l2 1 1 1 1 1a107 107 0 0 0 8 2h2l-1-1-1-1 2 1h2v1h-8a126 126 0 0 0-9-3h-10l-1-1a383 383 0 0 1-11-1h-5v1h-3l-4-1-1-1v-1h-1l1-1v-1h-1l-1-2h3l1-1h3l4-3v1l1 1h-1l-1 1-1 2h-1l1 1 3-1 1-1-1-1v-3l-1-2v-1l2-1h2v-1l1-1h1v-1l1 2h1l1-1 1 1 1-1v4h1v1h1l1 1h1l-1-2v-1l2 1 1 1 1-1h1l2 1 1-1-1-1c-1 0-1 0 0 0l1-1h1l1 1h2l1 1h1v-1h4l2 1 1-1a233 233 0 0 1 5 1l2 2-1 1v1h2v2l2 1v-1c-1 0-1-1 0 0l1 1 1 1h2l1 1 1 1 1 1 2 1 1 1 1-1 1 1c2 1 2 1 1-1l-3-3 1-1 2 2 2 2 1 1h1l1 1h1v1h-1c-2 0-2 0-1 2h2v-1 1l1 3h-1zm-3-3v-1l-1-1v2h1zm-15-6v-1l-1-1v-1h-1v-1l-2-2-2-1v1l1 1 2 4 2 2 1-1zm-2 0-1-1v1h1zm-2-2-1-2c-1-1-1-2-3-1h-2l1 1 1 1 1 1h1l-3-3h1c2 0 2 1 3 2l2 2-1-1zm-10 0-1-1v-2h-2v-1h1c1-1 1-1-1-1h-2v1h1c1 0 1 1-1 1l-1 2v1h5v1-1h1zm-35 0v-1l-1 1h1zm26-1 1-1v1l1 1v-2l-1-1h-1l-1 2 1 1v-1zm-30 0h-1c-1 0-1 0 0 0h1zm26 0-1-1h-1l-1 1 3 1zm-4 0-1-1h-2l1 1h2zm20 0 1-1-2 1h1zm-19-1v-2h-2v1l1 1h1zm-5 0-1-1v1h1zm-13 0-1-1v1h1zm22-1-1-1h-1c-1 0-1 0 0 0l1 1h1zm-18-1c1 0 1 0 0 0h-1 1zm19 0-1-1h-2v1h3zm12 0-1-2-2-1v1l2 2h1zm1 0v-1h-1v-1h-1l1 2h1zm2-1c0-1 0 0 0 0h3-2v-1h3-2l-1-1h4l-1-1h-1l-4-1v1l1 1h-1l-1-1v-1h-2l1 2 1 1c-1 0-1 0 0 0v1l1 1 1-1zm-38 1h-1 1zm12 0c0-1 0 0 0 0zm15 0v-1h-2l2 1zm-21-1v-1l-1-1c-1 0-1-1 1-1 0 0 1 0 0 0h-3v1l2 1 1 1zm22 0-2-1v1h2zm-18 0v-3h-1l-1 1h-3l3 1a124 124 0 0 1 2 1zm13-1v-1h-2l-1-1v2h3zm-6 0-2-1-1-1h-2l1 1 1 2h1l2-1zm15 0-1-1-1 1a100 100 0 0 1-1 0h3zm-7 0-1-1v1h1zm9-1-3-2 1 1 2 1zm-3-1h-1l1 1v-1zm-5 0-1-1 1 1zm-17-1v-1l-1-1h-1l1 2h1zm3 0v-2l-1-1-1 1c-1 2 0 2 1 2h1zm-395 19v1-1zm440 1 1-1 1 1h-2zm-223-1zm-237 0v-1 1zm-2-1c-1 0-1 0 0 0 0 1 0 1 0 0zm201 1v-1h-2l1-1h1v-3a37 37 0 0 1-1-4l1 1a127 127 0 0 0 1 4l1 1-1 1-1 2zm218 0v-1 1zm-222-1s0-1 0 0zm30 0h-1 1l1-1v1h-1zm6 0zm-239-1v-1l-1-1-1-1h1l-2-2-2-1h-2v1l1 1 3 1h-1l-3-1-4-3-2-1v-1c-1-2-1-2 1-1l2 1h1-1v-2h1l1 1 2 1 1 2h1v-1l1-1h1l2 1 1 2 1 1-1 3v2h-1zm1-3v-2c-1-2-1-1-1 1v1h1zm-2-2v-1l-1 1h1zm-4-1-1-1h-1l2 1h1zm3-1h-1 1zm230 7v-1 1zm17 0c0-1 0-1 0 0zm-2-1v1-1zm5 0v-1h-1v-2l2 2v2l-1-1zm-254 0h1-1zm211 0v-1h1l-1 1zm40-1v1-1zm169 0zm-178-1 1-1v1h-1zm241-1v1-1zm-68 0h1v1l-1-1zm-419 0zm253 0-1-1 1 1zm160 0c1 0 0 0 0 0zm-376-1h1v1l-1-1zm217 1 1-1v1h-1zm190-1 2-1v1h-2zm-229 0-1-1h1l1 1h-1zm-203 0v-2h2v2h-2zm243-1v-1 1c0 1 0 1 0 0zm-257 0zm259-1h2c0-1 1-1 0 0h-2zm229 0 1-1v1h-1zm-79 0c0-1 0-1 0 0zm-152 0zm169 0-1-1h3v1h-2zm-167-1c0 1 0 1 0 0zm-262 0h1-1zm257 0zm-33 0zm20 0 1-1v-1h-1l-1-1-1 1h-1l-1-1h1v-1l-1-2-2 1v-1l-1-1-1-1-1-1h1v-1l1-1 1-1v-2l1 1 1 1h1l1 1v2h2v-1h1v2l-1 1h-2l1 1a19610 19610 0 0 1 3 3l-1 3h-1zm0-3-3-2 1 1 2 1zm-4-4v-4h-1l-2 2v1l1 1 1 1 1-1zm5-1v-1l-1-1v1h-2l-1 1h4zm-23 7zm-67 0v-1 1zm64 0zm213 0zm-417 0-1-1c0 1 0 1 0 0l1-1h1l1 2h-2zm207 0h1-1zm40 0h1-1zm-87-1 1-1-1 1-1 1zm-177 0 1 1-1-1zm392 0h1-1l-1-2v-1h1l2 1 1 2c0 1 0 0 0 0l-2-1v1h-1zm19 0 1-1h4l1-1v3-1h-6zm4 0 1 1-1-1zm-403 0v-1l-2-1h3l1 1v1h-2zm212 0h1-1zm167 0h-1v-1l-1-1h1l1 2zm-168 0h1-1zm36 0h-1 1zm148 0v-1h2-1v1h-1zm-231-1v-1 1zm81 0h1-1zm-252 0v-1 1c1 1 0 1 0 0zm484 0-1-1h2l1 1h-2zm4 0v-1 1zm-447-1v1-1zm373 0 1-1 1 1h-2c0 1 0 0 0 0zm-109 0-1-1-4-2v-1l1-1v-1h-2l-1-1v-1h3v-1 1h1v1l1-1v-1l1 1-1 2h-1v1l2-1 1-1v-2l1 2-1 2-1 1-1 2 1 1h5l2-1v-1h-1l1-1v-1h1l1 1-1 2-2 1h-1l-2 1h-2zm-3-3v-1l-1 1 1 1v-1zm56 2h1v1l-1-1zm41 1 3-2 1 1h-1c0 1 0 1 0 0h-1l-2 1zm-14 0v-1h1v1h-1zm-228-1h2l-2 1v-1zm67 1-2-1-2-1h-1l-1-1c0-1 0-1 0 0l-1 1-1-1h-1v-1c0 1 0 0 0 0l-2-2h-1v1h-1v-3h-1l-1 1-1 1-1 1-1-1v-1l1 1h1v-3h2v-2l1-3 2-2v3l1-2h2v-3h-2c-1 0-2 0-1-1h1c0 1 1 0 0 0v-3h2l1-1-1-2v-1l2 1 1 2-1 1-1 1c0-1 0-1 0 0l-1 1c-1 0-1 0 0 0l2-1h1v1l-1 1v3h-1l1 2v1h1v-1l1-3 1-1v-1h2v-1l-1-2-1-1a112 112 0 0 1-1-1h3l1 1h1-1v3l1 1h2v1l1-1h6v-1c-1 0-1 0 0 0h1l1-2c0-1 1-1 1 1v3h-1l-1 1h-4l-1 2v-1l1-1h4l-1-2h-5v1h-2l-2-1h-1l-1 1-2 1-1 1v1l-1 2h-1l-1 1h-1c-1 1-1 2 1 2l1-1h2l2-1 1-1-1-2v-1h3l1-1 1 1 1 1h-1l-1-1-1 1-2 1v3c1 0 1 0 0 0h-1v1l1 1v-1l1 1v2l1 2v4l-1 1zm0-2v-2l-2-3-1 2v1c-1-1-1 0-1 1 0 2 0 2 2 2h1zm-4-2v-1l1-2c0 1 0 1 0 0s0-1 0 0h1v-2h-1l1-2h-2v1h-4v1l2 1v1h-1v1h2l-1 1 1 1h1zm-4-3-1-3-1 3h2zm-3-2v-1h-1v1h1zm1 0v-2l-1 1 1 1s-1 0 0 0zm-1-2 1-1h-1l-1 1h1zm4-1-1-1h-1v1h2zm0-6c1-1 0-1-1-1h-1l2 1zm6-4-1-2v1l1 1zm28 22c1 0 0 0 0 0zm140-1v-1 1c0 1 0 0 0 0zm-35 0v1-1zm54 0v-2l-1-3c0-2 0-2 1-1v3l1 2-1 1zm-409 0a96 96 0 0 0-3-1l1-1v-2l-1-1-1-2-1-1v-1l-1-1-1 1 1 1v1h-1l-3-1-1-1-2-2-1-2-3-2-2-2a376 376 0 0 1-14-25h2l2-1v-1l1 1h2v1l-2 1c-1 0-1 0 0 0v-1h-3l-2 1h3c0 1 0 1 0 0v3l1 1v-1s0-1 0 0l1-1v2l1 1 3 1v1h2l-1 1-1 1 1 2v2l4 1h3v1h3l1 1 1 4-1 1h-1l-1 1-1-1 1-1h2v-1h-2l-1 1v-2l1-1-1-1h-1l-2 1v-2l-1 1-2 1v1l1 1 1 2 2 2 1 1h1v-1h4l1 1v1c0-1 0-1 0 0s0 1 0 0v2h1l4 2v3h2l1-1 1 1v3l1 1-1 2v1l1 1 1-1-1-1h3v1c0 2 0 2-3 2zm3-1v-1l-2-1v3h1l1-1zm-5-5v-1l-1-1v1c0 1 0 2 1 1zm-8-4-1-1v1h1zm0-1v-1h-3l1 1h2zm1-1-1-1h-1l-1-1v-1l-1-1-1 1c-1 0-1 1 1 2l1 1h3zm-2-3v-1h-1v2h1v-1zm-10-9 2-1-1-1-1 1-2 1h2zm5-1v-1l-1-1v2h1zm-9-4v-1l-1-1h-1l-1-1 1 3h2zm0-3c1-1 0-2-2-3h-2l1 1 1 2h2zm349 32h1-1zm-173 0v-1 1zm172 0v-1 1c-1 0 0 0 0 0zm79 0h1c0-1 0-1 0 0h-1zm-160-1-1-1h2l2 1h-3zm169 0 1-1h-1v-1h2l1 1-2 2h-1c0-1 0-1 0 0v-1zm-90 0h1-1zm33 0v1-1zm-359-1c-3-1-3-2-3-3v-1l1 1 2 1 1 2v1l-1-1zm0-1h1l-1-1h-2v1h2zm402 2zm-73 0c-1 0-1 0 0 0zm-2 0h1-1zm-98-1v1-1zm134 0v1-1zm38 0h-1l1-1v-2l1 1h3l-2 2h-1l-1 1v-1zm6 0 1-1v1c0 1 0 1 0 0h-1l-1 1zm-235 0h1-1zm5 0zm158 0c-1 0-1 0 0 0zm-169 0 1-2v2h-1zm12 0c0-1 0-1 0 0zm0-1h1v1l-1-1zm155 1s-1 0 0 0zm-178 0v-1 1zm272 0 1-1-1 1zm-266-1c0 1 0 1 0 0zm228 0v-1 1h1-1zm-176 0h1-1zm35-1h1-1zm69 0c0 1 0 0 0 0zm-174 0h1c1 0 1 0 0 0h-1zm108 0-1-1v-2h1l1 1-1 2zm101 0h1-1zm-20 0h1l1-1h1l-2 1h-1zm28 0a29 29 0 0 0 1 0h-1zm40 0zm18 0zm-189 0zm116 0h-1c-2-1-3-1-1-1h1v-1h-2l-3-1h-2l-1 1v-1l-1 1h-4v1-1l-1-1h1a93 93 0 0 1 3 0l1-1h2a110 110 0 0 0 4 1v-2h1l1-1 2 2h2l1-1 1 1 1 1 1 1 2 2-1-1h-1l-1-1-4-1h-2l1 2v1zm-1-3-1-1-1-1h-1l1 1 1 1h1zm73 3v-1 1s1 0 0 0zm4 0h1-1zm-26-1v1-1zm1 1v-1l1 1h-1zm-268-1v1-1zm295 1v-1 1zm-269-1c1 0 1 0 0 0 0 0 0 1 0 0zm172 0v-1l1-1v2h-1zm-334 0h1-1zm158 0h1-1zm27 0v-1 1zm162 0h2-2zm49 0c0-1 0-1 0 0 1 0 1 0 0 0zm-74-1v1-1zm152 1h1-1zm-318 0 1-1-1 1zm238-1 1 1-1-1zm-412 0c1 0 0 0 0 0zm280 0v-1h2-1c0 1 0 1 0 0l-1 1zm60 0v-1l1 1h-1zm-267 0c0-1 0-1 0 0zm92-1-1-1 1 1 1 1-1-1zm221 1c0-1 0-1 0 0zm-219-1-1 1 1-1zm12 0v-1 2zm94 0h1-1zm216 1h1c0-1 0-1 0 0h-1zm-219-1-1-1h1l1 1h-1zm163 0-1-2h1l1 2h-1c0 1 0 1 0 0zm-273 0h1-1zm359 0zm-241 0-2-2h1l2 2h-1zm134 0v-1l-2-2-1-1h-2l-2 1v-1h2l2 1h2l-2-1-1-1 1-1 2 2 2 2v2h-1zm39 0zm-358 0v-1 1zm83 0 1-1-1 1zm179 0c1 0 1 0 0 0zm69 0 1-1v1h-1zm-352-1v-1 1c0 1 0 0 0 0zm163 1v-1h1l-1 1zm45-1-2-2v-1l1 1c1 0 1 0 0 0l1 2c0 1 0 1 0 0zm0-2h-1 1zm147 3v-1 1zm-267-1c0 1 0 0 0 0zm224 0-1-1 1 1v1-1zm54 0v-1 1l1 1-1-1zm-439-1-1-1v-1 1l1 1 1 1-1-1zm97 1h1-1zm140 0v-1l1-1h1l-2 2zm203 0zm33 0h1-1zm16 0zm-153 0c-1 0-1 0 0 0zm-71 0h1-1zm-69-1v-1h1l1-1v-1l1 2-3 2v-1zm278 1s1 0 0 0zm9 0zm-1-1c0 1 0 1 0 0zm-389 0zm43 0h1-1zm225 0-1-1v-1h2l1 1v1h-2zm19 0h1c1 0 0 0 0 0h-1zm56 0v-1l1 1h-1zm4 0h1-1zm-263 0zm-162-1h-1 1l1 1-1-1zm187 1-1-1h1v1zm150 0h1-1zm103-1v1-1zm27 1 1-1-1 1zm-412-1h1v1l-1-1zm134 0zm234 0-1-1h1l1 1h-1zm-167 0 1-1-1 1zm215 0zm3 0zm-411 0zm406 0v-1 1zm4 0s0-1 0 0c1 0 0 0 0 0zm-488-1h-1 1v1-1zm357 0zm6 0h1s0 1 0 0h-1zm123 0c0 1 0 1 0 0zm-345 0h1-1zm5 0c-1 0-1 0 0 0h1-1zm119 0v-1 1zm-163 0v-1 1zm51 0c0-1 0-1 0 0zm123 0v-3h-1v-2l2 3 1 2c1 0 1 0 0 0h-2zm99 0s-1 0 0 0zm-305-1s0-1 0 0 0 1 0 0zm385 1v-1c1 0 1 0 0 0v1zm-259-1 1-1v1h-1zm209 0h1l-1 1v-1zm32-1v-1c0-1 0-1 0 0l1-1v2c-1 2-1 2-1 0zm49 1v1-1zm33 0v1-1zM3 440zm244 0zm34 0 1-1h2-1v1h-2zm9 0h-1 1zm76 0a322 322 0 0 0-4-3h1v-2h2l2 1a5773 5773 0 0 1 5 3v1h-6zm5-1v-1h-1l-2 1h3zm-4 0v-1l-2-1h-2l1 2h3zm1-1-1-1v1h1zm-3-1-1-1v1h1zm-296 3v-2l3-3h1l-1 2-2 2-1 1zm64 0 1-1-1 1h-1 1zm7 0 1-1-1 1zm-27 0v-1l1-1h1v1l-1 1h-1zm-178-1v-1 1c0 1 0 0 0 0zm93 1v-1 1zm333 0c0-1 0-1 0 0zm-385-1-1-1 1 1v1-1zm60 0c0 1 0 0 0 0zm295 0c1 0 1 0 0 0zm-443 0h1-1zm114 0zm35 0zm106 0zm141 0zm105 0c-1 0-1 0 0 0zm-457 0h1-1zm212 0v-1 1zm-71-1 1-2 1-1h1l-1 1v1l-1 1h-1zm74 0h1-1zm-275 0c0-1 0-1 0 0zm60 0zm213 0h1-1zm-188 0v-1 1zm-23-1v-1 1zm38 1h1-1zm173 0c0-1 0-1 0 0 0 0-1 0 0 0zm1-1v-1l1 1v1l-1-1zm151 0s0 1 0 0zm-4 0v-1 1zm-256 0s0-1 0 0zm42 0h1-1zm309 0v-1h1v1h-1zm-503-1v1-1zm62 0h1v1l-1-1zm-49 0v1-1zm105 0v1-1zm79 0v1-1zm226 0v-1 1h1-1zm-192 0v-1 1zm31-1h-1l1-1v1c1 0 1 1 0 0zm-5 0h1-1zm2 0s0 1 0 0zm-204 0c-1 0-1 0 0 0zm444 0h-1 1zm-486 0zm33 0zm1 0h1-1zm2 0h1-1zm67 0v-1 1zm-118-1 1 1-1-1zm55 1s-1 0 0 0zm8-1s0-1 0 0 0 1 0 0zm-41 0zm298 0-1-1 1 1zm-320 0zm266-1h-1 1l1 1-1-1zm-250 0v1-1zm228 0-1-2h1v2c0 1 0 1 0 0zm208 1 1-1-1 1zm-32-1h1-1zm-170 0v-2c0-1 0-1 0 0h-1v-1l1-3-1 1 1 2 1 1h1l1 1s0 1 0 0l-2 1h-1zm15 0zm-241 0v-1 1zm224-1v-1l1 1h-1zm164 0h2-2zm9 0zm-413 0-1-1h-1l-1-2 3 1 1 1v1h-1zm189 0c1 0 1 0 0 0zm224 0v-1 1zm-397 0v-1 1zm-40-1v1-1zm479 0-1 1zm-480 0zm438 0zm-362 0zm178-1c-1 0 0 0 0 0l1 1h-1v-1zm25 0h-1 1v1-1zm112 0s-1 0 0 0zm-184 0v-1l-1-1h2v2h-1zm110 0v-1h-1 1l1-2v-1h5l1 1h1v1h-5v1a86 86 0 0 0-3 1zm2-2h-1c-1 0 0 0 0 0h1zm2-1-1-1v1h1zm-69 3 1-1-1 1zm-188-1v1-1zm213 0-1-2h-1l1-2-2-2v1l-1 2-1 1v1l1 1 1-1h1l-2 1h-2v-4l1-2h3l1-1 1-1v-1h-1a21 21 0 0 1 3-3c-1 1 0 1 1 2h1l-1-1v-1l1-1 1 1v2h-1l1 1c1 0 1 0 0 0l1-1v-2h1c-1 1 0 2 1 2v2h-3l-1 1v3l1-1 1-1v1l1 1 3-2a94 94 0 0 1 3-5h-1l-1 1-1-1h-2l1-1h2v-1h2l3-1h3c0 1 0 0 0 0h3l-1 1-3 1h-3l1 1c1-1 1-1 0 0h-1l-2 1c-2 2-2 3 0 2l2-1h1l-3 2-1 1v1l-1 1h-1l1-1 1-1-1-1-1 2-2 2-2-1h-6l1 1-1 1v3-1zm4-4-1-3a389 389 0 0 1-2 1l-1 1c-1 0-2 1 0 0l2 1h2zm0-3v-2h-1v2l1 1v-1zm-3 0-1-1v1h1zm7-1-1-1v1h1zm-6 0s1 0 0 0zm2-3v-1 1zm219 12v-1l1 1h-1zm-438-1h1-1zm191 0 1-2v2h-1zm227 0-1-1 1 1zm-464-1 1 1-1-1zm264 1v-1h1l1-1h1v1h-3v1zm2 0v-1h1-1v1zm49 0h2-2zm-78-1v1-1zm7 1v-1l-1-1s0-1 0 0l1 1v1zm2-1v-4l1 2v1l2 1h1v1h-2l-2-1zm131 1v-1 1zm-64-1zm3 0h1-1s-1 0 0 0zm6 0h1-1zm102 0zm26 0v-1h2v-1l1 1h3l1 1 1-1v1h-8zm-334 0v-1 1zm120-1 1 1-1-1zm237 0v1-1zm-162 0h1-1zm-252 0zm339 0zm60 0c1 0 0 0 0 0zm-205-1v-3 4-1zm120 1h1-1zm50 0-1-1h-1 3l-1 1zm-393-1h1v1l-1-1zm-3 0h1v1l-1-1zm212 0v-1c0-1 1-2 2-1v2l-2 1v-1zm11 0v-2h1l-1-1c-1 0-1 0 0 0h1c0-1 0 0 0 0v3h-1c-1 1-1 0 0 0zm51 0zm-12 0h1-1zm52 0 1-1c2 0 5 0 4 1l-2-1-2 1h-1zm-310 0v-1l1 1h-1zm30 0c0-1 0-1 0 0zm413 0c-1 0-1 0 0 0zm-476-1 1 1-1-1zm60 1 1-1-1 1zm184-1-2-4h1l1 1v-1c0-1 0-1 0 0l2 3v-2a18 18 0 0 0-1-6l1 1v-1a73 73 0 0 1-1-2v-2h1v-2c1-1 1 0 0 0l1 2v2l1 3 3 2-1-1v-1h2v2l1 1v-1l1 1h-3a618 618 0 0 0-1 1h-2v-1h2l-1-2-2-2v-1 2l1 1v1l-2-1v-1 4h1v1h1-2a45 45 0 0 1 1 3l-1 1-2-1zm3-11v-1 1zm-1-2v1-1zm95 14v-1l1 1h-1zm105 0v-1l1 1h-1zm3 0h1-1zm-99-1v1-1zm71 0-6-1h-2l-1 1-1-1a162 162 0 0 0-3-2v-2l1-2 1 2v1h2l3-1 1-1h5l-2-2-1-2h-3v-1h-1 3l1 1a35 35 0 0 0 4 1h3v4c0 1 0 1 0 0l-2 1 1-1 1-1v-1l-2-1v2l-2 2-2 1v-1l-1-1h-2l-1 1h-2l-1 1v1h9l-1 1 1 1c2 1 2 1 0 0zm-394 0-1-1h1v1zm38 0v-1s1 0 0 0v1zm173-1v1-1zm-238 0v1-1zm250 1v-1l1-1v2h-1zm-215-1c0 1 0 1 0 0zm32 0c-1 0 0 0 0 0v1-1zm216 0v-2l1-2v2l-1 1h1l1-2h1c1 0 1 0 0 0l-1 1-1 2h-1zm5 0zm53 0c1 0 1 0 0 0zM0 424v-1 1zm278 0h1-1zm2 0zm-376 0zm321 0h-1l-1-1 3-1 1 1-2 1zm128 0h1-1zm-438 0v-1 1zm360-1h-1 1v1-1zm-106 0v-1 1h1-1zm53 0zm49 0c-1 0-1 0 0 0zm-368 0h1-1zm377 0s0-1 0 0zm23 0h1l1-1-1 1h-1zm-166 0v-1 1zm130 0v-1l1 1h1-2zm-407-1v1-1zm59 0c0 1 0 1 0 0zm249 0c0 1 0 1 0 0zm-289 0zm393 0zm-114 0 1-1-1 1zm-273 0-1-2h1l1 1h-1v1c1 0 1 0 0 0zm16-1h-1 1c1 1 0 1 0 0zm404 0v1-1zm-136 0c1 0 0 0 0 0zm-282 0h1-1zm0 0v-1 1zm377-1 1 1-1-1zm-177 0c1 0 1 0 0 0 0 1 0 1 0 0zm180-1v1-1zm-44 1c1 0 1 0 0 0zm-101 0v-1h1v1h-1zm-223 0v-1 1c-1 0-1 0 0 0zm93 0v-1 1zm127-1-1 1 1-1zm133 1h-1l1-1 1 1h-1zm80-1c1 0 0 0 0 0zm-478 0zm43 0zm24 0zm-35-1-1-2 2 1v2l-1-1zm110 1v-1 1zm-119 0v-1 1zm18-1h1l-1 1v-1zm25 0v1-1zm164 0h1-1zm249 0zm-244 0 1-1-1 1zm210 0-1-1h1v1zm-306 0zm131-1h-2l1-1v-1l1-1v4-1zm-248 0h1-1zm-21 0zm313 0h1l-1-2h-2v-1h1l2 1v-2h1v2l-1 2h-1zm103 0zm61 0zm-441 0c1 0 1 0 0 0zm375 0zm-390-1v1-1zm14 1c0-1 0-1 0 0zm239-1h1-1zm-139 0v-1 1zm25-1v-1h-1v-1h1l1 1h1l-2 2v-1zm263 1v-1h1l-1 1zm-153-1c0 1 0 0 0 0zm138 0c-1 0-1 0 0 0h1-1zm28 0h-2c0-1 0-2 2-2h-1l-1-1-1-1-2-1h1v-1a21 21 0 0 0 1 1v-1l2 1 1 1c1 0 2 0 1 1l1 1h-1l-2 1 3 1h1-3zm-252 0v-1h2c1 0 1 0 0 0l-2 1zm225 0h1-1zm-235 0-1-1 2-1 1 1h1l-3 1zm197 0zm103-1 1 1-1-1zm-172 1h1-1zm148-1v1-1zm20 1h1l1-1v1h-2zm-161 0v-1 1zm-70-1h1v1l-1-1zm128 0v-1h2-1v1h-1zm51 0h1-1zm10 0h-1l-1-1v-1l1-1 1 1v1h1v-1l1-1 1 1v2h1-4zm2 0h-1a282 282 0 0 1 1 0zm-252 0-1-1v-1h2l1 1-1 1h-1zm243 0zm23 0zm-207 0h1v-1 1h-1zm127 0zm6 0zm-233-1c0 1 0 1 0 0zm65 1 1-1-1 1zm-146-1zm251 0h1-1zm-133 0v-1h1v1h-1zm-38 0v-1l1 1h-1zm172 0h1-1zm116-1h1-1v1-1zm-56 0 1 1-1-1zm-212 0-1-2h1l1 1v-2l2 1v2h-3zm-84 0h1-1zm162 0h1-1zm-217-1v-1l1 1v1l-1-1zm27 0c0 1 0 0 0 0zm8 0h1-1zm145 0v1-1zm41 0h1-1zm1 0v1-1zm129 0v-1h1l-1 1v1zm-235 0v-1l1 1h-1zm293 0 1-1v1h-1zm-352 0 1-1v1h-1zm123 0v-1 1zm-145-1c0 1 0 1 0 0 1 1 1 1 0 0zm243 1 1-1v1h-1zm68 0v-3 3zm-301 0v-1 1zm124-1-2-1h2l1 1v1l-1-1zm49 1c0-1 0-1 0 0zm59-1h1-1c0 1 0 1 0 0zm-248 0h-1 1zm4 0zm22 0h1-1zm223 0h1-1zm69-1v1-1zm-314 0v1-1zm5 1v-1 1zm5-1h1l-1 1v-1zm237 0v1-1zm113 1v-1c1 0 1 0 0 0v1zm19-1h1l-1 1v-1zm-190 0v-1 1h1-1zm32 0v-2 2zm-208 0zm206-1 1-1h1l-2 2v-1zm103 1zm-176 0zm214 0 1-1v1h-1zm-395-1h-1 1v1-1zm120 0c0-1 0 0 0 0 1 0 0 0 0 0zm271 0v-1 1zm6 0h1-1zm-280 0h1-1zm86 0-1-1 1 1zm-200 0-1-1h1l1 1h-1zm61 0v-1 1zm140 0v-1h-1 1v1zm188 0h1-1zm-346 0v-1 1zm13 0h1-1zm59 0h1-1zm282-1v1-1zm-190 0h1-1zm-147 0h1-1zm329 0v-1 1h1-1zm-348 0h1-1zm18 0s0-1 0 0c-1 0-1 0 0 0zm150 0c-1-1-1-1 0 0zm-166-1v1-1zm210 1v-1 1zm-245-1-1-1 1-1h1v2h-1zm150 0c-1 0-1 0 0 0 0 0 1 0 0 0 0 1 0 1 0 0zm227 0h1-1zM2 406h1-1zm65 0 1-1v1h-1zm-188-1 1 1-1-1zm244 0v1-1zm-272 0v1-1zm150 0v1-1zm1 0h1-1zm92 0c1 0 1 0 0 0zm170 0zm-387-1h1v-1h-3l-1-2 1-2h1v1a485 485 0 0 1 2 2v2h-1zm161 1v-1l2-1h2v1l-4 1zm2-1-1-1-1 1h2zm187 0v1-1zm-183 0h-1v-2l1 1h5v1h-5zm83-1 1-2 1-1h-1l-1-1v-1h1v3l-1 3v-1zm-259 1zm201 0h1-1zm56 0s0-1 0 0zm-251 0-1-1v-1l2 2h-1zm161 0h-2l-1-2h1l1 1h1v1zm91 0v-1c0-1 0-1 0 0v1zm-255 0-1-1-1-1h-1l-2-2c-3-2-3-2-2-3l-1-1-2-1v-1l1-1 1-1v1l1 1v-1l1-1-1-1h-2l2-1h2v1-1h1l-1-1c-1-1-1-1 1-1h1v3l1 1 2 1 2 2v1l-1 1v4-1c-1 0-1 0 0 0v-2h-2v1h-3v1h3l1 1 1 2-1 1zm-1-6h-1v-2l-3-2 1 2v1h-1l1 1h3zm1-1v-1c-1-1-2 0-1 1h1zm-8-1v-1c-1-1-2 0-1 1h1zm8-1-3-3-1-1 1 2 2 2h1zm-5-1-1-1-1 1 1 1 1-1zm228 9v1-1zm31 0-1-1 1 1zm-271 0h2-2zm371-1c0 1 0 1 0 0zm-321 0c0 1 0 1 0 0zm15 0c0 1 0 0 0 0zm132 0-1-1v-1l1 1h1l-1-1-1-2h2v1h1v-2h1c0 1 0 1 0 0h2v1h2v-1h-2l1-1h2l1 2-2 1-5 3h-2zm2-1 1-1 2-1h-4v2h1zm-171 1zm21 0zm144 0-1-2 1-2 2-2v-1 3l-1 2-1 2zm1-1v-1h-1v1h1zm16 1v-1h1v1a61 61 0 0 0-1 0zm-159-1v1-1zm128 0h1l-1 1v-1zm2 0 1-1h2v-3h2l1 2-2 1h-1v1l-1 1-2-1zm5-3h-1v1l1-1zm1 3 1-1v1h-1zm3 0v-1l1 1c1 0 1 0 0 0h-1zm-171 0v-2l1 1-1 1zm30 0zm-21-1h1-1zm104 0v-1 1zm250 0 1-1-1 1zm-1 0v-1 1h1-1zm-67-1h-1l2 1 2-1h1v-1h-5v-1c1-1 1-1-1-1h-1l2-1h1v-1h1l2 1 1 1-1 1 1 1v-1l1-1h1l1 1h1l1-1h1l-1-1-2-1h3s0 1 0 0l1 1v1l1 1v1c-1 0-2 0-1-1h-1l-1 1v1c1 0 1 0 0 0h-4l-2 1h-2l-1-1zm6-1v-1l-1 1h1zm4-1 1-2h-1l-1 2h-1 2zm48 3-2-1-1-1v-1c0-2 1-2 1-1v1h3v2l-1 1zm-48-1c1 0 0 0 0 0zm-40 0zm41 0a266 266 0 0 1 4-3l-1-1h2v-1l3-2v-1l-1-1v-1l1 1h1c1 0 1 0 0 0h1l1-1v-2l1-1h2-1l-2 2-1 2-2 2-1 1-2 1-1 2-1 2-3 1zm-38 0v-1h-5 6-1v1zm-15 0c0-1 0-1 0 0zm104-1h-2 1v-1l1-1v1l1 1h-1zm7 0h-1 1zm-88 0zm3-1v-1h1v-1l-3-1h-3v-1c-1 0-1 0 0 0l1-2h5v1h3-1v1h2v-1h2v1l-1 1h-1l2 1h1l1-1c0-1 0-1 0 0v1h-6c-1-1-1-1-1 1v1h2v1h-4v-1zm-2-3 1-1h-2l-1 1h2zm-236 4h1-1zm230-1-1-1h-5v-1l1-1h2l2-1-1 2h-1l-1 1h4l-1-1 1-2 1 2 1 2h1-1l-1 1-1-1zm16 1s-1 0 0 0zm-250-1v1-1zm157 0 1-1 1 2h-1l-1-1zm-155 0h1v1l-1-1zm134 0h-1 2-1zm111 0v1-1zm-29 0v-1h1v-1c-1 0 0 0 0 0h2c0-1 0-1 0 0h3l1 2v-1l1-1 1-1v2h-1l-3 1h-5zm-284 0c-1 0-1 0 0 0zm231 0v-1h-5l3-1v-1h1l1 1h3v-4l-1-1h1l1-1h1v-1l1-1 1 2-1 1-1 1v3l-1 1-2 2h-2zm-232 0c-1-1-1-1 0 0zm17 0c0-1 0-1 0 0h1-1zm201-1h-1v-2h1c0 1 0 1 0 0h1l2 1-2 1h-1zm0 0v-1 1zm88 1 1-2v2h-1zm84 0h1-1zm-320-1c0 1 0 1 0 0zm-4 0-1-1 1 1zm6 0h1-1zm182 0s0-1 0 0zm131 0v-1h-1v-1l1-1v1h1v2h-1zm-163 0v-1l1-1 1 1v1h-2zm166-1 1 1-1-1zm-8 0 1-1v1h-1zm-307 0c0-1 0-1 0 0zm139 0v-2h-2l1-1v-1l1-1h1l1-1 2-1v-1l-1-1a50 50 0 0 0 1-2l1 1h4v1l-1 1h-1v4h-4l-1 1 1 1-1 1-1 1h-1zm2-3v-1h-1l-1 1 2 1v-1zm-58 3-2-1-1-1v-2l2-1h2l-1 1h1l1 1v2l-1 1h-1zm1-1v-1l-1 1 1 1v-1zm-2-2h1-1c0 1 0 0 0 0zm-101 2h1-1zm150 0-1-2 1 1h2v-2h-1l-1 1v-1l1-1h1l1 1 2-1v-1l1-2h1v1l-1 1-2 4-1 1h-3zm3-1v-1c-1-1-1 0-1 1h1zm112 1s1 0 0 0zm1 0c1 0 1 0 0 0zm68 0-1-1 2-1 2-1v-1l1-1 2-1-1-1 1-1c0 1 0 1 0 0v4s0 1 0 0l-1 1-1 1 1-1-1 1h-2l-1 1-1 1zm-330 0v-1l1 1h-1zm5 0h2-2zm274 0-1-1h1v-1h2v-1l1-1h1l-1 1v3h-3zm-153 0h1-1zm7 0zm190 0v-1 1c1 0 1 0 0 0zM6 394h1-1zm30 0h1-1zm65 0zm-191 0v-1 1zm1 0 1-1-1 1zm125-1v1-1zm72 1h1-1zm22-1c1 0 1 0 0 0 0 1 0 0 0 0zm-233 0h1-1zm145 0 1-1 2-2h1v-1h1l-1 2c-3 2-3 3-4 2zm127 0zm-158 0 1-1v1h-1zm52 0v-1h1v1h-1zm74-2v-3h1l4 1 1 2-1 1-4 1h-1zm3 1v-2l-1 1-1 1h2zm3-1-1-1-1 2h1l1-1zm-303 2v-1l1 1h-1zm186 0zm-128-1c0 1 0 1 0 0zm112 1 1-1-1 1zm9 0v-1 1zm51 0-2-1v-1h2l1-1h2l-1 2h-1l-1 1zm32-1h-1 1v1-1zm-2 0c1 0 1 0 0 0zm-261 0h1-1zm92 0v-1 1zm-21 0h1-1zm101 0h1-1zm6 0h1-1zm119 0h1c0-1 0-1 0 0h-1zm-109 0v-1l1 1h-1zm195-1v1-1zm-301 0v1-1zm190 0-1-1h1l1 1h-1zm112 0 1-1 1-1h1v1l-1 1h-2zm6 0c1 0 1 0 0 0zm-130 0zm2 0c0-1 0-1 0 0zm-34 0v-2h2l-2 2zm78-1h-1 1l1 1-1-1zm-246 1zm9-1v1-1zm18 0h1-1zm99 0h1-1zm-102 0zm127 0v-1h1v1h-1zm181-1v1-1zm-244 0v1-1zm13 0v1-1zm184 1c0-1 0-1 0 0zm-90-1 1-1h1l-1 1h-1zm-46 0v-1c-1 0-1 0 0 0v-1l1 1v1a64 64 0 0 0-1 0zm94 0h1-1zm79 0 1-1v-1 2h-1zm-185-1h3l-1 1-2-1zm28 0h3l-1 1-2-1zm45 0-1-1 1 1 1 1-1-1zm118 0h1l-1 1v-1zm-238 1v-1 1zm67-1h1-1zm-153 0zm139 0-1-1 1 1zm190 0v-1l1-1 2-1v2l-3 1zm-163-1h1v1l-1-1zm118 1v-1h-1 1l1-1h1l1 1-2 1h-1zm-109-1v-3l-1-1 1-1-1-1c0 1 0 1 0 0v-1h1l1-1v-4h2v3l-1 1-1 2v1l2 1c1 1 1 1 1-1v-1h1l1 2v4h-1l-1-2v-1h-2v-1h-1v4h-1zm6-1v-2l-1-1c0-1-1-1-1 1l1 2h1zm-186 1v-1 1h1-1zm287 0zm-323 0-1-1v-1h2l1-3h1v-1l-1-1v-1h-1l-1-1 1-1h1l-1-1v-3h-3c1 0 0 0 0 0v-1h-1v-1h1l-1-1-1-1v-3h-2l-1 1v-1l-1-1-1-1-2-1v1l-1 1-2-2v2h-1l-2-2v1l-1 2v-1l-2 1h-1l-1-1c-1-2-2-2-2-1l-1-1-1-1-1-1v-1l2-3-1-1h-3l-1 1 1 1v1l-1-1-2-2c-1 0-1 0 0 0h3l-1-1-2-1-1-1-4-5v-1h-2l-4-2 2 1h1l1-1h1l-1-2-2-1-2 1h-2l-2-1h-1v-1l1-2h-2l-1-1v-1h1v-1h1l1 1 2 1v1h1v-1l1-1v2c0 3 0 3 2 2h1l-1-1-1-1h4l4 1 1 2v3c0 2 0 2-1 0v-1h-1l-2 1 3 1v2h-1l3 2h2v-3h1l1-1-1-1h-1l-2-1v-3h6v4h2l1-1 2 1v7h1v2h-2l-2-1h-1l1 1v1h3l1 1h1v-1h2l-1-2-1-2h2l3 5v5l1 1h6v1l3 2 1 2v1l1 1h1l2 1c3 2 2 2 2 4l1 2h1l1 1v8h-1a64 64 0 0 1-2 0l-1 1-1 1h-1zm1-1 2-1h1v-1l-1-1-3 3h1zm4-7 1-1v-1l-2 1v1h1zm-2-4v-2l-1-1-1 2 1 1h1zm-3-3v-1l-1 1h1zm-6-7v-1l-3-1 1 1c0 1 1 2 2 1zm-11-2v-1l1 1h1l1-1v-2l-1-2v-5l-2-1h-1v1l1 3-1 1h-2l-1-1h-2v2c1 1 1 2-1 1h-1v1c1 0 0 0 0 0l-1 1 2 1h1v1l2 1c2 0 2-1 1-1l-1-1-1-1h1c1-1 1-1 2 2l1 1 1-1zm1-2zm-8 1h-2 2zm4 0-1-1v1h1zm-3-3-1-3h-1v1l1 1v1h1zm-3-4h-1 1zm2 0-1-1h-1l1 1h1zm-5-2h4l-2-1-3 1v1l1-1zm6 0 2-1-1-2v-2l1-1v-2l-2 1v2l-1 1v3l-1 1h2zm-5-1h1l-1-1 1-1v-1l-1-1c-1 0-1 0 0 0 2 0 2 0 2-2l-1-1-1 1v1l-1 1v2h-1l-4 2 3 1 3-1zm4-1h-2s-1 0 0 0h2zm-10 0 1-1-2-1v1l1 1zm8-2h1l1-1 1-1v-1h-2v1l1 1h-2l-1 1h1zm-3-5v-1h1l-1-1-2 2h2zm2 0 1-1h-2c-1 2 0 2 1 1zm-9 0 2-1v-2l-1-1-2-1v2l1 1h1-1l-2 1v1h2zm-8-1 1-1h-1v-1l-2-1h-1v2h1l1 1h1zm5-1-1-1-1 1h2zm2-1h-1l-1-1v1h2zm224 46 3-1v1h-3zm3 0h1-1zm-62-1v1-1zm7 0c-1 0-1 0 0 0v1-1zm59 0 1 1-1-1zm19 0v-1c-1 0-1 0 0 0l1-1 1 1-1 1h-1zm118 0zm35 0zm-199 0zm26 0zm-199-1c0 1 0 1 0 0zm2 0-1-2-1-1v-1 1l1-1h-1v-1h-3l-2-2h2l-2-2-2-3h4c1 0 2 1 1 2v1l1 1 3 3v2l2 3h-2zm-2-6-1-1h-1c0 1 0 2 2 1zm40 6s1 0 0 0zm91 0h1v-1 1h-1zm-86 0h1-1zm157 0zm11 0-2-2h-2c-1 0-2-1 0-1v-1l1-2 2 1h-1l-1 1 1 1h1l1 2 1-1h1v2h-2zm157 0 1-1v-2l1 1v1l1 1h-3zm-231 0c0-1 0-1 0 0h1-1zm107-2 1 1-1-1zm-209 1h1-1zm297-1-1 1 1-1zm-196 0v-1 1c0 1 0 1 0 0zm65 0h1-1zm-204-1c0-1 0-1 0 0zm5-1h1v1l-1-1zm23 1c0-1 0-1 0 0h1-1zm180 0 1-2v1l-1 1zm29 0v-1h1v1h-1zm-202-1v-1 1zm-7-1v1-1zm178 1v-1c1 0 1 0 0 0v1zm25-1-1-1 1-1h1v2h-1zm13-1-1-1c1 0 1 0 0 0l1 1zm-34-1v-2h2l-1 1h-1 2l1-1v1l-1 1a168 168 0 0 0-2 0zm2 0 1-1h-1l-1 1h-1 2zm160 1 1-1-1 1zm-335 0v-1 1zm185-1-2-1-1-1v-1c0-1 0-2 1-1h1l1 2h-1v1l1 1v-2h1v2h-1zm150 0 1-1-1 1-1 1 1-1zm6 0v-1l1-1 1-1 1-1v2l-2 2h-1zm-384 0c0-1 0-1 0 0h1-1zm249 0v-1 1zm130 0 1-1-1 1zm-165-1v-2l1-1h1v1l-1 1v1h-1zm169 0v1-1zm-384 0v-1l1 1h-1zm246 0 1-1v1c-1 0-1 0 0 0h-1zm-257 0c0-1 0 0 0 0zm246 0v-1l-1-1v-1l1-1v-1h1v1a29 29 0 0 1-1 4zm-22-1c1 0 1 0 0 0zm39 0h1-1zm-4 0zm3 0h1-1zm-27-1h1v1h-1v-1zm-190 1h2-2zm350-1zm-376 0-1-1v-1l-2-1v-2 1l1 1 2 2v1c1 0 1 0 0 0zm215 0v-1l-1-2h-1l1-1h2v1l-1 1 1 1-1 1zm0-3v-1h-1v1h1zm162 2v-1s-1 0 0 0l1-1v2h-1zm-372 0v-1 1zm204-1zm-241 0h1-1zm36 0h-1 1zm-4 0v-1l1-1h-1l1 2h-1zm219-1h1l1-1c2 0 2 0 1-1l1-1c2-2 2-2 4-1v2c-1 2-1 1-5 2h-3zm7-1 1-1-1-1-1 1h-1c0 1 1 2 2 1zm-1-1h-1 1zm155 2c0-1 0-1 0 0zm-152 0 1-2v1l-1 1zm-262-1v-1 1zm33 0s0-1 0 0zm-7 0-1-2 2 1v1h-1zm217 0v-1 1zm-247-1zm24 0zm229 0v-2h1v-1l1 2v1h-2zm4-1-1-1c1 0 1 0 0 0v-1l1-1 3 1-2 2h-1zm-7 0v-2c1 0 1 0 0 0v-1l1 1v1l1-1v-1c-1 0-1 0 0 0 0-1 0-1 0 0v3h-2zm-197-1h1v1l-1-1zm-21 1v-1h1l1-1h-1l-1-1h2l1 1-1 1-1 1h-1zm-8-1h-1v-1h3l-1 1h-1zm223 0 2-1-1 1h-1zm-120 0v-1 1zm39 0v-1h1l-1 1zm101-1v-1h1v1h-1zm-246-1v1-1zm257 0v-1 2-1zm-227 0v-1l1 1h-1zm210-1 1-1v1h-1zm15 0zm-225-1c-1 0-1 0 0 0v1-1zm83 0v1-1zm118 0c1 0 1 0 0 0v-1l1-2 1-1 1 2h-2v1l-1 2v-1zm4 1v-2l1-2v-1h1l-1-3v1-1h1l1 2 1 1v1l-1 2v1h-2l-1 1zm2-2v-1c-1-1-1 0-1 1h1zm16 1h1-1zm-226-1c0 1 0 1 0 0zm204-1v1-1zm-119 0h1-1zm-88-1-1-1 1 1h1-1zm228-1zm1 0zm-2-1h1-1zm3 0h1-1zm-7 0v-1 1zm110-1c0-1 0-1 0 0l1 1c0-1 0-1 0 0l-1-1zm-125 0v-1 1zm22 0s0-1 0 0zm-7 0h1-1zm4 0h1-1zm6 0zm-120-1zm-120 0c-1-1-1-1 0 0zm242-1h1v1l-1-1zm-243 0zm221 0v-1l-2-2h-1v-1h2v1-4l1 1h1l1-1-1 1v3l1 2-1 1h-1zm-250-1 1 1-1-1zm153 0c0-1 0-1 0 0zm119 0v1-1zm-17-1v-1 2-1zm12 1c-1 0-1 0 0 0zm-3-1h1-1zm5 0zm-270 0c0-1 0-1 0 0zm153-1-1-1 1 1v1-1zm115 1h1-1zm-119-1h1l-1 1v-1zm122 0v-1h1l-1 1zm116 0zm1-1v1-1zm-114 0v1-1zm-5 0s-1 0 0 0zm-1-1v-1 1h1-1zm-244-1v1-1zm224 0h1l-1 1v-1zm14 0h-1 3-2zm-6 0h1-1zm-1-1 1 1-1-1zm12 1c-1-1-1-1 0 0zm-261 0v-1h1l-1 1zm252-1c1 1 0 1 0 0zm-263 0-1-1 1 1zm393-1zm-366-1c1 0 0 0 0 0zm-30-1 1 1-1-1zm16 0s-1 0 0 0zm-2 0zm-16-3h-1 1v1-1zm27-3v1-1zm-16-2zm14 0h1-1zm-16 0s-1 0 0 0zm-3-1c0-1 0-1 0 0zm-4-1 1-1v-1l1 2h-2c-1 0-1 0 0 0zm-6-2h1-1zm2-1h1-1zm-1-3h1-1z" transform="translate(191 -330)"/><path style="fill:#15314a;stroke-width:.176389" d="m163 544 2-1 2-1 3-2v1l-1 1-1 1h-1l-1 1h-1l-1 1-1-1zm-13-3v-1h1v-1l1 1-2 1zm22-4v-1l1-1h2l1-1 1-1h-4l1-1v-3l1-1h2c0 1 0 1 0 0v-2l1-1 1 1v1l1 1 1-1v2c-1-1-1 0-1 1h3v-4l1-1v-1l1-1 2-1 1-1h4l1 1h-2l-1 1v2h1v1l-1 2-1 1-1 1h-1a14 14 0 0 0-4 5h-1l-2-2-1-1v1l1 1v1l-2 1-1 1h-5zm-3-1h1v1l-1-1zm-37 0c-1 0-1 0 0 0v-1a209 209 0 0 1-5-2l-2-1-1-1-2-2h-6l-1-1-2-1 2-1h1l2-1h4l1 1 2-1 1-1 1 1 1 2h1v2l1 1v-1h3l1 1 2 3v2l-3 1h-1zm38-1h1-1zm11-9v1-1zm213-5-1-1-2-2-1-2-2-2-2-2-1-1-3-2h1l1-2-1-1v1l-1 1h-2l-4 1h-3l-1-1-3 2h-1v-1l1-1v-1l1-1v-1l1-2v-2h-1l-1-1-1-2-1-1h1l1 1 3-1h2l1 1h3v-2l-1 1-1-1h-1l-1-1v2l-1-1h-2l-5-1-2-2h6l3 1-3-2-1-1h-1l-1-1-3-3-2-2-1-4v-1h1v-2h1l3-1 1 1v-2h1l1-1h2l-2-1h-1l-1 1-2 1h-3l-1 1-1-1h-1l-1 1v-1l1-2h-1c0 1 0 1 0 0l1-1 1-1-1 1h-3c0 1 0 0 0 0l1-1 1-1-2 1h-1v1c-1 0-2 0-1-1v-1c0-1 0 0 0 0h-2v-3c0-1-1-1-1 1h-3v-1h-2l-1-1h-3l-1-1-4-1-4-2-2-1-1-1h-10l-1-1-2-1-1-1-1-1-1-1h1l1-1 1 1h1v-3l-1 1h-3l-1 1-1 1-1-1-2-1h-1v-1l1-1h1v-2h-1l-1 1-3 2h-1v-3l2-1 1-1h-3l-1-1v2l-1 1v1l-1-1v-1h1v-2l-1 1-1-1h-1v1l-1-1-1 1h1l1 1v1h-2v4l-1 1-1-1v-1l-2-1h-1v1l1 2h1-2l-2-3v-1h2l-1-2v-2l-1-1h-2l1-1v-1l-2-3-2-2h1l2 1 1 1 4-3c1-2 1-2 3-2l1 1h1l1 1 1-1v4h1v-1l1-1v-2l1-1h1l1-2-1-2v1h-1l1-1v-1h-1l-2 1-1 1-2-1-5 1h-6l-2-1h-2l-2-1v-1h-1l-1-2 1-1v-1h-1v-1l1-1v-2l-1 1-1 1h-3v-1h-3l-1-1v1h-4v-2l-3-1-1-2v-1a123 123 0 0 0 3 0h1l1 1h-1v2h2l2-3c-1-2-1-2 1-2l1-1h4l4-3 2-1 2-1h2v1h-1l2 1 1 1 1 1h1c-2 0-2 1-2 2h9l1 2 2 2h-5l-1 1-3 1h-2v-1l-1-2-1 2v2l1 1 2 1 1 1 1-1h2l8 2h2l1 4v2l1 1 1 3 3 4v1l1 1 2 1v1l1 1-1-1 1-1v1l1 1 1 1v1h1l1 1h5l2-2 1-1 1-1 1-1 1-1 1-2 2-2 1-1 1-1v-2l2-1h5l1-1h2l1-2v-1l-1-1 1-1 2-1 5-2h2v2h1l4 1h3l2 2 2 1 3 1 6 3 2 1h6l1 1h3v1l-1 1h1l1 1 1-1h4v1a340 340 0 0 0 0 23l-1-1h-1l-1-1-2-2-2-2-1 1 3 3c1 2 1 2-1 1l-1-1-1 1-1-1-2-1-1-1-1-1-1-1h-2l-1-1-1-1c-1-1-1 0 0 0v1l-2-1v-2h-2v-1l1-1-2-2h-1a233 233 0 0 0-11-1v1h-1l-1-1h-2l-1-1h-1l-1 1c-1 0-1 0 0 0l1 1-1 1-2-1h-1l-1 1-1-1-2-1v1l1 2h-1l-1-1h-1v-1h-1v-4l-1 1-1-1-1 1h-1v-1l-1-1v1h-1l-1 1v1h-2l-2 1v1l1 1v3l-1-1v-1l-4 3h-3l-1 1h-3l1 2h1v1l-1 1h1v1l1 1 4 1h3v-1h10a109 109 0 0 1 6 1l1 1h4a113 113 0 0 0 10 1l3 1 2 1h9l4 1 1 2 3 1 5 2 1 1h1l1-1 1-1 3 1v9l-1 5v2l-1 2v3l2 1v3a1045 1045 0 0 1-1 25zm-9-16v-1l-1 1h1zm-3-8v-1h-1l-1-1 1 1 1 1zm3-3h-1c-1 0-1 0 0 0h1zm2-5-1-1 1 1zm-1-8v-1h-1l1 1zm-22-1-1-1-1 1h2zm21-1v-1l-1 1h1zm0-2v-1h-1l1 1c0 1 1 1 0 0zm1-2v-1l-1 1h1zm-24-1v-1l-1 1h1zm-4-3h1l1-1h1l1-1h-1l-1 1h-1c-1-1-2 0-2 1h1zm34-17-1-1h-2l1 1h2zm-71-1v-1l-1 1h1zm-29 0v-1h-1v1h1zm24-1h2c0-1 0-1 0 0h2l1-2-1-1h-2v2h-1l-1-2v-3c-1-1-1-1-1 1l1 3v2zm14-3-1 1 1-1zm39-2-1-1-1-1h-1v1h1l2 1zm-67-2 2-2c0-2 0-2-2 0l-2 2 1 1 1-1zm7 0h1l-1-2h-1l1 2c0 1 0 1 0 0zm42-1v-1h-3v1h3zm13 0v-2h-1v1l1 1s0 1 0 0zm-6 0 1-1 1-1h2v-3h-1v2l-2 1h-1l-1 1 1 1zm-46-1-1-1v1h1zm58-3h2v-1l-1-2v-1h-3a4414 4414 0 0 0-5 0v1h-1c-1 0-1 0 0 0l1 1a29 29 0 0 0 4 2h3zm-3-2v-1l1 1h-1zm-3-1v-1h1c1 1 0 2-1 1zm-8-8-1-2-1 1v1h2zm-57-11v-1h-1l1 1zm-20-3h-1v1l1-1zm8-1h-1v-2l-1-1-1 1v1h-1v-1l-1-1-1 1v1l1 1h5zM85 520l1-2v-3l2-1 1-1 1-1 1 1h5v1l1 1 1 1v1h3l2-1 2-1-1-1-1-2h5l1 1h-1c-1 1-1 1 1 1 1 0 2 0 1-1l2-2 2 1-1 1v1l1 1 1 1h1-6l-1-1v2l-1 1h-2l1-1-1-2-2 2-2 1h-2l-1 1-1-1h-1l-4 2h-8zm8-3v-3h-1v1l-1 1c-1 0-2 0-1 1h3zm-3-2c1 1 1 0 1-1h-2v2l1-1zm-12 3h-3v-1h1l1-2v-3l1 1h1l-1 1h-1l4 1c2 0 2 0 1 2l-1 1h-1l-1 1-1-1zm4 0v1-1zm59-1-1-2v1l-1 1c0 1 0 1 0 0h-1v-1l-1-1h-1l-1 1c-1 0-2 0-2-2h-1v2l-1 1v-1l-2 1h-4l-1-1 1-1 1-2h2l1-1 3-1 3 1h4l1 1h-1l-1 1h3l1 1v-1h1l2 1h2l2-1 1 1-1 1h-1v1h-4l-2 1h-1v-1zm-6-2-1-1v1h1zm-13 2v-1 1zm28 0 1-2v-1h1v2l-1 1h-1zm-81 0v-1l1 1h-1zm-14-1-1-1h-2l-2-1-2-1h-3l-1-1h-2v-1l-2-1h-1v-1l1-1-1-3h-2c-2 0-2 0-1 1v1c0 1 0 0 0 0l-1-1-1-2-1-2h-1l-2 1-2 1-1 3h1l1 1h3v-1l1-1h1l1 2v2l1 1-4 1-3-1h-4l-4-1h-1l-1 1-1-1v-1h-1l-2 1h-4l-2-1-6-2a893 893 0 0 0-14-4h-3l-1 1-2-1h-2l-2 1h-5l-1-1v-1l-1-1v-1h2v-1l1-1 1-1-1-1h-1v2h-2l1-3 1-1 1-1-1-1v1h-1l-1-1-3-2h-1c-1-1-1 0-1 1v1h1l1 2 2-1h1v2l-1 1v1l-1-1-3-1-2-1h2v-1l-1-1-2 1-2 1h1v1l1 1 1-1v1l1 1h3c0-1 0-1 0 0h-3a60 60 0 0 1-4-1h-1v1l2 1v1l1 1h-4l-6-1-1-1v-1l1-1s1-1 0 0h1v-1l1-1v-1l1-1 1-1v-1h-1c0 1 0 1 0 0h-1v1-1h-2l-1-1h-1v3h-7a82 82 0 0 0-4 0l2-2v-1l1-1h1l1-2 1-4 1-1h1v1h5l3 1h3l1-1v-1h3l1 1 2 2h5l1 1 2 1 1-1h1l1 1 1 1 1 3 1 1 1 1h5l1 1h1l3-1h1l2 1h7l2 1h1l1-3h1v-1l1-2 2-1h2v1l2 2h5l2 1 2 1h1l1 1h7v3l1 1h1l1 2v3l2 1 1 1h7c0 1 0 1 0 0l-2 1-1 1v1c-1 1-1 0 1 2l2 1 2-1 1-2-1-2h-1l-1-1h4l1-1h1l1 1h2c1 1 2 1 1 2v1l-1-1h-2v-1l-3 2v3l2 1h2l1-1v4l1 1 1 1c1 0 1 0 0 0h-1zm-35-7v-1h1l2-1 1-2v-1h-5v2l1 1-1 1v1h1zm-5-1h-2l1 1 1-1zm3 0h-1 1zm-8 0 1-1v-2h-1v3zm7-1-1-1v1h1zm-1-2v-3c0-1-3-2-4-1v3l1 1h3zm-10-2 1-2-2-2H3v3l1 1h2zm-7-1 1-1h1v-2l-1-3v-1h-6l-2 2h5l-4 1-3-2h-3v3l1 1 3-1 1-1 1 1 3 1h2v1l-1 1 1 1 1-1zm11-3v-1H8l1 1h1zm-27-1 1-1h-3v1h2zm-5 0v-1l-1-1v1l-1 1h2zm27-1-1-1H3l1 1h1zm-25-3 1-1-1-1c-2-1-3-1-3 1v1l3 1v-1zm-19-1h2l1-1 1-1v-2l1-1h-1l-1-1v3l-1 1-1-2h-3v3c-1 1 0 2 1 1h1zm50-2 1-1v-2h-1l-1 1v-1l-1 1v1h1v1h1zm-62-5v-1h-1v1h-1 2zm206 30h2l2-1v-2h1l1-1h1l1-1 1-1v1l-1 1-1 2-1 1h-1l-1 1h-4zm-91-1-1-1h1a181 181 0 0 0 3 0s1 0 0 0l-1 2-2-1zm55 0 1-1h1-1v1h-1zm45-1zm6 0zm-1 0v-1h1v1h-1zm10-1h-1v-1c-1 0-1 0 0 0h1l1-1h1l-1 1-1 2v-1zm-8 0v-1h1v1h-1zm12-1v-1l1-1v-1l1 1v1l-1 1h-1zm-122 0v-1c-1 0-1 0 0 0l-1-1h-1 3l1 1h1l-2 1h-1zm112 0 1-1-1 1s-1 0 0 0zm180-1 1-3 1-1 1-2 2-2c0-2 1-2 2-2l3-1 1-1 2 1 2 1 1 1v2l-1 1v2l-1 1-1 1-1 1-2 1-1 1h-9v-1zm-296 1-1-3h1l1 1s0 1 0 0h1l1 1h-2l-1 1zm108 0 1-1h2v1h-3zm202 0h-2v-1l1-1h1l1 1v1h-1zm-300-1h-1 2-1zm28 0v-1h1v1l-1 1v-1zm91 0 1-1 1-1v1h-1l2 1h2-5zm-107 0h2-2zm19-1v-1l1 1h-1zm3 0zm74 0c1 0 1 0 0 0zm53 0-1-1h3l-2 1zm39 0v-1h1l-1 1zm-103-1h-1a193 193 0 0 1 1 0zm-135-2 1-1v-1 1l-1 1zm221-1 1-1 1 1h-2zm19 0v-1l1-1v-1l2-3 1-1 1-2 2-1v1l-1 1 1 1-2 4-3 3h-1v1l-1-1zm-68 0 1-1v1h-1zm6-1h-1l1-1v-1h3v2h-3zm-3 0v-1h-1v-1l2 2h-1zm-174-1v-1l1 1h-1zm-59-1h1c1 0 1 0 0 0h-1zm242 0zm-244-1h1v1l-1-1zm252-1h1l-1 1v-1zm46-1h1-1zm-230-4h-2c-2 0-2-1 0-2l1-1h6a1093 1093 0 0 0 4 2l-2 1v1h-3l-4-1zm199 0h1-1zm-182 0zm81-1h1-1zm-184-2c-1 0-1 0 0 0h1-1zm115 0 2-1v1h-2zm241-1v-3l1-1v-2l-1-1 1-1v-2h2v-4l1-1 1-1v-1l1-1 1 2v6l1 1-2 2v2l-1 1-1 1v1l-1 1-1 1-1 1zm3-6-1-1 1 1zm-356 6-1-1v-1l1 2zm-16-1h2-1v1l-1-1zm17 0h1-1zm411-1 1 1-1-1zm-52 0 1-1-1 1zm0-2h1-1zm2-2h1-1zm-183-1v-5 5zm156-5v-3h-1 1l1 1v1l-1 1zm-359 0-3-3-1-1-1-1-3-3v-1h1l1 1 1-1v-1h-1a35 35 0 0 0-3-1l-1-1h1l1-1-1-1-1 1-1-1-2-1-1-1h-1v1l1 1 1 1-2-1h-1v-1l-4-3-2-1-2-2-5-5-1-3h-1l-3-3-4-3-1-1-1-2-1-1v-1l-2-2-1-1-2-1-1-2v-4l-1-2a22 22 0 0 1-2-3v-1l-1-1v-1h1v1l1 1v1c0 1 1 3 3 3l1 1v1l1 1 1 2a376 376 0 0 0 6 6l1 2 2 2 1 1 3 1h1v-1l-1-1 1-1 1 1v1l1 1 1 2 1 1v3l4 1 1-2v-1h-3l1 1-1 1-1-1v-1l1-2-1-1v-3l-1-1-1 1h-2v-3l-4-2h-1v-1c0-1 0-1 0 0l1-1v-1l1-2-2 2v1-1l-1-1h-4v1h-1l-1-1-2-2-1-2-1-1v-1l2-1 1-1v2l2-1h1l1 1-1 1v2l1-1h2v1h-2l-1 1 1 1 1-1h1l1-1-1-4-1-1h-3v-1h-3l-4-1a30 30 0 0 0-1-4l1-1 1-1h-2v-1l-3-1-1-1v-4l2-1v-1h-2l-1-1v2h-2l-2-1v-2l-1-1-1 1 1 1v3l2 1 1 1-1 1-1-1-4-4-1-1v-2c0-2-1-2-3-3l-2-1-1-1h-1l-1-2-1-2v-3l-1-1-1-2-1-3v-2l-1-1h1v-1l1 1h2l-2-3v-2l-3-3-1-1v-1c1-1 0-2-1-2h-4l2 3 2 2h-3l-1-1-2-1-2-1h-2l-1-3v-3l1-1h1l-1-1h-3l-2-2v-2l2 2 1 1h1l2-1v1l1-2v-1l2 2h1v-2l2 2 1-1v-1l2 1 1 1 1 1v1l1-1h2v3l1 1 1 1h-2v-1l-1-1a46 46 0 0 1-3-2h-1l-1-1h-2l1 1h1l-1 1h-1v1h2l1 3 2 1v1l1 1h4l1-2h-1s0-1 0 0h2l1 1v2l1 1h-1l-1 1 1 1h1v1l1 1v1h-1l-1 3h-2v2l3-1 1-1a35 35 0 0 1 2 0h1v-8l-1-1h-1l-1-2c0-2 1-2-2-4l-2-1h-1l-1-1v-1l-1-2-3-2v-1h-6l-1-1v-5l-3-5h-2l1 2 1 2h-2v1h-1l-1-1h-3v-1l-1-1h1l2 1h2v-2h-1v-7l-2-1-1 1h-2v-4h-6v3l2 1h1c1 0 1 0 0 0h-2l1 1h2l-1 1h-1v3h-2l-3-2h1v-2l-3-1 2-1h1v1c1 2 1 2 1 0v-3l-1-2-4-1a18 18 0 0 1-4 0l1 1v1c-2 1-2 1-2-2v-2l-1 1v1h-1v-1l-2-1-1-1h-1v1h-1v-3l1-1h3l2 1 2 1 3 3h10l3 1h2l2-1 2 2 2 2 2 2v2l1 1 3 2v1l-1 1v1l1 1h2l2 1v1l1 1 2 1 1 1 5 3 1 1 1 1 2 1 2 1 2 2v3h1l1 1h1v-1l2 3 1 2 2 2 1 1h2v-1c-1-1-1-1 1-1l3 1 1 1 2 3v1l1 1 3 1h2l4 3v4h1l1 2c2 2 2 2 5 2l3 1 1 1 1 2h-2l-4 2-1 1v-1h-2l1 1h1l1 1v-1h2l3-1 2-2 3-1 1 1h1v1h1l1 3v1l-3 2-2 1-3 1-1 2-2 1-1-1v1h3l2-2h2l1 1h2l-1 1-1 1-2 1h-2l2 1h2l1 1 2 2 2 1h7v1l1 2v4l1 3-1 1h2l2 1 2 2-1 1-1 1h-2l1 1v2l-1 2 1-1h1v1l1-1v-1s0-1 0 0l-1-1 2-2v8l1-2v-6 1h8v2l1 2 1 1c0 2 1 3 2 3 1-1 1 0 1 1v3l-2 2-1 2 1 2 1 1-1 1v1l-1 1v2l1 2v10l-1 1v7h-1l-1-1-1-1-2-2-2-1h-2v1c1 0 1 0 0 0l1 1v2h-1l-1-1-1-1h-1l-1-2-1-2v-4h-1l-2-2-1 1 1 1h1l1 2c0 2 0 3-2 3-1 0-1 0 0 0l1 1v2l2 4h-1zm-3-8v-1l-1-1-1 1v1h2zm-1-6v1-1zm-2 0c-1 0-1 0 0 0 0 1 0 1 0 0zm-5-1v-2l1-3-1-1-1-2-2-1h-1l-1 1v1h-1l-1-2-2-1-1-1h-1v2h1-1l-2-1c-2-1-2-1-1 1v1l2 1 4 2v1l1 1h5v1l1 1 1 1zm-3-5 1-1h1l-2 1zm-4-1-1-1h1l1 1h1-2zm3-1h1-1zm7 2v-2h-2v1l2 1zm-2-4-1-2h-1l-1 1c0 1 0 1 0 0l1 1h2zm-5-1v-1l-1-1h-3l2 1v1h2zm-9-1v-1 1c0 1 1 1 0 0zm-3-4-1-2-2-1-1-1c-1 1 0 2 1 3l3 2v-1zm3-16-2-1h-1l1 1h2zm2-2v-1h-1v1h1zm-17 0h1v-1l-1-1-3-1 1 2 1 1v1l1-1zm22-6h-1v1l1-1zm-3 0-1-1v1h1zm-3-1v-1h-1v2l1-1zm7 0h1v-1h2l-1-1-1 1-2 2 1-1zm-9-2h-2 2zm16 0c1-1 0-2-1-1l-1 1h2zm-19-1v-1h-1v-1 2h1zm-16 0 1-1h1l-1-1h-2l-1 1 2 1zm13-2v-1l-1 1h1zm23-1h-1l1 1v-1zm-25 0-2-1v1h2zm-10 0v-2l-2-1 2 3zm7-1-1-1-3-1v1h1l3 1c0 1 0 1 0 0zm5-7h-3l2 1 1-1zm2-1h-1s0 1 0 0h1zm4 0v-1l-1 1h1zm-23-5v-1h-1l-1 1 2 1v-1zm-2 1-1-1v1h1zm-2-2v-2l-2-1a515 515 0 0 0 1 3h1zm-3 0-2-2v1l2 1zm-3-1-1-2-1-1h2v1-4l1-1v-1l-2-2-2-1-1-1v-3h-1c-2 0-2 0-1 1l1 1h-1v1-1h-2l-2 1h2l1 1-1 1v1l-1-1v-1l-1 1-1 1v1l2 1 1 1c-1 1-1 1 2 3l2 2h1l1 1 1 1 1-1zm-4-5h-1l-1-1h1v-1l-1-2 3 2v2h-1zm15 4v-1l-1-1-2-1v2h1l2 1zm18-1v-1l-1 1h1zm-27-1-1-1v2l1-1zm22-5h1l1-1c0 1 0 0 0 0l1-1-1-1v1l-1 1-2 1h1zm-11-13-1-1-1-2v1l1 2h1zm-23 0-1-1h-1l1 1h1zm-13-11-1-2h-1l1 2h1zm-17-22h-1v1l1-1zm-13-13-1-2v1l-1 1c-1 0-1 0 0 0h2zM32 479l1-1v1h-1zm328 0h-1l1-1h1c1 1 0 1-1 1zm-51-1v-1 1zm-187-1v-1h-1l-1-1h-1v-2l1-3 1-4v-2l1-2v-2h1l1-1-1-1-1 1v-4l-1-2-1-1v-1l1-1h1l1 1 1-1c0-1 0-1 0 0l1 1h1l2 1 2 1 1-1v-4l-1-3h1v2l1 5-1 1v9l1 2-1 1-1 2v5l1 1 1 2h-5 2v-4l-1-1v-1h-2v2l-1 1-1 2v3h-2zm2-6v-1h1l-1-1h-1v1l1 2v-1zm2-6 1-1-1-1a154 154 0 0 0-2-4l1 3v3h-1l-1 1h2v1l1-2zm-2-2h-1v1l1-1zm3-6v-1h-1v-1h-1v3h1l1-1zm162 20 1-1v1h-1zm-127 0h-2v-2l1-2h-1l-1-1-1 1h-2v-1l1-2v-3l1-2h3v4l-2 2 2 2v-1h1v-2l1-1v-3a308 308 0 0 0 1-5l1 1v1h1l1 1h-2v2l-1 2v3h1l1 1h1l-1 1-1 1-2-1v2l-1 2zm132-1v-3 3zm-394-2-1-1 2 1h-1zm252 0zm-1-2-1-1 1-1h1v2h-1zm21 0v1-1zm-250-1zm226-5-1-1h-1v-3l1-3v-1l1-1 1-3-1-1a2740 2740 0 0 0-1-3l1-1v-2h-1v1h-2v-2l-1-1h-1l-1-1-1-1v1-1l-1-2v-1l1-1h-1l-3-1h-1l1-2h4l1-1h1v-3c0-2-1-2-1-1l-1 2h-1c-1 0-1 0 0 0v1h-6l-1 1v-1h-2l-1-1a573 573 0 0 1-3-4h-1l1 1 1 1 1 2v1h-2v1l-1 1-1 3v1h-1v-1l-1-2h1v-3l1-1v-1h-1l-2 1c-1 0-1 0 0 0l1-1c0-1 0-1 0 0l1-1 1-1-1-2-2-1v1l1 2-1 1h-2v3c1 0 0 1 0 0h-1c-1 1 0 1 1 1h2v3h-2l-1 2v-3l-2 2-1 3v2h-2v3h-1l-1-1v-2l2-2h-1l-1-1-1-1 1-1 1 1h1l1-1v-1h-1l1-1 1-3v-2l1-1 1-1v-9l1-2 2-2 1-2 1-1s0-1 0 0v2l-1 1h2v5l-1-1h-1l2 4 2 1 1-1v-1l-1-2h1v1l1-1 1-1h2l2 1-1 1c-1 0-1 0 0 0l1 1h-1v2c-1 1-1 1 0 0h1l-1 1v4h1c0-1 0-1 0 0v1l1 1 2-1c0 1 0 0 0 0v-3l-1-2v-4h2v6h1l3-1 1-2v1l1 2 1 1 2 2 2 1 1 1 1 1 1 1h-1v1l1 1v1c-1 1 0 2 1 2h2v1l2 2v1l-1 4v3l2 1 1 1 1 1h1v2l1 1a352 352 0 0 1 2 1c0 2-1 2-1 1h-1v1h-6l-1 1c-1 0-2 1-2 3l-1 1h-3zm4-15-2-1h-2l1 1h3zm-1-3h-1 1zm3-1-1-2h-1v2l1 1 1-1zm-4-2h-1 1zm-3 0-1-1h-1l1 1h1zm8 0-2-2h-1l2 2h1zm-9-3c3-3 3-4 0-4h-1v2l-1-1-1 1 1 1 1 1h1zm0-5 1 1v-1l-1-1h-1l-2-1v2a344 344 0 0 1 3 0zm1-2v-1l-1 1h1c1 1 1 0 0 0zm-20-2v-2l-1 1 1 2v-1zm5-1-1-1v1h1zm-11-1-1-1v1h1zm-1-2v-2l-1 2h1zm6-1-1-1c0-1 0 0 0 0l1 1v1-1zm6 0h-1l-2-1v-1l-1-2v4l2 1h2zm-10-2h1v-2c-1-1-2 0-2 1v1h1zm9-2v-1l-1 1 1 1v-1zm-8-4v-1h-1v1h1zm268 45v-2l1 1v1h-1zm-13-4v-1l1 1h-1zm-4-2v-1l1 1h-1zm-9 0-1-1v-1h3v2h-2zm-200-1v-2h3l-1 2h-2zm208-1-1-1c-1-1-1-2-3-2h-1l3 3h-1l-1-1-1-1-1-1h2c2-1 2 0 3 1l2 3-1-1zm-314 0-1-3v-3l-1-3v-1l-1 1-1 1-1-1v-1l1-2v-1l-1 1-1 1-1 1s-1 0 0 0v-2l1-1c-1-2-1-1-1 0l-1 1-1 2-1 1h-4l1-1-1-2v-1l-1 1h-2v1l-1-1-3-3-1 1-1 2-2 2h-6l-4 2h-1l-1-3v-4l-1-1-1 1h-6l-4 1-1-1H8l-1-1c-1-1-3 0-3 1H2v-5l1-1H2l-1-1v-5l-2-2v-1l1-4v-2l-1-1v-1l-1-1h-2v1l-2 1-1 1-1-1v-2h1l1-1-1-2-1 1c-1 1-3-1-2-2h2v-1l-1-1h-1l-1-1h-1v-3h2l-1-1-1-1 1-3-3-3v-2l-1-2 1-3v-3l1-1v-2l1-2 1-1 2-3 1-1h1l1 2v1l1 2 2 1 1 1v1h1l1 1v1l2 1 1 1 2 1 2 1 2-1h1l1-1h11l1-1h2l1-1 1-1 1-1v-2h2l1-1h6v1c-1 1 0 1 1 1h2l2 1h1l2 1v1l-3 3h1l2-2 2-2 1-1v1l2-1h-1v-1h4l2-1h2l1-1h1l-1 1 1 1v1l-2 1-1 1h-1l-1 1v1l-1 1h2v2h1l1-1 1-1-1-1 1-1h4v-4h1l1-1v-1h-4l-1-1 1-1v-2l2-1v-1l-1-1v-2l2-1v3l1-2 1-1v-1l1-1v-1l-1-1v-2l2-2h1c1-1 1 0 0 0v1l2 1v-4l1-2v-1h2l-1-2-1-1v-5l1-2v-1h1l1-1 1-1v4-1h-2v1h1l2 2 1 1v-6l1-1h1l2 1 2-1 1 1h8l1 1 1 1-1 1-1 1-2 1h2c0-1 0-1 0 0l1-1h2l-1 1h3l1 1v2l-3-1h-2v1h-5l-1-1v1h-1c-1 1-1 1 3 1l2 1 1 1h2l1 1-1 1h-4 1v1h2l1 1h2v2l1 1 1 2v1l2 2 2 2-2 1h-4l-2 1h3l1 1 1 1v1l1 2 1 1 3 2 2 1 1 1h1l1 1 1 1v1l1 2 1-1 1 1-2 2h-3l-3-1h-1c-2 0-3-1-3-2v-1h-2l1 1v1l1 1-1 1c-1-1-3 1-3 2v1l-1 1-1 1v2l-1 1v8l-1 2h1l1-1 1-1v1l-1 2v1h-1l-1-1-2-2h-2c0 1 0 2 1 1h1l1 1 1 1c1 1 0 2-1 2-1-1-1 0-4 3l-1 2-1-2-1-1v4h-1l-2 2v1h-1l-3 2 2 1h1v4h1l1 2-1 1-1 1-2 1h1v3l-1 2h-1v-1l-1 1v1l1 1-1 1v1l-1 1v1h-1v1l-1 1-1 1-8 3-4 2-2 1zm5-4v-1h-1l1 1zm1-3v-1h-2v1l1 1 1-1zm4-1v-1l-1 2h1v-1zm4-6 1-2h-1l-1 1h-1v2l2-1zm-44-2 1-1v-2l-1-1v2h-1v2h1zm43-1v-1l-1 1h1zm-2-1 2-2 1-2h-1l-3 3v1c0 2 0 2 1 0zm-33 0v-2l-1 2v1l1-1zm38-2v-1l1-1h-1l-1 1-1 2h1l1-1zm-1-7-1-2c0-1 0-1 0 0h-1l1 1 1 1zm-58-15 1-1h-1l-1-1h-1v1h1v2l1-1zm24 0 2-1h-3v1h1zm-9 0 1-1h-1l-1-1-2 1 2 1h1zm4-1v-1l-1-1h-2v1l1 1h2zm23-1v-1l-1 1h1zm-28 0v-1h-1v1h1zm-16-1v-2l-2-1v2l-1-1h-1l1 2h3zm38-1-1-2c0-1 0-1 0 0v2h1zm27 0v-1l-1-1c-1 0-2 0-1 1l1 1h1zm-37-1-1-1h-2l3 2v-1zm39-1c2-1 2-1 1-2h-2l-1 1 1 1h1zm-7-1-1-2v2h1zm-43-2c1 0 0 0 0 0-1 0-1 0 0 0 0 1 0 1 0 0zm-28 0v-1H2v1h1zm65 0v-1h-1c0 1 0 2 1 1zm5-1h-1v1l1-1zm-31-1v-1h-2l-2 1v1l4-1zm29 0h-1c-1 0-1 0 0 0h1zm-22 0v-1h-5l-1-1v2h6zm-14-1h-1l-1-1h-1l1 2h2v-1zm18-1 5-3 2-1-1-2h-2l-1 1h2v1h-2v-1h-2c0 1 0 1 0 0h-1v2h-1v-1h-2l1 2 1 1h-1l-1-1v1l1 1h2zm-5-1v-1l1-2v-3 1l-2 2-1 2 1 2 1-1zm17 1v-1h-1v1h1zm-31-1h-1v1l1-1zm4 0v-1h1l2-1-1-2h-2v3h-2l-1 1 2 1 1-1zm1-2v-2l1 1-1 1zm3 2v-1l-1 1h1zm3 0c1 0 1 0 0 0l-1-1v1h1zm24-3-1-2-1 1 1 1h1zm-22-1h-2 2zm30 0 2-2 1-1v-3l1-1 1-1-1-2-1 1v1h-1l-1 1h-1l1 1v4h-3l-1-1h-1v1l-3 1h5l2 1zm-15-1 2-1-2-1h-1c0 1 0 1 0 0h-1v2h2zm-1 0v-1 1zm6 0v-1l-1-1-1 1v1h2zm-67-1 1-1v-2l-1-1h-1l1-1h-2l-2 1v2l1 1 3 1zm-2-3h1-1s0 1 0 0zm28 3 1-1 1-1v-1h-1v1h-2v2h1zm25-2 2-4 1-1v-1h-1l-1 2v1l-2 1-1-1h-1l-1 1v1l1-1h1v2h-2l-1-1 1 2h3l1-1zm-17 1-1-1v1h1zm3-1h-1v1l1-1zm-24 0-1-1-1 1h2zm51 0v-1h-1v1h1zm7-1h1l1-2h-2l-1 1h-2v1l3 1v-1zm-3-2 1-1h-2v2l1-1zm-17 0v-1h-1v1h1zm44-1 1-1h-1l-1 1h1zm-56-1h-3l2 1 1-1zm28 0h-3l2 1 1-1zm-78 0 1-2h1l-1-1h-1v1l-1 2v1l1-1zm68 0h-1 1zm13-1h-1 1zm9-2a81 81 0 0 0 1-2v1h2v1l1 2h1v-4l-1-2h-1v1c0 2 0 2-1 1l-2-1v-1l1-2 1-1v-3h-2v4l-1 1h-1v1c0 1 0 1 0 0l1 1-1 1 1 1v3h1v-2zm-2 1v-1l-1-1-1 1c-1 0-1 0 0 0v1h2zm-6-1v-2h-1l-1 1-1-2h-1l-1-1 1-1h1l-2-1-1 2v1c-2 0-1 1 0 1h2l2 2h2zm-7-4v-1l-1 2 1-1zm29 1v-1h-1v1h1zm-6-3v-1h-1l-1 1 1 1a132 132 0 0 1 1-1zm-21 0a167 167 0 0 1 2-2v-1l-1 1h-2 1l1-1h-2v2l1 1zm12-1v-2h-1v2l-1-1v-3h-1c-1-1-1 0-1 1v1l1 1 2 1h1zm5-1a197 197 0 0 1 1-4v-1h-1v1l-1 1v1l1 1v1zm-10-1v-1h-1v1h1zm-1-2-1-1 1-1v-1h-2l-1 1h1l1 2v1l1-1zm6-2c4-1 4 0 5-2v-2c-2-1-2-1-4 1l-1 1c1 1 1 1-1 1l-1 1h-1 3zm2-2h1-1zm5 1 1-1-1 1c-1 1-1 1 0 0zm-12-1v-1l-1-2v1h-1v2h2zm3-1 2-2-3-1-1 1v1c1 0 1 0 0 0l1 1h1zm10-2v-1h-1v1h1zm-6-2v-1l-1 1h1zm-5 0v-1h2v-1l1-2v-1l-1-1a302 302 0 0 1-2-3v3c0 3 0 5-1 4v2h1zm7-11-1-1v1h1zm280 103h-5v-1l1-2c2 0 2-1 1-1h-1v-1h2c2 0 2 0 1 1h-1v1h2v4-1zm-35 0c-1 0 0 0 0 0l1-1v1h-1zm4 0h-1l1-1 1-1h5v-3h2l1-2v-1l1 1v1l1 1h-1l-1 1-1 2v1h-3c-1 1-3 2-5 1zm4 0v-1l-1 1h1zm18-1 1-2h1l1 1v2l-1-1v-1l-1 1v1l-1-1zm-30 0c-1 0-1 0 0 0h1-1zm25 1v-2h1l1 1v1h-2zm-3-1h-1l-1-1h2v1zm20 0 2-1-1 1h-1zm-288-1-1-3v-1l1-2 1-2v-1 1l1 1v6l-1 1h-1zm269 0-1-1v-1h2v2h-1zm-5 0v-1l1 1h-1zm-13 0v-1l1 1h-1zm-183-1-1-2 3 2h-2zm204 0v-1h1l1 1h-2zm-86-1-1-1-1-1h-1l-2-1-3-2c-1 0-1-1 0 0v-1l-2-1-1-1-1-1-1-1-1 1h-1l-1-1h-2v-1l2-1h1l3 1h2c1 1 3 2 4 1l3 1 1 1h1l1 3 1 1 1 1v1l-1 1v1h-1zm70 0c-1 0 0 0 0 0 1 0 1 0 0 0zm31 0-1-2h1v1h1v1h-1zm-36 0 1-1v1h-1zm27 0-1-1h2v1h-1zm12-1h3-3zm-139 0 2-1 1-1h2l-1 1-1 1-1-1-2 1zm-18 0-1-1 1-2 1-1 1-2-1-2v2l-1 1-2 1v-1h1l1-2 2-1h2l1 1h1v1l1 2v1l-1 1h1v1l-2 1h-5zm124-1-2-1v-1h3c1 0 0 0 0 0-2 0-2 1-1 1l1 1v1l-1-1zm15 1-1-2 1-1 1 1h2v1l-3 1zm9-1a99 99 0 0 0 2-1l1 1h-3zm-5 0v-1 1zm-212-1-1-1v-1l2-2h1v3l-1 2-1-1zm66 0 1-1v2l-1-1zm27 0h1s1 0 0 0h-1zm-154 0v-1 1zm157 0zm125 0-2-2 3 2h-1zm-249-1v-1l1-1 1-1 1-1h1v3l-1 1h-3zm246 0h1v1l-1-1zm-234 0-1-1 1-1h-2v-1h1v-1l-2-1v-1h4v-1h2l-1 2h1v2h-1c0-1 0-1 0 0s0 1 0 0l-1 2-1 1zm93-1h1-1zm136 1v-1l1 1h-1zm-17-1-1-2h1l1 1v1h-1zm-103-1-1-1h4l1-1v1l-2 1-1 1h-1zm9 0h-2v-1h5v1h-3zm-15-1v-1l1-1v1l-1 1zm-20 0v-1h-1 2l-1 1zm-235-1v-1h-2l-1 1h-1v-1c-1-1 0-6 1-6h4l2 1v4l-1 2h-2zm262 0h-4l1-1-1-1c0-1 0-2 2-2h2v1l2 1h1v-1l-1-1h4l1 1h1v3l-2-1a106 106 0 0 1-4 0l-1 1h-1zm-359 0-1-1-1-2v-1l3 2v1l-1 1zm368 0v-1l-1-1h1l1 1 1 1h-2zm-126-1v-1h1v1h-1zm2 0c-1 0 0 0 0 0l-1-1 1-1v2zm-166-1-1-1-1-1h-2l-1-1-2-1v-4l-1-1-1-3h-7l-1-1 1-1 3-2-1-1 1-1h2v1l1 1 1 1h1v-1l-1-2 1-1h1l1 1v1l1 1 1 1v5c1 3 2 3 5 4h2v1l-1 2v3c1 0 1 0 0 0l-2 1zm4-1h1-1zm269 1 1-1v1h-1zm-331-1v-1l1 1h-1zm259 0h1-1zm130 0-2-1h-2c0 1 0 1 0 0v-1c0-1 1-1 0 0h2v-1s1 0 0 0h1c1 0 1 0 0 0v1l1 1 2 1h-2zm-319 0v-1 1zm163-1v-2l2-1 1-1 1 1h1l-3 3h-2zm-8 0v-1h1l1 1h-2zm-224-1h-2l-1-1c-2-1-2-2-1-2l1-1 1 1v1l1 1h1l1 1h-1zm-25-1v-2l2 2-1 1-1-1zm410 0zm30-1v-1h1l-1 1zm-109-3c0-1 0-1 0 0 0 0 1 0 0 0zm-335-1-1-1h-1v-1l1-1 1 3zm334-1v-3 3zm54-3a130 130 0 0 0-4-2h2l2-1h3v2h-1v1h-2zm-73 0zm76 0zm-76-1-1-1 1-1 1-1v1l-1 2zm-37 0v-1h3-1l-2 1zm50-1h8-1l-1 1h-6v-1zm-12 0s-1 0 0 0h1-1zm7 0v-1h2l1 1h-3zm147 0v-1h2c1 0 1 0 0 0l-1 1h-1zm-152-1c0-1 0-1 0 0 1 0 1 0 0 0zm145 0a47 47 0 0 1-4-2l1 1h3l3 1h-3zm-472 0-4-5-1-2v-1l1-1 2-1h1v2l1 1 1 3 1 1v1h1v1l-1 1h-2zm363-1-1-2 1-1h1l1 1h1l2-1 1 1 1 1h1l-1 1h-1l-4-1-1 1h-1zm-51-1v-1l1 1v1l-1-1zm-186 0s-1 0 0 0zm165 0-1-1v-1l-1 1-1 1v-3l1-1h3v-2l-2-1 1-1 1 1h2l1 1 1-1h1v1a94 94 0 0 0-6 6zm-5 0-2-1c-2 1-1 0 0 0l1-1 2-1a496 496 0 0 0-1 3zm22 0v-2l1-1v2l-1 1zm-12-1 1-2 2-1h1l-2 2-2 1zm14-1v-2h1l1 1c0 1-1 2-2 1zm123 0v-1l1-1h2l1-1h2l1 1v1h1l3-2v-2h1l1 1h-1l-1 2 2-1v2l-1 1h-12zm-129 0 1-1v-2h2l1 1h-2l-1 2h-1zm-21-1 1-2-1 2c0 1-1 0 0 0zm1 0v-1l1 1h-1zm-17-1v-4 1l2 1v-1l-1-1v-2 1l2 2 1 2h-2v1h-2zm19 0c1 0 0 0 0 0zm-264-1h-1l-1-2-1-1h2c2 1 3 2 2 3h-1zm-4 0v-2l-1-1v-2l1 1 1 2-1 3v-1zm346 0zm-77-1c-2-1-2-1-1-2l2-1-1 1v1l1 1h-1zm105 1h1-1zm-119-1v-2h-1 1l1 1 1 1h-2zm199 0h-2v-1l-1-1v-2l-1-1h-3v-1h1l1 1h2l1 1h1l2 2 1 1h1v1h-3zm-15-1v-1h1v1h-1zm-158-1h1c2 0 1 0-1 1v-1zm-6 0h1-1zm16 0-1-1 1-1 1 2h-1zm-43-1v-2l1 1v1h-1zm179 0a104 104 0 0 0-6-1v-1h2a178 178 0 0 0 5 1h1l-1 1h-1zm-150 0v-1h6-1l-3 1h-2zm106 0 2-1 1 1h-3zm-98-1v1-1zm3 0h-2c2 0 2-1 0-2h-1 1l2-1h2l2 1v2l-2-1-2 1c1 1 0 1 0 0zm99 0zm-387-1v-2c0-1 0-1 0 0l1 1v2l-1-1zm355 1c1 0 1 0 0 0zm-7 0c-1-1 0-1 1-1h1l-1 1h-1zm-98-1v-1 1zm92 0v-1 1zm11-1h-1a106 106 0 0 0-3-4c-1-1-2-2-1-3v-6h-1l-1-1h3l1 1v5l1 2 1 3 2 3h-1zm-104-1v1-1zm96 0h-1l-1-1v-1h1l2-1v3l1 1h-1l-1-1zm-295-1h-1l1-1h1l1-1v2l-1 1-1-1zm197 0v-2l1-1v-9h2c0-1 0-1 0 0l1 1h1l-1 1-1 2v2l-1 3v4h-1l-1-1zm2-7v-2 2zm-275 7 1-2 1-1v1l-1 1v1h-1zm299 0h-1l1-1 2-1-1 1-1 1zm68-1v-2l1 1-1 2v-1zm44 1v-1 1zm26-1h1-1zm-25-1h3-1l-1 1-1-1zm-345 0-1-1h2v1h-1zm350-1h-2l-1-1-1-1h-1l4-1 3 2v1h-2zm-335 0-1-1h2c0 1 0 2-1 1zm328 0h-1v-1l-1-1h3v1l1 1h-2zm-332-1v-1l1-1 2 1-3 1zm-77-1h-1 1zm406 0h1-1zm-135-1c-1 0-1 0 0 0v1-1zm112-5-2-1-2-1-1-1v-1l-1 1v1h-1l-1-1h-3v-1l-1-1c0 1 0 1 0 0l1-1h3v1h1v1h1v-2l-1-1v-2h1l1-1h1v-2h-1l2-1v1l3-1v-1l-1-1h3v1s0 1 0 0l-1 1 1 1-2 1-1 1v1l-2 1-2 1 1 1 2 3h2l1 1 1 1-2 1zm-67-1-1-1h-5l-7-1-1-1c0-2 0-2 1-1h2a19 19 0 0 1 3 0h1v-1h3v-1h7l5 2h1l1 1h-1l-1 1h-1l-1-1h-1l-1 1v1l-1-1 1-1-1-1-2-1h-1v1h-1l-2 1h1c2 0 2 0 1 1v1h5v1h-1l-2 1-1-1zm9 0v-1l1-1h1c-1 1 0 1 1 1v-1l-1-1v-1l-1-1c0 1 0 0 0 0v-1l2 1h3v-3l1-1h-1l-1 1v1-2h2l1-1v-2h2l1 1 2-1-1-1h-1l1-1v-1l1-1h1l1 1 1 1v1h-2l-1 1v1l-1 1-1 1c1 0 1 0 0 0h-1l-1-1v1l1 1v1l-3 2v1h-2l1 1-2 2a3374 3374 0 0 1-4 1zm-37 0h-3v-1h5l-1 1h-1zm9-1-3-1h-1v-2l-1-2-1 2 1 1h-4l1-1h1l1-2-2 1h-2l-1 1v1l-1-1v-1l-1 1-1 1h-1v-1l1-2 1-1 1-1v-1 3h1l4-1 1-1-1-2c-2-1-2-1 0 0h3v2h3v1l-1 1c-1 0-1 0 0 0v1h3l3 1v1h-1v2h-3zm1-1v-2l-1 1 1 1zm23 1 1-1v1h-1zm-261-1 1-1v1h-1zm-69-1h-1v-1l-3-3v-1l-2-3-1-1 2-1h1l2 3 2 1 2 2v3l-1 2-1-1zm285 0v-1l1 1h-1zm-213 0v-3h1v3h-1zm216-1h-1v-3 1l1 1v1zm-222 0-3-1-3-1-1-1-1-4-1-2h-1l-1-1h3c2 0 2 0 2 2v4h7l1 2c0 1 0 1 0 0l-1 1-1 1zm20-2v-2h-2l-1 1v-1l1-1h2l2 2c0 2 0 2-2 1zm226 0v-1h1l1 1h-2zm68 0-1-1v-4l1-1v-4l1-1 1-1 3-4h1l-2 1-1 3h1v3l-1 1h2v3l-1 1h-2l-1 1-1 3c1 0 1 0 0 0zm-299 0h1-1zm256-1h1-1zm-259 0v-1h1v-1h2v1h-1l-1 1h-1zm232 0v-1l1 1h-1zm83-1 1-1-1 1-1 1zm-346-9v-2l1-1 1-1 2 1v2l-2 1h-2zm-36-1v-1h2v1h1l-1 1h-1l-1-1zm378-3v-4l1-1v1h1v-2h2v2l-1 1-1 1-1 1c0 1 0 2-1 1zm-395-1v-1l1 1h-1zm-12-3-1-1-1-1-2-1h-2l-1-1v-1l1-1 2 1 1 1 1 1 2 1 1 1 1 1h-2zm30-2v-2l2 1-2 1zm90-4v-1 1zm6-4h1v1l-1-1zm119-1 1-2v1l-1 1zm-233 0-1-1h2l-1 1zm4-1v-1l1 1h-1zm255 0v-1 1zm101-1v-1l-1-2v-1l1 1 1 2v1h-1zm-104-1c-2-1-2-1 0-1l1 1s1 0 0 0h-1zm-255-1v-1l-1-1 1-1 1 2c1 1 0 1-1 1zm138-2h1l-1-1-1-1-1-1 2-2h1l1 1v3l-1 1v1l-1-1zm-149-1-2-3-2-2-2-1-4-4-2-2v-1l-1-1h1l2 1h2l2-1 2 1 1 2h-1l-1 1h-1l-2-1 4 2h2v1l4 5 1 1 2 1 1 1h-4l-1 1zm8 0v-2l1 1-1 1zm-3-2v-1l3-1 2 1h-4l-1 1zm264-1 1-1v1h-1zm116 0v-1h1l-1 1zm-113-1c-1 0-1 0 0 0h1-1zm-263-1c-1 0 0 0 0 0h2-2zm377-1-1-1 1-2v1l1 1-1 2v-1zm-378-1 1-1h2l-1-1v-1h2v1l-1 1-1 1h-2zm-12-8v-1l1 1 1 1-2-1zm-9 0-1-1 1-1h1l-1 2z" transform="translate(191 -330)"/></svg>