<svg xmlns="http://www.w3.org/2000/svg" viewBox="0 -2 323.4 268"><path stroke="white" fill="#ffffff88" d="m139 142.6-7.7 32.7H2v-23.7c4.3-3.6 13.2-10.6 26.8-21.1a1088 1088 0 0 0 37.8-30.7c8.3-7.2 15-14.4 20.2-21.5C92.1 71 94.7 64 94.7 57s-2.5-13.3-7.4-17.8-11-6.7-18.4-6.7a28 28 0 0 0-20.3 7.9 29.4 29.4 0 0 0-8.4 21.5H1.6A59.2 59.2 0 0 1 35 7.8 77.8 77.8 0 0 1 70.2 0a76 76 0 0 1 32 6.6A53.6 53.6 0 0 1 124.8 25c5.5 8 8.3 16.9 8.3 26.8 0 15-5.9 29.5-17.6 43.5A334.3 334.3 0 0 1 64 142.6h75Zm46.4 22.8a87.4 87.4 0 0 1-33-32A85 85 0 0 1 140 88.6c0-16.2 4-31 12.2-44.6a92.1 92.1 0 0 1 79.3-44A92.8 92.8 0 0 1 311 44c8.2 13.6 12.3 28.4 12.3 44.6s-4 31-12.3 44.6a88.4 88.4 0 0 1-33.2 32.1c-14 7.8-29.4 11.7-46.3 11.7s-32.2-3.9-46.1-11.7Zm73-28a54 54 0 0 0 19.2-20.3 57 57 0 0 0 7.1-28.4A57.6 57.6 0 0 0 258.4 40c-8-5-17-7.5-26.8-7.5S212.9 35 204.8 40a52.6 52.6 0 0 0-19.1 20.3c-4.6 8.6-7 18-7 28.4s2.4 19.8 7 28.4a53 53 0 0 0 19 20.3c8.2 5 17.1 7.5 26.9 7.5s18.7-2.5 26.8-7.5ZM23.5 239 0 200h15.7l15 26h.4l15-26h15.7l-23.6 39v26.7H23.5V239Zm49.1-39H120l-2.8 11.9h-30v15h28l-2.8 12H87.2v14.7h33.6l-2.8 12.1H72.6V200Zm102.7 51.3h-28l-5.5 14.4H126l28-65.7h14.8l27.8 65.8h-15.7l-5.5-14.4Zm-4.4-11.7-9.3-24.2h-.5l-9.3 24.2h19Zm61.6 3.4H221v22.8h-14.8v-65.9h28.5c5.3 0 9.9 1 13.8 2.7a19.5 19.5 0 0 1 12.2 18.1 20 20 0 0 1-3.8 12c-2.5 3.8-6 6.5-10.5 8.3l16 24.7h-16l-14-22.7ZM221 231.3h14c3.6 0 6.3-.9 8.4-2.7 2.1-1.7 3.1-4 3.1-6.6s-1-5-3-6.8c-2.2-1.7-5-2.6-8.4-2.6H221v18.7Zm64 32.1c-4.7-2-9-5-12.7-8.7l7.7-10.2c3 3 6.2 5.2 9.7 6.9 3.5 1.6 6.9 2.4 10 2.4 2.5 0 4.5-.6 6.1-1.7a5.3 5.3 0 0 0 2.4-4.6c0-1.5-.5-2.7-1.5-3.8-1-1.1-2.4-2-4-2.8l-6.6-2.8-5-2a35 35 0 0 1-12-7.2 14.6 14.6 0 0 1-4-10.8c0-3.6 1-6.8 2.9-9.7 2-2.9 4.6-5.1 8-6.7 3.3-1.6 7-2.4 11.3-2.4a33.7 33.7 0 0 1 23.6 10l-7.1 9.7a37.3 37.3 0 0 0-8.5-5.6 20 20 0 0 0-8-2c-2.2 0-4 .6-5.4 1.7a5.2 5.2 0 0 0-2.2 4.3 5 5 0 0 0 2.4 4.4 44.2 44.2 0 0 0 9.5 4.4l1.4.6a73 73 0 0 1 11.1 5.3c2.8 1.8 5 3.8 6.5 6.2a16 16 0 0 1 2.2 8.7 18 18 0 0 1-11.5 17.3 29.6 29.6 0 0 1-11.8 2.3c-4.8 0-9.6-1-14.4-3.1Z"/></svg>