<svg viewBox="0 0 706 718.1" xmlns="http://www.w3.org/2000/svg"><path d="m30 114.1h-30v-14h30zm-28-2h26v-10h-26zm8 9h-2v-3h-7v-2h9z"/><path d="m6 126.1h-6v-10h6zm-4-2h2v-6h-2zm28-3h-2v-3h-10v3h-2v-5h14z"/><path d="m26 126.1h-6v-10h6zm-4-2h2v-6h-2zm48-10h-34v-14h34zm-32-2h30v-10h-30zm12 9h-2v-3h-10v3h-2v-5h14z"/><path d="m46 126.1h-6v-10h6zm-4-2h2v-6h-2zm28-3h-2v-3h-10v3h-2v-5h14z"/><path d="m66 126.1h-6v-10h6zm-4-2h2v-6h-2zm48-10h-34v-14h34zm-32-2h30v-10h-30zm12 9h-2v-3h-10v3h-2v-5h14z"/><path d="m86 126.1h-6v-10h6zm-4-2h2v-6h-2zm28-3h-2v-3h-10v3h-2v-5h14z"/><path d="m106 126.1h-6v-10h6zm-4-2h2v-6h-2zm48-10h-34v-14h34zm-32-2h30v-10h-30zm12 9h-2v-3h-10v3h-2v-5h14z"/><path d="m126 126.1h-6v-10h6zm-4-2h2v-6h-2zm28-3h-2v-3h-10v3h-2v-5h14z"/><path d="m146 126.1h-6v-10h6zm-4-2h2v-6h-2zm48-10h-34v-14h34zm-32-2h30v-10h-30zm12 9h-2v-3h-10v3h-2v-5h14z"/><path d="m166 126.1h-6v-10h6zm-4-2h2v-6h-2zm28-3h-2v-3h-10v3h-2v-5h14z"/><path d="m186 126.1h-6v-10h6zm-4-2h2v-6h-2zm48-10h-34v-14h34zm-32-2h30v-10h-30zm12 9h-2v-3h-10v3h-2v-5h14z"/><path d="m206 126.1h-6v-10h6zm-4-2h2v-6h-2zm28-3h-2v-3h-10v3h-2v-5h14z"/><path d="m226 126.1h-6v-10h6zm-4-2h2v-6h-2zm48-10h-34v-14h34zm-32-2h30v-10h-30zm12 9h-2v-3h-10v3h-2v-5h14z"/><path d="m246 126.1h-6v-10h6zm-4-2h2v-6h-2zm28-3h-2v-3h-10v3h-2v-5h14z"/><path d="m266 126.1h-6v-10h6zm-4-2h2v-6h-2zm48-10h-34v-14h34zm-32-2h30v-10h-30zm12 9h-2v-3h-10v3h-2v-5h14z"/><path d="m286 126.1h-6v-10h6zm-4-2h2v-6h-2zm28-3h-2v-3h-10v3h-2v-5h14z"/><path d="m306 126.1h-6v-10h6zm-4-2h2v-6h-2zm48-10h-34v-14h34zm-32-2h30v-10h-30zm12 9h-2v-3h-10v3h-2v-5h14z"/><path d="m326 126.1h-6v-10h6zm-4-2h2v-6h-2zm28-3h-2v-3h-10v3h-2v-5h14z"/><path d="m346 126.1h-6v-10h6zm-4-2h2v-6h-2zm48-10h-34v-14h34zm-32-2h30v-10h-30zm12 9h-2v-3h-10v3h-2v-5h14z"/><path d="m366 126.1h-6v-10h6zm-4-2h2v-6h-2zm28-3h-2v-3h-10v3h-2v-5h14z"/><path d="m386 126.1h-6v-10h6zm-4-2h2v-6h-2zm48-10h-34v-14h34zm-32-2h30v-10h-30zm12 9h-2v-3h-10v3h-2v-5h14z"/><path d="m406 126.1h-6v-10h6zm-4-2h2v-6h-2zm28-3h-2v-3h-10v3h-2v-5h14z"/><path d="m426 126.1h-6v-10h6zm-4-2h2v-6h-2zm48-10h-34v-14h34zm-32-2h30v-10h-30zm12 9h-2v-3h-10v3h-2v-5h14z"/><path d="m446 126.1h-6v-10h6zm-4-2h2v-6h-2zm28-3h-2v-3h-10v3h-2v-5h14z"/><path d="m466 126.1h-6v-10h6zm-4-2h2v-6h-2zm48-10h-34v-14h34zm-32-2h30v-10h-30zm12 9h-2v-3h-10v3h-2v-5h14z"/><path d="m486 126.1h-6v-10h6zm-4-2h2v-6h-2zm28-3h-2v-3h-10v3h-2v-5h14z"/><path d="m506 126.1h-6v-10h6zm-4-2h2v-6h-2zm48-10h-34v-14h34zm-32-2h30v-10h-30zm12 9h-2v-3h-10v3h-2v-5h14z"/><path d="m526 126.1h-6v-10h6zm-4-2h2v-6h-2zm28-3h-2v-3h-10v3h-2v-5h14z"/><path d="m546 126.1h-6v-10h6zm-4-2h2v-6h-2zm48-10h-34v-14h34zm-32-2h30v-10h-30zm12 9h-2v-3h-10v3h-2v-5h14z"/><path d="m566 126.1h-6v-10h6zm-4-2h2v-6h-2zm28-3h-2v-3h-10v3h-2v-5h14z"/><path d="m586 126.1h-6v-10h6zm-4-2h2v-6h-2zm48-10h-34v-14h34zm-32-2h30v-10h-30zm12 9h-2v-3h-10v3h-2v-5h14z"/><path d="m606 126.1h-6v-10h6zm-4-2h2v-6h-2zm28-3h-2v-3h-10v3h-2v-5h14z"/><path d="m626 126.1h-6v-10h6zm-4-2h2v-6h-2zm48-10h-34v-14h34zm-32-2h30v-10h-30zm12 9h-2v-3h-10v3h-2v-5h14z"/><path d="m646 126.1h-6v-10h6zm-4-2h2v-6h-2zm28-3h-2v-3h-10v3h-2v-5h14z"/><path d="m666 126.1h-6v-10h6zm-4-2h2v-6h-2zm44-10h-30v-14h30zm-28-2h26v-10h-26zm12 9h-2v-3h-10v3h-2v-5h14z"/><path d="m686 126.1h-6v-10h6zm-4-2h2v-6h-2zm16-3h-2v-5h9v2h-7z"/><path d="m706 126.1h-6v-10h6zm-4-2h2v-6h-2zm-648-30h-6v-62h6zm-4-2h2v-58h-2zm16 2h-10v-30h10zm-8-2h6v-26h-6zm8-30h-10v-29.5h10zm-8-2h6v-25.5h-6zm16 34h-6v-62h6zm-4-2h2v-58h-2zm32 2h-26v-30h26zm-24-2h22v-26h-22zm24-30h-26v-30h26zm-24-2h22v-26h-22zm32 34h-6v-62h6zm-4-2h2v-58h-2zm16 2h-10v-30h10zm-8-2h6v-26h-6zm8-30h-10v-29.5h10zm-8-2h6v-25.5h-6zm16 34h-6v-62h6zm-4-2h2v-58h-2zm4-62h-22v-10h22zm-20-2h18v-6h-18zm-40 2h-22v-10h22zm-20-2h18v-6h-18z"/><path d="m118 22.1h-58v-6h58zm-56-2h54v-2h-54z"/><path d="m130 22.1h-82v-6h82zm-80-2h78v-2h-78z"/><path d="m118 18.1h-58v-5.7l29-12.4 29 12.4zm-56-2h54v-2.3l-27-11.6-27 11.6z"/><path d="m107.7 14.1h-37.3l-.4-1.9 19.1-8.2 19.1 8.2-.4 1.9zm-32.5-2h27.6l-13.8-5.9zm-13.2 6h-14v-6h14zm-12-2h10v-2h-10zm80 2h-14v-6h14zm-12-2h10v-2h-10zm-12 14h-34v-10h34zm-32-2h30v-6h-30zm156 66h-6v-62h6zm-4-2h2v-58h-2zm16 2h-10v-30h10zm-8-2h6v-26h-6zm8-30h-10v-29.5h10zm-8-2h6v-25.5h-6zm16 34h-6v-62h6zm-4-2h2v-58h-2zm32 2h-26v-30h26zm-24-2h22v-26h-22zm24-30h-26v-30h26zm-24-2h22v-26h-22zm32 34h-6v-62h6zm-4-2h2v-58h-2zm16 2h-10v-30h10zm-8-2h6v-26h-6zm8-30h-10v-29.5h10zm-8-2h6v-25.5h-6zm16 34h-6v-62h6zm-4-2h2v-58h-2zm4-62h-22v-10h22zm-20-2h18v-6h-18zm-40 2h-22v-10h22zm-20-2h18v-6h-18z"/><path d="m294 22.1h-58v-6h58zm-56-2h54v-2h-54z"/><path d="m306 22.1h-82v-6h82zm-80-2h78v-2h-78z"/><path d="m294 18.1h-58v-5.7l29-12.4 29 12.4zm-56-2h54v-2.3l-27-11.6-27 11.6z"/><path d="m283.7 14.1h-37.3l-.4-1.9 19.1-8.2 19.1 8.2-.4 1.9zm-32.5-2h27.6l-13.8-5.9zm-13.2 6h-14v-6h14zm-12-2h10v-2h-10zm80 2h-14v-6h14zm-12-2h10v-2h-10zm-12 14h-34v-10h34zm-32-2h30v-6h-30zm156 66h-6v-62h6zm-4-2h2v-58h-2zm16 2h-10v-30h10zm-8-2h6v-26h-6zm8-30h-10v-29.5h10zm-8-2h6v-25.5h-6zm16 34h-6v-62h6zm-4-2h2v-58h-2zm32 2h-26v-30h26zm-24-2h22v-26h-22zm24-30h-26v-30h26zm-24-2h22v-26h-22zm32 34h-6v-62h6zm-4-2h2v-58h-2zm16 2h-10v-30h10zm-8-2h6v-26h-6zm8-30h-10v-29.5h10zm-8-2h6v-25.5h-6zm16 34h-6v-62h6zm-4-2h2v-58h-2zm4-62h-22v-10h22zm-20-2h18v-6h-18zm-40 2h-22v-10h22zm-20-2h18v-6h-18z"/><path d="m470 22.1h-58v-6h58zm-56-2h54v-2h-54z"/><path d="m482 22.1h-82v-6h82zm-80-2h78v-2h-78z"/><path d="m470 18.1h-58v-5.7l29-12.4 29 12.4zm-56-2h54v-2.3l-27-11.6-27 11.6z"/><path d="m459.7 14.1h-37.3l-.4-1.9 19.1-8.2 19.1 8.2-.4 1.9zm-32.5-2h27.6l-13.8-5.9zm-13.2 6h-14v-6h14zm-12-2h10v-2h-10zm80 2h-14v-6h14zm-12-2h10v-2h-10zm-12 14h-34v-10h34zm-32-2h30v-6h-30zm156 66h-6v-62h6zm-4-2h2v-58h-2zm16 2h-10v-30h10zm-8-2h6v-26h-6zm8-30h-10v-29.5h10zm-8-2h6v-25.5h-6zm16 34h-6v-62h6zm-4-2h2v-58h-2zm32 2h-26v-30h26zm-24-2h22v-26h-22zm24-30h-26v-30h26zm-24-2h22v-26h-22zm32 34h-6v-62h6zm-4-2h2v-58h-2zm16 2h-10v-30h10zm-8-2h6v-26h-6zm8-30h-10v-29.5h10zm-8-2h6v-25.5h-6zm16 34h-6v-62h6zm-4-2h2v-58h-2zm4-62h-22v-10h22zm-20-2h18v-6h-18zm-40 2h-22v-10h22zm-20-2h18v-6h-18z"/><path d="m646 22.1h-58v-6h58zm-56-2h54v-2h-54z"/><path d="m658 22.1h-82v-6h82zm-80-2h78v-2h-78z"/><path d="m646 18.1h-58v-5.7l29-12.4 29 12.4zm-56-2h54v-2.3l-27-11.6-27 11.6z"/><path d="m635.7 14.1h-37.3l-.4-1.9 19.1-8.2 19.1 8.2-.4 1.9zm-32.5-2h27.6l-13.8-5.9zm-13.2 6h-14v-6h14zm-12-2h10v-2h-10zm80 2h-14v-6h14zm-12-2h10v-2h-10zm-12 14h-34v-10h34zm-32-2h30v-6h-30zm104 106h-706v-6h706zm-704-2h702v-2h-702z"/><path d="m700 129.1h2v4h-2zm-4 0h2v4h-2zm-4 0h2v4h-2zm-4 0h2v4h-2zm-4 0h2v4h-2zm-4 0h2v4h-2zm-4 0h2v4h-2zm-4 0h2v4h-2zm-4 0h2v4h-2zm-4 0h2v4h-2zm-4 0h2v4h-2zm-4 0h2v4h-2zm-4 0h2v4h-2zm-4 0h2v4h-2zm-4 0h2v4h-2zm-4 0h2v4h-2zm-4 0h2v4h-2zm-4 0h2v4h-2zm-4 0h2v4h-2zm-4 0h2v4h-2zm-4 0h2v4h-2zm-4 0h2v4h-2zm-4 0h2v4h-2zm-4 0h2v4h-2zm-4 0h2v4h-2zm-4 0h2v4h-2zm-4 0h2v4h-2zm-4 0h2v4h-2zm-4 0h2v4h-2zm-4 0h2v4h-2zm-4 0h2v4h-2zm-4 0h2v4h-2zm-4 0h2v4h-2zm-4 0h2v4h-2zm-4 0h2v4h-2zm-4 0h2v4h-2zm-4 0h2v4h-2zm-4 0h2v4h-2zm-4 0h2v4h-2zm-4 0h2v4h-2zm-4 0h2v4h-2zm-4 0h2v4h-2zm-4 0h2v4h-2zm-4 0h2v4h-2zm-4 0h2v4h-2zm-4 0h2v4h-2zm-4 0h2v4h-2zm-4 0h2v4h-2zm-4 0h2v4h-2zm-4 0h2v4h-2zm-4 0h2v4h-2zm-4 0h2v4h-2zm-4 0h2v4h-2zm-4 0h2v4h-2zm-4 0h2v4h-2zm-4 0h2v4h-2zm-4 0h2v4h-2zm-4 0h2v4h-2zm-4 0h2v4h-2zm-4 0h2v4h-2zm-4 0h2v4h-2zm-4 0h2v4h-2zm-4 0h2v4h-2zm-4 0h2v4h-2zm-4 0h2v4h-2zm-4 0h2v4h-2zm-4 0h2v4h-2zm-4 0h2v4h-2zm-4 0h2v4h-2zm-4 0h2v4h-2zm-4 0h2v4h-2zm-4 0h2v4h-2zm-4 0h2v4h-2zm-4 0h2v4h-2zm-4 0h2v4h-2zm-4 0h2v4h-2zm-4 0h2v4h-2zm-4 0h2v4h-2zm-4 0h2v4h-2zm-4 0h2v4h-2zm-4 0h2v4h-2zm-4 0h2v4h-2zm-4 0h2v4h-2zm-4 0h2v4h-2zm-4 0h2v4h-2zm-4 0h2v4h-2zm-4 0h2v4h-2zm-4 0h2v4h-2zm-4 0h2v4h-2zm-4 0h2v4h-2zm-4 0h2v4h-2zm-4 0h2v4h-2zm-4 0h2v4h-2zm-4 0h2v4h-2zm-4 0h2v4h-2zm-4 0h2v4h-2zm-4 0h2v4h-2zm-4 0h2v4h-2zm-4 0h2v4h-2zm-4 0h2v4h-2zm-4 0h2v4h-2zm-4 0h2v4h-2zm-4 0h2v4h-2zm-4 0h2v4h-2zm-4 0h2v4h-2zm-4 0h2v4h-2zm-4 0h2v4h-2zm-4 0h2v4h-2zm-4 0h2v4h-2zm-4 0h2v4h-2zm-4 0h2v4h-2zm-4 0h2v4h-2zm-4 0h2v4h-2zm-4 0h2v4h-2zm-4 0h2v4h-2zm-4 0h2v4h-2zm-4 0h2v4h-2zm-4 0h2v4h-2zm-4 0h2v4h-2zm-4 0h2v4h-2zm-4 0h2v4h-2zm-4 0h2v4h-2zm-4 0h2v4h-2zm-4 0h2v4h-2zm-4 0h2v4h-2zm-4 0h2v4h-2zm-4 0h2v4h-2zm-4 0h2v4h-2zm-4 0h2v4h-2zm-4 0h2v4h-2zm-4 0h2v4h-2zm-4 0h2v4h-2zm-4 0h2v4h-2zm-4 0h2v4h-2zm-4 0h2v4h-2zm-4 0h2v4h-2zm-4 0h2v4h-2zm-4 0h2v4h-2zm-4 0h2v4h-2zm-4 0h2v4h-2zm-4 0h2v4h-2zm-4 0h2v4h-2zm-4 0h2v4h-2zm-4 0h2v4h-2zm-4 0h2v4h-2zm-4 0h2v4h-2zm-4 0h2v4h-2zm-4 0h2v4h-2zm-4 0h2v4h-2zm-4 0h2v4h-2zm-4 0h2v4h-2zm-4 0h2v4h-2zm-4 0h2v4h-2zm-4 0h2v4h-2zm-4 0h2v4h-2zm-4 0h2v4h-2zm-4 0h2v4h-2zm-4 0h2v4h-2zm-4 0h2v4h-2zm-4 0h2v4h-2zm-4 0h2v4h-2zm-4 0h2v4h-2zm-4 0h2v4h-2zm-4 0h2v4h-2zm-4 0h2v4h-2zm-4 0h2v4h-2zm-4 0h2v4h-2zm-4 0h2v4h-2zm-4 0h2v4h-2zm-4 0h2v4h-2zm-4 0h2v4h-2zm-4 0h2v4h-2zm-4 0h2v4h-2zm-4 0h2v4h-2zm-4 0h2v4h-2zm8-13h2v10h-2zm20-16h2v26h-2zm20 16h2v10h-2zm20-16h2v26h-2zm20 16h2v10h-2zm20-16h2v26h-2zm20 16h2v10h-2zm20-16h2v26h-2zm20 16h2v10h-2zm20-16h2v26h-2zm20 16h2v10h-2zm20-16h2v26h-2zm20 16h2v10h-2zm20-16h2v26h-2zm20 16h2v10h-2zm20-16h2v26h-2zm20 16h2v10h-2zm20-16h2v26h-2zm20 16h2v10h-2zm20-16h2v26h-2zm20 16h2v10h-2zm20-16h2v26h-2zm20 16h2v10h-2zm20-16h2v26h-2zm20 16h2v10h-2zm20-16h2v26h-2zm20 16h2v10h-2zm20-16h2v26h-2zm20 16h2v10h-2zm20-16h2v26h-2zm20 16h2v10h-2zm20-16h2v26h-2zm20 16h2v10h-2zm20-16h2v26h-2zm20 16h2v10h-2zm-683-20h688v2h-688zm0-8h40v2h-40zm0-8h40v2h-40zm0-8h40v2h-40zm0-8h40v2h-40zm0-8h40v2h-40zm0-8h40v2h-40zm0-8h40v2h-40zm0-8h40v2h-40zm0-8h40v2h-40zm0-8h40v2h-40zm120 72h96v2h-96zm0-8h96v2h-96zm0-8h96v2h-96zm0-8h96v2h-96zm0-8h96v2h-96zm0-8h96v2h-96zm0-8h96v2h-96zm0-8h96v2h-96zm0-8h96v2h-96zm0-8h96v2h-96zm176 72h96v2h-96zm0-8h96v2h-96zm0-8h96v2h-96zm0-8h96v2h-96zm0-8h96v2h-96zm0-8h96v2h-96zm0-8h96v2h-96zm0-8h96v2h-96zm0-8h96v2h-96zm0-8h96v2h-96zm176 72h96v2h-96zm0-8h96v2h-96zm0-8h96v2h-96zm0-8h96v2h-96zm0-8h96v2h-96zm0-8h96v2h-96zm0-8h96v2h-96zm0-8h96v2h-96zm0-8h96v2h-96zm0-8h96v2h-96zm176 72h40v2h-40zm0-8h40v2h-40zm0-8h40v2h-40zm0-8h40v2h-40zm0-8h40v2h-40zm0-8h40v2h-40zm0-8h40v2h-40zm0-8h40v2h-40zm0-8h40v2h-40zm0-8h40v2h-40zm-649-8h62v2h-62zm628 0h62v2h-62zm-176 0h138v2h-138zm-176 0h138v2h-138zm-176 0h138v2h-138z"/><path d="m10 98.1h-10v-90h10zm-8-2h6v-86h-6zm704 2h-10v-90h10zm-8-2h6v-86h-6zm-562-7h2v8h-2zm16 0h2v8h-2zm-8-8h2v8h-2zm-8-8h2v8h-2zm16 0h2v8h-2zm-8-8h2v8h-2zm-8-8h2v8h-2zm16 0h2v8h-2zm-8-8h2v8h-2zm-8-8h2v8h-2zm16 0h2v8h-2zm-8-8h2v8h-2zm-8-8h2v8h-2zm16 0h2v8h-2zm-8-8h2v8h-2zm16 64h2v8h-2zm0-16h2v8h-2zm0-16h2v8h-2zm0-16h2v8h-2zm0-16h2v8h-2zm16 64h2v8h-2zm0-16h2v8h-2zm0-16h2v8h-2zm0-16h2v8h-2zm0-16h2v8h-2zm16 64h2v8h-2zm0-16h2v8h-2zm0-16h2v8h-2zm0-16h2v8h-2zm0-16h2v8h-2zm16 64h2v8h-2zm0-16h2v8h-2zm0-16h2v8h-2zm0-16h2v8h-2zm0-16h2v8h-2zm-72-8h2v8h-2zm16 0h2v8h-2zm16 80h2v8h-2zm0-16h2v8h-2zm0-16h2v8h-2zm0-16h2v8h-2zm0-16h2v8h-2zm0-16h2v8h-2zm16 80h2v8h-2zm0-16h2v8h-2zm0-16h2v8h-2zm0-16h2v8h-2zm0-16h2v8h-2zm0-16h2v8h-2zm16 80h2v8h-2zm0-16h2v8h-2zm0-16h2v8h-2zm0-16h2v8h-2zm0-16h2v8h-2zm0-16h2v8h-2zm16 80h2v8h-2zm0-16h2v8h-2zm0-16h2v8h-2zm0-16h2v8h-2zm0-16h2v8h-2zm0-16h2v8h-2zm96 80h2v8h-2zm16 0h2v8h-2zm-8-8h2v8h-2zm-8-8h2v8h-2zm16 0h2v8h-2zm-8-8h2v8h-2zm-8-8h2v8h-2zm16 0h2v8h-2zm-8-8h2v8h-2zm-8-8h2v8h-2zm16 0h2v8h-2zm-8-8h2v8h-2zm-8-8h2v8h-2zm16 0h2v8h-2zm-8-8h2v8h-2zm16 64h2v8h-2zm0-16h2v8h-2zm0-16h2v8h-2zm0-16h2v8h-2zm0-16h2v8h-2zm16 64h2v8h-2zm0-16h2v8h-2zm0-16h2v8h-2zm0-16h2v8h-2zm0-16h2v8h-2zm16 64h2v8h-2zm0-16h2v8h-2zm0-16h2v8h-2zm0-16h2v8h-2zm0-16h2v8h-2zm16 64h2v8h-2zm0-16h2v8h-2zm0-16h2v8h-2zm0-16h2v8h-2zm0-16h2v8h-2zm-72-8h2v8h-2zm16 0h2v8h-2zm16 80h2v8h-2zm0-16h2v8h-2zm0-16h2v8h-2zm0-16h2v8h-2zm0-16h2v8h-2zm0-16h2v8h-2zm16 80h2v8h-2zm0-16h2v8h-2zm0-16h2v8h-2zm0-16h2v8h-2zm0-16h2v8h-2zm0-16h2v8h-2zm16 80h2v8h-2zm0-16h2v8h-2zm0-16h2v8h-2zm0-16h2v8h-2zm0-16h2v8h-2zm0-16h2v8h-2zm16 80h2v8h-2zm0-16h2v8h-2zm0-16h2v8h-2zm0-16h2v8h-2zm0-16h2v8h-2zm0-16h2v8h-2zm96 80h2v8h-2zm16 0h2v8h-2zm-8-8h2v8h-2zm-8-8h2v8h-2zm16 0h2v8h-2zm-8-8h2v8h-2zm-8-8h2v8h-2zm16 0h2v8h-2zm-8-8h2v8h-2zm-8-8h2v8h-2zm16 0h2v8h-2zm-8-8h2v8h-2zm-8-8h2v8h-2zm16 0h2v8h-2zm-8-8h2v8h-2zm16 64h2v8h-2zm0-16h2v8h-2zm0-16h2v8h-2zm0-16h2v8h-2zm0-16h2v8h-2zm16 64h2v8h-2zm0-16h2v8h-2zm0-16h2v8h-2zm0-16h2v8h-2zm0-16h2v8h-2zm16 64h2v8h-2zm0-16h2v8h-2zm0-16h2v8h-2zm0-16h2v8h-2zm0-16h2v8h-2zm16 64h2v8h-2zm0-16h2v8h-2zm0-16h2v8h-2zm0-16h2v8h-2zm0-16h2v8h-2zm-72-8h2v8h-2zm16 0h2v8h-2zm16 80h2v8h-2zm0-16h2v8h-2zm0-16h2v8h-2zm0-16h2v8h-2zm0-16h2v8h-2zm0-16h2v8h-2zm16 80h2v8h-2zm0-16h2v8h-2zm0-16h2v8h-2zm0-16h2v8h-2zm0-16h2v8h-2zm0-16h2v8h-2zm16 80h2v8h-2zm0-16h2v8h-2zm0-16h2v8h-2zm0-16h2v8h-2zm0-16h2v8h-2zm0-16h2v8h-2zm16 80h2v8h-2zm0-16h2v8h-2zm0-16h2v8h-2zm0-16h2v8h-2zm0-16h2v8h-2zm0-16h2v8h-2zm96 80h2v8h-2zm16 0h2v8h-2zm-8-8h2v8h-2zm-8-8h2v8h-2zm16 0h2v8h-2zm-8-8h2v8h-2zm-8-8h2v8h-2zm16 0h2v8h-2zm-8-8h2v8h-2zm-8-8h2v8h-2zm16 0h2v8h-2zm-8-8h2v8h-2zm-8-8h2v8h-2zm16 0h2v8h-2zm-8-8h2v8h-2zm16 64h2v8h-2zm0-16h2v8h-2zm0-16h2v8h-2zm0-16h2v8h-2zm0-16h2v8h-2zm-24-8h2v8h-2zm16 0h2v8h-2zm-640 80h2v8h-2zm-16 0h2v8h-2zm8-8h2v8h-2zm8-8h2v8h-2zm-16 0h2v8h-2zm8-8h2v8h-2zm8-8h2v8h-2zm-16 0h2v8h-2zm8-8h2v8h-2zm8-8h2v8h-2zm-16 0h2v8h-2zm8-8h2v8h-2zm8-8h2v8h-2zm-16 0h2v8h-2zm8-8h2v8h-2zm-16 64h2v8h-2zm0-16h2v8h-2zm0-16h2v8h-2zm0-16h2v8h-2zm0-16h2v8h-2zm24-8h2v8h-2zm-16 0h2v8h-2z"/><path d="m706 246.1h-706v-109h706zm-704-2h702v-105h-702z"/><path d="m634 238.1h-34v-26h34zm-32-2h30v-22h-30zm32-26h-34v-27.6l.6-.3c.2 0 4.4-2.1 16.4-2.1s16.3 2 16.4 2.1l.6.3zm-32-2h30v-24.3c-1.4-.5-5.9-1.7-15-1.7s-13.6 1.2-15 1.7zm20-30h-10v-8h10zm-8-2h6v-4h-6z"/><path d="m638 242.1h-2v-61.3c-2.1-.7-9.2-2.7-19-2.7s-16.9 2-19 2.7v61.3h-2v-62.7l.6-.2c.3-.1 8.3-3.1 20.4-3.1s20 2.9 20.4 3.1l.6.2z"/><path d="m642 241.1h-2v-64.3c-2.5-1-12.2-4.7-23-4.7s-20.5 3.7-23 4.7v64.3h-2v-65.6l.6-.3c.5-.2 11.5-5.1 24.4-5.1s23.9 4.9 24.4 5.1l.6.3z"/><path d="m646 242.1h-58v-68.6l.5-.3c.4-.2 10.4-6 24.4-7h1.1v3.9h6v-3.9h1.1c14 1.1 24 6.8 24.4 7.1l.5.3v68.6zm-56-2h54v-65.4c-2.1-1.1-10.7-5.3-22-6.4v3.8h-10v-3.8c-11.3 1-19.9 5.2-22 6.4z"/><path d="m622 172.1h-10v-12h10zm-8-2h6v-8h-6zm-156 68h-34v-26h34zm-32-2h30v-22h-30zm32-26h-34v-27.6l.6-.3c.2 0 4.4-2.1 16.4-2.1s16.3 2 16.4 2.1l.6.3zm-32-2h30v-24.3c-1.4-.5-5.9-1.7-15-1.7s-13.6 1.2-15 1.7zm20-30h-10v-8h10zm-8-2h6v-4h-6z"/><path d="m462 242.1h-2v-61.3c-2.1-.7-9.2-2.7-19-2.7s-16.9 2-19 2.7v61.3h-2v-62.7l.6-.2c.3-.1 8.3-3.1 20.4-3.1s20 2.9 20.4 3.1l.6.2z"/><path d="m466 241.1h-2v-64.3c-2.5-1-12.2-4.7-23-4.7s-20.5 3.7-23 4.7v64.3h-2v-65.6l.6-.3c.5-.2 11.5-5.1 24.4-5.1s23.9 4.9 24.4 5.1l.6.3z"/><path d="m470 242.1h-58v-68.6l.5-.3c.4-.2 10.4-6 24.4-7h1.1v3.9h6v-3.9h1.1c14 1.1 24 6.8 24.4 7.1l.5.3v68.6zm-56-2h54v-65.4c-2.1-1.1-10.7-5.3-22-6.4v3.8h-10v-3.8c-11.3 1-19.9 5.2-22 6.4z"/><path d="m446 172.1h-10v-12h10zm-8-2h6v-8h-6zm-156 68h-34v-26h34zm-32-2h30v-22h-30zm32-26h-34v-27.6l.6-.3c.2 0 4.4-2.1 16.4-2.1s16.3 2 16.4 2.1l.6.3zm-32-2h30v-24.3c-1.4-.5-5.9-1.7-15-1.7s-13.6 1.2-15 1.7zm20-30h-10v-8h10zm-8-2h6v-4h-6z"/><path d="m286 242.1h-2v-61.3c-2.1-.7-9.3-2.7-19-2.7s-16.9 2-19 2.7v61.3h-2v-62.7l.6-.2c.3-.1 8.3-3.1 20.4-3.1s20 2.9 20.4 3.1l.6.2z"/><path d="m290 241.1h-2v-64.3c-2.5-1-12.2-4.7-23-4.7s-20.5 3.7-23 4.7v64.3h-2v-65.6l.6-.3c.5-.2 11.5-5.1 24.4-5.1s23.9 4.9 24.4 5.1l.6.3z"/><path d="m294 242.1h-58v-68.6l.5-.3c.4-.2 10.4-6 24.4-7h1.1v3.9h6v-3.9h1.1c14 1.1 24 6.8 24.4 7.1l.5.3v68.6zm-56-2h54v-65.4c-2.1-1.1-10.7-5.3-22-6.4v3.8h-10v-3.8c-11.3 1-19.9 5.2-22 6.4z"/><path d="m270 172.1h-10v-12h10zm-8-2h6v-8h-6zm-156 68h-34v-26h34zm-32-2h30v-22h-30zm32-26h-34v-27.6l.6-.3c.2 0 4.4-2.1 16.4-2.1s16.3 2 16.4 2.1l.6.3zm-32-2h30v-24.3c-1.4-.5-5.9-1.7-15-1.7s-13.6 1.2-15 1.7zm20-30h-10v-8h10zm-8-2h6v-4h-6z"/><path d="m110 242.1h-2v-61.3c-2.1-.7-9.3-2.7-19-2.7s-16.9 2-19 2.7v61.3h-2v-62.7l.6-.2c.3-.1 8.3-3.1 20.4-3.1s20 2.9 20.4 3.1l.6.2z"/><path d="m114 241.1h-2v-64.3c-2.5-1-12.2-4.7-23-4.7s-20.5 3.7-23 4.7v64.3h-2v-65.6l.6-.3c.5-.2 11.5-5.1 24.4-5.1s23.9 4.9 24.4 5.1l.6.3z"/><path d="m118 242.1h-58v-68.6l.5-.3c.4-.2 10.4-6 24.4-7h1.1v3.9h6v-3.9h1.1c14 1.1 24 6.8 24.4 7.1l.5.3v68.6zm-56-2h54v-65.4c-2.1-1.1-10.7-5.3-22-6.4v3.8h-10v-3.8c-11.3 1-19.9 5.2-22 6.4z"/><path d="m94 172.1h-10v-12h10zm-8-2h6v-8h-6zm564 76h-66v-6h66zm-64-2h62v-2h-62z"/><path d="m597 250.1h-8l-.7-.3-4-4 .7-1.7h16l.7 1.7-4 4zm-7.6-2h7.2l2-2h-11.2zm55.6 2h-8l-.7-.3-4-4 .7-1.7h16l.7 1.7-4 4zm-7.6-2h7.2l2-2h-11.2zm-163.4-2h-66v-6h66zm-64-2h62v-2h-62z"/><path d="m421 250.1h-8l-.7-.3-4-4 .7-1.7h16l.7 1.7-4 4zm-7.6-2h7.2l2-2h-11.2zm55.6 2h-8l-.7-.3-4-4 .7-1.7h16l.7 1.7-4 4zm-7.6-2h7.2l2-2h-11.2zm-163.4-2h-66v-6h66zm-64-2h62v-2h-62z"/><path d="m245 250.1h-8l-.7-.3-4-4 .7-1.7h16l.7 1.7-4 4zm-7.6-2h7.2l2-2h-11.2zm55.6 2h-8l-.7-.3-4-4 .7-1.7h16l.7 1.7-4 4zm-7.6-2h7.2l2-2h-11.2zm-163.4-2h-66v-6h66zm-64-2h62v-2h-62z"/><path d="m69 250.1h-8l-.7-.3-4-4 .7-1.7h16l.7 1.7-4 4zm-7.6-2h7.2l2-2h-11.2zm55.6 2h-8l-.7-.3-4-4 .7-1.7h16l.7 1.7-4 4zm-7.6-2h7.2l2-2h-11.2z"/><path d="m706 430.1h-706v-178h706zm-704-2h702v-174h-702z"/><path d="m598 258.1h-10v-10h10zm-8-2h6v-6h-6zm56 2h-10v-10h10zm-8-2h6v-6h-6zm-216 2h-10v-10h10zm-8-2h6v-6h-6zm56 2h-10v-10h10zm-8-2h6v-6h-6zm-216 2h-10v-10h10zm-8-2h6v-6h-6zm56 2h-10v-10h10zm-8-2h6v-6h-6zm-216 2h-10v-10h10zm-8-2h6v-6h-6zm56 2h-10v-10h10zm-8-2h6v-6h-6zm-53 52h64v2h-64zm57 102h-50v-94h50zm-48-2h46v-90h-46z"/><path d="m110 362.1h-42v-42h42zm-40-2h38v-38h-38zm40 46h-42v-42h42zm-40-2h38v-38h-38zm67-114h-96l-.4-1.9 48.4-20.2 48.4 20.2zm-91-2h86l-43-17.9z"/><path d="m120.6 290-31.6-11.8-31.6 11.8-.8-1.8 32.4-12.2 32.4 12.2zm17.4 8.1h-98v-6h98zm-96-2h94v-2h-94z"/><path d="m62 302.1h-18v-6h18zm-16-2h14v-2h-14zm12 106h-10v-81h10zm-8-2h6v-77h-6z"/><path d="m52 329.1h2v73h-2zm0-25h2v10h-2zm82-2h-18v-6h18zm-16-2h14v-2h-14zm-65 26c-2.8 0-5-2.2-5-5s2.2-5 5-5 5 2.2 5 5-2.2 5-5 5zm0-8c-1.7 0-3 1.3-3 3s1.3 3 3 3 3-1.3 3-3-1.3-3-3-3zm61-16h-50v-6h50zm-48-2h46v-2h-46zm60 114h-75v-6h75zm-73-2h71v-2h-71z"/><path d="m69 418.1h-12l-.7-.3-4-4 .7-1.7h20l.7 1.7-4 4zm-11.6-2h11.2l2-2h-15.2z"/><path d="m70 430.1h-14v-14h14zm-12-2h10v-10h-10z"/><path d="m60 420.1h2v6h-2zm4 0h2v6h-2zm57-2h-12l-.7-.3-4-4 .7-1.7h20l.7 1.7-4 4zm-11.6-2h11.2l2-2h-15.2z"/><path d="m122 430.1h-14v-14h14zm-12-2h10v-10h-10z"/><path d="m112 420.1h2v6h-2zm4 0h2v6h-2zm-58-102h-10v-18h10zm-8-2h6v-14h-6zm80 90h-10v-81h10zm-8-2h6v-77h-6z"/><path d="m124 329.1h2v73h-2zm0-25h2v10h-2zm1 22c-2.8 0-5-2.2-5-5s2.2-5 5-5 5 2.2 5 5-2.2 5-5 5zm0-8c-1.7 0-3 1.3-3 3s1.3 3 3 3 3-1.3 3-3-1.3-3-3-3z"/><path d="m130 318.1h-10v-18h10zm-8-2h6v-14h-6zm-65 88h4v2h-4zm60 0h4v2h-4zm116-96h64v2h-64zm57 102h-50v-94h50zm-48-2h46v-90h-46z"/><path d="m286 362.1h-42v-42h42zm-40-2h38v-38h-38zm40 46h-42v-42h42zm-40-2h38v-38h-38zm67-114h-96l-.4-1.9 48.4-20.2 48.4 20.2zm-91-2h86l-43-17.9z"/><path d="m296.6 290-31.6-11.8-31.6 11.8-.8-1.8 32.4-12.2 32.4 12.2zm17.4 8.1h-98v-6h98zm-96-2h94v-2h-94z"/><path d="m238 302.1h-18v-6h18zm-16-2h14v-2h-14zm12 106h-10v-81h10zm-8-2h6v-77h-6z"/><path d="m228 329.1h2v73h-2zm0-25h2v10h-2zm82-2h-18v-6h18zm-16-2h14v-2h-14zm-65 26c-2.8 0-5-2.2-5-5s2.2-5 5-5 5 2.2 5 5-2.2 5-5 5zm0-8c-1.7 0-3 1.3-3 3s1.3 3 3 3 3-1.3 3-3-1.3-3-3-3zm61-16h-50v-6h50zm-48-2h46v-2h-46zm60 114h-75v-6h75zm-73-2h71v-2h-71z"/><path d="m245 418.1h-12l-.7-.3-4-4 .7-1.7h20l.7 1.7-4 4zm-11.6-2h11.2l2-2h-15.2z"/><path d="m246 430.1h-14v-14h14zm-12-2h10v-10h-10z"/><path d="m236 420.1h2v6h-2zm4 0h2v6h-2zm57-2h-12l-.7-.3-4-4 .7-1.7h20l.7 1.7-4 4zm-11.6-2h11.2l2-2h-15.2z"/><path d="m298 430.1h-14v-14h14zm-12-2h10v-10h-10z"/><path d="m288 420.1h2v6h-2zm4 0h2v6h-2zm-58-102h-10v-18h10zm-8-2h6v-14h-6zm80 90h-10v-81h10zm-8-2h6v-77h-6z"/><path d="m300 329.1h2v73h-2zm0-25h2v10h-2zm1 22c-2.8 0-5-2.2-5-5s2.2-5 5-5 5 2.2 5 5-2.2 5-5 5zm0-8c-1.7 0-3 1.3-3 3s1.3 3 3 3 3-1.3 3-3-1.3-3-3-3z"/><path d="m306 318.1h-10v-18h10zm-8-2h6v-14h-6zm-65 88h4v2h-4zm60 0h4v2h-4zm116-96h64v2h-64zm57 102h-50v-94h50zm-48-2h46v-90h-46z"/><path d="m462 362.1h-42v-42h42zm-40-2h38v-38h-38zm40 46h-42v-42h42zm-40-2h38v-38h-38zm67-114h-96l-.4-1.9 48.4-20.2 48.4 20.2zm-91-2h86l-43-17.9z"/><path d="m472.6 290-31.6-11.8-31.6 11.8-.8-1.8 32.4-12.2 32.4 12.2zm17.4 8.1h-98v-6h98zm-96-2h94v-2h-94z"/><path d="m414 302.1h-18v-6h18zm-16-2h14v-2h-14zm12 106h-10v-81h10zm-8-2h6v-77h-6z"/><path d="m404 329.1h2v73h-2zm0-25h2v10h-2zm82-2h-18v-6h18zm-16-2h14v-2h-14zm-65 26c-2.8 0-5-2.2-5-5s2.2-5 5-5 5 2.2 5 5-2.2 5-5 5zm0-8c-1.7 0-3 1.3-3 3s1.3 3 3 3 3-1.3 3-3-1.3-3-3-3zm61-16h-50v-6h50zm-48-2h46v-2h-46zm60 114h-75v-6h75zm-73-2h71v-2h-71z"/><path d="m421 418.1h-12l-.7-.3-4-4 .7-1.7h20l.7 1.7-4 4zm-11.6-2h11.2l2-2h-15.2z"/><path d="m422 430.1h-14v-14h14zm-12-2h10v-10h-10z"/><path d="m412 420.1h2v6h-2zm4 0h2v6h-2zm57-2h-12l-.7-.3-4-4 .7-1.7h20l.7 1.7-4 4zm-11.6-2h11.2l2-2h-15.2z"/><path d="m474 430.1h-14v-14h14zm-12-2h10v-10h-10z"/><path d="m464 420.1h2v6h-2zm4 0h2v6h-2zm-58-102h-10v-18h10zm-8-2h6v-14h-6zm80 90h-10v-81h10zm-8-2h6v-77h-6z"/><path d="m476 329.1h2v73h-2zm0-25h2v10h-2zm1 22c-2.8 0-5-2.2-5-5s2.2-5 5-5 5 2.2 5 5-2.2 5-5 5zm0-8c-1.7 0-3 1.3-3 3s1.3 3 3 3 3-1.3 3-3-1.3-3-3-3z"/><path d="m482 318.1h-10v-18h10zm-8-2h6v-14h-6zm-65 88h4v2h-4zm60 0h4v2h-4zm116-96h64v2h-64zm57 102h-50v-94h50zm-48-2h46v-90h-46z"/><path d="m638 362.1h-42v-42h42zm-40-2h38v-38h-38zm40 46h-42v-42h42zm-40-2h38v-38h-38zm67-114h-96l-.4-1.9 48.4-20.2 48.4 20.2zm-91-2h86l-43-17.9z"/><path d="m648.6 290-31.6-11.8-31.6 11.8-.8-1.8 32.4-12.2 32.4 12.2zm17.4 8.1h-98v-6h98zm-96-2h94v-2h-94z"/><path d="m590 302.1h-18v-6h18zm-16-2h14v-2h-14zm12 106h-10v-81h10zm-8-2h6v-77h-6z"/><path d="m580 329.1h2v73h-2zm0-25h2v10h-2zm82-2h-18v-6h18zm-16-2h14v-2h-14zm-65 26c-2.8 0-5-2.2-5-5s2.2-5 5-5 5 2.2 5 5-2.2 5-5 5zm0-8c-1.7 0-3 1.3-3 3s1.3 3 3 3 3-1.3 3-3-1.3-3-3-3zm61-16h-50v-6h50zm-48-2h46v-2h-46zm60 114h-75v-6h75zm-73-2h71v-2h-71z"/><path d="m597 418.1h-12l-.7-.3-4-4 .7-1.7h20l.7 1.7-4 4zm-11.6-2h11.2l2-2h-15.2z"/><path d="m598 430.1h-14v-14h14zm-12-2h10v-10h-10z"/><path d="m588 420.1h2v6h-2zm4 0h2v6h-2zm57-2h-12l-.7-.3-4-4 .7-1.7h20l.7 1.7-4 4zm-11.6-2h11.2l2-2h-15.2z"/><path d="m650 430.1h-14v-14h14zm-12-2h10v-10h-10z"/><path d="m640 420.1h2v6h-2zm4 0h2v6h-2zm-58-102h-10v-18h10zm-8-2h6v-14h-6zm80 90h-10v-81h10zm-8-2h6v-77h-6z"/><path d="m652 329.1h2v73h-2zm0-25h2v10h-2zm1 22c-2.8 0-5-2.2-5-5s2.2-5 5-5 5 2.2 5 5-2.2 5-5 5zm0-8c-1.7 0-3 1.3-3 3s1.3 3 3 3 3-1.3 3-3-1.3-3-3-3z"/><path d="m658 318.1h-10v-18h10zm-8-2h6v-14h-6zm-65 88h4v2h-4zm60 0h4v2h-4zm61 34h-706v-6h706zm-704-2h702v-2h-702z"/><path d="m706 446.1h-706v-6h706zm-704-2h702v-2h-702zm123.9 194h-73.8l-.1-109h2l.1 107h69.8l.1-107h2z"/><path d="m133.9 638.1h-89.8l-.1-109h2l.1 107h85.8l.1-107h2z"/><path d="m109.9 634.1h-41.9l-.1-105h2l.1 103h37.9l.1-103h2z"/><path d="m106 582.1h-34v-53h2v51h30v-51h2zm-40 0h-10v-54h10zm-8-2h6v-50h-6zm8 54h-10v-50h10zm-8-2h6v-46h-6zm64-50h-10v-54h10zm-8-2h6v-50h-6zm8 54h-10v-50h10zm-8-2h6v-46h-6zm24 10h-98v-6h98zm-96-2h94v-2h-94z"/><path d="m134 646.1h-90v-6h90zm-88-2h86v-2h-86zm64-115h-2c0-10.5-8.5-19-19-19s-19 8.5-19 19h-2c0-11.6 9.4-21 21-21s21 9.4 21 21z"/><path d="m126 529.1h-2c0-19.3-15.7-35-35-35s-35 15.7-35 35h-2c0-20.4 16.6-37 37-37s37 16.6 37 37z"/><path d="m134 529.1h-2c0-23.7-19.3-43-43-43s-43 19.3-43 43h-2c0-24.8 20.2-45 45-45s45 20.2 45 45zm-6.7-33.6-.6-.7c-2.6-2.9-5.5-5.4-8.7-7.7l-.8-.6 12.9-18.5h7.9v19.5l-10.7 7.9zm-7.4-9.4c2.7 2 5.3 4.2 7.6 6.7l8.4-6.2v-16.5h-4.8zm-69.2 9.4-10.7-7.9v-19.5h7.9l12.9 18.5-.8.6c-3.2 2.2-6.1 4.8-8.7 7.7l-.6.7zm-8.7-8.9 8.4 6.2c2.3-2.5 4.9-4.7 7.6-6.7l-11.2-16h-4.8zm184.7 8.9-10.7-7.9v-19.5h7.9l12.9 18.5-.8.6c-3.2 2.2-6.1 4.8-8.7 7.7l-.6.7zm-8.7-8.9 8.4 6.2c2.3-2.5 4.9-4.7 7.6-6.7l-11.2-16h-4.8zm-124.5-8.3h-1c-2.4-.2-4.7-.2-7.1 0h-1l-3.6-30.1h16.2l-3.6 30.2zm-10.4-28.2 3.1 26.1h5.5l3.1-26.1zm-10 30.5-12.4-32.5h18.2l3.6 30.4h-1c-2.5.5-5.1 1.1-7.5 1.8zm-9.5-30.5 10.7 28.1c2-.6 4-1 6-1.4l-3.2-26.7zm41.3 30.5-.9-.3c-2.5-.8-5-1.3-7.5-1.7h-1c0-.1 3.6-30.5 3.6-30.5h18.2zm-7.2-3.8c2 .3 4 .8 6 1.4l10.7-28.1h-13.5zm17.8 8.7-.8-.5c-2.2-1.3-4.6-2.5-7-3.4l-.9-.4 12.7-33.2h10.5v16.7l-14.5 20.7zm-6.1-5.4c1.9.8 3.8 1.7 5.6 2.7l13.1-18.7v-14.1h-7.2zm-46.9 5.4-14.5-20.7v-16.7h10.5l12.7 33.2-.9.4c-2.4 1-4.8 2.1-7 3.4l-.8.5zm-12.5-21.3 13.1 18.7c1.8-1 3.7-1.9 5.6-2.7l-11.5-30.1h-7.2zm253.3 31.3-.6-.7c-2.6-2.9-5.5-5.4-8.7-7.7l-.8-.6 12.9-18.5h7.9v19.5l-10.7 7.9zm-7.4-9.4c2.7 2 5.3 4.2 7.6 6.7l8.4-6.2v-16.5h-4.8zm-26.4-7.8h-1c-2.4-.2-4.7-.2-7.1 0h-1l-3.6-30.1h16.2l-3.6 30.2zm-10.4-28.2 3.1 26.1h5.5l3.1-26.1zm-10 30.5-12.4-32.5h18.2l3.6 30.4h-1c-2.5.5-5.1 1.1-7.5 1.8zm-9.5-30.5 10.7 28.1c2-.6 4-1 6-1.4l-3.2-26.7zm41.3 30.5-.9-.3c-2.5-.8-5-1.3-7.5-1.7h-1c0-.1 3.6-30.5 3.6-30.5h18.2zm-7.2-3.8c2 .3 4 .8 6 1.4l10.7-28.1h-13.5zm48.3 29.4h-11.4l-.3-.6c-1.4-2.7-3.1-5.3-5-7.8l-.6-.8 12-8.9h5.3zm-10.2-2h8.2v-14.1h-2.7l-9.9 7.3c1.6 2.2 3.1 4.4 4.3 6.8zm-20.3-18.7-.8-.5c-2.2-1.3-4.6-2.5-7-3.4l-.9-.4 12.7-33.2h10.5v16.7l-14.5 20.7zm-6.1-5.4c1.9.8 3.8 1.7 5.6 2.7l13.1-18.7v-14.1h-7.2zm-46.9 5.4-14.5-20.7v-16.7h10.5l12.7 33.2-.9.4c-2.4 1-4.8 2.1-7 3.4l-.8.5zm-12.5-21.3 13.1 18.7c1.8-1 3.7-1.9 5.6-2.7l-11.5-30.1h-7.2zm108 61.9h-17.9l-.2-1c-.4-5.4-1.7-10.7-3.7-15.6l-.6-1.4h22.5v18zm-16.2-2h14.2v-14h-17.5c1.7 4.5 2.8 9.2 3.3 14zm161.5-28.6-.6-.7c-2.6-2.9-5.5-5.4-8.7-7.7l-.8-.6 13-18.5h7.9v19.5l-10.7 7.9zm-7.4-9.4c2.7 2 5.3 4.2 7.6 6.7l8.4-6.2v-16.5h-4.8zm-35.4-7.8-3.6-30.2h16.2l-3.6 30.2h-1c-2.4-.2-4.8-.2-7.1 0h-1zm4.5-2.2h2.8l3.1-26.1h-11.7l3.1 26.1h2.8zm-15.9 4.5-12.4-32.5h18.2l3.6 30.4h-1c-2.5.5-5.1 1.1-7.5 1.8zm-9.5-30.5 10.7 28.1c2-.6 4-1 6-1.4l-3.2-26.7zm41.3 30.5-.9-.3c-2.5-.8-5-1.3-7.5-1.7h-1c0-.1 3.6-30.5 3.6-30.5h18.2zm-7.2-3.8c2 .3 4 .8 6 1.4l10.7-28.1h-13.5zm-65.7 29.4v-18.1h5.3l12 8.9-.6.8c-1.9 2.4-3.6 5.1-5 7.8l-.3.5h-11.5zm2-16.1v14.1h8.3c1.2-2.4 2.7-4.6 4.3-6.8l-9.9-7.3zm81.5-4.6-.8-.5c-2.2-1.3-4.6-2.5-7-3.4l-.9-.4 12.7-33.2h10.5v16.7l-14.5 20.7zm-6.1-5.4c1.9.8 3.8 1.7 5.5 2.7l13.1-18.7v-14.1h-7.2l-11.5 30.1zm-46.9 5.4-14.5-20.7v-16.7h10.5l12.7 33.2-.9.4c-2.4 1-4.8 2.1-7 3.4l-.8.5zm-12.5-21.3 13.1 18.7c1.8-1 3.7-1.9 5.5-2.7l-11.5-30.1h-7.2v14.1zm-12.1 61.9h-17.9v-18h22.5l-.6 1.4c-2.1 4.9-3.3 10.2-3.7 15.6v.3l-.2.8zm-15.9-2h14.2c.5-4.8 1.5-9.5 3.3-14h-17.5zm238.5-45.8-3.6-30.2h16.2l-3.6 30.2h-1c-2.4-.2-4.8-.2-7.1 0h-1zm4.5-2.2h2.8l3.1-26.1h-11.7l3.1 26.1h2.8zm-15.9 4.5-12.4-32.5h18.2l3.6 30.4h-1c-2.5.5-5.1 1.1-7.5 1.8zm-9.5-30.5 10.7 28.1c2-.6 4-1 6-1.4l-3.2-26.7zm41.3 30.5-.9-.3c-2.5-.8-5-1.3-7.5-1.7h-1c0-.1 3.6-30.5 3.6-30.5h18.2zm-7.2-3.8c2 .3 4 .8 6 1.4l10.7-28.1h-13.5zm17.8 8.7-.8-.5c-2.2-1.3-4.6-2.5-7-3.4l-.9-.4 12.7-33.2h10.5v16.7l-14.5 20.7zm-6.1-5.4c1.9.8 3.8 1.7 5.5 2.7l13.1-18.7v-14.1h-7.2l-11.5 30.1zm-46.9 5.4-14.5-20.7v-16.7h10.5l12.7 33.2-.9.4c-2.4 1-4.8 2.1-7 3.4l-.8.5zm-12.5-21.3 13.1 18.7c1.8-1 3.7-1.9 5.5-2.7l-11.5-30.1h-7.2v14.1z"/><path d="m653.9 666.1h-73.8l-.1-137h2l.1 135h69.8l.1-135h2z"/><path d="m650 546.1h-66v-6h66zm-64-2h62v-2h-62zm68-15h-2c0-19.3-15.7-35-35-35s-35 15.7-35 35h-2c0-20.4 16.6-37 37-37s37 16.6 37 37z"/><path d="m661.9 666.1h-89.8v-137c-.1-24.8 20.1-45 44.9-45s45 20.2 45 45v137zm-87.8-2h85.8v-135c.1-23.7-19.2-43-42.9-43s-43 19.3-43 43v135z"/><path d="m581 548.1h72v2h-72z"/><path d="m616 549.1h2v116h-2zm-2 113h-14v-14h14zm-12-2h10v-10h-10zm-4 2h-14v-14h14zm-12-2h10v-10h-10zm28-14h-14v-14h14zm-12-2h10v-10h-10zm-4 2h-14v-14h14zm-12-2h10v-10h-10zm28-14h-14v-14h14zm-12-2h10v-10h-10zm-4 2h-14v-14h14zm-12-2h10v-10h-10zm21-14c-3.9 0-7-3.1-7-7s3.1-7 7-7 7 3.1 7 7-3.1 7-7 7zm0-12c-2.8 0-5 2.2-5 5s2.2 5 5 5 5-2.2 5-5-2.2-5-5-5zm-16 12c-3.9 0-7-3.1-7-7s3.1-7 7-7 7 3.1 7 7-3.1 7-7 7zm0-12c-2.8 0-5 2.2-5 5s2.2 5 5 5 5-2.2 5-5-2.2-5-5-5zm23-4h-14v-14h14zm-12-2h10v-10h-10zm-4 2h-14v-14h14zm-12-2h10v-10h-10zm28-14h-14v-14h14zm-12-2h10v-10h-10zm-4 2h-14v-14h14zm-12-2h10v-10h-10zm28-14h-14v-14h14zm-12-2h10v-10h-10zm-4 2h-14v-14h14zm-12-2h10v-10h-10zm64 98h-14v-14h14zm-12-2h10v-10h-10zm-4 2h-14v-14h14zm-12-2h10v-10h-10zm28-14h-14v-14h14zm-12-2h10v-10h-10zm-4 2h-14v-14h14zm-12-2h10v-10h-10zm28-14h-14v-14h14zm-12-2h10v-10h-10zm-4 2h-14v-14h14zm-12-2h10v-10h-10zm21-14c-3.9 0-7-3.1-7-7s3.1-7 7-7 7 3.1 7 7-3.1 7-7 7zm0-12c-2.8 0-5 2.2-5 5s2.2 5 5 5 5-2.2 5-5-2.2-5-5-5zm-16 12c-3.9 0-7-3.1-7-7s3.1-7 7-7 7 3.1 7 7-3.1 7-7 7zm0-12c-2.8 0-5 2.2-5 5s2.2 5 5 5 5-2.2 5-5-2.2-5-5-5zm23-4h-14v-14h14zm-12-2h10v-10h-10zm-4 2h-14v-14h14zm-12-2h10v-10h-10zm28-14h-14v-14h14zm-12-2h10v-10h-10zm-4 2h-14v-14h14zm-12-2h10v-10h-10zm28-14h-14v-14h14zm-12-2h10v-10h-10zm-4 2h-14v-14h14zm-12-2h10v-10h-10z"/><path d="m352 466.1h-44v-18h44zm-42-2h40v-14h-40zm88 2h-44v-18h44zm-42-2h40v-14h-40zm-22 182h-18v-18h18zm-16-2h14v-14h-14zm34-18h-36v-18h36zm-34-2h32v-14h-32zm16-18h-18v-18h18zm-16-2h14v-14h-14zm34-18h-36v-18h36zm-34-2h32v-14h-32zm52 62h-34v-18h34zm-32-2h30v-14h-30zm32-38h-34v-18h34zm-32-2h30v-14h-30zm32-38h-34v-18h34zm-32-2h30v-14h-30zm-4 2h-18v-18h18zm-16-2h14v-14h-14zm52-38h-34v-18h34zm-32-2h30v-14h-30zm-24 118h-98v-6h98zm-96-2h94v-2h-94z"/><path d="m310 646.1h-90v-6h90zm-88-2h86v-2h-86zm168 2h-18v-18h18zm-16-2h14v-14h-14zm16-18h-36v-18h36zm-34-2h32v-14h-32zm34-18h-18v-18h18zm-16-2h14v-14h-14zm16-18h-36v-18h36zm-34-2h32v-14h-32zm-4-78h-28v-18h28zm-26-2h24v-14h-24zm56 2h-28v-18h28zm-26-2h24v-14h-24zm-4 42h-36v-18h36zm-34-2h32v-14h-32zm72 2h-36v-18h36zm-34-2h32v-14h-32zm34 22h-18v-18h18zm-16-2h14v-14h-14zm16-78h-74v-18h74zm-72-2h70v-14h-70zm248 182h-5v-2h3v-14h-3v-2h5zm-76-24h-98v-6h98zm-96-2h94v-2h-94z"/><path d="m486 646.1h-90v-6h90zm-88-2h86v-2h-86zm4.7-148.6-10.7-7.9v-19.5h7.9l12.9 18.5-.8.6c-3.2 2.2-6.1 4.8-8.7 7.7l-.6.7zm-8.7-8.9 8.4 6.2c2.3-2.5 4.9-4.7 7.6-6.7l-11.2-16h-4.8zm184.7 8.9-10.7-7.9v-19.5h7.9l12.9 18.5-.8.6c-3.2 2.2-6.1 4.8-8.7 7.7l-.6.7zm-8.7-8.9 8.4 6.2c2.3-2.5 4.9-4.7 7.6-6.7l-11.2-16h-4.8zm85.3 8.9-.6-.7c-2.6-2.9-5.5-5.4-8.7-7.7l-.8-.6 13-18.5h7.9v19.5l-10.7 7.9zm-7.4-9.4c2.7 2 5.3 4.2 7.6 6.7l8.4-6.2v-16.5h-4.8zm58.1 160h-38v-18h38zm-36-2h34v-14h-34zm16-18h-18v-18h18zm-16-2h14v-14h-14zm3 42h-5v-18h9v2h-7v14h3zm33-60h-38v-18h38zm-36-2h34v-14h-34zm36-18h-38v-18h38zm-36-2h34v-14h-34zm16-18h-18v-18h18zm-16-2h14v-14h-14zm36 2h-18v-18h18zm-16-2h14v-14h-14zm16 62h-18v-18h18zm-16-2h14v-14h-14zm16-158h-46v-18h46zm-44-2h42v-14h-42zm-540.1 62h-10.1v-.8c-1.9-10.4-10.4-18.2-20.9-19.1h-.9v-10.1h1.1c15.8 1 28.7 13.2 30.7 28.9v1.1zm-8.4-2h6.1c-2.3-13.9-13.6-24.5-27.6-25.8v6c10.7 1.3 19.3 9.3 21.5 19.8zm-47.3 2h-10.1v-1.1c2.1-15.7 15-27.8 30.8-28.8h1.1v9.9h-.9c-10.5.9-19 8.8-20.8 19.2v.8zm-7.8-2h6.1c2.1-10.6 10.8-18.5 21.5-19.8v-6c-14 1.3-25.3 12-27.6 25.8z"/><path d="m106 529.1h-2c0-8.3-6.7-15-15-15s-15 6.7-15 15h-2c0-9.4 7.6-17 17-17s17 7.6 17 17zm0 101h-34v-46h34zm-32-2h30v-42h-30zm227.9 10h-73.8l-.1-109h2l.1 107h69.8l.1-107h2z"/><path d="m309.9 638.1h-89.8l-.1-109h2l.1 107h85.8l.1-107h2z"/><path d="m285.9 634.1h-41.9l-.1-105h2l.1 103h37.9l.1-103h2z"/><path d="m282 582.1h-34v-53h2v51h30v-51h2zm-40 0h-10v-54h10zm-8-2h6v-50h-6zm8 54h-10v-50h10zm-8-2h6v-46h-6zm64-50h-10v-54h10zm-8-2h6v-50h-6zm8 54h-10v-50h10zm-8-2h6v-46h-6zm-4-103h-2c0-10.5-8.5-19-19-19s-19 8.5-19 19h-2c0-11.6 9.4-21 21-21s21 9.4 21 21z"/><path d="m302 529.1h-2c0-19.3-15.7-35-35-35s-35 15.7-35 35h-2c0-20.4 16.6-37 37-37s37 16.6 37 37z"/><path d="m310 529.1h-2c0-23.7-19.3-43-43-43s-43 19.3-43 43h-2c0-24.8 20.2-45 45-45s45 20.2 45 45z"/><path d="m297.9 526.1h-10.1v-.8c-1.9-10.4-10.4-18.2-20.9-19.1h-.9v-10.1h1.1c15.8 1 28.7 13.2 30.7 28.9v1.1zm-8.4-2h6.1c-2.3-13.9-13.6-24.5-27.6-25.8v6c10.7 1.3 19.3 9.3 21.5 19.8zm-47.3 2h-10.1v-1.1c2.1-15.7 15-27.8 30.8-28.8h1.1v9.9h-.9c-10.5.9-19 8.8-20.8 19.2v.8zm-7.8-2h6.1c2.1-10.6 10.8-18.5 21.5-19.8v-6c-14 1.3-25.3 12-27.6 25.8z"/><path d="m282 529.1h-2c0-8.3-6.7-15-15-15s-15 6.7-15 15h-2c0-9.4 7.6-17 17-17s17 7.6 17 17zm0 101h-34v-46h34zm-32-2h30v-42h-30zm227.9 10h-73.8l-.1-109h2l.1 107h69.8l.1-107h2z"/><path d="m485.9 638.1h-89.8l-.1-109h2l.1 107h85.8l.1-107h2z"/><path d="m461.9 634.1h-41.9v-1l-.1-104h2l.1 103h37.9l.1-103h2z"/><path d="m458 582.1h-34v-53h2v51h30v-51h2zm-40 0h-10v-54h10zm-8-2h6v-50h-6zm8 54h-10v-50h10zm-8-2h6v-46h-6zm64-50h-10v-54h10zm-8-2h6v-50h-6zm8 54h-10v-50h10zm-8-2h6v-46h-6zm-4-103h-2c0-10.5-8.5-19-19-19s-19 8.5-19 19h-2c0-11.6 9.4-21 21-21s21 9.4 21 21z"/><path d="m478 529.1h-2c0-19.3-15.7-35-35-35s-35 15.7-35 35h-2c0-20.4 16.6-37 37-37s37 16.6 37 37z"/><path d="m486 529.1h-2c0-23.7-19.3-43-43-43s-43 19.3-43 43h-2c0-24.8 20.2-45 45-45s45 20.2 45 45z"/><path d="m473.9 526.1h-10.1v-.8c-1.9-10.4-10.4-18.2-20.9-19.1h-.9v-10.1h1.1c15.8 1 28.7 13.2 30.7 28.9v1.1zm-8.4-2h6.1c-2.3-13.9-13.6-24.5-27.6-25.8v6c10.7 1.3 19.3 9.3 21.5 19.8zm-47.3 2h-10.1v-1.1c2.1-15.7 15-27.8 30.8-28.8h1.1v9.9h-.9c-10.5.9-19 8.8-20.8 19.2v.8zm-7.8-2h6.1c2.1-10.6 10.8-18.5 21.5-19.8v-6c-14 1.3-25.3 12-27.6 25.8z"/><path d="m458 529.1h-2c0-8.3-6.7-15-15-15s-15 6.7-15 15h-2c0-9.4 7.6-17 17-17s17 7.6 17 17zm0 101h-34v-46h34zm-32-2h30v-42h-30zm-279.9-121.9h-11.4l-.3-.6c-1.4-2.7-3.1-5.3-5-7.8l-.6-.8 12-8.9h5.3zm-10.2-2h8.2v-14.1h-2.7l-9.9 7.3c1.6 2.2 3.1 4.4 4.3 6.8zm22.2 21.9h-17.9l-.2-1c-.4-5.4-1.7-10.7-3.7-15.6l-.6-1.4h22.5v18zm-16.2-2h14.2v-14h-17.5c1.7 4.5 2.8 9.2 3.3 14zm66.2-17.9v-18.1h5.3l12 8.9-.6.8c-1.9 2.5-3.6 5.1-5 7.8l-.3.5h-11.5zm2-16.1v14.1h8.3c1.2-2.4 2.7-4.6 4.3-6.8l-9.9-7.3zm3.9 36h-17.9v-18h22.5l-.6 1.4c-2.1 4.9-3.3 10.2-3.7 15.6v.3l-.2.8zm-15.9-2h14.2c.5-4.8 1.5-9.5 3.3-14h-17.5zm-22-58h-44v-18h44zm-42-2h40v-14h-40zm88 2h-44v-18h44zm-42-2h40v-14h-40zm-22 182h-18v-18h18zm-16-2h14v-14h-14zm34-18h-36v-18h36zm-34-2h32v-14h-32zm16-18h-18v-18h18zm-16-2h14v-14h-14zm34-18h-36v-18h36zm-34-2h32v-14h-32zm52 62h-34v-18h34zm-32-2h30v-14h-30zm32-38h-34v-18h34zm-32-2h30v-14h-30zm32-38h-34v-18h34zm-32-2h30v-14h-30zm-4 2h-18v-18h18zm-16-2h14v-14h-14zm52-38h-34v-18h34zm-32-2h30v-14h-30zm52 122h-18v-18h18zm-16-2h14v-14h-14zm16-18h-36v-18h36zm-34-2h32v-14h-32zm34-18h-18v-18h18zm-16-2h14v-14h-14zm16-18h-36v-18h36zm-34-2h32v-14h-32zm-4-78h-28v-18h28zm-26-2h24v-14h-24zm56 2h-28v-18h28zm-26-2h24v-14h-24zm-4 42h-36v-18h36zm-34-2h32v-14h-32zm72 2h-36v-18h36zm-34-2h32v-14h-32zm34 22h-18v-18h18zm-16-2h14v-14h-14zm16-78h-74v-18h74zm-72-2h70v-14h-70zm-110 22.1v-18.1h5.3l12 8.9-.6.8c-1.9 2.5-3.6 5.1-5 7.8l-.3.5h-11.5zm2-16.1v14.1h8.3c1.2-2.4 2.7-4.6 4.3-6.8l-9.9-7.3zm3.9 36h-17.9v-18h22.5l-.6 1.4c-2.1 4.9-3.3 10.2-3.7 15.6v.3l-.2.8zm-15.9-2h14.2c.5-4.8 1.5-9.5 3.3-14h-17.5zm24-58h-46.1v-18h46.1zm-44.1-2h42.1v-14h-42.1zm16.1 182h-18.1v-18h18.1zm-16.1-2h14.1v-14h-14.1zm16.1-38h-18.1v-18h18.1zm-16.1-2h14.1v-14h-14.1zm16.1-38h-18.1v-18h18.1zm-16.1-2h14.1v-14h-14.1zm16.1-38h-18.1v-18h18.1zm-16.1-2h14.1v-14h-14.1zm36.1 142h-38.1v-18h38.1zm-36.1-2h34.1v-14h-34.1zm36.1-18h-18v-18h18zm-16-2h14v-14h-14zm16-18h-38.1v-18h38.1zm-36.1-2h34.1v-14h-34.1zm36.1-18h-18v-18h18zm-16-2h14v-14h-14zm16-18h-38.1v-18h38.1zm-36.1-2h34.1v-14h-34.1zm28.1-78h-30.1v-18h30.1zm-28.1-2h26.1v-14h-26.1zm36.1 42h-38.1v-18h38.1zm-36.1-2h34.1v-14h-34.1zm36.1 22h-18v-18h18zm-16-2h14v-14h-14zm16-78h-38.1v-18h38.1zm-36.1-2h34.1v-14h-34.1zm496 22.1h-11.4l-.3-.6c-1.4-2.7-3.1-5.3-5-7.8l-.6-.8 12-8.9h5.3zm-10.2-2h8.2v-14.1h-2.7l-9.9 7.3c1.6 2.2 3.1 4.4 4.3 6.8zm22.2 21.9h-17.9l-.2-1c-.4-5.4-1.7-10.7-3.7-15.6l-.6-1.4h22.5v18zm-16.2-2h14.2v-14h-17.5c1.7 4.5 2.8 9.2 3.3 14zm66.2-17.9v-18.1h5.3l12 8.9-.6.8c-1.9 2.5-3.6 5.1-5 7.8l-.3.5h-11.5zm2-16.1v14.1h8.3c1.2-2.4 2.7-4.6 4.3-6.8l-9.9-7.3zm3.9 36h-17.9v-18h22.5l-.6 1.4c-2.1 4.9-3.3 10.2-3.7 15.6v.3l-.2.8zm-15.9-2h14.2c.5-4.8 1.5-9.5 3.3-14h-17.5zm-22-58h-44v-18h44zm-42-2h40v-14h-40zm88 2h-44v-18h44zm-42-2h40v-14h-40zm-2 202h-38v-18h38zm-36-2h34v-14h-34zm16-18h-18v-18h18zm-16-2h14v-14h-14zm34-18h-36v-18h36zm-34-2h32v-14h-32zm16-18h-18v-18h18zm-16-2h14v-14h-14zm34-18h-36v-18h36zm-34-2h32v-14h-32zm52 22h-34v-18h34zm-32-2h30v-14h-30zm32-38h-34v-18h34zm-32-2h30v-14h-30zm-4 2h-18v-18h18zm-16-2h14v-14h-14zm52-38h-34v-18h34zm-32-2h30v-14h-30zm52 122h-54.3v-18h54.3zm-52.3-2h50.3v-14h-50.3zm52.3-18h-36v-18h36zm-34-2h32v-14h-32zm34-18h-18v-18h18zm-16-2h14v-14h-14zm16-18h-36v-18h36zm-34-2h32v-14h-32zm-4-78h-28v-18h28zm-26-2h24v-14h-24zm56 2h-28v-18h28zm-26-2h24v-14h-24zm-4 42h-36v-18h36zm-34-2h32v-14h-32zm72 2h-36v-18h36zm-34-2h32v-14h-32zm34 22h-18v-18h18zm-16-2h14v-14h-14zm16-78h-74v-18h74zm-72-2h70v-14h-70zm-229 182c-5 0-9-4-9-9s4-9 9-9 9 4 9 9-4 9-9 9zm0-16c-3.9 0-7 3.1-7 7s3.1 7 7 7 7-3.1 7-7-3.1-7-7-7zm-12.1 16h-24.9v-18h24.9l-.9 1.5c-1.3 2.3-2 4.9-2 7.5s.7 5.2 2 7.5zm-22.9-2h19.5c-1-2.2-1.5-4.6-1.5-7s.5-4.8 1.5-7h-19.5zm72 2h-24.9l.9-1.5c1.3-2.3 2-4.9 2-7.5s-.7-5.2-2-7.5l-.9-1.5h24.9zm-21.5-2h19.5v-14h-19.5c1 2.2 1.5 4.6 1.5 7s-.5 4.8-1.5 7zm-54.5 2h-10v-18h10zm-8-2h6v-14h-6zm96 2h-10v-18h10zm-8-2h6v-14h-6zm-217 2c-5 0-9-4-9-9s4-9 9-9 9 4 9 9-4 9-9 9zm0-16c-3.9 0-7 3.1-7 7s3.1 7 7 7 7-3.1 7-7-3.1-7-7-7zm-12.1 16h-24.9v-18h24.9l-.9 1.5c-1.3 2.3-2 4.9-2 7.5s.7 5.2 2 7.5zm-22.9-2h19.5c-1-2.2-1.5-4.6-1.5-7s.5-4.8 1.5-7h-19.5zm72 2h-24.9l.9-1.5c1.3-2.3 2-4.9 2-7.5s-.7-5.2-2-7.5l-.9-1.5h24.9zm-21.5-2h19.5v-14h-19.5c1 2.2 1.5 4.6 1.5 7s-.5 4.8-1.5 7zm-54.5 2h-10v-18h10zm-8-2h6v-14h-6zm96 2h-10v-18h10zm-8-2h6v-14h-6zm311 2c-5 0-9-4-9-9s4-9 9-9 9 4 9 9-4 9-9 9zm0-16c-3.9 0-7 3.1-7 7s3.1 7 7 7 7-3.1 7-7-3.1-7-7-7zm-12.1 16h-24.9v-18h24.9l-.9 1.5c-1.3 2.3-2 4.9-2 7.5s.7 5.2 2 7.5zm-22.9-2h19.5c-1-2.2-1.5-4.6-1.5-7s.5-4.8 1.5-7h-19.5zm72 2h-24.9l.9-1.5c1.3-2.3 2-4.9 2-7.5s-.7-5.2-2-7.5l-.9-1.5h24.9zm-21.5-2h19.5v-14h-19.5c1 2.2 1.5 4.6 1.5 7s-.5 4.8-1.5 7zm-54.5 2h-10v-18h10zm-8-2h6v-14h-6zm96 2h-10v-18h10zm-8-2h6v-14h-6zm-92 2h-74v-18h74zm-72-2h70v-14h-70zm-104 2h-74v-18h74zm-72-2h70v-14h-70z"/><path d="m38 526.1h-17.9v-18h22.5l-.6 1.4c-2.1 4.9-3.3 10.2-3.7 15.6v.3l-.2.8zm-15.9-2h14.2c.5-4.8 1.5-9.5 3.3-14h-17.5zm24-58h-46.1v-18h46.1zm-44.1-2h42.1v-14h-42.1zm16.1 62h-18.1v-18h18.1zm-16.1-2h14.1v-14h-14.1zm28.1-18h-30.1v-18h30.1zm-28.1-2h26.1v-14h-26.1zm36.1 42h-38.1v-18h38.1zm-36.1-2h34.1v-14h-34.1zm36.1-58h-38.1v-18h38.1zm-36.1-2h34.1v-14h-34.1zm671.9 22.1h-11.5l-.3-.6c-1.4-2.7-3.1-5.3-5-7.8l-.6-.8 12-8.9h5.3v18.1zm-10.3-2.1h8.3v-14h-2.7l-9.9 7.3c1.6 2.1 3 4.4 4.3 6.7zm22.3 22h-17.9l-.2-1c-.4-5.4-1.7-10.7-3.7-15.6l-.6-1.4h22.5v18zm-16.2-2h14.2v-14h-17.5c1.7 4.5 2.8 9.2 3.3 14zm36.3-58h-46.1v-18h46.1zm-44.1-2h42.1v-14h-42.1zm44.1 62h-18.1v-18h18.1zm-16.1-2h14.1v-14h-14.1zm16.1-18h-30.1v-18h30.1zm-28.1-2h26.1v-14h-26.1zm28.1 42h-38.1v-18h38.1zm-36.1-2h34.1v-14h-34.1zm36.1-58h-38.1v-18h38.1zm-36.1-2h34.1v-14h-34.1z"/><path d="m0 692.1h530v2h-530zm26 26h-26v-22h26zm-24-2h22v-18h-22zm52 2h-26v-22h26zm-24-2h22v-18h-22zm52 2h-26v-22h26zm-24-2h22v-18h-22zm52 2h-26v-22h26zm-24-2h22v-18h-22zm52 2h-26v-22h26zm-24-2h22v-18h-22zm52 2h-26v-22h26zm-24-2h22v-18h-22zm52 2h-26v-22h26zm-24-2h22v-18h-22zm52 2h-26v-22h26zm-24-2h22v-18h-22zm52 2h-26v-22h26zm-24-2h22v-18h-22zm52 2h-26v-22h26zm-24-2h22v-18h-22zm52 2h-26v-22h26zm-24-2h22v-18h-22zm52 2h-26v-22h26zm-24-2h22v-18h-22zm52 2h-26v-22h26zm-24-2h22v-18h-22zm52 2h-26v-22h26zm-24-2h22v-18h-22zm52 2h-26v-22h26zm-24-2h22v-18h-22zm52 2h-26v-22h26zm-24-2h22v-18h-22zm52 2h-26v-22h26zm-24-2h22v-18h-22zm52 2h-26v-22h26zm-24-2h22v-18h-22zm52 2h-26v-22h26zm-24-2h22v-18h-22z"/><path d="m528 654.1h1.9v39.9h-1.9zm-4 0h1.9v39.9h-1.9zm-4 0h1.9v39.9h-1.9zm-4 0h1.9v39.9h-1.9zm-4 0h1.9v39.9h-1.9zm-4 0h1.9v39.9h-1.9zm-4 0h1.9v39.9h-1.9zm-4 0h1.9v39.9h-1.9zm-4 0h1.9v39.9h-1.9zm-4 0h1.9v39.9h-1.9zm-4 0h1.9v39.9h-1.9zm-4 0h1.9v39.9h-1.9zm-4 0h1.9v39.9h-1.9zm-4 0h1.9v39.9h-1.9zm-4 0h1.9v39.9h-1.9zm-4 0h1.9v39.9h-1.9zm-4 0h1.9v39.9h-1.9zm-4 0h1.9v39.9h-1.9zm-4 0h1.9v39.9h-1.9zm-4 0h1.9v39.9h-1.9zm-4 0h1.9v39.9h-1.9zm-4 0h1.9v39.9h-1.9zm-4 0h1.9v39.9h-1.9zm-4 0h1.9v39.9h-1.9zm-4 0h1.9v39.9h-1.9zm-4 0h1.9v39.9h-1.9zm-4 0h1.9v39.9h-1.9zm-4 0h1.9v39.9h-1.9zm-4 0h1.9v39.9h-1.9zm-4 0h1.9v39.9h-1.9zm-4 0h1.9v39.9h-1.9zm-4 0h1.9v39.9h-1.9zm-4 0h1.9v39.9h-1.9zm-4 0h1.9v39.9h-1.9zm-4 0h1.9v39.9h-1.9zm-4 0h1.9v39.9h-1.9zm-4 0h1.9v39.9h-1.9zm-4 0h1.9v39.9h-1.9zm-4 0h1.9v39.9h-1.9zm-4 0h1.9v39.9h-1.9zm-4 0h1.9v39.9h-1.9zm-4 0h1.9v39.9h-1.9zm-4 0h1.9v39.9h-1.9zm-4 0h1.9v39.9h-1.9zm-4 0h1.9v39.9h-1.9zm-4 0h1.9v39.9h-1.9zm-4 0h1.9v39.9h-1.9zm-4 0h1.9v39.9h-1.9zm-4 0h1.9v39.9h-1.9zm-4 0h1.9v39.9h-1.9zm-4 0h1.9v39.9h-1.9zm-4 0h1.9v39.9h-1.9zm-4 0h1.9v39.9h-1.9zm-4 0h1.9v39.9h-1.9zm-4 0h1.9v39.9h-1.9zm-4 0h1.9v39.9h-1.9zm-4 0h1.9v39.9h-1.9zm-4 0h1.9v39.9h-1.9zm-4 0h1.9v39.9h-1.9zm-4 0h1.9v39.9h-1.9zm-4 0h1.9v39.9h-1.9zm-4 0h1.9v39.9h-1.9zm-4 0h1.9v39.9h-1.9zm-4 0h1.9v39.9h-1.9zm-4 0h1.9v39.9h-1.9zm-4 0h1.9v39.9h-1.9zm-4 0h1.9v39.9h-1.9zm-4 0h1.9v39.9h-1.9zm-4 0h1.9v39.9h-1.9zm-4 0h1.9v39.9h-1.9zm-4 0h1.9v39.9h-1.9zm-4 0h1.9v39.9h-1.9zm-4 0h1.9v39.9h-1.9zm-4 0h1.9v39.9h-1.9zm-4 0h1.9v39.9h-1.9zm-4 0h1.9v39.9h-1.9zm-4 0h1.9v39.9h-1.9zm-4 0h1.9v39.9h-1.9zm-4 0h1.9v39.9h-1.9zm-4 0h1.9v39.9h-1.9zm-4 0h1.9v39.9h-1.9zm-4 0h1.9v39.9h-1.9zm-4 0h1.9v39.9h-1.9zm-4 0h1.9v39.9h-1.9zm-4 0h1.9v39.9h-1.9zm-4 0h1.9v39.9h-1.9zm-4 0h1.9v39.9h-1.9zm-4 0h1.9v39.9h-1.9zm-4 0h1.9v39.9h-1.9zm-4 0h1.9v39.9h-1.9zm-4 0h1.9v39.9h-1.9zm-4 0h1.9v39.9h-1.9zm-4 0h1.9v39.9h-1.9zm-4 0h1.9v39.9h-1.9zm-4 0h1.9v39.9h-1.9zm-4 0h1.9v39.9h-1.9zm-4 0h1.9v39.9h-1.9zm-4 0h1.9v39.9h-1.9zm-4 0h1.9v39.9h-1.9zm-4 0h1.9v39.9h-1.9zm-4 0h1.9v39.9h-1.9zm-4 0h1.9v39.9h-1.9zm-4 0h1.9v39.9h-1.9zm-4 0h1.9v39.9h-1.9zm-4 0h1.9v39.9h-1.9zm-4 0h1.9v39.9h-1.9zm-4 0h1.9v39.9h-1.9zm-4 0h1.9v39.9h-1.9zm-4 0h1.9v39.9h-1.9zm-4 0h1.9v39.9h-1.9zm-4 0h1.9v39.9h-1.9zm-4 0h1.9v39.9h-1.9zm-4 0h1.9v39.9h-1.9zm-4 0h1.9v39.9h-1.9zm-4 0h1.9v39.9h-1.9zm-4 0h1.9v39.9h-1.9zm-4 0h1.9v39.9h-1.9zm-4 0h1.9v39.9h-1.9zm-4 0h1.9v39.9h-1.9zm-4 0h1.9v39.9h-1.9zm-4 0h1.9v39.9h-1.9zm-4 0h1.9v39.9h-1.9zm-4 0h1.9v39.9h-1.9zm-4 0h1.9v39.9h-1.9zm-4 0h1.9v39.9h-1.9zm-4 0h1.9v39.9h-1.9zm-4 0h1.9v39.9h-1.9zm-4 0h1.9v39.9h-1.9zm-4 0h1.9v39.9h-1.9zm-4 0h1.9v39.9h-1.9zm-4 0h1.9v39.9h-1.9zm-4 0h1.9v39.9h-1.9zm-4 0h1.9v39.9h-1.9zm670 24h-106v-10h106zm-104-2h102v-6h-102zm100 18h-98v-10h98zm-96-2h94v-6h-94z"/><path d="m670 718.1h-2v-36h-102v36h-2v-38h106z"/><path d="m666 706.1h-98v-10h98zm-96-2h94v-6h-94zm96 14h-98v-10h98zm-96-2h94v-6h-94zm-8 2h-30v-34h30zm-28-2h26v-30h-26zm28-34h-30v-30h30zm-28-2h26v-26h-26z"/><path d="m558 678.1h-22v-22h22zm-20-2h18v-18h-18zm164 42h-30v-34h30zm-28-2h26v-30h-26zm28-34h-30v-30h30zm-28-2h26v-26h-26z"/><path d="m698 678.1h-22v-22h22zm-20-2h18v-18h-18zm-123-107c0 4.4-3.6 8-8 8s-8-3.6-8-8 3.6-8 8-8 8 3.6 8 8zm2.8 63-1.4-2.6-3.4-6.3v-5.6l2.7-7.2-2.7-4.2 3-1.9 1-4.9-5.7 1.1-2.3-3v-1.4h4.7l3-3h-3.8l-3.7 1.1 1.5-5.4-3.7-3 1.5-4.8 1.4-1.4-3-1.5-3.1 1.5 1.4 1.4 1.5 4.8-3.7 3 1.5 5.4-3.6-1.1h-3.6l3 3h4.7v1.4l-2.3 3-5.7-1.1 1 4.9 3 1.9-2.7 4.2 2.7 7.2v5.6l-3.4 6.3-1.4 2.6zm-23.3 2h25v4h-25zm27.7 6h-30.4l-2.3 4h35zm-30.5 6h30.6l-1.2 4h-26.8zm163.3-77c0 4.4-3.6 8-8 8s-8-3.6-8-8 3.6-8 8-8 8 3.6 8 8zm2.8 63-1.4-2.6-3.4-6.3v-5.6l2.7-7.2-2.7-4.2 3-1.9 1-4.9-5.7 1.1-2.3-3v-1.4h4.7l3-3h-3.8l-3.7 1.1 1.5-5.4-3.7-3 1.5-4.8 1.4-1.4-3-1.5-3.1 1.5 1.4 1.4 1.5 4.8-3.7 3 1.5 5.4-3.6-1.1h-3.6l3 3h4.7v1.4l-2.3 3-5.7-1.1 1 4.9 3 1.9-2.7 4.2 2.7 7.2v5.6l-3.4 6.3-1.4 2.6zm-23.3 2h25v4h-25zm27.7 6h-30.4l-2.3 4h35zm-30.5 6h30.6l-1.2 4h-26.8z"/></svg>