<svg id="bligh-st" xmlns="http://www.w3.org/2000/svg" viewBox="0 0 706 718.1">
  <g id="white_outline">
    <g id="third-floor">
      <path d="M30 114.1H0v-14h30v14Zm-28-2h26v-10H2v10ZM10 121.1H8v-3H1v-2h9v5z"/>
      <path d="M6 126.1H0v-10h6v10Zm-4-2h2v-6H2v6ZM30 121.1h-2v-3H18v3h-2v-5h14v5z"/>
      <path d="M26 126.1h-6v-10h6v10Zm-4-2h2v-6h-2v6ZM70 114.1H36v-14h34v14Zm-32-2h30v-10H38v10ZM50 121.1h-2v-3H38v3h-2v-5h14v5z"/>
      <path d="M46 126.1h-6v-10h6v10Zm-4-2h2v-6h-2v6ZM70 121.1h-2v-3H58v3h-2v-5h14v5z"/>
      <path d="M66 126.1h-6v-10h6v10Zm-4-2h2v-6h-2v6ZM110 114.1H76v-14h34v14Zm-32-2h30v-10H78v10ZM90 121.1h-2v-3H78v3h-2v-5h14v5z"/>
      <path d="M86 126.1h-6v-10h6v10Zm-4-2h2v-6h-2v6ZM110 121.1h-2v-3H98v3h-2v-5h14v5z"/>
      <path d="M106 126.1h-6v-10h6v10Zm-4-2h2v-6h-2v6ZM150 114.1h-34v-14h34v14Zm-32-2h30v-10h-30v10ZM130 121.1h-2v-3h-10v3h-2v-5h14v5z"/>
      <path d="M126 126.1h-6v-10h6v10Zm-4-2h2v-6h-2v6ZM150 121.1h-2v-3h-10v3h-2v-5h14v5z"/>
      <path d="M146 126.1h-6v-10h6v10Zm-4-2h2v-6h-2v6ZM190 114.1h-34v-14h34v14Zm-32-2h30v-10h-30v10ZM170 121.1h-2v-3h-10v3h-2v-5h14v5z"/>
      <path d="M166 126.1h-6v-10h6v10Zm-4-2h2v-6h-2v6ZM190 121.1h-2v-3h-10v3h-2v-5h14v5z"/>
      <path d="M186 126.1h-6v-10h6v10Zm-4-2h2v-6h-2v6ZM230 114.1h-34v-14h34v14Zm-32-2h30v-10h-30v10ZM210 121.1h-2v-3h-10v3h-2v-5h14v5z"/>
      <path d="M206 126.1h-6v-10h6v10Zm-4-2h2v-6h-2v6ZM230 121.1h-2v-3h-10v3h-2v-5h14v5z"/>
      <path d="M226 126.1h-6v-10h6v10Zm-4-2h2v-6h-2v6ZM270 114.1h-34v-14h34v14Zm-32-2h30v-10h-30v10ZM250 121.1h-2v-3h-10v3h-2v-5h14v5z"/>
      <path d="M246 126.1h-6v-10h6v10Zm-4-2h2v-6h-2v6ZM270 121.1h-2v-3h-10v3h-2v-5h14v5z"/>
      <path d="M266 126.1h-6v-10h6v10Zm-4-2h2v-6h-2v6ZM310 114.1h-34v-14h34v14Zm-32-2h30v-10h-30v10ZM290 121.1h-2v-3h-10v3h-2v-5h14v5z"/>
      <path d="M286 126.1h-6v-10h6v10Zm-4-2h2v-6h-2v6ZM310 121.1h-2v-3h-10v3h-2v-5h14v5z"/>
      <path d="M306 126.1h-6v-10h6v10Zm-4-2h2v-6h-2v6ZM350 114.1h-34v-14h34v14Zm-32-2h30v-10h-30v10ZM330 121.1h-2v-3h-10v3h-2v-5h14v5z"/>
      <path d="M326 126.1h-6v-10h6v10Zm-4-2h2v-6h-2v6ZM350 121.1h-2v-3h-10v3h-2v-5h14v5z"/>
      <path d="M346 126.1h-6v-10h6v10Zm-4-2h2v-6h-2v6ZM390 114.1h-34v-14h34v14Zm-32-2h30v-10h-30v10ZM370 121.1h-2v-3h-10v3h-2v-5h14v5z"/>
      <path d="M366 126.1h-6v-10h6v10Zm-4-2h2v-6h-2v6ZM390 121.1h-2v-3h-10v3h-2v-5h14v5z"/>
      <path d="M386 126.1h-6v-10h6v10Zm-4-2h2v-6h-2v6ZM430 114.1h-34v-14h34v14Zm-32-2h30v-10h-30v10ZM410 121.1h-2v-3h-10v3h-2v-5h14v5z"/>
      <path d="M406 126.1h-6v-10h6v10Zm-4-2h2v-6h-2v6ZM430 121.1h-2v-3h-10v3h-2v-5h14v5z"/>
      <path d="M426 126.1h-6v-10h6v10Zm-4-2h2v-6h-2v6ZM470 114.1h-34v-14h34v14Zm-32-2h30v-10h-30v10ZM450 121.1h-2v-3h-10v3h-2v-5h14v5z"/>
      <path d="M446 126.1h-6v-10h6v10Zm-4-2h2v-6h-2v6ZM470 121.1h-2v-3h-10v3h-2v-5h14v5z"/>
      <path d="M466 126.1h-6v-10h6v10Zm-4-2h2v-6h-2v6ZM510 114.1h-34v-14h34v14Zm-32-2h30v-10h-30v10ZM490 121.1h-2v-3h-10v3h-2v-5h14v5z"/>
      <path d="M486 126.1h-6v-10h6v10Zm-4-2h2v-6h-2v6ZM510 121.1h-2v-3h-10v3h-2v-5h14v5z"/>
      <path d="M506 126.1h-6v-10h6v10Zm-4-2h2v-6h-2v6ZM550 114.1h-34v-14h34v14Zm-32-2h30v-10h-30v10ZM530 121.1h-2v-3h-10v3h-2v-5h14v5z"/>
      <path d="M526 126.1h-6v-10h6v10Zm-4-2h2v-6h-2v6ZM550 121.1h-2v-3h-10v3h-2v-5h14v5z"/>
      <path d="M546 126.1h-6v-10h6v10Zm-4-2h2v-6h-2v6ZM590 114.1h-34v-14h34v14Zm-32-2h30v-10h-30v10ZM570 121.1h-2v-3h-10v3h-2v-5h14v5z"/>
      <path d="M566 126.1h-6v-10h6v10Zm-4-2h2v-6h-2v6ZM590 121.1h-2v-3h-10v3h-2v-5h14v5z"/>
      <path d="M586 126.1h-6v-10h6v10Zm-4-2h2v-6h-2v6ZM630 114.1h-34v-14h34v14Zm-32-2h30v-10h-30v10ZM610 121.1h-2v-3h-10v3h-2v-5h14v5z"/>
      <path d="M606 126.1h-6v-10h6v10Zm-4-2h2v-6h-2v6ZM630 121.1h-2v-3h-10v3h-2v-5h14v5z"/>
      <path d="M626 126.1h-6v-10h6v10Zm-4-2h2v-6h-2v6ZM670 114.1h-34v-14h34v14Zm-32-2h30v-10h-30v10ZM650 121.1h-2v-3h-10v3h-2v-5h14v5z"/>
      <path d="M646 126.1h-6v-10h6v10Zm-4-2h2v-6h-2v6ZM670 121.1h-2v-3h-10v3h-2v-5h14v5z"/>
      <path d="M666 126.1h-6v-10h6v10Zm-4-2h2v-6h-2v6ZM706 114.1h-30v-14h30v14Zm-28-2h26v-10h-26v10ZM690 121.1h-2v-3h-10v3h-2v-5h14v5z"/>
      <path d="M686 126.1h-6v-10h6v10Zm-4-2h2v-6h-2v6ZM698 121.1h-2v-5h9v2h-7v3z"/>
      <path d="M706 126.1h-6v-10h6v10Zm-4-2h2v-6h-2v6ZM54 94.1h-6v-62h6v62Zm-4-2h2v-58h-2v58ZM66 94.1H56v-30h10v30Zm-8-2h6v-26h-6v26ZM66 62.1H56V32.6h10v29.5Zm-8-2h6V34.6h-6v25.5ZM74 94.1h-6v-62h6v62Zm-4-2h2v-58h-2v58ZM102 94.1H76v-30h26v30Zm-24-2h22v-26H78v26ZM102 62.1H76v-30h26v30Zm-24-2h22v-26H78v26ZM110 94.1h-6v-62h6v62Zm-4-2h2v-58h-2v58ZM122 94.1h-10v-30h10v30Zm-8-2h6v-26h-6v26ZM122 62.1h-10V32.6h10v29.5Zm-8-2h6V34.6h-6v25.5ZM130 94.1h-6v-62h6v62Zm-4-2h2v-58h-2v58ZM130 30.1h-22v-10h22v10Zm-20-2h18v-6h-18v6ZM70 30.1H48v-10h22v10Zm-20-2h18v-6H50v6Z"/>
      <path d="M118 22.1H60v-6h58v6Zm-56-2h54v-2H62v2Z"/>
      <path d="M130 22.1H48v-6h82v6Zm-80-2h78v-2H50v2Z"/>
      <path d="M118 18.1H60v-5.7L89 0l29 12.4v5.7Zm-56-2h54v-2.3L89 2.2 62 13.8v2.3Z"/>
      <path d="M107.7 14.1H70.4l-.4-1.9L89.1 4l19.1 8.2-.4 1.9Zm-32.5-2h27.6L89 6.2l-13.8 5.9ZM62 18.1H48v-6h14v6Zm-12-2h10v-2H50v2ZM130 18.1h-14v-6h14v6Zm-12-2h10v-2h-10v2ZM106 30.1H72v-10h34v10Zm-32-2h30v-6H74v6ZM230 94.1h-6v-62h6v62Zm-4-2h2v-58h-2v58ZM242 94.1h-10v-30h10v30Zm-8-2h6v-26h-6v26ZM242 62.1h-10V32.6h10v29.5Zm-8-2h6V34.6h-6v25.5ZM250 94.1h-6v-62h6v62Zm-4-2h2v-58h-2v58ZM278 94.1h-26v-30h26v30Zm-24-2h22v-26h-22v26ZM278 62.1h-26v-30h26v30Zm-24-2h22v-26h-22v26ZM286 94.1h-6v-62h6v62Zm-4-2h2v-58h-2v58ZM298 94.1h-10v-30h10v30Zm-8-2h6v-26h-6v26ZM298 62.1h-10V32.6h10v29.5Zm-8-2h6V34.6h-6v25.5ZM306 94.1h-6v-62h6v62Zm-4-2h2v-58h-2v58ZM306 30.1h-22v-10h22v10Zm-20-2h18v-6h-18v6ZM246 30.1h-22v-10h22v10Zm-20-2h18v-6h-18v6Z"/>
      <path d="M294 22.1h-58v-6h58v6Zm-56-2h54v-2h-54v2Z"/>
      <path d="M306 22.1h-82v-6h82v6Zm-80-2h78v-2h-78v2Z"/>
      <path d="M294 18.1h-58v-5.7L265 0l29 12.4v5.7Zm-56-2h54v-2.3L265 2.2l-27 11.6v2.3Z"/>
      <path d="M283.7 14.1h-37.3l-.4-1.9L265.1 4l19.1 8.2-.4 1.9Zm-32.5-2h27.6L265 6.2l-13.8 5.9ZM238 18.1h-14v-6h14v6Zm-12-2h10v-2h-10v2ZM306 18.1h-14v-6h14v6Zm-12-2h10v-2h-10v2ZM282 30.1h-34v-10h34v10Zm-32-2h30v-6h-30v6ZM406 94.1h-6v-62h6v62Zm-4-2h2v-58h-2v58ZM418 94.1h-10v-30h10v30Zm-8-2h6v-26h-6v26ZM418 62.1h-10V32.6h10v29.5Zm-8-2h6V34.6h-6v25.5ZM426 94.1h-6v-62h6v62Zm-4-2h2v-58h-2v58ZM454 94.1h-26v-30h26v30Zm-24-2h22v-26h-22v26ZM454 62.1h-26v-30h26v30Zm-24-2h22v-26h-22v26ZM462 94.1h-6v-62h6v62Zm-4-2h2v-58h-2v58ZM474 94.1h-10v-30h10v30Zm-8-2h6v-26h-6v26ZM474 62.1h-10V32.6h10v29.5Zm-8-2h6V34.6h-6v25.5ZM482 94.1h-6v-62h6v62Zm-4-2h2v-58h-2v58ZM482 30.1h-22v-10h22v10Zm-20-2h18v-6h-18v6ZM422 30.1h-22v-10h22v10Zm-20-2h18v-6h-18v6Z"/>
      <path d="M470 22.1h-58v-6h58v6Zm-56-2h54v-2h-54v2Z"/>
      <path d="M482 22.1h-82v-6h82v6Zm-80-2h78v-2h-78v2Z"/>
      <path d="M470 18.1h-58v-5.7L441 0l29 12.4v5.7Zm-56-2h54v-2.3L441 2.2l-27 11.6v2.3Z"/>
      <path d="M459.7 14.1h-37.3l-.4-1.9L441.1 4l19.1 8.2-.4 1.9Zm-32.5-2h27.6L441 6.2l-13.8 5.9ZM414 18.1h-14v-6h14v6Zm-12-2h10v-2h-10v2ZM482 18.1h-14v-6h14v6Zm-12-2h10v-2h-10v2ZM458 30.1h-34v-10h34v10Zm-32-2h30v-6h-30v6ZM582 94.1h-6v-62h6v62Zm-4-2h2v-58h-2v58ZM594 94.1h-10v-30h10v30Zm-8-2h6v-26h-6v26ZM594 62.1h-10V32.6h10v29.5Zm-8-2h6V34.6h-6v25.5ZM602 94.1h-6v-62h6v62Zm-4-2h2v-58h-2v58ZM630 94.1h-26v-30h26v30Zm-24-2h22v-26h-22v26ZM630 62.1h-26v-30h26v30Zm-24-2h22v-26h-22v26ZM638 94.1h-6v-62h6v62Zm-4-2h2v-58h-2v58ZM650 94.1h-10v-30h10v30Zm-8-2h6v-26h-6v26ZM650 62.1h-10V32.6h10v29.5Zm-8-2h6V34.6h-6v25.5ZM658 94.1h-6v-62h6v62Zm-4-2h2v-58h-2v58ZM658 30.1h-22v-10h22v10Zm-20-2h18v-6h-18v6ZM598 30.1h-22v-10h22v10Zm-20-2h18v-6h-18v6Z"/>
      <path d="M646 22.1h-58v-6h58v6Zm-56-2h54v-2h-54v2Z"/>
      <path d="M658 22.1h-82v-6h82v6Zm-80-2h78v-2h-78v2Z"/>
      <path d="M646 18.1h-58v-5.7L617 0l29 12.4v5.7Zm-56-2h54v-2.3L617 2.2l-27 11.6v2.3Z"/>
      <path d="M635.7 14.1h-37.3l-.4-1.9L617.1 4l19.1 8.2-.4 1.9Zm-32.5-2h27.6L617 6.2l-13.8 5.9ZM590 18.1h-14v-6h14v6Zm-12-2h10v-2h-10v2ZM658 18.1h-14v-6h14v6Zm-12-2h10v-2h-10v2ZM634 30.1h-34v-10h34v10Zm-32-2h30v-6h-30v6ZM706 134.1H0v-6h706v6Zm-704-2h702v-2H2v2Z"/>
      <path d="M700 129.1h2v4h-2zM696 129.1h2v4h-2zM692 129.1h2v4h-2zM688 129.1h2v4h-2zM684 129.1h2v4h-2zM680 129.1h2v4h-2zM676 129.1h2v4h-2zM672 129.1h2v4h-2zM668 129.1h2v4h-2zM664 129.1h2v4h-2zM660 129.1h2v4h-2zM656 129.1h2v4h-2zM652 129.1h2v4h-2zM648 129.1h2v4h-2zM644 129.1h2v4h-2zM640 129.1h2v4h-2zM636 129.1h2v4h-2zM632 129.1h2v4h-2zM628 129.1h2v4h-2zM624 129.1h2v4h-2zM620 129.1h2v4h-2zM616 129.1h2v4h-2zM612 129.1h2v4h-2zM608 129.1h2v4h-2zM604 129.1h2v4h-2zM600 129.1h2v4h-2zM596 129.1h2v4h-2zM592 129.1h2v4h-2zM588 129.1h2v4h-2zM584 129.1h2v4h-2zM580 129.1h2v4h-2zM576 129.1h2v4h-2zM572 129.1h2v4h-2zM568 129.1h2v4h-2zM564 129.1h2v4h-2zM560 129.1h2v4h-2zM556 129.1h2v4h-2zM552 129.1h2v4h-2zM548 129.1h2v4h-2zM544 129.1h2v4h-2zM540 129.1h2v4h-2zM536 129.1h2v4h-2zM532 129.1h2v4h-2zM528 129.1h2v4h-2zM524 129.1h2v4h-2zM520 129.1h2v4h-2zM516 129.1h2v4h-2zM512 129.1h2v4h-2zM508 129.1h2v4h-2zM504 129.1h2v4h-2zM500 129.1h2v4h-2zM496 129.1h2v4h-2zM492 129.1h2v4h-2zM488 129.1h2v4h-2zM484 129.1h2v4h-2zM480 129.1h2v4h-2zM476 129.1h2v4h-2zM472 129.1h2v4h-2zM468 129.1h2v4h-2zM464 129.1h2v4h-2zM460 129.1h2v4h-2zM456 129.1h2v4h-2zM452 129.1h2v4h-2zM448 129.1h2v4h-2zM444 129.1h2v4h-2zM440 129.1h2v4h-2zM436 129.1h2v4h-2zM432 129.1h2v4h-2zM428 129.1h2v4h-2zM424 129.1h2v4h-2zM420 129.1h2v4h-2zM416 129.1h2v4h-2zM412 129.1h2v4h-2zM408 129.1h2v4h-2zM404 129.1h2v4h-2zM400 129.1h2v4h-2zM396 129.1h2v4h-2zM392 129.1h2v4h-2zM388 129.1h2v4h-2zM384 129.1h2v4h-2zM380 129.1h2v4h-2zM376 129.1h2v4h-2zM372 129.1h2v4h-2zM368 129.1h2v4h-2zM364 129.1h2v4h-2zM360 129.1h2v4h-2zM356 129.1h2v4h-2zM352 129.1h2v4h-2zM348 129.1h2v4h-2zM344 129.1h2v4h-2zM340 129.1h2v4h-2zM336 129.1h2v4h-2zM332 129.1h2v4h-2zM328 129.1h2v4h-2zM324 129.1h2v4h-2zM320 129.1h2v4h-2zM316 129.1h2v4h-2zM312 129.1h2v4h-2zM308 129.1h2v4h-2zM304 129.1h2v4h-2zM300 129.1h2v4h-2zM296 129.1h2v4h-2zM292 129.1h2v4h-2zM288 129.1h2v4h-2zM284 129.1h2v4h-2zM280 129.1h2v4h-2zM276 129.1h2v4h-2zM272 129.1h2v4h-2zM268 129.1h2v4h-2zM264 129.1h2v4h-2zM260 129.1h2v4h-2zM256 129.1h2v4h-2zM252 129.1h2v4h-2zM248 129.1h2v4h-2zM244 129.1h2v4h-2zM240 129.1h2v4h-2zM236 129.1h2v4h-2zM232 129.1h2v4h-2zM228 129.1h2v4h-2zM224 129.1h2v4h-2zM220 129.1h2v4h-2zM216 129.1h2v4h-2zM212 129.1h2v4h-2zM208 129.1h2v4h-2zM204 129.1h2v4h-2zM200 129.1h2v4h-2zM196 129.1h2v4h-2zM192 129.1h2v4h-2zM188 129.1h2v4h-2zM184 129.1h2v4h-2zM180 129.1h2v4h-2zM176 129.1h2v4h-2zM172 129.1h2v4h-2zM168 129.1h2v4h-2zM164 129.1h2v4h-2zM160 129.1h2v4h-2zM156 129.1h2v4h-2zM152 129.1h2v4h-2zM148 129.1h2v4h-2zM144 129.1h2v4h-2zM140 129.1h2v4h-2zM136 129.1h2v4h-2zM132 129.1h2v4h-2zM128 129.1h2v4h-2zM124 129.1h2v4h-2zM120 129.1h2v4h-2zM116 129.1h2v4h-2zM112 129.1h2v4h-2zM108 129.1h2v4h-2zM104 129.1h2v4h-2zM100 129.1h2v4h-2zM96 129.1h2v4h-2zM92 129.1h2v4h-2zM88 129.1h2v4h-2zM84 129.1h2v4h-2zM80 129.1h2v4h-2zM76 129.1h2v4h-2zM72 129.1h2v4h-2zM68 129.1h2v4h-2zM64 129.1h2v4h-2zM60 129.1h2v4h-2zM56 129.1h2v4h-2zM52 129.1h2v4h-2zM48 129.1h2v4h-2zM44 129.1h2v4h-2zM40 129.1h2v4h-2zM36 129.1h2v4h-2zM32 129.1h2v4h-2zM28 129.1h2v4h-2zM24 129.1h2v4h-2zM20 129.1h2v4h-2zM16 129.1h2v4h-2zM12 129.1h2v4h-2zM8 129.1h2v4H8zM4 129.1h2v4H4zM12 116.1h2v10h-2zM32 100.1h2v26h-2zM52 116.1h2v10h-2zM72 100.1h2v26h-2zM92 116.1h2v10h-2zM112 100.1h2v26h-2zM132 116.1h2v10h-2zM152 100.1h2v26h-2zM172 116.1h2v10h-2zM192 100.1h2v26h-2zM212 116.1h2v10h-2zM232 100.1h2v26h-2zM252 116.1h2v10h-2zM272 100.1h2v26h-2zM292 116.1h2v10h-2zM312 100.1h2v26h-2zM332 116.1h2v10h-2zM352 100.1h2v26h-2zM372 116.1h2v10h-2zM392 100.1h2v26h-2zM412 116.1h2v10h-2zM432 100.1h2v26h-2zM452 116.1h2v10h-2zM472 100.1h2v26h-2zM492 116.1h2v10h-2zM512 100.1h2v26h-2zM532 116.1h2v10h-2zM552 100.1h2v26h-2zM572 116.1h2v10h-2zM592 100.1h2v26h-2zM612 116.1h2v10h-2zM632 100.1h2v26h-2zM652 116.1h2v10h-2zM672 100.1h2v26h-2zM692 116.1h2v10h-2zM9 96.1h688v2H9zM9 88.1h40v2H9zM9 80.1h40v2H9zM9 72.1h40v2H9zM9 64.1h40v2H9zM9 56.1h40v2H9zM9 48.1h40v2H9zM9 40.1h40v2H9zM9 32.1h40v2H9zM9 24.1h40v2H9zM9 16.1h40v2H9zM129 88.1h96v2h-96zM129 80.1h96v2h-96zM129 72.1h96v2h-96zM129 64.1h96v2h-96zM129 56.1h96v2h-96zM129 48.1h96v2h-96zM129 40.1h96v2h-96zM129 32.1h96v2h-96zM129 24.1h96v2h-96zM129 16.1h96v2h-96zM305 88.1h96v2h-96zM305 80.1h96v2h-96zM305 72.1h96v2h-96zM305 64.1h96v2h-96zM305 56.1h96v2h-96zM305 48.1h96v2h-96zM305 40.1h96v2h-96zM305 32.1h96v2h-96zM305 24.1h96v2h-96zM305 16.1h96v2h-96zM481 88.1h96v2h-96zM481 80.1h96v2h-96zM481 72.1h96v2h-96zM481 64.1h96v2h-96zM481 56.1h96v2h-96zM481 48.1h96v2h-96zM481 40.1h96v2h-96zM481 32.1h96v2h-96zM481 24.1h96v2h-96zM481 16.1h96v2h-96zM657 88.1h40v2h-40zM657 80.1h40v2h-40zM657 72.1h40v2h-40zM657 64.1h40v2h-40zM657 56.1h40v2h-40zM657 48.1h40v2h-40zM657 40.1h40v2h-40zM657 32.1h40v2h-40zM657 24.1h40v2h-40zM657 16.1h40v2h-40zM8 8.1h62v2H8zM636 8.1h62v2h-62zM460 8.1h138v2H460zM284 8.1h138v2H284zM108 8.1h138v2H108z"/>
      <path d="M10 98.1H0v-90h10v90Zm-8-2h6v-86H2v86ZM706 98.1h-10v-90h10v90Zm-8-2h6v-86h-6v86ZM136 89.1h2v8h-2zM152 89.1h2v8h-2zM144 81.1h2v8h-2zM136 73.1h2v8h-2zM152 73.1h2v8h-2zM144 65.1h2v8h-2zM136 57.1h2v8h-2zM152 57.1h2v8h-2zM144 49.1h2v8h-2zM136 41.1h2v8h-2zM152 41.1h2v8h-2zM144 33.1h2v8h-2zM136 25.1h2v8h-2zM152 25.1h2v8h-2zM144 17.1h2v8h-2zM160 81.1h2v8h-2zM160 65.1h2v8h-2zM160 49.1h2v8h-2zM160 33.1h2v8h-2zM160 17.1h2v8h-2zM176 81.1h2v8h-2zM176 65.1h2v8h-2zM176 49.1h2v8h-2zM176 33.1h2v8h-2zM176 17.1h2v8h-2zM192 81.1h2v8h-2zM192 65.1h2v8h-2zM192 49.1h2v8h-2zM192 33.1h2v8h-2zM192 17.1h2v8h-2zM208 81.1h2v8h-2zM208 65.1h2v8h-2zM208 49.1h2v8h-2zM208 33.1h2v8h-2zM208 17.1h2v8h-2zM136 9.1h2v8h-2zM152 9.1h2v8h-2zM168 89.1h2v8h-2zM168 73.1h2v8h-2zM168 57.1h2v8h-2zM168 41.1h2v8h-2zM168 25.1h2v8h-2zM168 9.1h2v8h-2zM184 89.1h2v8h-2zM184 73.1h2v8h-2zM184 57.1h2v8h-2zM184 41.1h2v8h-2zM184 25.1h2v8h-2zM184 9.1h2v8h-2zM200 89.1h2v8h-2zM200 73.1h2v8h-2zM200 57.1h2v8h-2zM200 41.1h2v8h-2zM200 25.1h2v8h-2zM200 9.1h2v8h-2zM216 89.1h2v8h-2zM216 73.1h2v8h-2zM216 57.1h2v8h-2zM216 41.1h2v8h-2zM216 25.1h2v8h-2zM216 9.1h2v8h-2zM312 89.1h2v8h-2zM328 89.1h2v8h-2zM320 81.1h2v8h-2zM312 73.1h2v8h-2zM328 73.1h2v8h-2zM320 65.1h2v8h-2zM312 57.1h2v8h-2zM328 57.1h2v8h-2zM320 49.1h2v8h-2zM312 41.1h2v8h-2zM328 41.1h2v8h-2zM320 33.1h2v8h-2zM312 25.1h2v8h-2zM328 25.1h2v8h-2zM320 17.1h2v8h-2zM336 81.1h2v8h-2zM336 65.1h2v8h-2zM336 49.1h2v8h-2zM336 33.1h2v8h-2zM336 17.1h2v8h-2zM352 81.1h2v8h-2zM352 65.1h2v8h-2zM352 49.1h2v8h-2zM352 33.1h2v8h-2zM352 17.1h2v8h-2zM368 81.1h2v8h-2zM368 65.1h2v8h-2zM368 49.1h2v8h-2zM368 33.1h2v8h-2zM368 17.1h2v8h-2zM384 81.1h2v8h-2zM384 65.1h2v8h-2zM384 49.1h2v8h-2zM384 33.1h2v8h-2zM384 17.1h2v8h-2zM312 9.1h2v8h-2zM328 9.1h2v8h-2zM344 89.1h2v8h-2zM344 73.1h2v8h-2zM344 57.1h2v8h-2zM344 41.1h2v8h-2zM344 25.1h2v8h-2zM344 9.1h2v8h-2zM360 89.1h2v8h-2zM360 73.1h2v8h-2zM360 57.1h2v8h-2zM360 41.1h2v8h-2zM360 25.1h2v8h-2zM360 9.1h2v8h-2zM376 89.1h2v8h-2zM376 73.1h2v8h-2zM376 57.1h2v8h-2zM376 41.1h2v8h-2zM376 25.1h2v8h-2zM376 9.1h2v8h-2zM392 89.1h2v8h-2zM392 73.1h2v8h-2zM392 57.1h2v8h-2zM392 41.1h2v8h-2zM392 25.1h2v8h-2zM392 9.1h2v8h-2zM488 89.1h2v8h-2zM504 89.1h2v8h-2zM496 81.1h2v8h-2zM488 73.1h2v8h-2zM504 73.1h2v8h-2zM496 65.1h2v8h-2zM488 57.1h2v8h-2zM504 57.1h2v8h-2zM496 49.1h2v8h-2zM488 41.1h2v8h-2zM504 41.1h2v8h-2zM496 33.1h2v8h-2zM488 25.1h2v8h-2zM504 25.1h2v8h-2zM496 17.1h2v8h-2zM512 81.1h2v8h-2zM512 65.1h2v8h-2zM512 49.1h2v8h-2zM512 33.1h2v8h-2zM512 17.1h2v8h-2zM528 81.1h2v8h-2zM528 65.1h2v8h-2zM528 49.1h2v8h-2zM528 33.1h2v8h-2zM528 17.1h2v8h-2zM544 81.1h2v8h-2zM544 65.1h2v8h-2zM544 49.1h2v8h-2zM544 33.1h2v8h-2zM544 17.1h2v8h-2zM560 81.1h2v8h-2zM560 65.1h2v8h-2zM560 49.1h2v8h-2zM560 33.1h2v8h-2zM560 17.1h2v8h-2zM488 9.1h2v8h-2zM504 9.1h2v8h-2zM520 89.1h2v8h-2zM520 73.1h2v8h-2zM520 57.1h2v8h-2zM520 41.1h2v8h-2zM520 25.1h2v8h-2zM520 9.1h2v8h-2zM536 89.1h2v8h-2zM536 73.1h2v8h-2zM536 57.1h2v8h-2zM536 41.1h2v8h-2zM536 25.1h2v8h-2zM536 9.1h2v8h-2zM552 89.1h2v8h-2zM552 73.1h2v8h-2zM552 57.1h2v8h-2zM552 41.1h2v8h-2zM552 25.1h2v8h-2zM552 9.1h2v8h-2zM568 89.1h2v8h-2zM568 73.1h2v8h-2zM568 57.1h2v8h-2zM568 41.1h2v8h-2zM568 25.1h2v8h-2zM568 9.1h2v8h-2zM664 89.1h2v8h-2zM680 89.1h2v8h-2zM672 81.1h2v8h-2zM664 73.1h2v8h-2zM680 73.1h2v8h-2zM672 65.1h2v8h-2zM664 57.1h2v8h-2zM680 57.1h2v8h-2zM672 49.1h2v8h-2zM664 41.1h2v8h-2zM680 41.1h2v8h-2zM672 33.1h2v8h-2zM664 25.1h2v8h-2zM680 25.1h2v8h-2zM672 17.1h2v8h-2zM688 81.1h2v8h-2zM688 65.1h2v8h-2zM688 49.1h2v8h-2zM688 33.1h2v8h-2zM688 17.1h2v8h-2zM664 9.1h2v8h-2zM680 9.1h2v8h-2zM40 89.1h2v8h-2zM24 89.1h2v8h-2zM32 81.1h2v8h-2zM40 73.1h2v8h-2zM24 73.1h2v8h-2zM32 65.1h2v8h-2zM40 57.1h2v8h-2zM24 57.1h2v8h-2zM32 49.1h2v8h-2zM40 41.1h2v8h-2zM24 41.1h2v8h-2zM32 33.1h2v8h-2zM40 25.1h2v8h-2zM24 25.1h2v8h-2zM32 17.1h2v8h-2zM16 81.1h2v8h-2zM16 65.1h2v8h-2zM16 49.1h2v8h-2zM16 33.1h2v8h-2zM16 17.1h2v8h-2zM40 9.1h2v8h-2zM24 9.1h2v8h-2z"/>
    </g>
    <g id="second-floor">
      <path d="M706 246.1H0v-109h706v109Zm-704-2h702v-105H2v105Z"/>
      <path d="M634 238.1h-34v-26h34v26Zm-32-2h30v-22h-30v22ZM634 210.1h-34v-27.6l.6-.3c.2 0 4.4-2.1 16.4-2.1s16.3 2 16.4 2.1l.6.3v27.6Zm-32-2h30v-24.3c-1.4-.5-5.9-1.7-15-1.7s-13.6 1.2-15 1.7v24.3ZM622 178.1h-10v-8h10v8Zm-8-2h6v-4h-6v4Z"/>
      <path d="M638 242.1h-2v-61.3c-2.1-.7-9.2-2.7-19-2.7s-16.9 2-19 2.7v61.3h-2v-62.7l.6-.2c.3-.1 8.3-3.1 20.4-3.1s20 2.9 20.4 3.1l.6.2v62.7Z"/>
      <path d="M642 241.1h-2v-64.3c-2.5-1-12.2-4.7-23-4.7s-20.5 3.7-23 4.7v64.3h-2v-65.6l.6-.3c.5-.2 11.5-5.1 24.4-5.1s23.9 4.9 24.4 5.1l.6.3v65.6Z"/>
      <path d="M646 242.1h-58v-68.6l.5-.3c.4-.2 10.4-6 24.4-7h1.1v3.9h6v-3.9h1.1c14 1.1 24 6.8 24.4 7.1l.5.3v68.6Zm-56-2h54v-65.4c-2.1-1.1-10.7-5.3-22-6.4v3.8h-10v-3.8c-11.3 1-19.9 5.2-22 6.4v65.4Z"/>
      <path d="M622 172.1h-10v-12h10v12Zm-8-2h6v-8h-6v8ZM458 238.1h-34v-26h34v26Zm-32-2h30v-22h-30v22ZM458 210.1h-34v-27.6l.6-.3c.2 0 4.4-2.1 16.4-2.1s16.3 2 16.4 2.1l.6.3v27.6Zm-32-2h30v-24.3c-1.4-.5-5.9-1.7-15-1.7s-13.6 1.2-15 1.7v24.3ZM446 178.1h-10v-8h10v8Zm-8-2h6v-4h-6v4Z"/>
      <path d="M462 242.1h-2v-61.3c-2.1-.7-9.2-2.7-19-2.7s-16.9 2-19 2.7v61.3h-2v-62.7l.6-.2c.3-.1 8.3-3.1 20.4-3.1s20 2.9 20.4 3.1l.6.2v62.7Z"/>
      <path d="M466 241.1h-2v-64.3c-2.5-1-12.2-4.7-23-4.7s-20.5 3.7-23 4.7v64.3h-2v-65.6l.6-.3c.5-.2 11.5-5.1 24.4-5.1s23.9 4.9 24.4 5.1l.6.3v65.6Z"/>
      <path d="M470 242.1h-58v-68.6l.5-.3c.4-.2 10.4-6 24.4-7h1.1v3.9h6v-3.9h1.1c14 1.1 24 6.8 24.4 7.1l.5.3v68.6Zm-56-2h54v-65.4c-2.1-1.1-10.7-5.3-22-6.4v3.8h-10v-3.8c-11.3 1-19.9 5.2-22 6.4v65.4Z"/>
      <path d="M446 172.1h-10v-12h10v12Zm-8-2h6v-8h-6v8ZM282 238.1h-34v-26h34v26Zm-32-2h30v-22h-30v22ZM282 210.1h-34v-27.6l.6-.3c.2 0 4.4-2.1 16.4-2.1s16.3 2 16.4 2.1l.6.3v27.6Zm-32-2h30v-24.3c-1.4-.5-5.9-1.7-15-1.7s-13.6 1.2-15 1.7v24.3ZM270 178.1h-10v-8h10v8Zm-8-2h6v-4h-6v4Z"/>
      <path d="M286 242.1h-2v-61.3c-2.1-.7-9.3-2.7-19-2.7s-16.9 2-19 2.7v61.3h-2v-62.7l.6-.2c.3-.1 8.3-3.1 20.4-3.1s20 2.9 20.4 3.1l.6.2v62.7Z"/>
      <path d="M290 241.1h-2v-64.3c-2.5-1-12.2-4.7-23-4.7s-20.5 3.7-23 4.7v64.3h-2v-65.6l.6-.3c.5-.2 11.5-5.1 24.4-5.1s23.9 4.9 24.4 5.1l.6.3v65.6Z"/>
      <path d="M294 242.1h-58v-68.6l.5-.3c.4-.2 10.4-6 24.4-7h1.1v3.9h6v-3.9h1.1c14 1.1 24 6.8 24.4 7.1l.5.3v68.6Zm-56-2h54v-65.4c-2.1-1.1-10.7-5.3-22-6.4v3.8h-10v-3.8c-11.3 1-19.9 5.2-22 6.4v65.4Z"/>
      <path d="M270 172.1h-10v-12h10v12Zm-8-2h6v-8h-6v8ZM106 238.1H72v-26h34v26Zm-32-2h30v-22H74v22ZM106 210.1H72v-27.6l.6-.3c.2 0 4.4-2.1 16.4-2.1s16.3 2 16.4 2.1l.6.3v27.6Zm-32-2h30v-24.3c-1.4-.5-5.9-1.7-15-1.7s-13.6 1.2-15 1.7v24.3ZM94 178.1H84v-8h10v8Zm-8-2h6v-4h-6v4Z"/>
      <path d="M110 242.1h-2v-61.3c-2.1-.7-9.3-2.7-19-2.7s-16.9 2-19 2.7v61.3h-2v-62.7l.6-.2c.3-.1 8.3-3.1 20.4-3.1s20 2.9 20.4 3.1l.6.2v62.7Z"/>
      <path d="M114 241.1h-2v-64.3c-2.5-1-12.2-4.7-23-4.7s-20.5 3.7-23 4.7v64.3h-2v-65.6l.6-.3c.5-.2 11.5-5.1 24.4-5.1s23.9 4.9 24.4 5.1l.6.3v65.6Z"/>
      <path d="M118 242.1H60v-68.6l.5-.3c.4-.2 10.4-6 24.4-7H86v3.9h6v-3.9h1.1c14 1.1 24 6.8 24.4 7.1l.5.3v68.6Zm-56-2h54v-65.4c-2.1-1.1-10.7-5.3-22-6.4v3.8H84v-3.8c-11.3 1-19.9 5.2-22 6.4v65.4Z"/>
      <path d="M94 172.1H84v-12h10v12Zm-8-2h6v-8h-6v8ZM650 246.1h-66v-6h66v6Zm-64-2h62v-2h-62v2Z"/>
      <path d="M597 250.1h-8l-.7-.3-4-4 .7-1.7h16l.7 1.7-4 4-.7.3Zm-7.6-2h7.2l2-2h-11.2l2 2ZM645 250.1h-8l-.7-.3-4-4 .7-1.7h16l.7 1.7-4 4-.7.3Zm-7.6-2h7.2l2-2h-11.2l2 2ZM474 246.1h-66v-6h66v6Zm-64-2h62v-2h-62v2Z"/>
      <path d="M421 250.1h-8l-.7-.3-4-4 .7-1.7h16l.7 1.7-4 4-.7.3Zm-7.6-2h7.2l2-2h-11.2l2 2ZM469 250.1h-8l-.7-.3-4-4 .7-1.7h16l.7 1.7-4 4-.7.3Zm-7.6-2h7.2l2-2h-11.2l2 2ZM298 246.1h-66v-6h66v6Zm-64-2h62v-2h-62v2Z"/>
      <path d="M245 250.1h-8l-.7-.3-4-4 .7-1.7h16l.7 1.7-4 4-.7.3Zm-7.6-2h7.2l2-2h-11.2l2 2ZM293 250.1h-8l-.7-.3-4-4 .7-1.7h16l.7 1.7-4 4-.7.3Zm-7.6-2h7.2l2-2h-11.2l2 2ZM122 246.1H56v-6h66v6Zm-64-2h62v-2H58v2Z"/>
      <path d="M69 250.1h-8l-.7-.3-4-4 .7-1.7h16l.7 1.7-4 4-.7.3Zm-7.6-2h7.2l2-2H59.4l2 2ZM117 250.1h-8l-.7-.3-4-4 .7-1.7h16l.7 1.7-4 4-.7.3Zm-7.6-2h7.2l2-2h-11.2l2 2Z"/>
    </g>
    <g id="first-floor">
      <path d="M706 430.1H0v-178h706v178Zm-704-2h702v-174H2v174Z"/>
      <path d="M598 258.1h-10v-10h10v10Zm-8-2h6v-6h-6v6ZM646 258.1h-10v-10h10v10Zm-8-2h6v-6h-6v6ZM422 258.1h-10v-10h10v10Zm-8-2h6v-6h-6v6ZM470 258.1h-10v-10h10v10Zm-8-2h6v-6h-6v6ZM246 258.1h-10v-10h10v10Zm-8-2h6v-6h-6v6ZM294 258.1h-10v-10h10v10Zm-8-2h6v-6h-6v6ZM70 258.1H60v-10h10v10Zm-8-2h6v-6h-6v6ZM118 258.1h-10v-10h10v10Zm-8-2h6v-6h-6v6ZM57 308.1h64v2H57zM114 410.1H64v-94h50v94Zm-48-2h46v-90H66v90Z"/>
      <path d="M110 362.1H68v-42h42v42Zm-40-2h38v-38H70v38ZM110 406.1H68v-42h42v42Zm-40-2h38v-38H70v38ZM137 290.1H41l-.4-1.9L89 268l48.4 20.2-.4 1.9Zm-91-2h86l-43-17.9-43 17.9Z"/>
      <path d="M120.6 290 89 278.2 57.4 290l-.8-1.8L89 276l32.4 12.2-.8 1.8zM138 298.1H40v-6h98v6Zm-96-2h94v-2H42v2Z"/>
      <path d="M62 302.1H44v-6h18v6Zm-16-2h14v-2H46v2ZM58 406.1H48v-81h10v81Zm-8-2h6v-77h-6v77Z"/>
      <path d="M52 329.1h2v73h-2zM52 304.1h2v10h-2zM134 302.1h-18v-6h18v6Zm-16-2h14v-2h-14v2ZM53 326.1c-2.8 0-5-2.2-5-5s2.2-5 5-5 5 2.2 5 5-2.2 5-5 5Zm0-8c-1.7 0-3 1.3-3 3s1.3 3 3 3 3-1.3 3-3-1.3-3-3-3ZM114 302.1H64v-6h50v6Zm-48-2h46v-2H66v2ZM126 414.1H51v-6h75v6Zm-73-2h71v-2H53v2Z"/>
      <path d="M69 418.1H57l-.7-.3-4-4 .7-1.7h20l.7 1.7-4 4-.7.3Zm-11.6-2h11.2l2-2H55.4l2 2Z"/>
      <path d="M70 430.1H56v-14h14v14Zm-12-2h10v-10H58v10Z"/>
      <path d="M60 420.1h2v6h-2zM64 420.1h2v6h-2zM121 418.1h-12l-.7-.3-4-4 .7-1.7h20l.7 1.7-4 4-.7.3Zm-11.6-2h11.2l2-2h-15.2l2 2Z"/>
      <path d="M122 430.1h-14v-14h14v14Zm-12-2h10v-10h-10v10Z"/>
      <path d="M112 420.1h2v6h-2zM116 420.1h2v6h-2zM58 318.1H48v-18h10v18Zm-8-2h6v-14h-6v14ZM130 406.1h-10v-81h10v81Zm-8-2h6v-77h-6v77Z"/>
      <path d="M124 329.1h2v73h-2zM124 304.1h2v10h-2zM125 326.1c-2.8 0-5-2.2-5-5s2.2-5 5-5 5 2.2 5 5-2.2 5-5 5Zm0-8c-1.7 0-3 1.3-3 3s1.3 3 3 3 3-1.3 3-3-1.3-3-3-3Z"/>
      <path d="M130 318.1h-10v-18h10v18Zm-8-2h6v-14h-6v14ZM57 404.1h4v2h-4zM117 404.1h4v2h-4zM233 308.1h64v2h-64zM290 410.1h-50v-94h50v94Zm-48-2h46v-90h-46v90Z"/>
      <path d="M286 362.1h-42v-42h42v42Zm-40-2h38v-38h-38v38ZM286 406.1h-42v-42h42v42Zm-40-2h38v-38h-38v38ZM313 290.1h-96l-.4-1.9L265 268l48.4 20.2-.4 1.9Zm-91-2h86l-43-17.9-43 17.9Z"/>
      <path d="M296.6 290 265 278.2 233.4 290l-.8-1.8L265 276l32.4 12.2-.8 1.8zM314 298.1h-98v-6h98v6Zm-96-2h94v-2h-94v2Z"/>
      <path d="M238 302.1h-18v-6h18v6Zm-16-2h14v-2h-14v2ZM234 406.1h-10v-81h10v81Zm-8-2h6v-77h-6v77Z"/>
      <path d="M228 329.1h2v73h-2zM228 304.1h2v10h-2zM310 302.1h-18v-6h18v6Zm-16-2h14v-2h-14v2ZM229 326.1c-2.8 0-5-2.2-5-5s2.2-5 5-5 5 2.2 5 5-2.2 5-5 5Zm0-8c-1.7 0-3 1.3-3 3s1.3 3 3 3 3-1.3 3-3-1.3-3-3-3ZM290 302.1h-50v-6h50v6Zm-48-2h46v-2h-46v2ZM302 414.1h-75v-6h75v6Zm-73-2h71v-2h-71v2Z"/>
      <path d="M245 418.1h-12l-.7-.3-4-4 .7-1.7h20l.7 1.7-4 4-.7.3Zm-11.6-2h11.2l2-2h-15.2l2 2Z"/>
      <path d="M246 430.1h-14v-14h14v14Zm-12-2h10v-10h-10v10Z"/>
      <path d="M236 420.1h2v6h-2zM240 420.1h2v6h-2zM297 418.1h-12l-.7-.3-4-4 .7-1.7h20l.7 1.7-4 4-.7.3Zm-11.6-2h11.2l2-2h-15.2l2 2Z"/>
      <path d="M298 430.1h-14v-14h14v14Zm-12-2h10v-10h-10v10Z"/>
      <path d="M288 420.1h2v6h-2zM292 420.1h2v6h-2zM234 318.1h-10v-18h10v18Zm-8-2h6v-14h-6v14ZM306 406.1h-10v-81h10v81Zm-8-2h6v-77h-6v77Z"/>
      <path d="M300 329.1h2v73h-2zM300 304.1h2v10h-2zM301 326.1c-2.8 0-5-2.2-5-5s2.2-5 5-5 5 2.2 5 5-2.2 5-5 5Zm0-8c-1.7 0-3 1.3-3 3s1.3 3 3 3 3-1.3 3-3-1.3-3-3-3Z"/>
      <path d="M306 318.1h-10v-18h10v18Zm-8-2h6v-14h-6v14ZM233 404.1h4v2h-4zM293 404.1h4v2h-4zM409 308.1h64v2h-64zM466 410.1h-50v-94h50v94Zm-48-2h46v-90h-46v90Z"/>
      <path d="M462 362.1h-42v-42h42v42Zm-40-2h38v-38h-38v38ZM462 406.1h-42v-42h42v42Zm-40-2h38v-38h-38v38ZM489 290.1h-96l-.4-1.9L441 268l48.4 20.2-.4 1.9Zm-91-2h86l-43-17.9-43 17.9Z"/>
      <path d="M472.6 290 441 278.2 409.4 290l-.8-1.8L441 276l32.4 12.2-.8 1.8zM490 298.1h-98v-6h98v6Zm-96-2h94v-2h-94v2Z"/>
      <path d="M414 302.1h-18v-6h18v6Zm-16-2h14v-2h-14v2ZM410 406.1h-10v-81h10v81Zm-8-2h6v-77h-6v77Z"/>
      <path d="M404 329.1h2v73h-2zM404 304.1h2v10h-2zM486 302.1h-18v-6h18v6Zm-16-2h14v-2h-14v2ZM405 326.1c-2.8 0-5-2.2-5-5s2.2-5 5-5 5 2.2 5 5-2.2 5-5 5Zm0-8c-1.7 0-3 1.3-3 3s1.3 3 3 3 3-1.3 3-3-1.3-3-3-3ZM466 302.1h-50v-6h50v6Zm-48-2h46v-2h-46v2ZM478 414.1h-75v-6h75v6Zm-73-2h71v-2h-71v2Z"/>
      <path d="M421 418.1h-12l-.7-.3-4-4 .7-1.7h20l.7 1.7-4 4-.7.3Zm-11.6-2h11.2l2-2h-15.2l2 2Z"/>
      <path d="M422 430.1h-14v-14h14v14Zm-12-2h10v-10h-10v10Z"/>
      <path d="M412 420.1h2v6h-2zM416 420.1h2v6h-2zM473 418.1h-12l-.7-.3-4-4 .7-1.7h20l.7 1.7-4 4-.7.3Zm-11.6-2h11.2l2-2h-15.2l2 2Z"/>
      <path d="M474 430.1h-14v-14h14v14Zm-12-2h10v-10h-10v10Z"/>
      <path d="M464 420.1h2v6h-2zM468 420.1h2v6h-2zM410 318.1h-10v-18h10v18Zm-8-2h6v-14h-6v14ZM482 406.1h-10v-81h10v81Zm-8-2h6v-77h-6v77Z"/>
      <path d="M476 329.1h2v73h-2zM476 304.1h2v10h-2zM477 326.1c-2.8 0-5-2.2-5-5s2.2-5 5-5 5 2.2 5 5-2.2 5-5 5Zm0-8c-1.7 0-3 1.3-3 3s1.3 3 3 3 3-1.3 3-3-1.3-3-3-3Z"/>
      <path d="M482 318.1h-10v-18h10v18Zm-8-2h6v-14h-6v14ZM409 404.1h4v2h-4zM469 404.1h4v2h-4zM585 308.1h64v2h-64zM642 410.1h-50v-94h50v94Zm-48-2h46v-90h-46v90Z"/>
      <path d="M638 362.1h-42v-42h42v42Zm-40-2h38v-38h-38v38ZM638 406.1h-42v-42h42v42Zm-40-2h38v-38h-38v38ZM665 290.1h-96l-.4-1.9L617 268l48.4 20.2-.4 1.9Zm-91-2h86l-43-17.9-43 17.9Z"/>
      <path d="M648.6 290 617 278.2 585.4 290l-.8-1.8L617 276l32.4 12.2-.8 1.8zM666 298.1h-98v-6h98v6Zm-96-2h94v-2h-94v2Z"/>
      <path d="M590 302.1h-18v-6h18v6Zm-16-2h14v-2h-14v2ZM586 406.1h-10v-81h10v81Zm-8-2h6v-77h-6v77Z"/>
      <path d="M580 329.1h2v73h-2zM580 304.1h2v10h-2zM662 302.1h-18v-6h18v6Zm-16-2h14v-2h-14v2ZM581 326.1c-2.8 0-5-2.2-5-5s2.2-5 5-5 5 2.2 5 5-2.2 5-5 5Zm0-8c-1.7 0-3 1.3-3 3s1.3 3 3 3 3-1.3 3-3-1.3-3-3-3ZM642 302.1h-50v-6h50v6Zm-48-2h46v-2h-46v2ZM654 414.1h-75v-6h75v6Zm-73-2h71v-2h-71v2Z"/>
      <path d="M597 418.1h-12l-.7-.3-4-4 .7-1.7h20l.7 1.7-4 4-.7.3Zm-11.6-2h11.2l2-2h-15.2l2 2Z"/>
      <path d="M598 430.1h-14v-14h14v14Zm-12-2h10v-10h-10v10Z"/>
      <path d="M588 420.1h2v6h-2zM592 420.1h2v6h-2zM649 418.1h-12l-.7-.3-4-4 .7-1.7h20l.7 1.7-4 4-.7.3Zm-11.6-2h11.2l2-2h-15.2l2 2Z"/>
      <path d="M650 430.1h-14v-14h14v14Zm-12-2h10v-10h-10v10Z"/>
      <path d="M640 420.1h2v6h-2zM644 420.1h2v6h-2zM586 318.1h-10v-18h10v18Zm-8-2h6v-14h-6v14ZM658 406.1h-10v-81h10v81Zm-8-2h6v-77h-6v77Z"/>
      <path d="M652 329.1h2v73h-2zM652 304.1h2v10h-2zM653 326.1c-2.8 0-5-2.2-5-5s2.2-5 5-5 5 2.2 5 5-2.2 5-5 5Zm0-8c-1.7 0-3 1.3-3 3s1.3 3 3 3 3-1.3 3-3-1.3-3-3-3Z"/>
      <path d="M658 318.1h-10v-18h10v18Zm-8-2h6v-14h-6v14ZM585 404.1h4v2h-4zM645 404.1h4v2h-4zM706 438.1H0v-6h706v6Zm-704-2h702v-2H2v2Z"/>
    </g>
    <g id="ground-floor">
      <path d="M706 446.1H0v-6h706v6Zm-704-2h702v-2H2v2ZM125.9 638.1H52.1l-.1-109h2l.1 107h69.8l.1-107h2l-.1 109z"/>
      <path d="M133.9 638.1H44.1l-.1-109h2l.1 107h85.8l.1-107h2l-.1 109z"/>
      <path d="M109.9 634.1H68l-.1-105h2l.1 103h37.9l.1-103h2l-.1 105z"/>
      <path d="M106 582.1H72v-53h2v51h30v-51h2v53zM66 582.1H56v-54h10v54Zm-8-2h6v-50h-6v50ZM66 634.1H56v-50h10v50Zm-8-2h6v-46h-6v46ZM122 582.1h-10v-54h10v54Zm-8-2h6v-50h-6v50ZM122 634.1h-10v-50h10v50Zm-8-2h6v-46h-6v46ZM138 642.1H40v-6h98v6Zm-96-2h94v-2H42v2Z"/>
      <path d="M134 646.1H44v-6h90v6Zm-88-2h86v-2H46v2ZM110 529.1h-2c0-10.5-8.5-19-19-19s-19 8.5-19 19h-2c0-11.6 9.4-21 21-21s21 9.4 21 21Z"/>
      <path d="M126 529.1h-2c0-19.3-15.7-35-35-35s-35 15.7-35 35h-2c0-20.4 16.6-37 37-37s37 16.6 37 37Z"/>
      <path d="M134 529.1h-2c0-23.7-19.3-43-43-43s-43 19.3-43 43h-2c0-24.8 20.2-45 45-45s45 20.2 45 45ZM127.3 495.5l-.6-.7c-2.6-2.9-5.5-5.4-8.7-7.7l-.8-.6 12.9-18.5h7.9v19.5l-10.7 7.9Zm-7.4-9.4c2.7 2 5.3 4.2 7.6 6.7l8.4-6.2v-16.5h-4.8l-11.2 16ZM50.7 495.5 40 487.6v-19.5h7.9l12.9 18.5-.8.6c-3.2 2.2-6.1 4.8-8.7 7.7l-.6.7Zm-8.7-8.9 8.4 6.2c2.3-2.5 4.9-4.7 7.6-6.7l-11.2-16H42v16.5ZM226.7 495.5l-10.7-7.9v-19.5h7.9l12.9 18.5-.8.6c-3.2 2.2-6.1 4.8-8.7 7.7l-.6.7Zm-8.7-8.9 8.4 6.2c2.3-2.5 4.9-4.7 7.6-6.7l-11.2-16H218v16.5ZM93.5 478.3h-1c-2.4-.2-4.7-.2-7.1 0h-1l-3.6-30.1H97l-3.6 30.2Zm-10.4-28.2 3.1 26.1h5.5l3.1-26.1H83.1ZM73.1 480.6l-12.4-32.5h18.2l3.6 30.4h-1c-2.5.5-5.1 1.1-7.5 1.8l-.9.3Zm-9.5-30.5 10.7 28.1c2-.6 4-1 6-1.4l-3.2-26.7H63.6ZM104.9 480.6l-.9-.3c-2.5-.8-5-1.3-7.5-1.7h-1c0-.1 3.6-30.5 3.6-30.5h18.2l-12.4 32.5Zm-7.2-3.8c2 .3 4 .8 6 1.4l10.7-28.1h-13.5l-3.2 26.7ZM115.5 485.5l-.8-.5c-2.2-1.3-4.6-2.5-7-3.4l-.9-.4 12.7-33.2H130v16.7l-14.5 20.7Zm-6.1-5.4c1.9.8 3.8 1.7 5.6 2.7l13.1-18.7V450h-7.2l-11.5 30.1ZM62.5 485.5 48 464.8v-16.7h10.5l12.7 33.2-.9.4c-2.4 1-4.8 2.1-7 3.4l-.8.5ZM50 464.2l13.1 18.7c1.8-1 3.7-1.9 5.6-2.7l-11.5-30.1H50v14.1ZM303.3 495.5l-.6-.7c-2.6-2.9-5.5-5.4-8.7-7.7l-.8-.6 12.9-18.5h7.9v19.5l-10.7 7.9Zm-7.4-9.4c2.7 2 5.3 4.2 7.6 6.7l8.4-6.2v-16.5h-4.8l-11.2 16ZM269.5 478.3h-1c-2.4-.2-4.7-.2-7.1 0h-1l-3.6-30.1H273l-3.6 30.2Zm-10.4-28.2 3.1 26.1h5.5l3.1-26.1h-11.7ZM249.1 480.6l-12.4-32.5h18.2l3.6 30.4h-1c-2.5.5-5.1 1.1-7.5 1.8l-.9.3Zm-9.5-30.5 10.7 28.1c2-.6 4-1 6-1.4l-3.2-26.7h-13.5ZM280.9 480.6l-.9-.3c-2.5-.8-5-1.3-7.5-1.7h-1c0-.1 3.6-30.5 3.6-30.5h18.2l-12.4 32.5Zm-7.2-3.8c2 .3 4 .8 6 1.4l10.7-28.1h-13.5l-3.2 26.7ZM322 506.2h-11.4l-.3-.6c-1.4-2.7-3.1-5.3-5-7.8l-.6-.8 12-8.9h5.3v18.1Zm-10.2-2h8.2v-14.1h-2.7l-9.9 7.3c1.6 2.2 3.1 4.4 4.3 6.8ZM291.5 485.5l-.8-.5c-2.2-1.3-4.6-2.5-7-3.4l-.9-.4 12.7-33.2H306v16.7l-14.5 20.7Zm-6.1-5.4c1.9.8 3.8 1.7 5.6 2.7l13.1-18.7V450h-7.2l-11.5 30.1ZM238.5 485.5 224 464.8v-16.7h10.5l12.7 33.2-.9.4c-2.4 1-4.8 2.1-7 3.4l-.8.5ZM226 464.2l13.1 18.7c1.8-1 3.7-1.9 5.6-2.7l-11.5-30.1H226v14.1ZM334 526.1h-17.9l-.2-1c-.4-5.4-1.7-10.7-3.7-15.6l-.6-1.4h22.5v18Zm-16.2-2H332v-14h-17.5c1.7 4.5 2.8 9.2 3.3 14ZM479.3 495.5l-.6-.7c-2.6-2.9-5.5-5.4-8.7-7.7l-.8-.6 13-18.5h7.9v19.5l-10.7 7.9Zm-7.4-9.4c2.7 2 5.3 4.2 7.6 6.7l8.4-6.2v-16.5h-4.8l-11.2 16ZM436.5 478.3l-3.6-30.2h16.2l-3.6 30.2h-1c-2.4-.2-4.8-.2-7.1 0h-1Zm4.5-2.2h2.8l3.1-26.1h-11.7l3.1 26.1h2.8ZM425.1 480.6l-12.4-32.5h18.2l3.6 30.4h-1c-2.5.5-5.1 1.1-7.5 1.8l-.9.3Zm-9.5-30.5 10.7 28.1c2-.6 4-1 6-1.4l-3.2-26.7h-13.5ZM456.9 480.6l-.9-.3c-2.5-.8-5-1.3-7.5-1.7h-1c0-.1 3.6-30.5 3.6-30.5h18.2l-12.4 32.5Zm-7.2-3.8c2 .3 4 .8 6 1.4l10.7-28.1h-13.5l-3.2 26.7ZM384 506.2v-18.1h5.3l12 8.9-.6.8c-1.9 2.4-3.6 5.1-5 7.8l-.3.5h-11.5Zm2-16.1v14.1h8.3c1.2-2.4 2.7-4.6 4.3-6.8l-9.9-7.3H386ZM467.5 485.5l-.8-.5c-2.2-1.3-4.6-2.5-7-3.4l-.9-.4 12.7-33.2H482v16.7l-14.5 20.7Zm-6.1-5.4c1.9.8 3.8 1.7 5.5 2.7l13.1-18.7V450h-7.2l-11.5 30.1ZM414.5 485.5 400 464.8v-16.7h10.5l12.7 33.2-.9.4c-2.4 1-4.8 2.1-7 3.4l-.8.5ZM402 464.2l13.1 18.7c1.8-1 3.7-1.9 5.5-2.7l-11.5-30.1h-7.2v14.1ZM389.9 526.1H372v-18h22.5l-.6 1.4c-2.1 4.9-3.3 10.2-3.7 15.6v.3l-.2.8Zm-15.9-2h14.2c.5-4.8 1.5-9.5 3.3-14H374v14ZM612.5 478.3l-3.6-30.2h16.2l-3.6 30.2h-1c-2.4-.2-4.8-.2-7.1 0h-1Zm4.5-2.2h2.8l3.1-26.1h-11.7l3.1 26.1h2.8ZM601.1 480.6l-12.4-32.5h18.2l3.6 30.4h-1c-2.5.5-5.1 1.1-7.5 1.8l-.9.3Zm-9.5-30.5 10.7 28.1c2-.6 4-1 6-1.4l-3.2-26.7h-13.5ZM632.9 480.6l-.9-.3c-2.5-.8-5-1.3-7.5-1.7h-1c0-.1 3.6-30.5 3.6-30.5h18.2l-12.4 32.5Zm-7.2-3.8c2 .3 4 .8 6 1.4l10.7-28.1h-13.5l-3.2 26.7ZM643.5 485.5l-.8-.5c-2.2-1.3-4.6-2.5-7-3.4l-.9-.4 12.7-33.2H658v16.7l-14.5 20.7Zm-6.1-5.4c1.9.8 3.8 1.7 5.5 2.7l13.1-18.7V450h-7.2l-11.5 30.1ZM590.5 485.5 576 464.8v-16.7h10.5l12.7 33.2-.9.4c-2.4 1-4.8 2.1-7 3.4l-.8.5ZM578 464.2l13.1 18.7c1.8-1 3.7-1.9 5.5-2.7l-11.5-30.1h-7.2v14.1Z"/>
      <g id="door">
        <path d="M653.9 666.1h-73.8l-.1-137h2l.1 135h69.8l.1-135h2l-.1 137z"/>
        <path d="M650 546.1h-66v-6h66v6Zm-64-2h62v-2h-62v2ZM654 529.1h-2c0-19.3-15.7-35-35-35s-35 15.7-35 35h-2c0-20.4 16.6-37 37-37s37 16.6 37 37Z"/>
        <path d="M661.9 666.1h-89.8v-137c-.1-24.8 20.1-45 44.9-45s45 20.2 45 45v137Zm-87.8-2h85.8v-135c.1-23.7-19.2-43-42.9-43s-43 19.3-43 43v135Z"/>
        <path d="M581 548.1h72v2h-72z"/>
        <path d="M616 549.1h2v116h-2zM614 662.1h-14v-14h14v14Zm-12-2h10v-10h-10v10ZM598 662.1h-14v-14h14v14Zm-12-2h10v-10h-10v10ZM614 646.1h-14v-14h14v14Zm-12-2h10v-10h-10v10ZM598 646.1h-14v-14h14v14Zm-12-2h10v-10h-10v10ZM614 630.1h-14v-14h14v14Zm-12-2h10v-10h-10v10ZM598 630.1h-14v-14h14v14Zm-12-2h10v-10h-10v10ZM607 614.1c-3.9 0-7-3.1-7-7s3.1-7 7-7 7 3.1 7 7-3.1 7-7 7Zm0-12c-2.8 0-5 2.2-5 5s2.2 5 5 5 5-2.2 5-5-2.2-5-5-5ZM591 614.1c-3.9 0-7-3.1-7-7s3.1-7 7-7 7 3.1 7 7-3.1 7-7 7Zm0-12c-2.8 0-5 2.2-5 5s2.2 5 5 5 5-2.2 5-5-2.2-5-5-5ZM614 598.1h-14v-14h14v14Zm-12-2h10v-10h-10v10ZM598 598.1h-14v-14h14v14Zm-12-2h10v-10h-10v10ZM614 582.1h-14v-14h14v14Zm-12-2h10v-10h-10v10ZM598 582.1h-14v-14h14v14Zm-12-2h10v-10h-10v10ZM614 566.1h-14v-14h14v14Zm-12-2h10v-10h-10v10ZM598 566.1h-14v-14h14v14Zm-12-2h10v-10h-10v10ZM650 662.1h-14v-14h14v14Zm-12-2h10v-10h-10v10ZM634 662.1h-14v-14h14v14Zm-12-2h10v-10h-10v10ZM650 646.1h-14v-14h14v14Zm-12-2h10v-10h-10v10ZM634 646.1h-14v-14h14v14Zm-12-2h10v-10h-10v10ZM650 630.1h-14v-14h14v14Zm-12-2h10v-10h-10v10ZM634 630.1h-14v-14h14v14Zm-12-2h10v-10h-10v10ZM643 614.1c-3.9 0-7-3.1-7-7s3.1-7 7-7 7 3.1 7 7-3.1 7-7 7Zm0-12c-2.8 0-5 2.2-5 5s2.2 5 5 5 5-2.2 5-5-2.2-5-5-5ZM627 614.1c-3.9 0-7-3.1-7-7s3.1-7 7-7 7 3.1 7 7-3.1 7-7 7Zm0-12c-2.8 0-5 2.2-5 5s2.2 5 5 5 5-2.2 5-5-2.2-5-5-5ZM650 598.1h-14v-14h14v14Zm-12-2h10v-10h-10v10ZM634 598.1h-14v-14h14v14Zm-12-2h10v-10h-10v10ZM650 582.1h-14v-14h14v14Zm-12-2h10v-10h-10v10ZM634 582.1h-14v-14h14v14Zm-12-2h10v-10h-10v10ZM650 566.1h-14v-14h14v14Zm-12-2h10v-10h-10v10ZM634 566.1h-14v-14h14v14Zm-12-2h10v-10h-10v10Z"/>
      </g>
      <path d="M352 466.1h-44v-18h44v18Zm-42-2h40v-14h-40v14ZM398 466.1h-44v-18h44v18Zm-42-2h40v-14h-40v14ZM334 646.1h-18v-18h18v18Zm-16-2h14v-14h-14v14ZM352 626.1h-36v-18h36v18Zm-34-2h32v-14h-32v14ZM334 606.1h-18v-18h18v18Zm-16-2h14v-14h-14v14ZM352 586.1h-36v-18h36v18Zm-34-2h32v-14h-32v14ZM370 646.1h-34v-18h34v18Zm-32-2h30v-14h-30v14ZM370 606.1h-34v-18h34v18Zm-32-2h30v-14h-30v14ZM370 566.1h-34v-18h34v18Zm-32-2h30v-14h-30v14ZM334 566.1h-18v-18h18v18Zm-16-2h14v-14h-14v14ZM370 526.1h-34v-18h34v18Zm-32-2h30v-14h-30v14ZM314 642.1h-98v-6h98v6Zm-96-2h94v-2h-94v2Z"/>
      <path d="M310 646.1h-90v-6h90v6Zm-88-2h86v-2h-86v2ZM390 646.1h-18v-18h18v18Zm-16-2h14v-14h-14v14ZM390 626.1h-36v-18h36v18Zm-34-2h32v-14h-32v14ZM390 606.1h-18v-18h18v18Zm-16-2h14v-14h-14v14ZM390 586.1h-36v-18h36v18Zm-34-2h32v-14h-32v14ZM352 506.1h-28v-18h28v18Zm-26-2h24v-14h-24v14ZM382 506.1h-28v-18h28v18Zm-26-2h24v-14h-24v14ZM352 546.1h-36v-18h36v18Zm-34-2h32v-14h-32v14ZM390 546.1h-36v-18h36v18Zm-34-2h32v-14h-32v14ZM390 566.1h-18v-18h18v18Zm-16-2h14v-14h-14v14ZM390 486.1h-74v-18h74v18Zm-72-2h70v-14h-70v14ZM566 666.1h-5v-2h3v-14h-3v-2h5v18zM490 642.1h-98v-6h98v6Zm-96-2h94v-2h-94v2Z"/>
      <path d="M486 646.1h-90v-6h90v6Zm-88-2h86v-2h-86v2ZM402.7 495.5l-10.7-7.9v-19.5h7.9l12.9 18.5-.8.6c-3.2 2.2-6.1 4.8-8.7 7.7l-.6.7Zm-8.7-8.9 8.4 6.2c2.3-2.5 4.9-4.7 7.6-6.7l-11.2-16H394v16.5ZM578.7 495.5l-10.7-7.9v-19.5h7.9l12.9 18.5-.8.6c-3.2 2.2-6.1 4.8-8.7 7.7l-.6.7Zm-8.7-8.9 8.4 6.2c2.3-2.5 4.9-4.7 7.6-6.7l-11.2-16H570v16.5ZM655.3 495.5l-.6-.7c-2.6-2.9-5.5-5.4-8.7-7.7l-.8-.6 13-18.5h7.9v19.5l-10.7 7.9Zm-7.4-9.4c2.7 2 5.3 4.2 7.6 6.7l8.4-6.2v-16.5h-4.8l-11.2 16ZM706 646.1h-38v-18h38v18Zm-36-2h34v-14h-34v14ZM686 626.1h-18v-18h18v18Zm-16-2h14v-14h-14v14ZM673 666.1h-5v-18h9v2h-7v14h3v2zM706 606.1h-38v-18h38v18Zm-36-2h34v-14h-34v14ZM706 586.1h-38v-18h38v18Zm-36-2h34v-14h-34v14ZM686 566.1h-18v-18h18v18Zm-16-2h14v-14h-14v14ZM706 566.1h-18v-18h18v18Zm-16-2h14v-14h-14v14ZM706 626.1h-18v-18h18v18Zm-16-2h14v-14h-14v14ZM706 466.1h-46v-18h46v18Zm-44-2h42v-14h-42v14ZM121.9 526.1h-10.1v-.8c-1.9-10.4-10.4-18.2-20.9-19.1H90v-10.1h1.1c15.8 1 28.7 13.2 30.7 28.9v1.1Zm-8.4-2h6.1c-2.3-13.9-13.6-24.5-27.6-25.8v6c10.7 1.3 19.3 9.3 21.5 19.8ZM66.2 526.1H56.1V525c2.1-15.7 15-27.8 30.8-28.8H88v9.9h-.9c-10.5.9-19 8.8-20.8 19.2v.8Zm-7.8-2h6.1c2.1-10.6 10.8-18.5 21.5-19.8v-6c-14 1.3-25.3 12-27.6 25.8Z"/>
      <path d="M106 529.1h-2c0-8.3-6.7-15-15-15s-15 6.7-15 15h-2c0-9.4 7.6-17 17-17s17 7.6 17 17ZM106 630.1H72v-46h34v46Zm-32-2h30v-42H74v42ZM301.9 638.1h-73.8l-.1-109h2l.1 107h69.8l.1-107h2l-.1 109z"/>
      <path d="M309.9 638.1h-89.8l-.1-109h2l.1 107h85.8l.1-107h2l-.1 109z"/>
      <path d="M285.9 634.1H244l-.1-105h2l.1 103h37.9l.1-103h2l-.1 105z"/>
      <path d="M282 582.1h-34v-53h2v51h30v-51h2v53zM242 582.1h-10v-54h10v54Zm-8-2h6v-50h-6v50ZM242 634.1h-10v-50h10v50Zm-8-2h6v-46h-6v46ZM298 582.1h-10v-54h10v54Zm-8-2h6v-50h-6v50ZM298 634.1h-10v-50h10v50Zm-8-2h6v-46h-6v46ZM286 529.1h-2c0-10.5-8.5-19-19-19s-19 8.5-19 19h-2c0-11.6 9.4-21 21-21s21 9.4 21 21Z"/>
      <path d="M302 529.1h-2c0-19.3-15.7-35-35-35s-35 15.7-35 35h-2c0-20.4 16.6-37 37-37s37 16.6 37 37Z"/>
      <path d="M310 529.1h-2c0-23.7-19.3-43-43-43s-43 19.3-43 43h-2c0-24.8 20.2-45 45-45s45 20.2 45 45Z"/>
      <path d="M297.9 526.1h-10.1v-.8c-1.9-10.4-10.4-18.2-20.9-19.1h-.9v-10.1h1.1c15.8 1 28.7 13.2 30.7 28.9v1.1Zm-8.4-2h6.1c-2.3-13.9-13.6-24.5-27.6-25.8v6c10.7 1.3 19.3 9.3 21.5 19.8ZM242.2 526.1h-10.1V525c2.1-15.7 15-27.8 30.8-28.8h1.1v9.9h-.9c-10.5.9-19 8.8-20.8 19.2v.8Zm-7.8-2h6.1c2.1-10.6 10.8-18.5 21.5-19.8v-6c-14 1.3-25.3 12-27.6 25.8Z"/>
      <path d="M282 529.1h-2c0-8.3-6.7-15-15-15s-15 6.7-15 15h-2c0-9.4 7.6-17 17-17s17 7.6 17 17ZM282 630.1h-34v-46h34v46Zm-32-2h30v-42h-30v42ZM477.9 638.1h-73.8l-.1-109h2l.1 107h69.8l.1-107h2l-.1 109z"/>
      <path d="M485.9 638.1h-89.8l-.1-109h2l.1 107h85.8l.1-107h2l-.1 109z"/>
      <path d="M461.9 634.1H420v-1l-.1-104h2l.1 103h37.9l.1-103h2l-.1 105z"/>
      <path d="M458 582.1h-34v-53h2v51h30v-51h2v53zM418 582.1h-10v-54h10v54Zm-8-2h6v-50h-6v50ZM418 634.1h-10v-50h10v50Zm-8-2h6v-46h-6v46ZM474 582.1h-10v-54h10v54Zm-8-2h6v-50h-6v50ZM474 634.1h-10v-50h10v50Zm-8-2h6v-46h-6v46ZM462 529.1h-2c0-10.5-8.5-19-19-19s-19 8.5-19 19h-2c0-11.6 9.4-21 21-21s21 9.4 21 21Z"/>
      <path d="M478 529.1h-2c0-19.3-15.7-35-35-35s-35 15.7-35 35h-2c0-20.4 16.6-37 37-37s37 16.6 37 37Z"/>
      <path d="M486 529.1h-2c0-23.7-19.3-43-43-43s-43 19.3-43 43h-2c0-24.8 20.2-45 45-45s45 20.2 45 45Z"/>
      <path d="M473.9 526.1h-10.1v-.8c-1.9-10.4-10.4-18.2-20.9-19.1h-.9v-10.1h1.1c15.8 1 28.7 13.2 30.7 28.9v1.1Zm-8.4-2h6.1c-2.3-13.9-13.6-24.5-27.6-25.8v6c10.7 1.3 19.3 9.3 21.5 19.8ZM418.2 526.1h-10.1V525c2.1-15.7 15-27.8 30.8-28.8h1.1v9.9h-.9c-10.5.9-19 8.8-20.8 19.2v.8Zm-7.8-2h6.1c2.1-10.6 10.8-18.5 21.5-19.8v-6c-14 1.3-25.3 12-27.6 25.8Z"/>
      <path d="M458 529.1h-2c0-8.3-6.7-15-15-15s-15 6.7-15 15h-2c0-9.4 7.6-17 17-17s17 7.6 17 17ZM458 630.1h-34v-46h34v46Zm-32-2h30v-42h-30v42ZM146.1 506.2h-11.4l-.3-.6c-1.4-2.7-3.1-5.3-5-7.8l-.6-.8 12-8.9h5.3v18.1Zm-10.2-2h8.2v-14.1h-2.7l-9.9 7.3c1.6 2.2 3.1 4.4 4.3 6.8ZM158.1 526.1h-17.9l-.2-1c-.4-5.4-1.7-10.7-3.7-15.6l-.6-1.4h22.5v18Zm-16.2-2h14.2v-14h-17.5c1.7 4.5 2.8 9.2 3.3 14ZM208.1 506.2v-18.1h5.3l12 8.9-.6.8c-1.9 2.5-3.6 5.1-5 7.8l-.3.5H208Zm2-16.1v14.1h8.3c1.2-2.4 2.7-4.6 4.3-6.8l-9.9-7.3h-2.7ZM214 526.1h-17.9v-18h22.5l-.6 1.4c-2.1 4.9-3.3 10.2-3.7 15.6v.3l-.2.8Zm-15.9-2h14.2c.5-4.8 1.5-9.5 3.3-14h-17.5v14ZM176.1 466.1h-44v-18h44v18Zm-42-2h40v-14h-40v14ZM222.1 466.1h-44v-18h44v18Zm-42-2h40v-14h-40v14ZM158.1 646.1h-18v-18h18v18Zm-16-2h14v-14h-14v14ZM176.1 626.1h-36v-18h36v18Zm-34-2h32v-14h-32v14ZM158.1 606.1h-18v-18h18v18Zm-16-2h14v-14h-14v14ZM176.1 586.1h-36v-18h36v18Zm-34-2h32v-14h-32v14ZM194.1 646.1h-34v-18h34v18Zm-32-2h30v-14h-30v14ZM194.1 606.1h-34v-18h34v18Zm-32-2h30v-14h-30v14ZM194.1 566.1h-34v-18h34v18Zm-32-2h30v-14h-30v14ZM158.1 566.1h-18v-18h18v18Zm-16-2h14v-14h-14v14ZM194.1 526.1h-34v-18h34v18Zm-32-2h30v-14h-30v14ZM214.1 646.1h-18v-18h18v18Zm-16-2h14v-14h-14v14ZM214.1 626.1h-36v-18h36v18Zm-34-2h32v-14h-32v14ZM214.1 606.1h-18v-18h18v18Zm-16-2h14v-14h-14v14ZM214.1 586.1h-36v-18h36v18Zm-34-2h32v-14h-32v14ZM176.1 506.1h-28v-18h28v18Zm-26-2h24v-14h-24v14ZM206.1 506.1h-28v-18h28v18Zm-26-2h24v-14h-24v14ZM176.1 546.1h-36v-18h36v18Zm-34-2h32v-14h-32v14ZM214.1 546.1h-36v-18h36v18Zm-34-2h32v-14h-32v14ZM214.1 566.1h-18v-18h18v18Zm-16-2h14v-14h-14v14ZM214.1 486.1h-74v-18h74v18Zm-72-2h70v-14h-70v14ZM32.1 506.2v-18.1h5.3l12 8.9-.6.8c-1.9 2.5-3.6 5.1-5 7.8l-.3.5H32Zm2-16.1v14.1h8.3c1.2-2.4 2.7-4.6 4.3-6.8l-9.9-7.3h-2.7ZM38 526.1H20.1v-18h22.5l-.6 1.4c-2.1 4.9-3.3 10.2-3.7 15.6v.3l-.2.8Zm-15.9-2h14.2c.5-4.8 1.5-9.5 3.3-14H22.1v14ZM46.1 466.1H0v-18h46.1v18Zm-44.1-2h42.1v-14H2v14ZM18.1 646.1H0v-18h18.1v18Zm-16.1-2h14.1v-14H2v14ZM18.1 606.1H0v-18h18.1v18Zm-16.1-2h14.1v-14H2v14ZM18.1 566.1H0v-18h18.1v18Zm-16.1-2h14.1v-14H2v14ZM18.1 526.1H0v-18h18.1v18Zm-16.1-2h14.1v-14H2v14ZM38.1 666.1H0v-18h38.1v18Zm-36.1-2h34.1v-14H2v14ZM38.1 646.1h-18v-18h18v18Zm-16-2h14v-14h-14v14ZM38.1 626.1H0v-18h38.1v18Zm-36.1-2h34.1v-14H2v14ZM38.1 606.1h-18v-18h18v18Zm-16-2h14v-14h-14v14ZM38.1 586.1H0v-18h38.1v18Zm-36.1-2h34.1v-14H2v14ZM30.1 506.1H0v-18h30.1v18Zm-28.1-2h26.1v-14H2v14ZM38.1 546.1H0v-18h38.1v18Zm-36.1-2h34.1v-14H2v14ZM38.1 566.1h-18v-18h18v18Zm-16-2h14v-14h-14v14ZM38.1 486.1H0v-18h38.1v18Zm-36.1-2h34.1v-14H2v14ZM498 506.2h-11.4l-.3-.6c-1.4-2.7-3.1-5.3-5-7.8l-.6-.8 12-8.9h5.3v18.1Zm-10.2-2h8.2v-14.1h-2.7l-9.9 7.3c1.6 2.2 3.1 4.4 4.3 6.8ZM510 526.1h-17.9l-.2-1c-.4-5.4-1.7-10.7-3.7-15.6l-.6-1.4h22.5v18Zm-16.2-2H508v-14h-17.5c1.7 4.5 2.8 9.2 3.3 14ZM560 506.2v-18.1h5.3l12 8.9-.6.8c-1.9 2.5-3.6 5.1-5 7.8l-.3.5h-11.5Zm2-16.1v14.1h8.3c1.2-2.4 2.7-4.6 4.3-6.8l-9.9-7.3H562ZM565.9 526.1H548v-18h22.5l-.6 1.4c-2.1 4.9-3.3 10.2-3.7 15.6v.3l-.2.8Zm-15.9-2h14.2c.5-4.8 1.5-9.5 3.3-14H550v14ZM528 466.1h-44v-18h44v18Zm-42-2h40v-14h-40v14ZM574 466.1h-44v-18h44v18Zm-42-2h40v-14h-40v14ZM530 666.1h-38v-18h38v18Zm-36-2h34v-14h-34v14ZM510 646.1h-18v-18h18v18Zm-16-2h14v-14h-14v14ZM528 626.1h-36v-18h36v18Zm-34-2h32v-14h-32v14ZM510 606.1h-18v-18h18v18Zm-16-2h14v-14h-14v14ZM528 586.1h-36v-18h36v18Zm-34-2h32v-14h-32v14ZM546 606.1h-34v-18h34v18Zm-32-2h30v-14h-30v14ZM546 566.1h-34v-18h34v18Zm-32-2h30v-14h-30v14ZM510 566.1h-18v-18h18v18Zm-16-2h14v-14h-14v14ZM546 526.1h-34v-18h34v18Zm-32-2h30v-14h-30v14ZM566 646.1h-54.3v-18H566v18Zm-52.3-2H564v-14h-50.3v14ZM566 626.1h-36v-18h36v18Zm-34-2h32v-14h-32v14ZM566 606.1h-18v-18h18v18Zm-16-2h14v-14h-14v14ZM566 586.1h-36v-18h36v18Zm-34-2h32v-14h-32v14ZM528 506.1h-28v-18h28v18Zm-26-2h24v-14h-24v14ZM558 506.1h-28v-18h28v18Zm-26-2h24v-14h-24v14ZM528 546.1h-36v-18h36v18Zm-34-2h32v-14h-32v14ZM566 546.1h-36v-18h36v18Zm-34-2h32v-14h-32v14ZM566 566.1h-18v-18h18v18Zm-16-2h14v-14h-14v14ZM566 486.1h-74v-18h74v18Zm-72-2h70v-14h-70v14ZM265 666.1c-5 0-9-4-9-9s4-9 9-9 9 4 9 9-4 9-9 9Zm0-16c-3.9 0-7 3.1-7 7s3.1 7 7 7 7-3.1 7-7-3.1-7-7-7ZM252.9 666.1H228v-18h24.9l-.9 1.5c-1.3 2.3-2 4.9-2 7.5s.7 5.2 2 7.5l.9 1.5Zm-22.9-2h19.5c-1-2.2-1.5-4.6-1.5-7s.5-4.8 1.5-7H230v14ZM302 666.1h-24.9l.9-1.5c1.3-2.3 2-4.9 2-7.5s-.7-5.2-2-7.5l-.9-1.5H302v18Zm-21.5-2H300v-14h-19.5c1 2.2 1.5 4.6 1.5 7s-.5 4.8-1.5 7ZM226 666.1h-10v-18h10v18Zm-8-2h6v-14h-6v14ZM314 666.1h-10v-18h10v18Zm-8-2h6v-14h-6v14ZM89 666.1c-5 0-9-4-9-9s4-9 9-9 9 4 9 9-4 9-9 9Zm0-16c-3.9 0-7 3.1-7 7s3.1 7 7 7 7-3.1 7-7-3.1-7-7-7ZM76.9 666.1H52v-18h24.9l-.9 1.5c-1.3 2.3-2 4.9-2 7.5s.7 5.2 2 7.5l.9 1.5Zm-22.9-2h19.5c-1-2.2-1.5-4.6-1.5-7s.5-4.8 1.5-7H54v14ZM126 666.1h-24.9l.9-1.5c1.3-2.3 2-4.9 2-7.5s-.7-5.2-2-7.5l-.9-1.5H126v18Zm-21.5-2H124v-14h-19.5c1 2.2 1.5 4.6 1.5 7s-.5 4.8-1.5 7ZM50 666.1H40v-18h10v18Zm-8-2h6v-14h-6v14ZM138 666.1h-10v-18h10v18Zm-8-2h6v-14h-6v14ZM441 666.1c-5 0-9-4-9-9s4-9 9-9 9 4 9 9-4 9-9 9Zm0-16c-3.9 0-7 3.1-7 7s3.1 7 7 7 7-3.1 7-7-3.1-7-7-7ZM428.9 666.1H404v-18h24.9l-.9 1.5c-1.3 2.3-2 4.9-2 7.5s.7 5.2 2 7.5l.9 1.5Zm-22.9-2h19.5c-1-2.2-1.5-4.6-1.5-7s.5-4.8 1.5-7H406v14ZM478 666.1h-24.9l.9-1.5c1.3-2.3 2-4.9 2-7.5s-.7-5.2-2-7.5l-.9-1.5H478v18Zm-21.5-2H476v-14h-19.5c1 2.2 1.5 4.6 1.5 7s-.5 4.8-1.5 7ZM402 666.1h-10v-18h10v18Zm-8-2h6v-14h-6v14ZM490 666.1h-10v-18h10v18Zm-8-2h6v-14h-6v14ZM390 666.1h-74v-18h74v18Zm-72-2h70v-14h-70v14ZM214 666.1h-74v-18h74v18Zm-72-2h70v-14h-70v14Z"/>
      <path d="M38 526.1H20.1v-18h22.5l-.6 1.4c-2.1 4.9-3.3 10.2-3.7 15.6v.3l-.2.8Zm-15.9-2h14.2c.5-4.8 1.5-9.5 3.3-14H22.1v14ZM46.1 466.1H0v-18h46.1v18Zm-44.1-2h42.1v-14H2v14ZM18.1 526.1H0v-18h18.1v18Zm-16.1-2h14.1v-14H2v14ZM30.1 506.1H0v-18h30.1v18Zm-28.1-2h26.1v-14H2v14ZM38.1 546.1H0v-18h38.1v18Zm-36.1-2h34.1v-14H2v14ZM38.1 486.1H0v-18h38.1v18Zm-36.1-2h34.1v-14H2v14ZM673.9 506.2h-11.5l-.3-.6c-1.4-2.7-3.1-5.3-5-7.8l-.6-.8 12-8.9h5.3v18.1Zm-10.3-2.1h8.3v-14h-2.7l-9.9 7.3c1.6 2.1 3 4.4 4.3 6.7ZM685.9 526.1H668l-.2-1c-.4-5.4-1.7-10.7-3.7-15.6l-.6-1.4H686v18Zm-16.2-2h14.2v-14h-17.5c1.7 4.5 2.8 9.2 3.3 14ZM706 466.1h-46.1v-18H706v18Zm-44.1-2H704v-14h-42.1v14ZM706 526.1h-18.1v-18H706v18Zm-16.1-2H704v-14h-14.1v14ZM706 506.1h-30.1v-18H706v18Zm-28.1-2H704v-14h-26.1v14ZM706 546.1h-38.1v-18H706v18Zm-36.1-2H704v-14h-34.1v14ZM706 486.1h-38.1v-18H706v18Zm-36.1-2H704v-14h-34.1v14Z"/>
    </g>
    <g id="street">
      <path d="M0 692.1h530v2H0zM26 718.1H0v-22h26v22Zm-24-2h22v-18H2v18ZM54 718.1H28v-22h26v22Zm-24-2h22v-18H30v18ZM82 718.1H56v-22h26v22Zm-24-2h22v-18H58v18ZM110 718.1H84v-22h26v22Zm-24-2h22v-18H86v18ZM138 718.1h-26v-22h26v22Zm-24-2h22v-18h-22v18ZM166 718.1h-26v-22h26v22Zm-24-2h22v-18h-22v18ZM194 718.1h-26v-22h26v22Zm-24-2h22v-18h-22v18ZM222 718.1h-26v-22h26v22Zm-24-2h22v-18h-22v18ZM250 718.1h-26v-22h26v22Zm-24-2h22v-18h-22v18ZM278 718.1h-26v-22h26v22Zm-24-2h22v-18h-22v18ZM306 718.1h-26v-22h26v22Zm-24-2h22v-18h-22v18ZM334 718.1h-26v-22h26v22Zm-24-2h22v-18h-22v18ZM362 718.1h-26v-22h26v22Zm-24-2h22v-18h-22v18ZM390 718.1h-26v-22h26v22Zm-24-2h22v-18h-22v18ZM418 718.1h-26v-22h26v22Zm-24-2h22v-18h-22v18ZM446 718.1h-26v-22h26v22Zm-24-2h22v-18h-22v18ZM474 718.1h-26v-22h26v22Zm-24-2h22v-18h-22v18ZM502 718.1h-26v-22h26v22Zm-24-2h22v-18h-22v18ZM530 718.1h-26v-22h26v22Zm-24-2h22v-18h-22v18Z"/>
      <path d="M528 654.1h1.9V694H528zM524 654.1h1.9V694H524zM520 654.1h1.9V694H520zM516 654.1h1.9V694H516zM512 654.1h1.9V694H512zM508 654.1h1.9V694H508zM504 654.1h1.9V694H504zM500 654.1h1.9V694H500zM496 654.1h1.9V694H496zM492 654.1h1.9V694H492zM488 654.1h1.9V694H488zM484 654.1h1.9V694H484zM480 654.1h1.9V694H480zM476 654.1h1.9V694H476zM472 654.1h1.9V694H472zM468 654.1h1.9V694H468zM464 654.1h1.9V694H464zM460 654.1h1.9V694H460zM456 654.1h1.9V694H456zM452 654.1h1.9V694H452zM448 654.1h1.9V694H448zM444 654.1h1.9V694H444zM440 654.1h1.9V694H440zM436 654.1h1.9V694H436zM432 654.1h1.9V694H432zM428 654.1h1.9V694H428zM424 654.1h1.9V694H424zM420 654.1h1.9V694H420zM416 654.1h1.9V694H416zM412 654.1h1.9V694H412zM408 654.1h1.9V694H408zM404 654.1h1.9V694H404zM400 654.1h1.9V694H400zM396 654.1h1.9V694H396zM392 654.1h1.9V694H392zM388 654.1h1.9V694H388zM384 654.1h1.9V694H384zM380 654.1h1.9V694H380zM376 654.1h1.9V694H376zM372 654.1h1.9V694H372zM368 654.1h1.9V694H368zM364 654.1h1.9V694H364zM360 654.1h1.9V694H360zM356 654.1h1.9V694H356zM352 654.1h1.9V694H352zM348 654.1h1.9V694H348zM344 654.1h1.9V694H344zM340 654.1h1.9V694H340zM336 654.1h1.9V694H336zM332 654.1h1.9V694H332zM328 654.1h1.9V694H328zM324 654.1h1.9V694H324zM320 654.1h1.9V694H320zM316 654.1h1.9V694H316zM312 654.1h1.9V694H312zM308 654.1h1.9V694H308zM304 654.1h1.9V694H304zM300 654.1h1.9V694H300zM296 654.1h1.9V694H296zM292 654.1h1.9V694H292zM288 654.1h1.9V694H288zM284 654.1h1.9V694H284zM280 654.1h1.9V694H280zM276 654.1h1.9V694H276zM272 654.1h1.9V694H272zM268 654.1h1.9V694H268zM264 654.1h1.9V694H264zM260 654.1h1.9V694H260zM256 654.1h1.9V694H256zM252 654.1h1.9V694H252zM248 654.1h1.9V694H248zM244 654.1h1.9V694H244zM240 654.1h1.9V694H240zM236 654.1h1.9V694H236zM232 654.1h1.9V694H232zM228 654.1h1.9V694H228zM224 654.1h1.9V694H224zM220 654.1h1.9V694H220zM216 654.1h1.9V694H216zM212 654.1h1.9V694H212zM208 654.1h1.9V694H208zM204 654.1h1.9V694H204zM200 654.1h1.9V694H200zM196 654.1h1.9V694H196zM192 654.1h1.9V694H192zM188 654.1h1.9V694H188zM184 654.1h1.9V694H184zM180 654.1h1.9V694H180zM176 654.1h1.9V694H176zM172 654.1h1.9V694H172zM168 654.1h1.9V694H168zM164 654.1h1.9V694H164zM160 654.1h1.9V694H160zM156 654.1h1.9V694H156zM152 654.1h1.9V694H152zM148 654.1h1.9V694H148zM144 654.1h1.9V694H144zM140 654.1h1.9V694H140zM136 654.1h1.9V694H136zM132 654.1h1.9V694H132zM128 654.1h1.9V694H128zM124 654.1h1.9V694H124zM120 654.1h1.9V694H120zM116 654.1h1.9V694H116zM112 654.1h1.9V694H112zM108 654.1h1.9V694H108zM104 654.1h1.9V694H104zM100 654.1h1.9V694H100zM96 654.1h1.9V694H96zM92 654.1h1.9V694H92zM88 654.1h1.9V694H88zM84 654.1h1.9V694H84zM80 654.1h1.9V694H80zM76 654.1h1.9V694H76zM72 654.1h1.9V694H72zM68 654.1h1.9V694H68zM64 654.1h1.9V694H64zM60 654.1h1.9V694H60zM56 654.1h1.9V694H56zM52 654.1h1.9V694H52zM48 654.1h1.9V694H48zM44 654.1h1.9V694H44zM40 654.1h1.9V694H40zM36 654.1h1.9V694H36zM32 654.1h1.9V694H32zM28 654.1h1.9V694H28zM24 654.1h1.9V694H24zM20 654.1h1.9V694H20zM16 654.1h1.9V694H16zM12 654.1h1.9V694H12zM8 654.1h1.9V694H8zM4 654.1h1.9V694H4zM0 654.1h1.9V694H0zM670 678.1H564v-10h106v10Zm-104-2h102v-6H566v6ZM666 694.1h-98v-10h98v10Zm-96-2h94v-6h-94v6Z"/>
      <path d="M670 718.1h-2v-36H566v36h-2v-38h106v38z"/>
      <path d="M666 706.1h-98v-10h98v10Zm-96-2h94v-6h-94v6ZM666 718.1h-98v-10h98v10Zm-96-2h94v-6h-94v6ZM562 718.1h-30v-34h30v34Zm-28-2h26v-30h-26v30ZM562 682.1h-30v-30h30v30Zm-28-2h26v-26h-26v26Z"/>
      <path d="M558 678.1h-22v-22h22v22Zm-20-2h18v-18h-18v18ZM702 718.1h-30v-34h30v34Zm-28-2h26v-30h-26v30ZM702 682.1h-30v-30h30v30Zm-28-2h26v-26h-26v26Z"/>
      <path d="M698 678.1h-22v-22h22v22Zm-20-2h18v-18h-18v18ZM555 569.1c0 4.4-3.6 8-8 8s-8-3.6-8-8 3.6-8 8-8 8 3.6 8 8ZM557.8 632.1l-1.4-2.6-3.4-6.3v-5.6l2.7-7.2-2.7-4.2 3-1.9 1-4.9-5.7 1.1-2.3-3v-1.4h4.7l3-3h-3.8l-3.7 1.1 1.5-5.4-3.7-3 1.5-4.8 1.4-1.4-3-1.5-3.1 1.5 1.4 1.4 1.5 4.8-3.7 3 1.5 5.4-3.6-1.1h-3.6l3 3h4.7v1.4l-2.3 3-5.7-1.1 1 4.9 3 1.9-2.7 4.2 2.7 7.2v5.6l-3.4 6.3-1.4 2.6h21.6zM534.5 634.1h25v4h-25zM562.2 640.1h-30.4l-2.3 4h35l-2.3-4zM531.7 646.1h30.6l-1.2 4h-26.8l-2.6-4zM695 569.1c0 4.4-3.6 8-8 8s-8-3.6-8-8 3.6-8 8-8 8 3.6 8 8ZM697.8 632.1l-1.4-2.6-3.4-6.3v-5.6l2.7-7.2-2.7-4.2 3-1.9 1-4.9-5.7 1.1-2.3-3v-1.4h4.7l3-3h-3.8l-3.7 1.1 1.5-5.4-3.7-3 1.5-4.8 1.4-1.4-3-1.5-3.1 1.5 1.4 1.4 1.5 4.8-3.7 3 1.5 5.4-3.6-1.1h-3.6l3 3h4.7v1.4l-2.3 3-5.7-1.1 1 4.9 3 1.9-2.7 4.2 2.7 7.2v5.6l-3.4 6.3-1.4 2.6h21.6zM674.5 634.1h25v4h-25zM702.2 640.1h-30.4l-2.3 4h35l-2.3-4zM671.7 646.1h30.6l-1.2 4h-26.8l-2.6-4z"/>
    </g>
  </g>
</svg>
