<svg id="bligh-st" xmlns="http://www.w3.org/2000/svg" viewBox="0 0 706 247">
  <g id="white_outline">
    <g id="third-floor">
      <path d="M30 114.1H0v-14h30v14Zm-28-2h26v-10H2v10ZM10 121.1H8v-3H1v-2h9v5z"/>
      <path d="M6 126.1H0v-10h6v10Zm-4-2h2v-6H2v6ZM30 121.1h-2v-3H18v3h-2v-5h14v5z"/>
      <path d="M26 126.1h-6v-10h6v10Zm-4-2h2v-6h-2v6ZM70 114.1H36v-14h34v14Zm-32-2h30v-10H38v10ZM50 121.1h-2v-3H38v3h-2v-5h14v5z"/>
      <path d="M46 126.1h-6v-10h6v10Zm-4-2h2v-6h-2v6ZM70 121.1h-2v-3H58v3h-2v-5h14v5z"/>
      <path d="M66 126.1h-6v-10h6v10Zm-4-2h2v-6h-2v6ZM110 114.1H76v-14h34v14Zm-32-2h30v-10H78v10ZM90 121.1h-2v-3H78v3h-2v-5h14v5z"/>
      <path d="M86 126.1h-6v-10h6v10Zm-4-2h2v-6h-2v6ZM110 121.1h-2v-3H98v3h-2v-5h14v5z"/>
      <path d="M106 126.1h-6v-10h6v10Zm-4-2h2v-6h-2v6ZM150 114.1h-34v-14h34v14Zm-32-2h30v-10h-30v10ZM130 121.1h-2v-3h-10v3h-2v-5h14v5z"/>
      <path d="M126 126.1h-6v-10h6v10Zm-4-2h2v-6h-2v6ZM150 121.1h-2v-3h-10v3h-2v-5h14v5z"/>
      <path d="M146 126.1h-6v-10h6v10Zm-4-2h2v-6h-2v6ZM190 114.1h-34v-14h34v14Zm-32-2h30v-10h-30v10ZM170 121.1h-2v-3h-10v3h-2v-5h14v5z"/>
      <path d="M166 126.1h-6v-10h6v10Zm-4-2h2v-6h-2v6ZM190 121.1h-2v-3h-10v3h-2v-5h14v5z"/>
      <path d="M186 126.1h-6v-10h6v10Zm-4-2h2v-6h-2v6ZM230 114.1h-34v-14h34v14Zm-32-2h30v-10h-30v10ZM210 121.1h-2v-3h-10v3h-2v-5h14v5z"/>
      <path d="M206 126.1h-6v-10h6v10Zm-4-2h2v-6h-2v6ZM230 121.1h-2v-3h-10v3h-2v-5h14v5z"/>
      <path d="M226 126.1h-6v-10h6v10Zm-4-2h2v-6h-2v6ZM270 114.1h-34v-14h34v14Zm-32-2h30v-10h-30v10ZM250 121.1h-2v-3h-10v3h-2v-5h14v5z"/>
      <path d="M246 126.1h-6v-10h6v10Zm-4-2h2v-6h-2v6ZM270 121.1h-2v-3h-10v3h-2v-5h14v5z"/>
      <path d="M266 126.1h-6v-10h6v10Zm-4-2h2v-6h-2v6ZM310 114.1h-34v-14h34v14Zm-32-2h30v-10h-30v10ZM290 121.1h-2v-3h-10v3h-2v-5h14v5z"/>
      <path d="M286 126.1h-6v-10h6v10Zm-4-2h2v-6h-2v6ZM310 121.1h-2v-3h-10v3h-2v-5h14v5z"/>
      <path d="M306 126.1h-6v-10h6v10Zm-4-2h2v-6h-2v6ZM350 114.1h-34v-14h34v14Zm-32-2h30v-10h-30v10ZM330 121.1h-2v-3h-10v3h-2v-5h14v5z"/>
      <path d="M326 126.1h-6v-10h6v10Zm-4-2h2v-6h-2v6ZM350 121.1h-2v-3h-10v3h-2v-5h14v5z"/>
      <path d="M346 126.1h-6v-10h6v10Zm-4-2h2v-6h-2v6ZM390 114.1h-34v-14h34v14Zm-32-2h30v-10h-30v10ZM370 121.1h-2v-3h-10v3h-2v-5h14v5z"/>
      <path d="M366 126.1h-6v-10h6v10Zm-4-2h2v-6h-2v6ZM390 121.1h-2v-3h-10v3h-2v-5h14v5z"/>
      <path d="M386 126.1h-6v-10h6v10Zm-4-2h2v-6h-2v6ZM430 114.1h-34v-14h34v14Zm-32-2h30v-10h-30v10ZM410 121.1h-2v-3h-10v3h-2v-5h14v5z"/>
      <path d="M406 126.1h-6v-10h6v10Zm-4-2h2v-6h-2v6ZM430 121.1h-2v-3h-10v3h-2v-5h14v5z"/>
      <path d="M426 126.1h-6v-10h6v10Zm-4-2h2v-6h-2v6ZM470 114.1h-34v-14h34v14Zm-32-2h30v-10h-30v10ZM450 121.1h-2v-3h-10v3h-2v-5h14v5z"/>
      <path d="M446 126.1h-6v-10h6v10Zm-4-2h2v-6h-2v6ZM470 121.1h-2v-3h-10v3h-2v-5h14v5z"/>
      <path d="M466 126.1h-6v-10h6v10Zm-4-2h2v-6h-2v6ZM510 114.1h-34v-14h34v14Zm-32-2h30v-10h-30v10ZM490 121.1h-2v-3h-10v3h-2v-5h14v5z"/>
      <path d="M486 126.1h-6v-10h6v10Zm-4-2h2v-6h-2v6ZM510 121.1h-2v-3h-10v3h-2v-5h14v5z"/>
      <path d="M506 126.1h-6v-10h6v10Zm-4-2h2v-6h-2v6ZM550 114.1h-34v-14h34v14Zm-32-2h30v-10h-30v10ZM530 121.1h-2v-3h-10v3h-2v-5h14v5z"/>
      <path d="M526 126.1h-6v-10h6v10Zm-4-2h2v-6h-2v6ZM550 121.1h-2v-3h-10v3h-2v-5h14v5z"/>
      <path d="M546 126.1h-6v-10h6v10Zm-4-2h2v-6h-2v6ZM590 114.1h-34v-14h34v14Zm-32-2h30v-10h-30v10ZM570 121.1h-2v-3h-10v3h-2v-5h14v5z"/>
      <path d="M566 126.1h-6v-10h6v10Zm-4-2h2v-6h-2v6ZM590 121.1h-2v-3h-10v3h-2v-5h14v5z"/>
      <path d="M586 126.1h-6v-10h6v10Zm-4-2h2v-6h-2v6ZM630 114.1h-34v-14h34v14Zm-32-2h30v-10h-30v10ZM610 121.1h-2v-3h-10v3h-2v-5h14v5z"/>
      <path d="M606 126.1h-6v-10h6v10Zm-4-2h2v-6h-2v6ZM630 121.1h-2v-3h-10v3h-2v-5h14v5z"/>
      <path d="M626 126.1h-6v-10h6v10Zm-4-2h2v-6h-2v6ZM670 114.1h-34v-14h34v14Zm-32-2h30v-10h-30v10ZM650 121.1h-2v-3h-10v3h-2v-5h14v5z"/>
      <path d="M646 126.1h-6v-10h6v10Zm-4-2h2v-6h-2v6ZM670 121.1h-2v-3h-10v3h-2v-5h14v5z"/>
      <path d="M666 126.1h-6v-10h6v10Zm-4-2h2v-6h-2v6ZM706 114.1h-30v-14h30v14Zm-28-2h26v-10h-26v10ZM690 121.1h-2v-3h-10v3h-2v-5h14v5z"/>
      <path d="M686 126.1h-6v-10h6v10Zm-4-2h2v-6h-2v6ZM698 121.1h-2v-5h9v2h-7v3z"/>
      <path d="M706 126.1h-6v-10h6v10Zm-4-2h2v-6h-2v6ZM54 94.1h-6v-62h6v62Zm-4-2h2v-58h-2v58ZM66 94.1H56v-30h10v30Zm-8-2h6v-26h-6v26ZM66 62.1H56V32.6h10v29.5Zm-8-2h6V34.6h-6v25.5ZM74 94.1h-6v-62h6v62Zm-4-2h2v-58h-2v58ZM102 94.1H76v-30h26v30Zm-24-2h22v-26H78v26ZM102 62.1H76v-30h26v30Zm-24-2h22v-26H78v26ZM110 94.1h-6v-62h6v62Zm-4-2h2v-58h-2v58ZM122 94.1h-10v-30h10v30Zm-8-2h6v-26h-6v26ZM122 62.1h-10V32.6h10v29.5Zm-8-2h6V34.6h-6v25.5ZM130 94.1h-6v-62h6v62Zm-4-2h2v-58h-2v58ZM130 30.1h-22v-10h22v10Zm-20-2h18v-6h-18v6ZM70 30.1H48v-10h22v10Zm-20-2h18v-6H50v6Z"/>
      <path d="M118 22.1H60v-6h58v6Zm-56-2h54v-2H62v2Z"/>
      <path d="M130 22.1H48v-6h82v6Zm-80-2h78v-2H50v2Z"/>
      <path d="M118 18.1H60v-5.7L89 0l29 12.4v5.7Zm-56-2h54v-2.3L89 2.2 62 13.8v2.3Z"/>
      <path d="M107.7 14.1H70.4l-.4-1.9L89.1 4l19.1 8.2-.4 1.9Zm-32.5-2h27.6L89 6.2l-13.8 5.9ZM62 18.1H48v-6h14v6Zm-12-2h10v-2H50v2ZM130 18.1h-14v-6h14v6Zm-12-2h10v-2h-10v2ZM106 30.1H72v-10h34v10Zm-32-2h30v-6H74v6ZM230 94.1h-6v-62h6v62Zm-4-2h2v-58h-2v58ZM242 94.1h-10v-30h10v30Zm-8-2h6v-26h-6v26ZM242 62.1h-10V32.6h10v29.5Zm-8-2h6V34.6h-6v25.5ZM250 94.1h-6v-62h6v62Zm-4-2h2v-58h-2v58ZM278 94.1h-26v-30h26v30Zm-24-2h22v-26h-22v26ZM278 62.1h-26v-30h26v30Zm-24-2h22v-26h-22v26ZM286 94.1h-6v-62h6v62Zm-4-2h2v-58h-2v58ZM298 94.1h-10v-30h10v30Zm-8-2h6v-26h-6v26ZM298 62.1h-10V32.6h10v29.5Zm-8-2h6V34.6h-6v25.5ZM306 94.1h-6v-62h6v62Zm-4-2h2v-58h-2v58ZM306 30.1h-22v-10h22v10Zm-20-2h18v-6h-18v6ZM246 30.1h-22v-10h22v10Zm-20-2h18v-6h-18v6Z"/>
      <path d="M294 22.1h-58v-6h58v6Zm-56-2h54v-2h-54v2Z"/>
      <path d="M306 22.1h-82v-6h82v6Zm-80-2h78v-2h-78v2Z"/>
      <path d="M294 18.1h-58v-5.7L265 0l29 12.4v5.7Zm-56-2h54v-2.3L265 2.2l-27 11.6v2.3Z"/>
      <path d="M283.7 14.1h-37.3l-.4-1.9L265.1 4l19.1 8.2-.4 1.9Zm-32.5-2h27.6L265 6.2l-13.8 5.9ZM238 18.1h-14v-6h14v6Zm-12-2h10v-2h-10v2ZM306 18.1h-14v-6h14v6Zm-12-2h10v-2h-10v2ZM282 30.1h-34v-10h34v10Zm-32-2h30v-6h-30v6ZM406 94.1h-6v-62h6v62Zm-4-2h2v-58h-2v58ZM418 94.1h-10v-30h10v30Zm-8-2h6v-26h-6v26ZM418 62.1h-10V32.6h10v29.5Zm-8-2h6V34.6h-6v25.5ZM426 94.1h-6v-62h6v62Zm-4-2h2v-58h-2v58ZM454 94.1h-26v-30h26v30Zm-24-2h22v-26h-22v26ZM454 62.1h-26v-30h26v30Zm-24-2h22v-26h-22v26ZM462 94.1h-6v-62h6v62Zm-4-2h2v-58h-2v58ZM474 94.1h-10v-30h10v30Zm-8-2h6v-26h-6v26ZM474 62.1h-10V32.6h10v29.5Zm-8-2h6V34.6h-6v25.5ZM482 94.1h-6v-62h6v62Zm-4-2h2v-58h-2v58ZM482 30.1h-22v-10h22v10Zm-20-2h18v-6h-18v6ZM422 30.1h-22v-10h22v10Zm-20-2h18v-6h-18v6Z"/>
      <path d="M470 22.1h-58v-6h58v6Zm-56-2h54v-2h-54v2Z"/>
      <path d="M482 22.1h-82v-6h82v6Zm-80-2h78v-2h-78v2Z"/>
      <path d="M470 18.1h-58v-5.7L441 0l29 12.4v5.7Zm-56-2h54v-2.3L441 2.2l-27 11.6v2.3Z"/>
      <path d="M459.7 14.1h-37.3l-.4-1.9L441.1 4l19.1 8.2-.4 1.9Zm-32.5-2h27.6L441 6.2l-13.8 5.9ZM414 18.1h-14v-6h14v6Zm-12-2h10v-2h-10v2ZM482 18.1h-14v-6h14v6Zm-12-2h10v-2h-10v2ZM458 30.1h-34v-10h34v10Zm-32-2h30v-6h-30v6ZM582 94.1h-6v-62h6v62Zm-4-2h2v-58h-2v58ZM594 94.1h-10v-30h10v30Zm-8-2h6v-26h-6v26ZM594 62.1h-10V32.6h10v29.5Zm-8-2h6V34.6h-6v25.5ZM602 94.1h-6v-62h6v62Zm-4-2h2v-58h-2v58ZM630 94.1h-26v-30h26v30Zm-24-2h22v-26h-22v26ZM630 62.1h-26v-30h26v30Zm-24-2h22v-26h-22v26ZM638 94.1h-6v-62h6v62Zm-4-2h2v-58h-2v58ZM650 94.1h-10v-30h10v30Zm-8-2h6v-26h-6v26ZM650 62.1h-10V32.6h10v29.5Zm-8-2h6V34.6h-6v25.5ZM658 94.1h-6v-62h6v62Zm-4-2h2v-58h-2v58ZM658 30.1h-22v-10h22v10Zm-20-2h18v-6h-18v6ZM598 30.1h-22v-10h22v10Zm-20-2h18v-6h-18v6Z"/>
      <path d="M646 22.1h-58v-6h58v6Zm-56-2h54v-2h-54v2Z"/>
      <path d="M658 22.1h-82v-6h82v6Zm-80-2h78v-2h-78v2Z"/>
      <path d="M646 18.1h-58v-5.7L617 0l29 12.4v5.7Zm-56-2h54v-2.3L617 2.2l-27 11.6v2.3Z"/>
      <path d="M635.7 14.1h-37.3l-.4-1.9L617.1 4l19.1 8.2-.4 1.9Zm-32.5-2h27.6L617 6.2l-13.8 5.9ZM590 18.1h-14v-6h14v6Zm-12-2h10v-2h-10v2ZM658 18.1h-14v-6h14v6Zm-12-2h10v-2h-10v2ZM634 30.1h-34v-10h34v10Zm-32-2h30v-6h-30v6ZM706 134.1H0v-6h706v6Zm-704-2h702v-2H2v2Z"/>
      <path d="M700 129.1h2v4h-2zM696 129.1h2v4h-2zM692 129.1h2v4h-2zM688 129.1h2v4h-2zM684 129.1h2v4h-2zM680 129.1h2v4h-2zM676 129.1h2v4h-2zM672 129.1h2v4h-2zM668 129.1h2v4h-2zM664 129.1h2v4h-2zM660 129.1h2v4h-2zM656 129.1h2v4h-2zM652 129.1h2v4h-2zM648 129.1h2v4h-2zM644 129.1h2v4h-2zM640 129.1h2v4h-2zM636 129.1h2v4h-2zM632 129.1h2v4h-2zM628 129.1h2v4h-2zM624 129.1h2v4h-2zM620 129.1h2v4h-2zM616 129.1h2v4h-2zM612 129.1h2v4h-2zM608 129.1h2v4h-2zM604 129.1h2v4h-2zM600 129.1h2v4h-2zM596 129.1h2v4h-2zM592 129.1h2v4h-2zM588 129.1h2v4h-2zM584 129.1h2v4h-2zM580 129.1h2v4h-2zM576 129.1h2v4h-2zM572 129.1h2v4h-2zM568 129.1h2v4h-2zM564 129.1h2v4h-2zM560 129.1h2v4h-2zM556 129.1h2v4h-2zM552 129.1h2v4h-2zM548 129.1h2v4h-2zM544 129.1h2v4h-2zM540 129.1h2v4h-2zM536 129.1h2v4h-2zM532 129.1h2v4h-2zM528 129.1h2v4h-2zM524 129.1h2v4h-2zM520 129.1h2v4h-2zM516 129.1h2v4h-2zM512 129.1h2v4h-2zM508 129.1h2v4h-2zM504 129.1h2v4h-2zM500 129.1h2v4h-2zM496 129.1h2v4h-2zM492 129.1h2v4h-2zM488 129.1h2v4h-2zM484 129.1h2v4h-2zM480 129.1h2v4h-2zM476 129.1h2v4h-2zM472 129.1h2v4h-2zM468 129.1h2v4h-2zM464 129.1h2v4h-2zM460 129.1h2v4h-2zM456 129.1h2v4h-2zM452 129.1h2v4h-2zM448 129.1h2v4h-2zM444 129.1h2v4h-2zM440 129.1h2v4h-2zM436 129.1h2v4h-2zM432 129.1h2v4h-2zM428 129.1h2v4h-2zM424 129.1h2v4h-2zM420 129.1h2v4h-2zM416 129.1h2v4h-2zM412 129.1h2v4h-2zM408 129.1h2v4h-2zM404 129.1h2v4h-2zM400 129.1h2v4h-2zM396 129.1h2v4h-2zM392 129.1h2v4h-2zM388 129.1h2v4h-2zM384 129.1h2v4h-2zM380 129.1h2v4h-2zM376 129.1h2v4h-2zM372 129.1h2v4h-2zM368 129.1h2v4h-2zM364 129.1h2v4h-2zM360 129.1h2v4h-2zM356 129.1h2v4h-2zM352 129.1h2v4h-2zM348 129.1h2v4h-2zM344 129.1h2v4h-2zM340 129.1h2v4h-2zM336 129.1h2v4h-2zM332 129.1h2v4h-2zM328 129.1h2v4h-2zM324 129.1h2v4h-2zM320 129.1h2v4h-2zM316 129.1h2v4h-2zM312 129.1h2v4h-2zM308 129.1h2v4h-2zM304 129.1h2v4h-2zM300 129.1h2v4h-2zM296 129.1h2v4h-2zM292 129.1h2v4h-2zM288 129.1h2v4h-2zM284 129.1h2v4h-2zM280 129.1h2v4h-2zM276 129.1h2v4h-2zM272 129.1h2v4h-2zM268 129.1h2v4h-2zM264 129.1h2v4h-2zM260 129.1h2v4h-2zM256 129.1h2v4h-2zM252 129.1h2v4h-2zM248 129.1h2v4h-2zM244 129.1h2v4h-2zM240 129.1h2v4h-2zM236 129.1h2v4h-2zM232 129.1h2v4h-2zM228 129.1h2v4h-2zM224 129.1h2v4h-2zM220 129.1h2v4h-2zM216 129.1h2v4h-2zM212 129.1h2v4h-2zM208 129.1h2v4h-2zM204 129.1h2v4h-2zM200 129.1h2v4h-2zM196 129.1h2v4h-2zM192 129.1h2v4h-2zM188 129.1h2v4h-2zM184 129.1h2v4h-2zM180 129.1h2v4h-2zM176 129.1h2v4h-2zM172 129.1h2v4h-2zM168 129.1h2v4h-2zM164 129.1h2v4h-2zM160 129.1h2v4h-2zM156 129.1h2v4h-2zM152 129.1h2v4h-2zM148 129.1h2v4h-2zM144 129.1h2v4h-2zM140 129.1h2v4h-2zM136 129.1h2v4h-2zM132 129.1h2v4h-2zM128 129.1h2v4h-2zM124 129.1h2v4h-2zM120 129.1h2v4h-2zM116 129.1h2v4h-2zM112 129.1h2v4h-2zM108 129.1h2v4h-2zM104 129.1h2v4h-2zM100 129.1h2v4h-2zM96 129.1h2v4h-2zM92 129.1h2v4h-2zM88 129.1h2v4h-2zM84 129.1h2v4h-2zM80 129.1h2v4h-2zM76 129.1h2v4h-2zM72 129.1h2v4h-2zM68 129.1h2v4h-2zM64 129.1h2v4h-2zM60 129.1h2v4h-2zM56 129.1h2v4h-2zM52 129.1h2v4h-2zM48 129.1h2v4h-2zM44 129.1h2v4h-2zM40 129.1h2v4h-2zM36 129.1h2v4h-2zM32 129.1h2v4h-2zM28 129.1h2v4h-2zM24 129.1h2v4h-2zM20 129.1h2v4h-2zM16 129.1h2v4h-2zM12 129.1h2v4h-2zM8 129.1h2v4H8zM4 129.1h2v4H4zM12 116.1h2v10h-2zM32 100.1h2v26h-2zM52 116.1h2v10h-2zM72 100.1h2v26h-2zM92 116.1h2v10h-2zM112 100.1h2v26h-2zM132 116.1h2v10h-2zM152 100.1h2v26h-2zM172 116.1h2v10h-2zM192 100.1h2v26h-2zM212 116.1h2v10h-2zM232 100.1h2v26h-2zM252 116.1h2v10h-2zM272 100.1h2v26h-2zM292 116.1h2v10h-2zM312 100.1h2v26h-2zM332 116.1h2v10h-2zM352 100.1h2v26h-2zM372 116.1h2v10h-2zM392 100.1h2v26h-2zM412 116.1h2v10h-2zM432 100.1h2v26h-2zM452 116.1h2v10h-2zM472 100.1h2v26h-2zM492 116.1h2v10h-2zM512 100.1h2v26h-2zM532 116.1h2v10h-2zM552 100.1h2v26h-2zM572 116.1h2v10h-2zM592 100.1h2v26h-2zM612 116.1h2v10h-2zM632 100.1h2v26h-2zM652 116.1h2v10h-2zM672 100.1h2v26h-2zM692 116.1h2v10h-2zM9 96.1h688v2H9zM9 88.1h40v2H9zM9 80.1h40v2H9zM9 72.1h40v2H9zM9 64.1h40v2H9zM9 56.1h40v2H9zM9 48.1h40v2H9zM9 40.1h40v2H9zM9 32.1h40v2H9zM9 24.1h40v2H9zM9 16.1h40v2H9zM129 88.1h96v2h-96zM129 80.1h96v2h-96zM129 72.1h96v2h-96zM129 64.1h96v2h-96zM129 56.1h96v2h-96zM129 48.1h96v2h-96zM129 40.1h96v2h-96zM129 32.1h96v2h-96zM129 24.1h96v2h-96zM129 16.1h96v2h-96zM305 88.1h96v2h-96zM305 80.1h96v2h-96zM305 72.1h96v2h-96zM305 64.1h96v2h-96zM305 56.1h96v2h-96zM305 48.1h96v2h-96zM305 40.1h96v2h-96zM305 32.1h96v2h-96zM305 24.1h96v2h-96zM305 16.1h96v2h-96zM481 88.1h96v2h-96zM481 80.1h96v2h-96zM481 72.1h96v2h-96zM481 64.1h96v2h-96zM481 56.1h96v2h-96zM481 48.1h96v2h-96zM481 40.1h96v2h-96zM481 32.1h96v2h-96zM481 24.1h96v2h-96zM481 16.1h96v2h-96zM657 88.1h40v2h-40zM657 80.1h40v2h-40zM657 72.1h40v2h-40zM657 64.1h40v2h-40zM657 56.1h40v2h-40zM657 48.1h40v2h-40zM657 40.1h40v2h-40zM657 32.1h40v2h-40zM657 24.1h40v2h-40zM657 16.1h40v2h-40zM8 8.1h62v2H8zM636 8.1h62v2h-62zM460 8.1h138v2H460zM284 8.1h138v2H284zM108 8.1h138v2H108z"/>
      <path d="M10 98.1H0v-90h10v90Zm-8-2h6v-86H2v86ZM706 98.1h-10v-90h10v90Zm-8-2h6v-86h-6v86ZM136 89.1h2v8h-2zM152 89.1h2v8h-2zM144 81.1h2v8h-2zM136 73.1h2v8h-2zM152 73.1h2v8h-2zM144 65.1h2v8h-2zM136 57.1h2v8h-2zM152 57.1h2v8h-2zM144 49.1h2v8h-2zM136 41.1h2v8h-2zM152 41.1h2v8h-2zM144 33.1h2v8h-2zM136 25.1h2v8h-2zM152 25.1h2v8h-2zM144 17.1h2v8h-2zM160 81.1h2v8h-2zM160 65.1h2v8h-2zM160 49.1h2v8h-2zM160 33.1h2v8h-2zM160 17.1h2v8h-2zM176 81.1h2v8h-2zM176 65.1h2v8h-2zM176 49.1h2v8h-2zM176 33.1h2v8h-2zM176 17.1h2v8h-2zM192 81.1h2v8h-2zM192 65.1h2v8h-2zM192 49.1h2v8h-2zM192 33.1h2v8h-2zM192 17.1h2v8h-2zM208 81.1h2v8h-2zM208 65.1h2v8h-2zM208 49.1h2v8h-2zM208 33.1h2v8h-2zM208 17.1h2v8h-2zM136 9.1h2v8h-2zM152 9.1h2v8h-2zM168 89.1h2v8h-2zM168 73.1h2v8h-2zM168 57.1h2v8h-2zM168 41.1h2v8h-2zM168 25.1h2v8h-2zM168 9.1h2v8h-2zM184 89.1h2v8h-2zM184 73.1h2v8h-2zM184 57.1h2v8h-2zM184 41.1h2v8h-2zM184 25.1h2v8h-2zM184 9.1h2v8h-2zM200 89.1h2v8h-2zM200 73.1h2v8h-2zM200 57.1h2v8h-2zM200 41.1h2v8h-2zM200 25.1h2v8h-2zM200 9.1h2v8h-2zM216 89.1h2v8h-2zM216 73.1h2v8h-2zM216 57.1h2v8h-2zM216 41.1h2v8h-2zM216 25.1h2v8h-2zM216 9.1h2v8h-2zM312 89.1h2v8h-2zM328 89.1h2v8h-2zM320 81.1h2v8h-2zM312 73.1h2v8h-2zM328 73.1h2v8h-2zM320 65.1h2v8h-2zM312 57.1h2v8h-2zM328 57.1h2v8h-2zM320 49.1h2v8h-2zM312 41.1h2v8h-2zM328 41.1h2v8h-2zM320 33.1h2v8h-2zM312 25.1h2v8h-2zM328 25.1h2v8h-2zM320 17.1h2v8h-2zM336 81.1h2v8h-2zM336 65.1h2v8h-2zM336 49.1h2v8h-2zM336 33.1h2v8h-2zM336 17.1h2v8h-2zM352 81.1h2v8h-2zM352 65.1h2v8h-2zM352 49.1h2v8h-2zM352 33.1h2v8h-2zM352 17.1h2v8h-2zM368 81.1h2v8h-2zM368 65.1h2v8h-2zM368 49.1h2v8h-2zM368 33.1h2v8h-2zM368 17.1h2v8h-2zM384 81.1h2v8h-2zM384 65.1h2v8h-2zM384 49.1h2v8h-2zM384 33.1h2v8h-2zM384 17.1h2v8h-2zM312 9.1h2v8h-2zM328 9.1h2v8h-2zM344 89.1h2v8h-2zM344 73.1h2v8h-2zM344 57.1h2v8h-2zM344 41.1h2v8h-2zM344 25.1h2v8h-2zM344 9.1h2v8h-2zM360 89.1h2v8h-2zM360 73.1h2v8h-2zM360 57.1h2v8h-2zM360 41.1h2v8h-2zM360 25.1h2v8h-2zM360 9.1h2v8h-2zM376 89.1h2v8h-2zM376 73.1h2v8h-2zM376 57.1h2v8h-2zM376 41.1h2v8h-2zM376 25.1h2v8h-2zM376 9.1h2v8h-2zM392 89.1h2v8h-2zM392 73.1h2v8h-2zM392 57.1h2v8h-2zM392 41.1h2v8h-2zM392 25.1h2v8h-2zM392 9.1h2v8h-2zM488 89.1h2v8h-2zM504 89.1h2v8h-2zM496 81.1h2v8h-2zM488 73.1h2v8h-2zM504 73.1h2v8h-2zM496 65.1h2v8h-2zM488 57.1h2v8h-2zM504 57.1h2v8h-2zM496 49.1h2v8h-2zM488 41.1h2v8h-2zM504 41.1h2v8h-2zM496 33.1h2v8h-2zM488 25.1h2v8h-2zM504 25.1h2v8h-2zM496 17.1h2v8h-2zM512 81.1h2v8h-2zM512 65.1h2v8h-2zM512 49.1h2v8h-2zM512 33.1h2v8h-2zM512 17.1h2v8h-2zM528 81.1h2v8h-2zM528 65.1h2v8h-2zM528 49.1h2v8h-2zM528 33.1h2v8h-2zM528 17.1h2v8h-2zM544 81.1h2v8h-2zM544 65.1h2v8h-2zM544 49.1h2v8h-2zM544 33.1h2v8h-2zM544 17.1h2v8h-2zM560 81.1h2v8h-2zM560 65.1h2v8h-2zM560 49.1h2v8h-2zM560 33.1h2v8h-2zM560 17.1h2v8h-2zM488 9.1h2v8h-2zM504 9.1h2v8h-2zM520 89.1h2v8h-2zM520 73.1h2v8h-2zM520 57.1h2v8h-2zM520 41.1h2v8h-2zM520 25.1h2v8h-2zM520 9.1h2v8h-2zM536 89.1h2v8h-2zM536 73.1h2v8h-2zM536 57.1h2v8h-2zM536 41.1h2v8h-2zM536 25.1h2v8h-2zM536 9.1h2v8h-2zM552 89.1h2v8h-2zM552 73.1h2v8h-2zM552 57.1h2v8h-2zM552 41.1h2v8h-2zM552 25.1h2v8h-2zM552 9.1h2v8h-2zM568 89.1h2v8h-2zM568 73.1h2v8h-2zM568 57.1h2v8h-2zM568 41.1h2v8h-2zM568 25.1h2v8h-2zM568 9.1h2v8h-2zM664 89.1h2v8h-2zM680 89.1h2v8h-2zM672 81.1h2v8h-2zM664 73.1h2v8h-2zM680 73.1h2v8h-2zM672 65.1h2v8h-2zM664 57.1h2v8h-2zM680 57.1h2v8h-2zM672 49.1h2v8h-2zM664 41.1h2v8h-2zM680 41.1h2v8h-2zM672 33.1h2v8h-2zM664 25.1h2v8h-2zM680 25.1h2v8h-2zM672 17.1h2v8h-2zM688 81.1h2v8h-2zM688 65.1h2v8h-2zM688 49.1h2v8h-2zM688 33.1h2v8h-2zM688 17.1h2v8h-2zM664 9.1h2v8h-2zM680 9.1h2v8h-2zM40 89.1h2v8h-2zM24 89.1h2v8h-2zM32 81.1h2v8h-2zM40 73.1h2v8h-2zM24 73.1h2v8h-2zM32 65.1h2v8h-2zM40 57.1h2v8h-2zM24 57.1h2v8h-2zM32 49.1h2v8h-2zM40 41.1h2v8h-2zM24 41.1h2v8h-2zM32 33.1h2v8h-2zM40 25.1h2v8h-2zM24 25.1h2v8h-2zM32 17.1h2v8h-2zM16 81.1h2v8h-2zM16 65.1h2v8h-2zM16 49.1h2v8h-2zM16 33.1h2v8h-2zM16 17.1h2v8h-2zM40 9.1h2v8h-2zM24 9.1h2v8h-2z"/>
    </g>
    <g id="second-floor">
      <path d="M706 246.1H0v-109h706v109Zm-704-2h702v-105H2v105Z"/>
      <path d="M634 238.1h-34v-26h34v26Zm-32-2h30v-22h-30v22ZM634 210.1h-34v-27.6l.6-.3c.2 0 4.4-2.1 16.4-2.1s16.3 2 16.4 2.1l.6.3v27.6Zm-32-2h30v-24.3c-1.4-.5-5.9-1.7-15-1.7s-13.6 1.2-15 1.7v24.3ZM622 178.1h-10v-8h10v8Zm-8-2h6v-4h-6v4Z"/>
      <path d="M638 242.1h-2v-61.3c-2.1-.7-9.2-2.7-19-2.7s-16.9 2-19 2.7v61.3h-2v-62.7l.6-.2c.3-.1 8.3-3.1 20.4-3.1s20 2.9 20.4 3.1l.6.2v62.7Z"/>
      <path d="M642 241.1h-2v-64.3c-2.5-1-12.2-4.7-23-4.7s-20.5 3.7-23 4.7v64.3h-2v-65.6l.6-.3c.5-.2 11.5-5.1 24.4-5.1s23.9 4.9 24.4 5.1l.6.3v65.6Z"/>
      <path d="M646 242.1h-58v-68.6l.5-.3c.4-.2 10.4-6 24.4-7h1.1v3.9h6v-3.9h1.1c14 1.1 24 6.8 24.4 7.1l.5.3v68.6Zm-56-2h54v-65.4c-2.1-1.1-10.7-5.3-22-6.4v3.8h-10v-3.8c-11.3 1-19.9 5.2-22 6.4v65.4Z"/>
      <path d="M622 172.1h-10v-12h10v12Zm-8-2h6v-8h-6v8ZM458 238.1h-34v-26h34v26Zm-32-2h30v-22h-30v22ZM458 210.1h-34v-27.6l.6-.3c.2 0 4.4-2.1 16.4-2.1s16.3 2 16.4 2.1l.6.3v27.6Zm-32-2h30v-24.3c-1.4-.5-5.9-1.7-15-1.7s-13.6 1.2-15 1.7v24.3ZM446 178.1h-10v-8h10v8Zm-8-2h6v-4h-6v4Z"/>
      <path d="M462 242.1h-2v-61.3c-2.1-.7-9.2-2.7-19-2.7s-16.9 2-19 2.7v61.3h-2v-62.7l.6-.2c.3-.1 8.3-3.1 20.4-3.1s20 2.9 20.4 3.1l.6.2v62.7Z"/>
      <path d="M466 241.1h-2v-64.3c-2.5-1-12.2-4.7-23-4.7s-20.5 3.7-23 4.7v64.3h-2v-65.6l.6-.3c.5-.2 11.5-5.1 24.4-5.1s23.9 4.9 24.4 5.1l.6.3v65.6Z"/>
      <path d="M470 242.1h-58v-68.6l.5-.3c.4-.2 10.4-6 24.4-7h1.1v3.9h6v-3.9h1.1c14 1.1 24 6.8 24.4 7.1l.5.3v68.6Zm-56-2h54v-65.4c-2.1-1.1-10.7-5.3-22-6.4v3.8h-10v-3.8c-11.3 1-19.9 5.2-22 6.4v65.4Z"/>
      <path d="M446 172.1h-10v-12h10v12Zm-8-2h6v-8h-6v8ZM282 238.1h-34v-26h34v26Zm-32-2h30v-22h-30v22ZM282 210.1h-34v-27.6l.6-.3c.2 0 4.4-2.1 16.4-2.1s16.3 2 16.4 2.1l.6.3v27.6Zm-32-2h30v-24.3c-1.4-.5-5.9-1.7-15-1.7s-13.6 1.2-15 1.7v24.3ZM270 178.1h-10v-8h10v8Zm-8-2h6v-4h-6v4Z"/>
      <path d="M286 242.1h-2v-61.3c-2.1-.7-9.3-2.7-19-2.7s-16.9 2-19 2.7v61.3h-2v-62.7l.6-.2c.3-.1 8.3-3.1 20.4-3.1s20 2.9 20.4 3.1l.6.2v62.7Z"/>
      <path d="M290 241.1h-2v-64.3c-2.5-1-12.2-4.7-23-4.7s-20.5 3.7-23 4.7v64.3h-2v-65.6l.6-.3c.5-.2 11.5-5.1 24.4-5.1s23.9 4.9 24.4 5.1l.6.3v65.6Z"/>
      <path d="M294 242.1h-58v-68.6l.5-.3c.4-.2 10.4-6 24.4-7h1.1v3.9h6v-3.9h1.1c14 1.1 24 6.8 24.4 7.1l.5.3v68.6Zm-56-2h54v-65.4c-2.1-1.1-10.7-5.3-22-6.4v3.8h-10v-3.8c-11.3 1-19.9 5.2-22 6.4v65.4Z"/>
      <path d="M270 172.1h-10v-12h10v12Zm-8-2h6v-8h-6v8ZM106 238.1H72v-26h34v26Zm-32-2h30v-22H74v22ZM106 210.1H72v-27.6l.6-.3c.2 0 4.4-2.1 16.4-2.1s16.3 2 16.4 2.1l.6.3v27.6Zm-32-2h30v-24.3c-1.4-.5-5.9-1.7-15-1.7s-13.6 1.2-15 1.7v24.3ZM94 178.1H84v-8h10v8Zm-8-2h6v-4h-6v4Z"/>
      <path d="M110 242.1h-2v-61.3c-2.1-.7-9.3-2.7-19-2.7s-16.9 2-19 2.7v61.3h-2v-62.7l.6-.2c.3-.1 8.3-3.1 20.4-3.1s20 2.9 20.4 3.1l.6.2v62.7Z"/>
      <path d="M114 241.1h-2v-64.3c-2.5-1-12.2-4.7-23-4.7s-20.5 3.7-23 4.7v64.3h-2v-65.6l.6-.3c.5-.2 11.5-5.1 24.4-5.1s23.9 4.9 24.4 5.1l.6.3v65.6Z"/>
      <path d="M118 242.1H60v-68.6l.5-.3c.4-.2 10.4-6 24.4-7H86v3.9h6v-3.9h1.1c14 1.1 24 6.8 24.4 7.1l.5.3v68.6Zm-56-2h54v-65.4c-2.1-1.1-10.7-5.3-22-6.4v3.8H84v-3.8c-11.3 1-19.9 5.2-22 6.4v65.4Z"/>
      <path d="M94 172.1H84v-12h10v12Zm-8-2h6v-8h-6v8ZM650 246.1h-66v-6h66v6Zm-64-2h62v-2h-62v2Z"/>
      <path d="M597 250.1h-8l-.7-.3-4-4 .7-1.7h16l.7 1.7-4 4-.7.3Zm-7.6-2h7.2l2-2h-11.2l2 2ZM645 250.1h-8l-.7-.3-4-4 .7-1.7h16l.7 1.7-4 4-.7.3Zm-7.6-2h7.2l2-2h-11.2l2 2ZM474 246.1h-66v-6h66v6Zm-64-2h62v-2h-62v2Z"/>
      <path d="M421 250.1h-8l-.7-.3-4-4 .7-1.7h16l.7 1.7-4 4-.7.3Zm-7.6-2h7.2l2-2h-11.2l2 2ZM469 250.1h-8l-.7-.3-4-4 .7-1.7h16l.7 1.7-4 4-.7.3Zm-7.6-2h7.2l2-2h-11.2l2 2ZM298 246.1h-66v-6h66v6Zm-64-2h62v-2h-62v2Z"/>
      <path d="M245 250.1h-8l-.7-.3-4-4 .7-1.7h16l.7 1.7-4 4-.7.3Zm-7.6-2h7.2l2-2h-11.2l2 2ZM293 250.1h-8l-.7-.3-4-4 .7-1.7h16l.7 1.7-4 4-.7.3Zm-7.6-2h7.2l2-2h-11.2l2 2ZM122 246.1H56v-6h66v6Zm-64-2h62v-2H58v2Z"/>
      <path d="M69 250.1h-8l-.7-.3-4-4 .7-1.7h16l.7 1.7-4 4-.7.3Zm-7.6-2h7.2l2-2H59.4l2 2ZM117 250.1h-8l-.7-.3-4-4 .7-1.7h16l.7 1.7-4 4-.7.3Zm-7.6-2h7.2l2-2h-11.2l2 2Z"/>
    </g>
  </g>
</svg>
