<svg id="b" xmlns="http://www.w3.org/2000/svg" viewBox="0 0 278 58">
    <defs>
        <style>.g{fill:#fff;}.h{fill:none;stroke:#fff;stroke-miterlimit:10;stroke-width:.94px;}</style>
    </defs>
    <g>
        <path class="g" d="m29.86,31.11l-1.66,7.04H.45v-5.1c.92-.78,2.84-2.29,5.76-4.54,3.62-2.84,6.32-5.04,8.11-6.59,1.79-1.55,3.24-3.09,4.35-4.62,1.11-1.53,1.66-3.05,1.66-4.57s-.53-2.86-1.58-3.82-2.37-1.44-3.96-1.44c-1.74,0-3.19.56-4.35,1.69-1.16,1.13-1.76,2.67-1.8,4.62H.34c0-2.62.64-4.94,1.91-6.95,1.27-2.01,3.03-3.57,5.26-4.68,2.23-1.11,4.75-1.66,7.56-1.66,2.55,0,4.85.47,6.9,1.41,2.05.94,3.66,2.26,4.85,3.96,1.18,1.7,1.77,3.62,1.77,5.76,0,3.21-1.26,6.32-3.77,9.33-2.51,3.01-6.2,6.4-11.08,10.16h16.12,0Z"/>
        <path class="g" d="m39.84,36.02c-2.99-1.68-5.36-3.98-7.12-6.9s-2.63-6.11-2.63-9.58.88-6.67,2.63-9.58c1.75-2.92,4.14-5.22,7.14-6.92,3.01-1.7,6.3-2.55,9.89-2.55s6.89.85,9.92,2.55c3.03,1.7,5.42,4.01,7.17,6.92,1.75,2.92,2.63,6.11,2.63,9.58s-.88,6.67-2.63,9.58-4.14,5.22-7.14,6.9-6.32,2.52-9.94,2.52-6.92-.84-9.91-2.52h0Zm15.67-6.01c1.74-1.07,3.11-2.53,4.13-4.38,1.02-1.85,1.52-3.88,1.52-6.09s-.51-4.25-1.52-6.09c-1.02-1.85-2.39-3.3-4.13-4.38-1.74-1.07-3.66-1.61-5.76-1.61s-4.03.53-5.76,1.61-3.1,2.53-4.1,4.38c-1,1.85-1.5,3.88-1.5,6.09s.5,4.25,1.5,6.09c1,1.85,2.36,3.31,4.1,4.38,1.74,1.07,3.66,1.61,5.76,1.61s4.03-.53,5.76-1.61Z"/>
        <path class="g" d="m5.05,51.83L0,43.44h3.37l3.24,5.62h.08l3.22-5.62h3.37l-5.07,8.39v5.74h-3.16v-5.74h0Zm10.56-8.39h10.18l-.61,2.57h-6.44v3.22h6.01l-.61,2.57h-5.41v3.18h7.22l-.61,2.61h-9.74v-14.13h0Zm22.04,11.02h-6l-1.2,3.11h-3.37l5.97-14.13h3.18l5.97,14.13h-3.37l-1.2-3.11h0Zm-.95-2.5l-2-5.2h-.11l-2,5.2h4.1Zm13.23.74h-2.44v4.88h-3.18v-14.13h6.12c1.14,0,2.12.19,2.97.57s1.49.9,1.95,1.58c.46.67.68,1.44.68,2.31,0,.94-.27,1.8-.82,2.6-.55.79-1.3,1.38-2.27,1.76l3.43,5.32h-3.43l-3.01-4.88h0Zm-2.44-2.52h3.03c.74,0,1.34-.19,1.79-.57.45-.38.67-.85.67-1.43s-.22-1.07-.67-1.45c-.45-.38-1.04-.57-1.79-.57h-3.03v4.02Zm13.77,6.91c-1.03-.44-1.95-1.07-2.75-1.88l1.66-2.19c.63.63,1.33,1.12,2.08,1.47s1.47.53,2.15.53c.53,0,.97-.12,1.31-.37s.52-.57.52-.98c0-.32-.11-.6-.34-.83-.22-.23-.5-.43-.84-.59s-.81-.36-1.43-.6l-1.07-.42c-1.11-.45-1.96-.97-2.56-1.57-.6-.6-.89-1.37-.89-2.32,0-.77.21-1.47.63-2.08s.99-1.1,1.71-1.44c.72-.34,1.53-.52,2.43-.52s1.86.19,2.78.57c.91.38,1.68.9,2.29,1.58l-1.51,2.1c-.6-.52-1.21-.92-1.83-1.21-.62-.29-1.19-.43-1.72-.43-.46,0-.85.12-1.16.36-.31.24-.46.55-.46.93,0,.41.17.73.52.96s.91.5,1.69.81c.13.04.24.08.35.13s.21.08.31.13c.98.39,1.77.78,2.38,1.15.6.37,1.07.81,1.39,1.33s.48,1.13.48,1.86c0,.87-.22,1.62-.66,2.26-.44.64-1.04,1.12-1.81,1.45-.76.33-1.61.49-2.53.49-1.04,0-2.07-.22-3.1-.66h0Z"/>
        <path class="g" d="m142.79,13.34c0-7.37-6.21-13.34-13.88-13.34s-13.88,5.97-13.88,13.34,6.21,13.34,13.88,13.34,13.88-5.97,13.88-13.34Zm-5.87,0c0,4.37-3.36,8.01-7.97,8.01-4.39.05-7.99-3.47-8.04-7.86v-.15c0-4.37,3.36-8.01,7.97-8.01,4.39-.05,7.99,3.47,8.04,7.86v.15Z"/>
        <polygon class="g" points="122.86 47.15 110.76 31.85 106.49 31.85 106.49 57.47 112.19 57.47 112.19 42.17 124.28 57.47 128.55 57.47 128.55 31.85 122.86 31.85 122.86 47.15"/>
        <rect class="g" x="178.34" y="31.85" width="5.69" height="25.62"/>
        <rect class="g" x="95.11" y="31.85" width="5.69" height="25.62"/>
        <path class="g" d="m227.47,47.5c0,3.51-2.17,5.16-4.98,5.16s-4.98-1.65-4.98-5.16v-15.66h-5.69v16.01c0,6.27,4.41,10.14,10.67,10.14s10.67-3.87,10.67-10.14v-16.01h-5.69v15.66Z"/>
        <polygon class="g" points="198.35 11.51 191.89 .53 185.52 .53 195.47 17.07 195.47 26.15 201.16 26.15 201.16 16.96 211.11 .53 204.64 .53 198.35 11.51"/>
        <path class="g" d="m144.46,42.21c-3.02-.86-5.23-1.49-5.23-3.38,0-1.46,1.35-2.54,3.43-2.54s4.2,1.05,7.21,2.53l1.1-5.17c-2.21-1.53-5.78-2.33-8.43-2.33-5.16,0-9,3.02-9,7.7s4.07,6.66,8.32,7.85c3.03.86,5.2,1.63,5.2,3.44,0,1.51-1.53,2.7-4.02,2.7-2.76,0-5.39-1.39-8.38-3.24l-1.12,5.27c2.6,1.99,6.12,2.95,9.48,2.95,5.82,0,9.73-2.88,9.73-7.88s-3.68-6.59-8.29-7.91h0Z"/>
        <polygon class="g" points="177.83 .53 172.4 17.61 166.63 .53 161.64 .53 155.91 17.61 150.44 .53 144.39 .53 153.29 26.15 158.27 26.15 164.14 9.07 169.9 26.15 174.88 26.15 183.88 .53 177.83 .53"/>
        <polygon class="g" points="100.8 20.82 100.8 .53 95.11 .53 95.11 26.15 111.8 26.15 112.94 20.82 100.8 20.82"/>
        <polygon class="g" points="173.45 37.18 174.58 31.85 154.17 31.85 154.17 37.18 161.29 37.18 161.29 57.47 166.98 57.47 166.98 37.18 173.45 37.18"/>
        <polygon class="g" points="207.61 37.18 208.74 31.85 188.33 31.85 188.33 37.18 195.45 37.18 195.45 57.47 201.14 57.47 201.14 37.18 207.61 37.18"/>
        <polygon class="g" points="256 37.18 257.14 31.85 236.73 31.85 236.73 37.18 243.84 37.18 243.84 57.47 249.54 57.47 249.54 37.18 256 37.18"/>
        <polygon class="g" points="265.9 52.31 265.9 47.15 275.28 47.15 276.34 42.17 265.9 42.17 265.9 37.18 276.87 37.18 278 31.85 260.21 31.85 260.21 57.47 276.9 57.47 278 52.31 265.9 52.31"/>
        <line class="h" x1="82.35" y1=".42" x2="82.35" y2="57.52"/>
    </g>
</svg>